<?xml version="1.0" standalone="no"?>
<!DOCTYPE svg PUBLIC "-//W3C//DTD SVG 1.1//EN" "http://www.w3.org/Graphics/SVG/1.1/DTD/svg11.dtd" >
<svg xmlns="http://www.w3.org/2000/svg" xmlns:xlink="http://www.w3.org/1999/xlink" version="1.1">
<metadata>
Created by FontForge 20170731 at Fri Sep  7 16:54:18 2018
 By Aleksey,,,
Copyright (c) 2018, Cadson Demak (info@cadsondemak.com)
</metadata>
<defs>
<font id="Niramit-ExtraLight" horiz-adv-x="0" >
  <font-face 
    font-family="Niramit ExtraLight"
    font-weight="200"
    font-stretch="normal"
    units-per-em="1000"
    panose-1="0 0 3 0 0 0 0 0 0 0"
    ascent="800"
    descent="-200"
    x-height="485"
    cap-height="700"
    bbox="-634 -451 1104 1183"
    underline-thickness="50"
    underline-position="-150"
    unicode-range="U+000D-FB02"
  />
<missing-glyph horiz-adv-x="620" 
d="M90 747h440v-747h-440v747zM480 52v643h-340v-643h340z" />
    <glyph glyph-name="fi" unicode="fi" horiz-adv-x="526" 
d="M429 0h-52v439h-200v-439h-52v439h-80l12 46h68v107q0 68 41.5 106t114.5 38q59 0 120 -21l-11 -44q-42 18 -104 18q-59 0 -84 -24t-25 -73v-107h252v-485z" />
    <glyph glyph-name="fl" unicode="fl" horiz-adv-x="509" 
d="M429 734v-734h-52v439h-200v-439h-52v439h-80l12 46h68v107q0 68 41.5 106t114.5 38q50 0 96 -13v11h52zM377 485v191q-39 13 -91 13q-59 0 -84 -24t-25 -73v-107h200z" />
    <glyph glyph-name="uni0E240E45" unicode="&#xe24;&#xe45;" horiz-adv-x="1005" 
d="M487 419q0 30 8 43q-30 46 -73 71t-109 25q-77 0 -130.5 -35t-71.5 -84l57 -37q10 12 28 25t36 19l22 -38q-37 -17 -53.5 -42t-16.5 -63v-147q21 13 45 13q42 0 66.5 -24.5t24.5 -64.5q0 -39 -27 -64.5t-68 -25.5q-40 0 -66.5 26.5t-26.5 66.5v221q0 35 13 55l-90 60
q8 48 43.5 90.5t91 68t122.5 25.5q74 0 121 -24t88 -72q72 96 185 96q126 0 188 -85q5 7 13 7q9 0 21 -11t12 -22q0 -9 -12 -19q-10 -10 -15 -18.5t-5 -24.5v-789h-52v789q0 30 10 46q-26 39 -66.5 60.5t-92.5 21.5q-49 0 -87.5 -20.5t-59.5 -54.5t-21 -72v-770h-52v778z
M260 46.5q14 13.5 14 33.5q0 21 -14 34t-35 13q-20 0 -33.5 -13t-13.5 -34q0 -20 13.5 -33.5t33.5 -13.5q21 0 35 13.5z" />
    <glyph glyph-name="uni0E260E45" unicode="&#xe26;&#xe45;" horiz-adv-x="1024" 
d="M505 419q0 30 8 43q-30 45 -73.5 70.5t-108.5 25.5q-48 0 -89.5 -16.5t-70.5 -43.5t-40 -57l75 -44q10 13 29 27.5t34 17.5l22 -39q-38 -17 -51.5 -43t-13.5 -66v-176q7 -17 7 -38q0 -37 -26 -63.5t-67 -26.5t-68 26t-27 63q0 39 27.5 64.5t66.5 25.5q17 0 35 -8v134
q0 47 8 60l-109 64q11 50 47 92t91 67t119 25q74 0 121 -24t88 -72q72 96 186 96q61 0 105.5 -22t81.5 -66q5 9 14 9q10 0 21 -10q12 -11 12 -22q0 -9 -12 -19q-10 -10 -15 -18.5t-5 -24.5v-789h-52v789q0 30 10 46q-26 39 -66.5 60.5t-92.5 21.5q-49 0 -87.5 -20.5
t-60 -54.5t-21.5 -72v-770h-52v778zM173.5 46.5q13.5 13.5 13.5 33.5q0 21 -13.5 34t-33.5 13q-21 0 -35 -13t-14 -34q0 -20 14 -33.5t35 -13.5q20 0 33.5 13.5z" />
    <glyph glyph-name=".notdef" horiz-adv-x="620" 
d="M90 747h440v-747h-440v747zM480 52v643h-340v-643h340z" />
    <glyph glyph-name=".null" horiz-adv-x="497" 
 />
    <glyph glyph-name="nonmarkingreturn" unicode="&#xd;" horiz-adv-x="258" 
 />
    <glyph glyph-name="space" unicode=" " horiz-adv-x="258" 
 />
    <glyph glyph-name="exclam" unicode="!" horiz-adv-x="250" 
d="M97 700h54l-8 -513h-37zM93 13q-13 13 -13 32t13 32t32 13t32 -13t13 -32t-13 -32t-32 -13t-32 13z" />
    <glyph glyph-name="quotedbl" unicode="&#x22;" horiz-adv-x="264" 
d="M55 693h54l-6 -190h-40zM155 693h54l-6 -190h-40z" />
    <glyph glyph-name="numbersign" unicode="#" horiz-adv-x="671" 
d="M508 441l-24 -195h106v-46h-112l-24 -200h-51l24 200h-208l-24 -200h-51l24 200h-113v46h119l24 195h-118v46h123l25 203h51l-25 -203h208l25 203h51l-25 -203h103v-46h-108zM457 441h-208l-24 -195h208z" />
    <glyph glyph-name="dollar" unicode="$" horiz-adv-x="568" 
d="M461 40q-52 -46 -148 -50v-88h-50v90q-66 6 -119 31t-89 61l36 38q73 -70 172 -82v287q-98 36 -144 81.5t-46 119.5q0 80 48.5 128.5t141.5 52.5v90h50v-90q97 -8 170 -62l-30 -42q-62 47 -140 55v-294q71 -25 114 -52t64.5 -64t21.5 -91q0 -73 -52 -119zM161 443.5
q32 -31.5 102 -58.5v275q-134 -8 -134 -131q0 -54 32 -85.5zM420 73q37 32 37 86q0 39 -13 63.5t-43 44t-88 41.5v-270q70 3 107 35z" />
    <glyph glyph-name="percent" unicode="%" horiz-adv-x="716" 
d="M92.5 414.5q-37.5 48.5 -37.5 123.5q0 74 38 123t101 49t101 -49t38 -123q0 -75 -37.5 -123.5t-101.5 -48.5t-101.5 48.5zM502 710h52l-344 -720h-52zM262.5 446.5q21.5 36.5 21.5 91.5q0 53 -21.5 90t-68.5 37t-68.5 -37t-21.5 -90q0 -55 21.5 -91.5t68.5 -36.5
t68.5 36.5zM420.5 38.5q-37.5 48.5 -37.5 123.5q0 74 38 123t101 49t101 -49t38 -123q0 -75 -37.5 -123.5t-101.5 -48.5t-101.5 48.5zM590.5 70.5q21.5 36.5 21.5 91.5q0 53 -21.5 90t-68.5 37t-68.5 -37t-21.5 -90q0 -55 21.5 -91.5t68.5 -36.5t68.5 36.5z" />
    <glyph glyph-name="ampersand" unicode="&#x26;" horiz-adv-x="685" 
d="M158 15q-50 25 -76.5 69.5t-26.5 100.5q0 71 43 130t119 103q-43 43 -62.5 76.5t-19.5 82.5q0 61 36.5 97t101.5 36q64 0 100.5 -36.5t36.5 -97.5q0 -55 -28 -91t-87 -76l189 -227q29 53 29 139h56q0 -97 -50 -185l111 -136h-66l-75 94q-37 -51 -89.5 -77.5t-125.5 -26.5
q-66 0 -116 25zM354 576q0 38 -21.5 61.5t-59.5 23.5q-39 0 -60.5 -23.5t-21.5 -61.5q0 -36 17.5 -65.5t54.5 -63.5q91 50 91 129zM380.5 64.5q46.5 25.5 74.5 72.5l-203 244q-69 -38 -105 -84t-36 -112q0 -67 44 -106.5t119 -39.5q60 0 106.5 25.5z" />
    <glyph glyph-name="quotesingle" unicode="'" horiz-adv-x="164" 
d="M55 693h54l-6 -190h-40z" />
    <glyph glyph-name="parenleft" unicode="(" horiz-adv-x="299" 
d="M90 81q-35 104 -35 222q0 112 35 217.5t102 209.5h49q-64 -102 -97 -208t-33 -222q0 -230 133 -418h-52q-67 95 -102 199z" />
    <glyph glyph-name="parenright" unicode=")" horiz-adv-x="299" 
d="M188 300q0 116 -33 222t-97 208h49q67 -104 102 -209.5t35 -217.5q0 -118 -35 -222t-102 -199h-52q133 188 133 418z" />
    <glyph glyph-name="asterisk" unicode="*" horiz-adv-x="419" 
d="M185 374q-7 9 -5 22l19 123l-102 -77q-9 -6 -17 -6q-14 0 -22 15q-3 8 -3 13q0 17 18 24l120 49l-120 49q-18 7 -18 24q0 6 3 13q8 15 22 15q10 0 17 -6l102 -77l-19 123q-2 13 5.5 22t20.5 9t21 -9t6 -22l-13 -123l102 77q8 6 17 6q15 0 22 -15q3 -7 3 -13
q0 -17 -18 -24l-120 -49l120 -49q18 -7 18 -24q0 -5 -3 -13q-7 -15 -22 -15q-8 0 -17 6l-102 77l13 -123q2 -13 -6 -22t-21 -9q-14 0 -21 9z" />
    <glyph glyph-name="plus" unicode="+" horiz-adv-x="500" 
d="M476 262h-199v-203h-54v203h-199v46h199v203h54v-203h199v-46z" />
    <glyph glyph-name="comma" unicode="," horiz-adv-x="217" 
d="M55 -74q29 14 46 34t20 41q-5 -2 -15 -2q-18 0 -31 12t-13 32q0 23 13.5 37.5t35.5 14.5q25 0 38 -16.5t13 -44.5q0 -42 -24.5 -77t-67.5 -56z" />
    <glyph glyph-name="hyphen" unicode="-" horiz-adv-x="482" 
d="M55 308h372v-46h-372v46z" />
    <glyph glyph-name="period" unicode="." horiz-adv-x="198" 
d="M68 13q-13 13 -13 31t13 31t32 13q17 0 30 -13t13 -31t-13 -31t-30 -13q-19 0 -32 13z" />
    <glyph glyph-name="slash" unicode="/" horiz-adv-x="436" 
d="M329 710h52l-274 -720h-52z" />
    <glyph glyph-name="zero" unicode="0" horiz-adv-x="604" 
d="M168 33q-57 43 -87.5 124.5t-30.5 194.5q0 112 30.5 192.5t87.5 123t134 42.5t134 -42.5t87.5 -123t30.5 -192.5q0 -113 -30.5 -194.5t-87.5 -124.5t-134 -43t-134 43zM406 76q44 37 68 107.5t24 168.5q0 97 -24 166.5t-68.5 106t-103.5 36.5t-103.5 -36.5t-68.5 -106
t-24 -166.5q0 -98 24 -168.5t68 -107.5t104 -37t104 37z" />
    <glyph glyph-name="one" unicode="1" horiz-adv-x="347" 
d="M198 605l-118 -97l-35 38l185 154q11 10 23 10q10 0 19 -9q10 -12 10 -20q0 -7 -9 -15l-21 -18v-649h-54v606z" />
    <glyph glyph-name="two" unicode="2" horiz-adv-x="589" 
d="M61 2.5q-6 2.5 -6 11.5q0 6 1 10q3 15 9 18.5t26 3.5q21 43 60.5 81t107.5 93q67 54 106.5 92t67 85t27.5 101q0 78 -40 120.5t-119 42.5q-86 0 -128.5 -48t-52.5 -136l-52 5q10 112 73 170t161 58t156 -56.5t58 -155.5q0 -61 -29.5 -114t-72 -94.5t-111.5 -99.5
q-61 -51 -92.5 -81.5t-51.5 -62.5h302l25 54l48 -16l-40 -84h-409q-18 0 -24 2.5z" />
    <glyph glyph-name="three" unicode="3" horiz-adv-x="621" 
d="M151.5 38.5q-66.5 48.5 -96.5 143.5l50 18q22 -79 76 -120t137 -41q91 0 141.5 46t50.5 128t-34.5 123t-98.5 41q-45 0 -74 -12l-19 -25q-8 -11 -19 -11q-8 0 -18 8q-9 8 -9 17q0 7 8 21l176 279h-252l-31 -91l-47 27l38 110h376q14 0 20 -3t6 -10q0 -3 -2 -11
q-4 -14 -10 -18t-19 -4h-21l-152 -240q24 8 49 8q86 0 137.5 -54t51.5 -155q0 -102 -66 -162.5t-182 -60.5q-100 0 -166.5 48.5z" />
    <glyph glyph-name="four" unicode="4" horiz-adv-x="599" 
d="M404 161h-334q-12 0 -18.5 6.5t-6.5 15.5t6 18l383 498q8 11 19 11q9 0 19 -8q9 -7 9 -17q0 -7 -6 -16l-17 -23v-439h96v-46h-96v-161h-54v161zM404 207v369l-288 -369h288z" />
    <glyph glyph-name="five" unicode="5" horiz-adv-x="593" 
d="M55 86l35 37q43 -44 90.5 -64t109.5 -20q87 0 139.5 57t52.5 152t-48.5 146.5t-128.5 51.5q-62 0 -108 -29t-79 -87l-52 16l45 309q-12 3 -12 16q0 6 1 10q3 15 7 17t19 2h367v-46h-332l-33 -234q72 75 180 75q104 0 167 -63.5t63 -181.5q0 -76 -30.5 -135t-86.5 -92
t-130 -33q-145 0 -236 96z" />
    <glyph glyph-name="six" unicode="6" horiz-adv-x="601" 
d="M122 77.5q-67 87.5 -67 256.5q0 107 28.5 192t88 134.5t146.5 49.5q80 0 134.5 -43.5t73.5 -125.5l-47 -15q-20 69 -55.5 102t-107.5 33q-108 0 -159 -94t-51 -245h2q29 65 85 100.5t128 35.5q106 0 165.5 -61t59.5 -167q0 -113 -62 -176.5t-170 -63.5q-125 0 -192 87.5z
M442.5 89q47.5 50 47.5 139q0 86 -44.5 133.5t-124.5 47.5q-53 0 -95.5 -24t-67 -69.5t-24.5 -107.5q0 -49 23 -87.5t64 -60t93 -21.5q81 0 128.5 50z" />
    <glyph glyph-name="seven" unicode="7" horiz-adv-x="581" 
d="M265 298.5q54 130.5 168 272.5q13 16 15.5 33t2.5 50h-348l13 -72l-50 -20l-20 108q-3 14 6 22t25 8h443q9 0 12.5 -2.5t3.5 -11.5q0 -22 -6.5 -27t-24.5 -5q0 -33 -5.5 -54t-27.5 -50q-76 -101 -120 -179.5t-65.5 -167t-21.5 -203.5h-54q0 168 54 298.5z" />
    <glyph glyph-name="eight" unicode="8" horiz-adv-x="600" 
d="M119.5 42q-64.5 52 -64.5 145q0 67 38.5 114t109.5 65q-55 21 -87 61.5t-32 95.5q0 88 59.5 137.5t156.5 49.5t156.5 -49.5t59.5 -137.5q0 -55 -32 -95.5t-87 -61.5q71 -18 109.5 -65t38.5 -114q0 -93 -64.5 -145t-180.5 -52t-180.5 52zM415 423q45 37 45 101
q0 67 -44 102t-116 35t-116 -35t-44 -102q0 -64 45 -101t115 -37t115 37zM439 78.5q50 39.5 50 108.5q0 72 -50 113t-139 41t-139 -41t-50 -113q0 -69 50 -108.5t139 -39.5t139 39.5z" />
    <glyph glyph-name="nine" unicode="9" horiz-adv-x="601" 
d="M167 31q-57 41 -74 114l47 15q20 -61 59.5 -91t106.5 -30q106 0 147.5 90.5t41.5 248.5h-2q-29 -66 -82.5 -101t-124.5 -35q-107 0 -169 61.5t-62 166.5q0 112 65 176t173 64q124 0 188.5 -87t64.5 -257q0 -171 -56.5 -273.5t-183.5 -102.5q-82 0 -139 41zM417 345
q50 54 50 147q0 75 -47.5 122t-126.5 47q-82 0 -132 -50.5t-50 -138.5q0 -85 47 -133t128 -48t131 54z" />
    <glyph glyph-name="colon" unicode=":" horiz-adv-x="208" 
d="M69.5 409q-14.5 15 -14.5 35q0 19 14.5 33.5t34.5 14.5q19 0 33 -14.5t14 -33.5q0 -20 -14 -35t-33 -15q-20 0 -34.5 15zM71.5 17.5q-14.5 14.5 -14.5 33.5q0 20 14.5 35t33.5 15t33.5 -15t14.5 -35q0 -19 -14.5 -33.5t-33.5 -14.5t-33.5 14.5z" />
    <glyph glyph-name="semicolon" unicode=";" horiz-adv-x="217" 
d="M78.5 403q-14.5 15 -14.5 35t14.5 34.5t34.5 14.5q19 0 33.5 -15t14.5 -34q0 -20 -14.5 -35t-33.5 -15q-20 0 -34.5 15zM55 -76q29 15 46 34.5t20 40.5q-5 -2 -15 -2q-18 0 -31 12t-13 32q0 23 13.5 37.5t35.5 14.5q25 0 38 -16t13 -45q0 -42 -24.5 -77t-67.5 -56z" />
    <glyph glyph-name="less" unicode="&#x3c;" horiz-adv-x="605" 
d="M74 229q-10 5 -14.5 10.5t-4.5 16.5q0 16 9 24t22 4l7 -2l457 218v-55l-412 -194l412 -193v-55z" />
    <glyph glyph-name="equal" unicode="=" horiz-adv-x="500" 
d="M64 383h372v-46h-372v46zM64 233h372v-46h-372v46z" />
    <glyph glyph-name="greater" unicode="&#x3e;" horiz-adv-x="605" 
d="M55 58l412 193l-412 194v55l457 -218l7 2q13 4 22 -4t9 -24q0 -11 -4.5 -16.5t-14.5 -10.5l-476 -226v55z" />
    <glyph glyph-name="question" unicode="?" horiz-adv-x="501" 
d="M222 236q0 38 12.5 68t30 51t48.5 53q39 39 58 68t19 68q0 56 -32 86.5t-96 30.5q-60 0 -100.5 -32t-59.5 -89l-47 24q25 69 80 107.5t130 38.5q85 0 133 -43.5t48 -122.5q0 -46 -21 -78t-63 -74q-43 -42 -64.5 -75t-21.5 -81v-49h-54v49zM219 13q-13 13 -13 32t13 32
t32 13t32 -13t13 -32t-13 -32t-32 -13t-32 13z" />
    <glyph glyph-name="at" unicode="@" horiz-adv-x="839" 
d="M221.5 30q-79.5 40 -123 117t-43.5 186q0 116 45 201t127.5 130.5t192.5 45.5q168 0 266 -84.5t98 -243.5q0 -74 -20.5 -132t-59.5 -91.5t-92 -33.5q-38 0 -67 22.5t-38 64.5h-1q-20 -39 -54.5 -63.5t-80.5 -24.5q-71 0 -111.5 51.5t-40.5 137.5q0 80 27 141.5t73 95
t99 33.5q43 0 72.5 -21t43.5 -56l10 62h45l-49 -289q-2 -16 -2 -23q0 -37 21 -59.5t53 -22.5q53 0 84.5 55t31.5 153q0 138 -80.5 208.5t-227.5 70.5q-95 0 -164.5 -38.5t-107 -112.5t-37.5 -177q0 -141 79 -217.5t217 -76.5q45 0 90.5 10t81.5 28v-51q-34 -17 -79.5 -26.5
t-92.5 -9.5q-106 0 -185.5 40zM460.5 214.5q32.5 39.5 46.5 117.5q7 42 7 68q0 61 -24 96.5t-70 35.5q-42 0 -75 -27t-51.5 -77t-18.5 -115q0 -64 28 -101t77 -37q48 0 80.5 39.5z" />
    <glyph glyph-name="A" unicode="A" horiz-adv-x="630" 
d="M280 680q7 21 16.5 29.5t23.5 8.5q19 0 28.5 -8t9.5 -18q0 -7 -6 -17l233 -675h-57l-66 195h-294l-66 -195h-57zM447 241l-131 402l-131 -402h262z" />
    <glyph glyph-name="B" unicode="B" horiz-adv-x="578" 
d="M81 631q0 15 -4 22t-12 13q-10 8 -10 17q0 12 11 23.5t25 11.5q6 0 13.5 -5.5t13.5 -12.5h199q91 0 138.5 -50.5t47.5 -125.5q0 -74 -39 -111t-98 -46v-1q68 -14 112.5 -60.5t44.5 -114.5q0 -89 -53.5 -140t-149.5 -51h-239v631zM276 387q171 0 171 137q0 59 -33 95
t-104 36h-176v-268h142zM317 45q76 0 113 35.5t37 110.5q0 72 -48 111t-130 39h-155v-296h183z" />
    <glyph glyph-name="C" unicode="C" horiz-adv-x="605" 
d="M198 36q-69 46 -106 128t-37 187t36.5 186.5t103 127t155.5 45.5q52 0 99 -17t83 -50l-26 -46q-61 64 -156 64q-73 0 -127.5 -42t-83 -112.5t-28.5 -155.5q0 -87 30 -158t86.5 -112.5t132.5 -41.5q44 0 84.5 15.5t67.5 45.5l38 -35q-39 -37 -89 -56t-103 -19
q-91 0 -160 46z" />
    <glyph glyph-name="D" unicode="D" horiz-adv-x="618" 
d="M80 631q0 13 -4 20.5t-12 16.5q-6 6 -8 10t-1 9q3 10 13 20.5t23 10.5q9 0 25 -18h137q145 0 227.5 -89.5t82.5 -258.5q0 -174 -78.5 -263t-226.5 -89h-178v631zM258 46q249 0 249 306q0 150 -67.5 226t-189.5 76h-116v-608h124z" />
    <glyph glyph-name="E" unicode="E" horiz-adv-x="509" 
d="M81 631q0 13 -4 20.5t-12 16.5q-6 6 -8 10t-1 9q3 10 12.5 20.5t22.5 10.5q4 0 12 -5.5t13 -12.5h329v-46h-310v-264h226v-46h-226v-298h319v-46h-373v631z" />
    <glyph glyph-name="F" unicode="F" horiz-adv-x="490" 
d="M81 631q0 13 -4 20.5t-12 16.5q-6 6 -8 10t-1 9q3 10 12.5 20.5t22.5 10.5q4 0 12 -5.5t13 -12.5h329v-46h-310v-274h226v-46h-226v-334h-54v631z" />
    <glyph glyph-name="G" unicode="G" horiz-adv-x="636" 
d="M192 36q-67 46 -102 127.5t-35 187.5q0 105 36.5 186.5t103 127t155.5 45.5q61 0 106 -17t81 -50l-26 -45q-30 33 -68.5 48t-92.5 15q-73 0 -127.5 -42t-83 -112.5t-28.5 -155.5q0 -88 28 -158.5t83 -112t133 -41.5q50 0 84.5 9.5t64.5 30.5v237h-173v46h192q10 13 22 13
q14 0 25 -12t11 -23q0 -7 -7 -13t-11.5 -12t-4.5 -22v-243q-55 -33 -99.5 -46.5t-105.5 -13.5q-94 0 -161 46z" />
    <glyph glyph-name="H" unicode="H" horiz-adv-x="621" 
d="M80 700h54v-309h353v309h54v-700h-54v345h-353v-345h-54v700z" />
    <glyph glyph-name="I" unicode="I" horiz-adv-x="294" 
d="M120 700h54v-700h-54v700z" />
    <glyph glyph-name="J" unicode="J" horiz-adv-x="427" 
d="M104.5 0q-35.5 10 -59.5 25l23 45q18 -13 49 -22t56 -9q57 0 88.5 31.5t31.5 90.5v539h54v-536q0 -81 -48.5 -127.5t-129.5 -46.5q-29 0 -64.5 10z" />
    <glyph glyph-name="K" unicode="K" horiz-adv-x="579" 
d="M80 700h54v-325l291 325h70l-303 -334l332 -366h-71l-319 356v-356h-54v700z" />
    <glyph glyph-name="L" unicode="L" horiz-adv-x="483" 
d="M65.5 -0.5q-10.5 9.5 -10.5 21.5q0 9 9 18q7 8 10.5 15t3.5 18v628h54v-654h306v-46h-328q-8 -10 -19 -10q-15 0 -25.5 9.5z" />
    <glyph glyph-name="M" unicode="M" horiz-adv-x="763" 
d="M360 7l-195 592l-55 -600h-55l67 667l-8 12q-2 3 -2 10q0 11 8 20.5t24 9.5q18 0 28.5 -11t17.5 -31l191 -583l192 583q7 20 17.5 31t28.5 11q16 0 24 -9.5t8 -20.5q0 -7 -2 -10l-8 -12l67 -667h-55l-55 600l-186 -563l3 -10q1 -3 1 -9q0 -11 -9 -19t-23 -8q-18 0 -24 17
z" />
    <glyph glyph-name="N" unicode="N" horiz-adv-x="617" 
d="M77 634q0 13 -4 20.5t-11 15.5t-7 14q0 10 10.5 22t24.5 12t25 -17l368 -597v596h54v-700h-48l-358 579v-579h-54v634z" />
    <glyph glyph-name="O" unicode="O" horiz-adv-x="652" 
d="M124 86q-69 96 -69 264t69 264t202 96t202 -96t69 -264t-69 -264t-202 -96t-202 96zM490 124q51 85 51 226t-51 226t-164 85t-164 -85t-51 -226t51 -226t164 -85t164 85z" />
    <glyph glyph-name="P" unicode="P" horiz-adv-x="572" 
d="M80 629q0 13 -4 21t-12 17q-4 5 -7 10t-2 10q3 10 12.5 20.5t22.5 10.5q4 0 12 -5.5t14 -12.5h144q119 0 188 -52.5t69 -167.5q0 -112 -69 -163t-182 -51h-132v-266h-54v629zM263 311q198 0 198 169q0 82 -49.5 128t-150.5 46h-127v-343h129z" />
    <glyph glyph-name="Q" unicode="Q" horiz-adv-x="652" 
d="M544.5 111.5q-52.5 -92.5 -154.5 -114.5l126 -160h-71l-118 153h-1q-133 0 -202 96t-69 264t69 264t202 96t202 -96t69 -264q0 -146 -52.5 -238.5zM162 124q51 -85 164 -85t164 85t51 226t-51 226t-164 85t-164 -85t-51 -226t51 -226z" />
    <glyph glyph-name="R" unicode="R" horiz-adv-x="567" 
d="M80 629q0 13 -4 21t-12 17q-4 5 -7 10t-2 10q3 10 12.5 20.5t22.5 10.5q4 0 12 -5.5t14 -12.5h144q252 0 252 -205q0 -96 -58.5 -145t-147.5 -52l192 -298h-63l-191 296h-110v-296h-54v629zM263 341q101 0 147 37.5t46 116.5q0 78 -47 118.5t-148 40.5h-127v-313h129z
" />
    <glyph glyph-name="S" unicode="S" horiz-adv-x="568" 
d="M159 16.5q-62 26.5 -104 67.5l36 38q87 -84 208 -84q77 0 117.5 32t40.5 89q0 43 -16 69t-54 47t-116 49q-103 37 -150.5 83t-47.5 121q0 84 54 133t156 49q114 0 200 -63l-30 -42q-73 56 -171 56q-77 0 -115 -32.5t-38 -99.5q0 -44 21 -72.5t58.5 -47.5t104.5 -43
q71 -25 114 -52t64.5 -64t21.5 -91q0 -75 -55.5 -122t-158.5 -47q-78 0 -140 26.5z" />
    <glyph glyph-name="T" unicode="T" horiz-adv-x="544" 
d="M245 654h-200v46h454v-46h-200v-654h-54v654z" />
    <glyph glyph-name="U" unicode="U" horiz-adv-x="644" 
d="M141 53.5q-66 63.5 -66 178.5v468h54v-474q0 -95 51.5 -141t141.5 -46t141.5 46t51.5 141v474h54v-468q0 -115 -66 -178.5t-181 -63.5t-181 63.5z" />
    <glyph glyph-name="V" unicode="V" horiz-adv-x="656" 
d="M290 18q0 6 5 18l-240 664h55l219 -617l218 617h54l-246 -680q-11 -30 -33 -30q-7 0 -17 5q-15 9 -15 23z" />
    <glyph glyph-name="W" unicode="W" horiz-adv-x="831" 
d="M166 15q0 8 2 12l6 15l-119 658h54l104 -601l180 593q5 18 22 18q21 0 30 -8.5t5 -21.5l-3 -10l171 -571l104 601h54l-121 -658l6 -15q2 -4 2 -12q0 -18 -23 -23q-10 -2 -13 -2q-13 0 -21 10t-15 32l-175 579l-178 -579q-7 -22 -15 -32t-21 -10q-3 0 -13 2q-23 5 -23 23z
" />
    <glyph glyph-name="X" unicode="X" horiz-adv-x="650" 
d="M294 375l-217 325h60l188 -284l188 284h60l-217 -325l239 -375h-60l-210 337l-210 -337h-60z" />
    <glyph glyph-name="Y" unicode="Y" horiz-adv-x="616" 
d="M283 273l-228 427h59l194 -377l194 377h59l-228 -427v-273h-50v273z" />
    <glyph glyph-name="Z" unicode="Z" horiz-adv-x="621" 
d="M86 -10q-13 0 -28 18q-3 3 -3 8q0 7 13 25l420 613h-406v46h427l10 11q7 7 16 7q11 0 19 -8q12 -10 12 -20q0 -8 -12 -27l-423 -617h435v-46h-464l-8 -7q-3 -3 -8 -3z" />
    <glyph glyph-name="bracketleft" unicode="[" horiz-adv-x="264" 
d="M80 746h139v-46h-85v-788h85v-46h-139v880z" />
    <glyph glyph-name="backslash" unicode="\" horiz-adv-x="436" 
d="M55 710h52l274 -720h-52z" />
    <glyph glyph-name="bracketright" unicode="]" horiz-adv-x="264" 
d="M45 -88h85v788h-85v46h139v-880h-139v46z" />
    <glyph glyph-name="asciicircum" unicode="^" horiz-adv-x="418" 
d="M187 702q5 9 10.5 12.5t14.5 3.5q15 0 22.5 -8t3.5 -15l-3 -5l128 -249h-53l-103 212l-99 -212h-53z" />
    <glyph glyph-name="underscore" unicode="_" horiz-adv-x="552" 
d="M55 -56h442v-46h-442v46z" />
    <glyph glyph-name="grave" unicode="`" horiz-adv-x="255" 
d="M55 718h58l87 -172h-43z" />
    <glyph glyph-name="a" unicode="a" horiz-adv-x="559" 
d="M149 24.5q-47 34.5 -70.5 91.5t-23.5 125t23.5 126t70.5 93t116 35q60 0 99.5 -24.5t65.5 -68.5v83h52v-367q0 -73 22 -109l-44 -19q-20 29 -24 90l-3 1q-63 -91 -168 -91q-69 0 -116 34.5zM388 87.5q44 50.5 44 125.5v58q0 41 -18.5 82t-56.5 68t-92 27
q-75 0 -115.5 -59t-40.5 -148t40 -146.5t116 -57.5q79 0 123 50.5z" />
    <glyph glyph-name="b" unicode="b" horiz-adv-x="564" 
d="M55 9q11 19 17 43t6 68v614h52v-332q26 41 69.5 67t98.5 26q108 0 159.5 -70t51.5 -184q0 -68 -23.5 -125t-71 -91.5t-116.5 -34.5q-55 0 -98.5 25.5t-70.5 67.5q0 -31 -8.5 -57.5t-18.5 -35.5zM387.5 67q35.5 30 51.5 76.5t16 97.5q0 90 -35.5 148.5t-121.5 58.5
q-50 0 -88 -26t-59 -67t-21 -84v-58q0 -44 21 -85t59 -66t88 -25q54 0 89.5 30z" />
    <glyph glyph-name="c" unicode="c" horiz-adv-x="509" 
d="M119 58q-64 68 -64 184q0 76 29 133t81.5 88.5t120.5 31.5q41 0 85 -14t70 -39l-23 -42q-17 20 -54 34t-77 14q-83 0 -130.5 -54.5t-47.5 -151.5q0 -94 49.5 -149.5t138.5 -55.5q33 0 68.5 12t54.5 34l34 -35q-27 -27 -72 -42.5t-89 -15.5q-110 0 -174 68z" />
    <glyph glyph-name="d" unicode="d" horiz-adv-x="564" 
d="M443.5 25.5q-8.5 26.5 -8.5 57.5q-27 -42 -70.5 -67.5t-98.5 -25.5q-103 0 -157 68.5t-54 178.5q0 113 53 185.5t162 72.5q54 0 96 -25.5t68 -67.5v332h52v-614q0 -44 6 -68t17 -43l-47 -19q-10 9 -18.5 35.5zM354 62q38 25 59 66t21 85v58q0 44 -20 84.5t-57 66.5
t-87 26q-86 0 -123.5 -61t-37.5 -150q0 -85 38.5 -142.5t118.5 -57.5q50 0 88 25z" />
    <glyph glyph-name="e" unicode="e" horiz-adv-x="538" 
d="M159 21.5q-51 31.5 -77.5 88t-26.5 129.5q0 108 50.5 182t163.5 74q82 0 130 -40t66 -94.5t18 -104.5q0 -20 -9.5 -29t-31.5 -9h-332q0 -82 44 -131.5t126 -49.5q41 0 78.5 13t64.5 36l29 -36q-31 -28 -76.5 -44t-95.5 -16q-70 0 -121 31.5zM431 264q0 77 -40.5 130.5
t-121.5 53.5q-56 0 -92 -28.5t-52 -70.5t-16 -85h322z" />
    <glyph glyph-name="f" unicode="f" horiz-adv-x="369" 
d="M125 439h-80l12 46h68v118q0 65 39 99t92 34q41 0 78 -14l-11 -44q-27 11 -62 11q-84 0 -84 -86v-118h140l-12 -46h-128v-439h-52v439z" />
    <glyph glyph-name="g" unicode="g" horiz-adv-x="560" 
d="M178.5 -210q-37.5 8 -63.5 19l18 45q21 -10 53.5 -17.5t65.5 -7.5q94 0 136 48t42 151v65q-27 -43 -69 -68t-97 -25q-108 0 -158.5 71t-50.5 185q0 104 53.5 171.5t155.5 67.5q59 0 99 -24.5t68 -68.5q0 31 8.5 57.5t18.5 35.5l47 -19q-11 -19 -17 -43t-6 -68v-350
q0 -113 -63.5 -173t-166.5 -60q-36 0 -73.5 8zM351.5 73q37.5 26 58 66.5t20.5 84.5v48q0 44 -20.5 85t-58 66t-87.5 25q-80 0 -117.5 -56t-37.5 -136q0 -90 34.5 -149.5t120.5 -59.5q50 0 87.5 26z" />
    <glyph glyph-name="h" unicode="h" horiz-adv-x="533" 
d="M407 92v215q0 71 -30 106t-94 35q-44 0 -78.5 -25t-53.5 -65.5t-19 -84.5v-273h-52v734h52v-329q23 42 65 66t96 24q81 0 123.5 -48.5t42.5 -140.5v-214q0 -23 5.5 -45.5t13.5 -37.5l-47 -19q-24 48 -24 102z" />
    <glyph glyph-name="i" unicode="i" horiz-adv-x="246" 
d="M93 637q-13 13 -13 30t13 30t30 13t30 -13t13 -30t-13 -30t-30 -13t-30 13zM96 485h52v-485h-52v485z" />
    <glyph glyph-name="j" unicode="j" horiz-adv-x="411" 
d="M258 637q-13 13 -13 30t13 30t30 13t30 -13t13 -30t-13 -30t-30 -13t-30 13zM45 -185l23 41q42 -29 95 -29q54 0 76 30t22 104v524h52v-524q0 -93 -37.5 -136t-112.5 -43q-64 0 -118 33z" />
    <glyph glyph-name="k" unicode="k" horiz-adv-x="483" 
d="M80 734h52v-438l214 189h70l-245 -217l282 -268h-67l-254 240v-240h-52v734z" />
    <glyph glyph-name="l" unicode="l" horiz-adv-x="212" 
d="M80 734h52v-734h-52v734z" />
    <glyph glyph-name="m" unicode="m" horiz-adv-x="789" 
d="M663 92v217q0 73 -22 106t-85 33t-96.5 -43t-33.5 -107v-298h-51v309q0 62 -27.5 100.5t-82.5 38.5q-43 0 -73.5 -24.5t-46.5 -64t-16 -85.5v-274h-52v373q0 39 -5.5 62.5t-16.5 40.5l51 19q1 -3 7.5 -14t11.5 -30t6 -43q20 40 57.5 63.5t81.5 23.5q50 0 84 -26.5
t50 -76.5q18 47 59.5 75t92.5 28q159 0 159 -181v-222q0 -23 5.5 -45.5t13.5 -37.5l-47 -19q-24 48 -24 102z" />
    <glyph glyph-name="n" unicode="n" horiz-adv-x="530" 
d="M404 92v215q0 72 -28.5 106.5t-93.5 34.5q-45 0 -80 -25t-54 -65t-19 -85v-273h-52v372q0 71 -22 104l47 19q18 -32 25 -93q26 45 69 69t94 24q81 0 123.5 -48.5t42.5 -140.5v-214q0 -23 5.5 -45.5t13.5 -37.5l-47 -19q-24 48 -24 102z" />
    <glyph glyph-name="o" unicode="o" horiz-adv-x="542" 
d="M149.5 25.5q-48.5 34.5 -71.5 91.5t-23 126t23 126t71.5 91.5t121.5 34.5t121.5 -34.5t71.5 -91.5t23 -126t-23 -126t-71.5 -91.5t-121.5 -34.5t-121.5 34.5zM391 94.5q42 56.5 42 148.5t-42 148.5t-120 56.5t-120 -56.5t-42 -148.5t42 -148.5t120 -56.5t120 56.5z" />
    <glyph glyph-name="p" unicode="p" horiz-adv-x="564" 
d="M78 365q0 46 -5.5 69t-17.5 42l49 19q10 -9 18.5 -35.5t8.5 -57.5q27 42 69.5 67.5t97.5 25.5q69 0 116.5 -33.5t71 -90.5t23.5 -127q0 -113 -53 -183.5t-162 -70.5q-53 0 -95 25t-69 68v-302h-52v584zM417.5 96.5q37.5 59.5 37.5 147.5q0 85 -38.5 144.5t-118.5 59.5
q-50 0 -88 -25t-59 -66t-21 -85v-58q0 -44 20 -84.5t57 -66.5t87 -26q86 0 123.5 59.5z" />
    <glyph glyph-name="q" unicode="q" horiz-adv-x="564" 
d="M434 -130v213q-27 -43 -69 -68t-95 -25q-109 0 -162 70.5t-53 183.5q0 70 23.5 127t71 90.5t116.5 33.5q55 0 97.5 -25.5t69.5 -67.5q0 31 8.5 57.5t18.5 35.5l49 -19q-12 -19 -17.5 -42t-5.5 -69v-495q0 -52 19 -83l-47 -19q-24 38 -24 102zM357 63q37 26 57 66.5
t20 84.5v58q0 44 -21 85t-59 66t-88 25q-80 0 -118.5 -59.5t-38.5 -144.5q0 -88 37.5 -147.5t123.5 -59.5q50 0 87 26z" />
    <glyph glyph-name="r" unicode="r" horiz-adv-x="373" 
d="M77 372q0 71 -22 104l47 19q18 -32 25 -93q23 46 56.5 69.5t82.5 23.5q20 0 35.5 -4t36.5 -14l-23 -41q-22 12 -54 12q-42 0 -71.5 -24.5t-45 -65t-15.5 -85.5v-273h-52v372z" />
    <glyph glyph-name="s" unicode="s" horiz-adv-x="477" 
d="M55 58l35 38q26 -28 70 -44t90 -16q119 0 119 75q0 26 -10.5 42.5t-38 31t-86.5 35.5q-60 22 -94.5 40.5t-52.5 44.5t-18 65q0 56 43.5 90.5t124.5 34.5q48 0 87 -13.5t65 -32.5l-23 -43q-29 22 -60 32.5t-70 10.5q-56 0 -85 -21.5t-29 -57.5q0 -25 12.5 -41.5t33 -27.5
t61.5 -27l29 -12q67 -28 99.5 -45.5t48.5 -41.5t16 -63q0 -58 -45 -90t-128 -32q-126 0 -194 68z" />
    <glyph glyph-name="t" unicode="t" horiz-adv-x="363" 
d="M153 21q-26 31 -26 90v328h-82l12 46h71v137l50 23v-160h121l-11 -46h-109v-327q0 -44 13 -60.5t49 -16.5q37 0 63 13l14 -41q-15 -7 -38.5 -12t-43.5 -5q-57 0 -83 31z" />
    <glyph glyph-name="u" unicode="u" horiz-adv-x="530" 
d="M120 38q-45 48 -45 139l1 308h52v-307q0 -73 30.5 -107t96.5 -34q45 0 78 24.5t50.5 65t17.5 85.5v273h52v-372q0 -71 22 -104l-47 -19q-18 32 -25 93q-26 -45 -65 -69t-88 -24q-85 0 -130 48z" />
    <glyph glyph-name="v" unicode="v" horiz-adv-x="527" 
d="M235.5 -1q-8.5 9 -4.5 22l2 7l-178 457h55l154 -410l153 410h55l-185 -476q-4 -10 -10 -14.5t-17 -4.5q-16 0 -24.5 9z" />
    <glyph glyph-name="w" unicode="w" horiz-adv-x="712" 
d="M185.5 -1.5q-8.5 8.5 -5.5 19.5l3 12l-128 455h56l104 -416l123 413q3 13 23 13q16 0 23.5 -7t7.5 -18q0 -5 -1 -8l-4 -19l110 -374l104 416h56l-128 -455l3 -12q3 -11 -5.5 -19.5t-22.5 -8.5t-21.5 5t-11.5 17l-115 391l-115 -391q-4 -12 -11.5 -17t-21.5 -5t-22.5 8.5z
" />
    <glyph glyph-name="x" unicode="x" horiz-adv-x="492" 
d="M216 251l-161 234h59l132 -196l132 196h59l-161 -234l161 -251h-61l-130 212l-130 -212h-61z" />
    <glyph glyph-name="y" unicode="y" horiz-adv-x="561" 
d="M98 -185q63 25 104.5 77t55.5 123l-203 470h59l173 -420l160 420h59l-201 -506q-33 -82 -77.5 -131t-113.5 -78z" />
    <glyph glyph-name="z" unicode="z" horiz-adv-x="524" 
d="M84 -10q-12 0 -27 28q-2 3 -2 9q0 9 16 19q12 8 20 19l302 374h-312v46h326q19 0 25 6q3 3 8 3q9 0 22 -13q7 -7 7 -14q0 -8 -9 -19l-325 -402h330v-46h-343q-19 0 -29 -7q-4 -3 -9 -3z" />
    <glyph glyph-name="braceleft" unicode="{" horiz-adv-x="307" 
d="M137 -111q-20 23 -20 58v271q0 65 -49 65h-23v46h23q49 0 49 65v271q0 35 20 58t60 23h65v-46h-56q-18 0 -26.5 -10.5t-8.5 -33.5v-250q0 -38 -11 -61.5t-42 -38.5q31 -15 42 -38.5t11 -61.5v-250q0 -23 8.5 -33.5t26.5 -10.5h56v-46h-65q-40 0 -60 23z" />
    <glyph glyph-name="bar" unicode="|" horiz-adv-x="214" 
d="M80 800h54v-940h-54v940z" />
    <glyph glyph-name="braceright" unicode="}" horiz-adv-x="307" 
d="M45 -88h56q18 0 26.5 10.5t8.5 33.5v250q0 38 11 61.5t42 38.5q-31 15 -42 38.5t-11 61.5v250q0 23 -8.5 33.5t-26.5 10.5h-56v46h65q40 0 60 -23t20 -58v-271q0 -65 49 -65h23v-46h-23q-49 0 -49 -65v-271q0 -35 -20 -58t-60 -23h-65v46z" />
    <glyph glyph-name="asciitilde" unicode="~" horiz-adv-x="587" 
d="M55 228q19 44 53 67t78 23q25 0 49 -8.5t61 -26.5q35 -17 58.5 -25.5t46.5 -8.5q68 0 96 74l35 -38q-19 -44 -53 -67t-78 -23q-25 0 -50.5 9t-63.5 27q-34 16 -57 24.5t-44 8.5q-68 0 -96 -74z" />
    <glyph glyph-name="uni00A0" unicode="&#xa0;" horiz-adv-x="258" 
 />
    <glyph glyph-name="exclamdown" unicode="&#xa1;" horiz-adv-x="250" 
d="M93 387q-13 13 -13 32t13 32t32 13t32 -13t13 -32t-13 -32t-32 -13t-32 13zM106 277h37l8 -513h-54z" />
    <glyph glyph-name="cent" unicode="&#xa2;" horiz-adv-x="509" 
d="M386.5 7q-41.5 -15 -84.5 -17v-88h-52v91q-91 13 -143 79t-52 170q0 103 53.5 171t141.5 80v95h52v-94q39 -2 77 -16t62 -36l-23 -42q-16 18 -48 31.5t-68 15.5v-410q33 1 66.5 13t51.5 33l34 -35q-26 -26 -67.5 -41zM146 108.5q37 -53.5 104 -66.5v403q-67 -12 -104 -65
t-37 -138q0 -80 37 -133.5z" />
    <glyph glyph-name="sterling" unicode="&#xa3;" horiz-adv-x="549" 
d="M55 43q67 26 104.5 90.5t37.5 139.5q0 28 -6 55h-134l11 46h108q-20 29 -33.5 72.5t-13.5 80.5q0 84 51 133.5t145 49.5q49 0 94 -17.5t73 -47.5l-23 -40q-53 56 -144 56q-140 0 -140 -135q0 -40 13 -80t34 -72h164l-12 -46h-140q5 -30 5 -53q0 -68 -27.5 -129.5
t-75.5 -99.5h348v-46h-439v43z" />
    <glyph glyph-name="currency" unicode="&#xa4;" horiz-adv-x="608" 
d="M61 103l86 87q-57 55 -57 147q0 84 49 139l-84 85l33 32l86 -87q56 37 130 37t130 -37l86 87l33 -32l-84 -85q49 -55 49 -139q0 -92 -57 -147l86 -87l-33 -32l-89 90q-54 -31 -121 -31t-121 31l-89 -90zM424.5 219q44.5 43 44.5 118t-44.5 117.5t-120.5 42.5
t-120.5 -42.5t-44.5 -117.5t44.5 -118t120.5 -43t120.5 43z" />
    <glyph glyph-name="yen" unicode="&#xa5;" horiz-adv-x="616" 
d="M333 273h183v-46h-183v-70h183v-46h-183v-111h-50v111h-183v46h183v70h-183v46h183l-228 427h59l194 -377l194 377h59z" />
    <glyph glyph-name="brokenbar" unicode="&#xa6;" horiz-adv-x="214" 
d="M80 800h54v-394h-54v394zM80 254h54v-394h-54v394z" />
    <glyph glyph-name="section" unicode="&#xa7;" horiz-adv-x="507" 
d="M145.5 -46q-42.5 13 -67.5 36l24 39q21 -18 57 -30t80 -12q66 0 100.5 27.5t34.5 75.5q0 34 -15.5 56t-46.5 38t-94 41q-64 25 -97 43.5t-49.5 44t-16.5 66.5q0 38 20.5 69.5t50.5 49.5q-17 14 -27 37t-10 51q0 61 45.5 98.5t123.5 37.5q49 0 89 -12.5t66 -32.5l-23 -40
q-21 16 -55.5 27.5t-76.5 11.5q-56 0 -86 -23t-30 -67q0 -30 15 -49.5t45 -34t91 -36.5q83 -30 121 -64.5t38 -91.5q0 -39 -15 -67.5t-47 -55.5q15 -13 26 -41t11 -56q0 -71 -52.5 -110t-135.5 -39q-51 0 -93.5 13zM390.5 257q12.5 27 12.5 53q0 37 -25.5 61t-99.5 50
q-76 26 -121 53q-55 -37 -55 -95q0 -25 10 -41.5t35.5 -31t75.5 -34.5q108 -43 134 -61q21 19 33.5 46z" />
    <glyph glyph-name="dieresis" unicode="&#xa8;" horiz-adv-x="387" 
d="M68 592q-13 13 -13 31t13 31t32 13q17 0 30 -13t13 -31t-13 -31t-30 -13q-19 0 -32 13zM257 592q-13 13 -13 31t13 31t32 13q17 0 30 -13t13 -31t-13 -31t-30 -13q-19 0 -32 13z" />
    <glyph glyph-name="copyright" unicode="&#xa9;" horiz-adv-x="854" 
d="M230.5 34.5q-84.5 45.5 -130 127t-45.5 187.5t45.5 187.5t130 127.5t196.5 46t196.5 -46t130 -127.5t45.5 -187.5t-45.5 -188t-130 -127t-196.5 -45t-196.5 45.5zM591.5 75.5q71.5 37.5 111.5 107.5t40 166t-39.5 166.5t-111 108t-165.5 37.5t-165.5 -37.5t-111 -108
t-39.5 -166.5t39.5 -166t111 -107.5t165.5 -37.5q93 0 164.5 37.5zM273.5 173q-63.5 62 -63.5 175q0 74 29.5 128t80.5 82t115 28q42 0 87.5 -14t71.5 -39l-23 -42q-17 19 -56 33.5t-79 14.5q-78 0 -125 -48.5t-47 -142.5q0 -91 48.5 -140.5t133.5 -49.5q34 0 71 12t56 34
l34 -35q-27 -27 -73.5 -42.5t-91.5 -15.5q-105 0 -168.5 62z" />
    <glyph glyph-name="ordfeminine" unicode="&#xaa;" horiz-adv-x="427" 
d="M95.5 430q-40.5 46 -40.5 120q0 76 41 122t108 46q34 0 61.5 -14t43.5 -38v46h49v-252q0 -46 14 -65l-46 -11q-12 21 -13 56h-2q-18 -26 -47 -41t-64 -15q-64 0 -104.5 46zM280 454.5q31 27.5 31 75.5v41q0 42 -28 73t-76 31q-46 0 -73 -32.5t-27 -92.5q0 -59 27 -91
t73 -32q42 0 73 27.5z" />
    <glyph glyph-name="guillemotleft" unicode="&#xab;" horiz-adv-x="420" 
d="M59 246q-4 7 -4 14q0 8 4 13l131 203h55l-139 -216l139 -217h-55zM179 246q-4 7 -4 14q0 8 4 13l131 203h55l-139 -216l139 -217h-55z" />
    <glyph glyph-name="logicalnot" unicode="&#xac;" horiz-adv-x="462" 
d="M353 262h-298v46h352v-179h-54v133z" />
    <glyph glyph-name="uni00AD" unicode="&#xad;" horiz-adv-x="482" 
d="M55 308h372v-46h-372v46z" />
    <glyph glyph-name="registered" unicode="&#xae;" horiz-adv-x="854" 
d="M230.5 34.5q-84.5 45.5 -130 127t-45.5 187.5t45.5 187.5t130 127.5t196.5 46t196.5 -46t130 -127.5t45.5 -187.5t-45.5 -188t-130 -127t-196.5 -45t-196.5 45.5zM591.5 75.5q71.5 37.5 111.5 107.5t40 166t-39.5 166.5t-111 108t-165.5 37.5t-165.5 -37.5t-111 -108
t-39.5 -166.5t39.5 -166t111 -107.5t165.5 -37.5q93 0 164.5 37.5zM284 537q0 9 -3.5 14.5t-10.5 12.5t-6 12q3 14 10 20.5t19 6.5q6 0 11.5 -4t8.5 -9h114q84 0 131.5 -35.5t47.5 -109.5q0 -64 -40.5 -100t-98.5 -41l130 -192h-58l-126 190h-78v-190h-51v425zM423 343
q68 0 99 24.5t31 77.5t-29 78.5t-97 25.5h-92v-206h88z" />
    <glyph glyph-name="macron" unicode="&#xaf;" horiz-adv-x="382" 
d="M55 625h272v-43h-272v43z" />
    <glyph glyph-name="degree" unicode="&#xb0;" horiz-adv-x="338" 
d="M88.5 525.5q-33.5 28.5 -33.5 78.5q0 51 33.5 79.5t80.5 28.5t80.5 -28.5t33.5 -79.5q0 -50 -33.5 -78.5t-80.5 -28.5t-80.5 28.5zM220 553q20 18 20 51q0 34 -20 52.5t-51 18.5t-51 -18.5t-20 -52.5q0 -33 20 -51t51 -18t51 18z" />
    <glyph glyph-name="plusminus" unicode="&#xb1;" horiz-adv-x="500" 
d="M446 308v-46h-169v-143h-54v143h-169v46h169v143h54v-143h169zM54 46h392v-46h-392v46z" />
    <glyph glyph-name="uni00B2" unicode="&#xb2;" horiz-adv-x="458" 
d="M58.5 417q-4.5 4 -2.5 17q2 14 7 17t19 3q16 31 44 57.5t76 64.5q45 35 72 60t45.5 56t18.5 67q0 52 -26.5 80.5t-78.5 28.5q-58 0 -87 -32.5t-35 -93.5l-47 4q7 80 52.5 122t116.5 42q72 0 113.5 -40.5t41.5 -110.5q0 -42 -20.5 -78.5t-49.5 -64t-76 -65.5
q-38 -31 -61.5 -52.5t-37.5 -44.5h199l18 40l43 -15l-31 -66h-291q-18 0 -22.5 4z" />
    <glyph glyph-name="uni00B3" unicode="&#xb3;" horiz-adv-x="479" 
d="M124 437.5q-48 34.5 -69 102.5l45 15q14 -53 50.5 -81.5t94.5 -28.5q62 0 96 31t34 85t-23.5 81.5t-66.5 27.5q-29 0 -48 -8l-12 -16q-7 -9 -16 -9t-17 7q-8 5 -8 14q0 5 7 17l117 185h-164l-22 -63l-40 24l27 79h269q11 0 16.5 -2t5.5 -10q0 -1 -2 -11q-4 -11 -9 -14
t-15 -3h-15l-100 -157q16 6 35 6q59 0 94.5 -38.5t35.5 -109.5q0 -72 -47.5 -115t-131.5 -43q-73 0 -121 34.5z" />
    <glyph glyph-name="acute" unicode="&#xb4;" horiz-adv-x="255" 
d="M142 718h58l-102 -172h-43z" />
    <glyph glyph-name="paragraph" unicode="&#xb6;" horiz-adv-x="618" 
d="M296 334q-123 0 -182 43t-59 136q0 88 55 137.5t153 49.5h300v-46h-53v-834h-54v834h-106v-834h-54v514z" />
    <glyph glyph-name="periodcentered" unicode="&#xb7;" horiz-adv-x="198" 
d="M68 309q-13 13 -13 31t13 31t32 13q17 0 30 -13t13 -31t-13 -31t-30 -13q-19 0 -32 13z" />
    <glyph glyph-name="cedilla" unicode="&#xb8;" horiz-adv-x="319" 
d="M53 -185l15 33q32 -21 69 -21q44 0 44 42q0 45 -66 42l-17 19l46 76h45l-41 -67q75 -8 75 -71q0 -37 -23 -57.5t-70 -20.5q-38 0 -77 25z" />
    <glyph glyph-name="uni00B9" unicode="&#xb9;" horiz-adv-x="277" 
d="M153 823l-78 -65l-30 33l132 110q12 10 21 10q8 0 16 -9q8 -10 8 -16t-8 -14l-12 -11v-449h-49v411z" />
    <glyph glyph-name="ordmasculine" unicode="&#xba;" horiz-adv-x="427" 
d="M127.5 407q-35.5 23 -54 61t-18.5 83q0 70 42 118.5t116 48.5q75 0 117 -48t42 -119q0 -45 -18.5 -83t-54.5 -61t-86 -23t-85.5 23zM289.5 461q26.5 34 26.5 90t-26.5 90t-76.5 34q-49 0 -75.5 -34.5t-26.5 -89.5t26.5 -89.5t75.5 -34.5q50 0 76.5 34z" />
    <glyph glyph-name="guillemotright" unicode="&#xbb;" horiz-adv-x="420" 
d="M194 260l-139 216h55l131 -203q4 -5 4 -13q0 -7 -4 -14l-131 -203h-55zM314 260l-139 216h55l131 -203q4 -5 4 -13q0 -7 -4 -14l-131 -203h-55z" />
    <glyph glyph-name="onequarter" unicode="&#xbc;" horiz-adv-x="763" 
d="M163 631l-78 -65l-30 33l132 110q12 10 21 10q8 0 16 -9q8 -10 8 -16t-8 -14l-12 -11v-449h-49v411zM497 710h52l-344 -720h-52zM593 110h-229q-10 0 -16 5.5t-6 13.5t6 15l268 343q8 9 17 9q7 0 16 -6q9 -7 9 -15q0 -5 -5 -13l-11 -15v-297h66v-40h-66v-110h-49v110z
M594 150v240l-188 -240h188z" />
    <glyph glyph-name="onehalf" unicode="&#xbd;" horiz-adv-x="835" 
d="M163 631l-78 -65l-30 33l132 110q12 10 21 10q8 0 16 -9q8 -10 8 -16t-8 -14l-12 -11v-449h-49v411zM497 710h52l-344 -720h-52zM435.5 4q-4.5 4 -2.5 17q2 14 7 17t19 3q16 31 44 57.5t76 64.5q45 35 72 60t45.5 56t18.5 67q0 52 -26.5 80.5t-78.5 28.5q-58 0 -87 -32.5
t-35 -93.5l-47 4q7 80 52.5 122t116.5 42q72 0 113.5 -40.5t41.5 -110.5q0 -42 -20.5 -78.5t-49.5 -64t-76 -65.5q-38 -31 -61.5 -52.5t-37.5 -44.5h199l18 40l43 -15l-31 -66h-291q-18 0 -22.5 4z" />
    <glyph glyph-name="threequarters" unicode="&#xbe;" horiz-adv-x="913" 
d="M647 710h52l-344 -720h-52zM124 245.5q-48 34.5 -69 102.5l45 15q14 -53 50.5 -81.5t94.5 -28.5q62 0 96 31t34 85t-23.5 81.5t-66.5 27.5q-29 0 -48 -8l-12 -16q-7 -9 -16 -9t-17 7q-8 5 -8 14q0 5 7 17l117 185h-164l-22 -63l-40 24l27 79h269q11 0 16.5 -2t5.5 -10
q0 -1 -2 -11q-4 -11 -9 -14t-15 -3h-15l-100 -157q16 6 35 6q59 0 94.5 -38.5t35.5 -109.5q0 -72 -47.5 -115t-131.5 -43q-73 0 -121 34.5zM743 110h-229q-10 0 -16 5.5t-6 13.5t6 15l268 343q8 9 17 9q7 0 16 -6q9 -7 9 -15q0 -5 -5 -13l-11 -15v-297h66v-40h-66v-110h-49
v110zM744 150v240l-188 -240h188z" />
    <glyph glyph-name="questiondown" unicode="&#xbf;" horiz-adv-x="501" 
d="M218 383q-13 13 -13 32t13 32t32 13t32 -13t13 -32t-13 -32t-32 -13t-32 13zM103 -206.5q-48 43.5 -48 122.5q0 46 21 78t63 74q43 42 64.5 75t21.5 81v49h54v-49q0 -38 -12.5 -68t-30 -51t-48.5 -53q-39 -39 -58 -68t-19 -68q0 -56 32 -86.5t96 -30.5q60 0 100.5 32
t59.5 89l47 -24q-25 -69 -80 -107.5t-130 -38.5q-85 0 -133 43.5z" />
    <glyph glyph-name="Agrave" unicode="&#xc0;" horiz-adv-x="630" 
d="M280 680q7 21 16.5 29.5t23.5 8.5q19 0 28.5 -8t9.5 -18q0 -7 -6 -17l233 -675h-57l-66 195h-294l-66 -195h-57zM447 241l-131 402l-131 -402h262zM199 948h58l87 -172h-43z" />
    <glyph glyph-name="Aacute" unicode="&#xc1;" horiz-adv-x="630" 
d="M280 680q7 21 16.5 29.5t23.5 8.5q19 0 28.5 -8t9.5 -18q0 -7 -6 -17l233 -675h-57l-66 195h-294l-66 -195h-57zM447 241l-131 402l-131 -402h262zM383 948h58l-102 -172h-43z" />
    <glyph glyph-name="Acircumflex" unicode="&#xc2;" horiz-adv-x="630" 
d="M280 680q7 21 16.5 29.5t23.5 8.5q19 0 28.5 -8t9.5 -18q0 -7 -6 -17l233 -675h-57l-66 195h-294l-66 -195h-57zM447 241l-131 402l-131 -402h262zM299 932q8 10 12.5 13t12.5 3q15 0 22.5 -8t3.5 -15l-3 -5l118 -134h-58l-88 109l-84 -109h-58z" />
    <glyph glyph-name="Atilde" unicode="&#xc3;" horiz-adv-x="630" 
d="M280 680q7 21 16.5 29.5t23.5 8.5q19 0 28.5 -8t9.5 -18q0 -7 -6 -17l233 -675h-57l-66 195h-294l-66 -195h-57zM447 241l-131 402l-131 -402h262zM178 814q3 32 25 53.5t53 21.5q23 0 40.5 -8.5t39.5 -24.5q16 -11 25.5 -16t19.5 -5q20 0 31 12.5t16 41.5l34 -18
q-3 -32 -25 -53.5t-53 -21.5q-20 0 -36 8t-35 22q-19 13 -30 18.5t-24 5.5q-20 0 -31 -12.5t-16 -41.5z" />
    <glyph glyph-name="Adieresis" unicode="&#xc4;" horiz-adv-x="630" 
d="M280 680q7 21 16.5 29.5t23.5 8.5q19 0 28.5 -8t9.5 -18q0 -7 -6 -17l233 -675h-57l-66 195h-294l-66 -195h-57zM447 241l-131 402l-131 -402h262zM195 792q-13 13 -13 31t13 31t32 13q17 0 30 -13t13 -31t-13 -31t-30 -13q-19 0 -32 13zM384 792q-13 13 -13 31t13 31
t32 13q17 0 30 -13t13 -31t-13 -31t-30 -13q-19 0 -32 13z" />
    <glyph glyph-name="Aring" unicode="&#xc5;" horiz-adv-x="630" 
d="M280 680q7 21 16.5 29.5t23.5 8.5q19 0 28.5 -8t9.5 -18q0 -7 -6 -17l233 -675h-57l-66 195h-294l-66 -195h-57zM447 241l-131 402l-131 -402h262zM251 781.5q-29 24.5 -29 67.5t29 68t69 25t69 -25t29 -68t-29 -67.5t-69 -24.5t-69 24.5zM361 808.5q16 14.5 16 40.5
q0 27 -16 42t-41 15t-41 -15t-16 -42q0 -26 16 -40.5t41 -14.5t41 14.5z" />
    <glyph glyph-name="AE" unicode="&#xc6;" horiz-adv-x="800" 
d="M369 700h367v-46h-291v-264h207v-46h-207v-298h300v-46h-353v195h-192l-88 -195h-57zM392 241v384l-172 -384h172z" />
    <glyph glyph-name="Ccedilla" unicode="&#xc7;" horiz-adv-x="605" 
d="M425 -132q0 -37 -22.5 -57.5t-68.5 -20.5q-20 0 -42.5 6.5t-40.5 18.5l17 35q32 -21 69 -21q21 0 32.5 10.5t11.5 29.5q0 22 -18.5 33t-49.5 9l-17 19l37 61q-84 6 -147 54t-97 127t-34 179q0 105 36.5 186.5t103 127t155.5 45.5q52 0 99 -17t83 -50l-26 -46
q-61 64 -156 64q-73 0 -127.5 -42t-83 -112.5t-28.5 -155.5q0 -87 30 -158t86.5 -112.5t132.5 -41.5q44 0 84.5 15.5t67.5 45.5l38 -35q-35 -33 -78.5 -51.5t-89.5 -22.5l-32 -52q75 -8 75 -71z" />
    <glyph glyph-name="Egrave" unicode="&#xc8;" horiz-adv-x="509" 
d="M81 631q0 13 -4 20.5t-12 16.5q-6 6 -8 10t-1 9q3 10 12.5 20.5t22.5 10.5q4 0 12 -5.5t13 -12.5h329v-46h-310v-264h226v-46h-226v-298h319v-46h-373v631zM144 948h58l87 -172h-43z" />
    <glyph glyph-name="Eacute" unicode="&#xc9;" horiz-adv-x="509" 
d="M81 631q0 13 -4 20.5t-12 16.5q-6 6 -8 10t-1 9q3 10 12.5 20.5t22.5 10.5q4 0 12 -5.5t13 -12.5h329v-46h-310v-264h226v-46h-226v-298h319v-46h-373v631zM328 948h58l-102 -172h-43z" />
    <glyph glyph-name="Ecircumflex" unicode="&#xca;" horiz-adv-x="509" 
d="M81 631q0 13 -4 20.5t-12 16.5q-6 6 -8 10t-1 9q3 10 12.5 20.5t22.5 10.5q4 0 12 -5.5t13 -12.5h329v-46h-310v-264h226v-46h-226v-298h319v-46h-373v631zM244 932q8 10 12.5 13t12.5 3q15 0 22.5 -8t3.5 -15l-3 -5l118 -134h-58l-88 109l-84 -109h-58z" />
    <glyph glyph-name="Edieresis" unicode="&#xcb;" horiz-adv-x="509" 
d="M81 631q0 13 -4 20.5t-12 16.5q-6 6 -8 10t-1 9q3 10 12.5 20.5t22.5 10.5q4 0 12 -5.5t13 -12.5h329v-46h-310v-264h226v-46h-226v-298h319v-46h-373v631zM140 792q-13 13 -13 31t13 31t32 13q17 0 30 -13t13 -31t-13 -31t-30 -13q-19 0 -32 13zM329 792q-13 13 -13 31
t13 31t32 13q17 0 30 -13t13 -31t-13 -31t-30 -13q-19 0 -32 13z" />
    <glyph glyph-name="Igrave" unicode="&#xcc;" horiz-adv-x="294" 
d="M120 700h54v-700h-54v700zM26 948h58l87 -172h-43z" />
    <glyph glyph-name="Iacute" unicode="&#xcd;" horiz-adv-x="294" 
d="M120 700h54v-700h-54v700zM210 948h58l-102 -172h-43z" />
    <glyph glyph-name="Icircumflex" unicode="&#xce;" horiz-adv-x="294" 
d="M120 700h54v-700h-54v700zM126 932q8 10 12.5 13t12.5 3q15 0 22.5 -8t3.5 -15l-3 -5l118 -134h-58l-88 109l-84 -109h-58z" />
    <glyph glyph-name="Idieresis" unicode="&#xcf;" horiz-adv-x="294" 
d="M120 700h54v-700h-54v700zM22 792q-13 13 -13 31t13 31t32 13q17 0 30 -13t13 -31t-13 -31t-30 -13q-19 0 -32 13zM211 792q-13 13 -13 31t13 31t32 13q17 0 30 -13t13 -31t-13 -31t-30 -13q-19 0 -32 13z" />
    <glyph glyph-name="Eth" unicode="&#xd0;" horiz-adv-x="669" 
d="M531.5 610.5q82.5 -89.5 82.5 -258.5q0 -174 -78.5 -263t-226.5 -89h-178v326h-76v46h76v259q0 13 -4 20.5t-12 16.5q-6 6 -8 10t-1 9q3 10 13 20.5t23 10.5q9 0 25 -18h137q145 0 227.5 -89.5zM558 352q0 150 -67.5 226t-189.5 76h-116v-282h166v-46h-166v-280h124
q249 0 249 306z" />
    <glyph glyph-name="Ntilde" unicode="&#xd1;" horiz-adv-x="617" 
d="M77 634q0 13 -4 20.5t-11 15.5t-7 14q0 10 10.5 22t24.5 12t25 -17l368 -597v596h54v-700h-48l-358 579v-579h-54v634zM166 814q3 32 25 53.5t53 21.5q23 0 40.5 -8.5t39.5 -24.5q16 -11 25.5 -16t19.5 -5q20 0 31 12.5t16 41.5l34 -18q-3 -32 -25 -53.5t-53 -21.5
q-20 0 -36 8t-35 22q-19 13 -30 18.5t-24 5.5q-20 0 -31 -12.5t-16 -41.5z" />
    <glyph glyph-name="Ograve" unicode="&#xd2;" horiz-adv-x="652" 
d="M124 86q-69 96 -69 264t69 264t202 96t202 -96t69 -264t-69 -264t-202 -96t-202 96zM490 124q51 85 51 226t-51 226t-164 85t-164 -85t-51 -226t51 -226t164 -85t164 85zM205 948h58l87 -172h-43z" />
    <glyph glyph-name="Oacute" unicode="&#xd3;" horiz-adv-x="652" 
d="M124 86q-69 96 -69 264t69 264t202 96t202 -96t69 -264t-69 -264t-202 -96t-202 96zM490 124q51 85 51 226t-51 226t-164 85t-164 -85t-51 -226t51 -226t164 -85t164 85zM389 948h58l-102 -172h-43z" />
    <glyph glyph-name="Ocircumflex" unicode="&#xd4;" horiz-adv-x="652" 
d="M124 86q-69 96 -69 264t69 264t202 96t202 -96t69 -264t-69 -264t-202 -96t-202 96zM490 124q51 85 51 226t-51 226t-164 85t-164 -85t-51 -226t51 -226t164 -85t164 85zM305 932q8 10 12.5 13t12.5 3q15 0 22.5 -8t3.5 -15l-3 -5l118 -134h-58l-88 109l-84 -109h-58z
" />
    <glyph glyph-name="Otilde" unicode="&#xd5;" horiz-adv-x="652" 
d="M124 86q-69 96 -69 264t69 264t202 96t202 -96t69 -264t-69 -264t-202 -96t-202 96zM490 124q51 85 51 226t-51 226t-164 85t-164 -85t-51 -226t51 -226t164 -85t164 85zM184 814q3 32 25 53.5t53 21.5q23 0 40.5 -8.5t39.5 -24.5q16 -11 25.5 -16t19.5 -5q20 0 31 12.5
t16 41.5l34 -18q-3 -32 -25 -53.5t-53 -21.5q-20 0 -36 8t-35 22q-19 13 -30 18.5t-24 5.5q-20 0 -31 -12.5t-16 -41.5z" />
    <glyph glyph-name="Odieresis" unicode="&#xd6;" horiz-adv-x="652" 
d="M124 86q-69 96 -69 264t69 264t202 96t202 -96t69 -264t-69 -264t-202 -96t-202 96zM490 124q51 85 51 226t-51 226t-164 85t-164 -85t-51 -226t51 -226t164 -85t164 85zM201 792q-13 13 -13 31t13 31t32 13q17 0 30 -13t13 -31t-13 -31t-30 -13q-19 0 -32 13zM390 792
q-13 13 -13 31t13 31t32 13q17 0 30 -13t13 -31t-13 -31t-30 -13q-19 0 -32 13z" />
    <glyph glyph-name="multiply" unicode="&#xd7;" horiz-adv-x="500" 
d="M81 149l136 136l-136 136l33 32l136 -135l135 135l33 -32l-136 -136l136 -136l-33 -32l-135 136l-136 -136z" />
    <glyph glyph-name="Oslash" unicode="&#xd8;" horiz-adv-x="652" 
d="M597 350q0 -168 -69 -264t-202 -96q-86 0 -148 42l-57 -103l-45 25l63 113q-42 47 -63 119t-21 164q0 168 69 264t202 96q84 0 146 -41l57 102l45 -25l-62 -112q85 -94 85 -284zM167 117l280 506q-49 38 -121 38q-113 0 -164 -85t-51 -226q0 -153 56 -233zM490 124
q51 85 51 226q0 155 -57 234l-280 -506q48 -39 122 -39q113 0 164 85z" />
    <glyph glyph-name="Ugrave" unicode="&#xd9;" horiz-adv-x="644" 
d="M141 53.5q-66 63.5 -66 178.5v468h54v-474q0 -95 51.5 -141t141.5 -46t141.5 46t51.5 141v474h54v-468q0 -115 -66 -178.5t-181 -63.5t-181 63.5zM201 948h58l87 -172h-43z" />
    <glyph glyph-name="Uacute" unicode="&#xda;" horiz-adv-x="644" 
d="M141 53.5q-66 63.5 -66 178.5v468h54v-474q0 -95 51.5 -141t141.5 -46t141.5 46t51.5 141v474h54v-468q0 -115 -66 -178.5t-181 -63.5t-181 63.5zM385 948h58l-102 -172h-43z" />
    <glyph glyph-name="Ucircumflex" unicode="&#xdb;" horiz-adv-x="644" 
d="M141 53.5q-66 63.5 -66 178.5v468h54v-474q0 -95 51.5 -141t141.5 -46t141.5 46t51.5 141v474h54v-468q0 -115 -66 -178.5t-181 -63.5t-181 63.5zM301 932q8 10 12.5 13t12.5 3q15 0 22.5 -8t3.5 -15l-3 -5l118 -134h-58l-88 109l-84 -109h-58z" />
    <glyph glyph-name="Udieresis" unicode="&#xdc;" horiz-adv-x="644" 
d="M141 53.5q-66 63.5 -66 178.5v468h54v-474q0 -95 51.5 -141t141.5 -46t141.5 46t51.5 141v474h54v-468q0 -115 -66 -178.5t-181 -63.5t-181 63.5zM197 792q-13 13 -13 31t13 31t32 13q17 0 30 -13t13 -31t-13 -31t-30 -13q-19 0 -32 13zM386 792q-13 13 -13 31t13 31
t32 13q17 0 30 -13t13 -31t-13 -31t-30 -13q-19 0 -32 13z" />
    <glyph glyph-name="Yacute" unicode="&#xdd;" horiz-adv-x="616" 
d="M283 273l-228 427h59l194 -377l194 377h59l-228 -427v-273h-50v273zM371 948h58l-102 -172h-43z" />
    <glyph glyph-name="Thorn" unicode="&#xde;" horiz-adv-x="572" 
d="M80 700h54v-136h132q113 0 182 -51t69 -163t-69 -163t-182 -51h-132v-136h-54v700zM263 181q198 0 198 169t-198 169h-129v-338h129z" />
    <glyph glyph-name="germandbls" unicode="&#xdf;" horiz-adv-x="590" 
d="M75 521q0 54 25 97t72.5 67.5t111.5 24.5q67 0 115.5 -23.5t73 -63.5t24.5 -87q0 -72 -39 -109t-98 -46v-1q81 -14 128 -59.5t47 -124.5q0 -93 -54.5 -149.5t-146.5 -56.5q-33 0 -69.5 5t-61.5 15l13 44q43 -19 118 -19q66 0 105.5 44.5t39.5 116.5q0 79 -60 119t-149 40
h-33v46h33q171 0 171 135q0 56 -42 92.5t-115 36.5q-74 0 -115 -37t-41 -105v-773h-53v771z" />
    <glyph glyph-name="agrave" unicode="&#xe0;" horiz-adv-x="559" 
d="M149 24.5q-47 34.5 -70.5 91.5t-23.5 125t23.5 126t70.5 93t116 35q60 0 99.5 -24.5t65.5 -68.5v83h52v-367q0 -73 22 -109l-44 -19q-20 29 -24 90l-3 1q-63 -91 -168 -91q-69 0 -116 34.5zM388 87.5q44 50.5 44 125.5v58q0 41 -18.5 82t-56.5 68t-92 27
q-75 0 -115.5 -59t-40.5 -148t40 -146.5t116 -57.5q79 0 123 50.5zM158 733h58l87 -172h-43z" />
    <glyph glyph-name="aacute" unicode="&#xe1;" horiz-adv-x="559" 
d="M149 24.5q-47 34.5 -70.5 91.5t-23.5 125t23.5 126t70.5 93t116 35q60 0 99.5 -24.5t65.5 -68.5v83h52v-367q0 -73 22 -109l-44 -19q-20 29 -24 90l-3 1q-63 -91 -168 -91q-69 0 -116 34.5zM388 87.5q44 50.5 44 125.5v58q0 41 -18.5 82t-56.5 68t-92 27
q-75 0 -115.5 -59t-40.5 -148t40 -146.5t116 -57.5q79 0 123 50.5zM342 733h58l-102 -172h-43z" />
    <glyph glyph-name="acircumflex" unicode="&#xe2;" horiz-adv-x="559" 
d="M149 24.5q-47 34.5 -70.5 91.5t-23.5 125t23.5 126t70.5 93t116 35q60 0 99.5 -24.5t65.5 -68.5v83h52v-367q0 -73 22 -109l-44 -19q-20 29 -24 90l-3 1q-63 -91 -168 -91q-69 0 -116 34.5zM388 87.5q44 50.5 44 125.5v58q0 41 -18.5 82t-56.5 68t-92 27
q-75 0 -115.5 -59t-40.5 -148t40 -146.5t116 -57.5q79 0 123 50.5zM258 717q8 10 12.5 13t12.5 3q15 0 22.5 -8t3.5 -15l-3 -5l118 -134h-58l-88 109l-84 -109h-58z" />
    <glyph glyph-name="atilde" unicode="&#xe3;" horiz-adv-x="559" 
d="M149 24.5q-47 34.5 -70.5 91.5t-23.5 125t23.5 126t70.5 93t116 35q60 0 99.5 -24.5t65.5 -68.5v83h52v-367q0 -73 22 -109l-44 -19q-20 29 -24 90l-3 1q-63 -91 -168 -91q-69 0 -116 34.5zM388 87.5q44 50.5 44 125.5v58q0 41 -18.5 82t-56.5 68t-92 27
q-75 0 -115.5 -59t-40.5 -148t40 -146.5t116 -57.5q79 0 123 50.5zM137 599q3 32 25 53.5t53 21.5q23 0 40.5 -8.5t39.5 -24.5q16 -11 25.5 -16t19.5 -5q20 0 31 12.5t16 41.5l34 -18q-3 -32 -25 -53.5t-53 -21.5q-20 0 -36 8t-35 22q-19 13 -30 18.5t-24 5.5
q-20 0 -31 -12.5t-16 -41.5z" />
    <glyph glyph-name="adieresis" unicode="&#xe4;" horiz-adv-x="559" 
d="M149 24.5q-47 34.5 -70.5 91.5t-23.5 125t23.5 126t70.5 93t116 35q60 0 99.5 -24.5t65.5 -68.5v83h52v-367q0 -73 22 -109l-44 -19q-20 29 -24 90l-3 1q-63 -91 -168 -91q-69 0 -116 34.5zM388 87.5q44 50.5 44 125.5v58q0 41 -18.5 82t-56.5 68t-92 27
q-75 0 -115.5 -59t-40.5 -148t40 -146.5t116 -57.5q79 0 123 50.5zM154 577q-13 13 -13 31t13 31t32 13q17 0 30 -13t13 -31t-13 -31t-30 -13q-19 0 -32 13zM343 577q-13 13 -13 31t13 31t32 13q17 0 30 -13t13 -31t-13 -31t-30 -13q-19 0 -32 13z" />
    <glyph glyph-name="aring" unicode="&#xe5;" horiz-adv-x="559" 
d="M149 24.5q-47 34.5 -70.5 91.5t-23.5 125t23.5 126t70.5 93t116 35q60 0 99.5 -24.5t65.5 -68.5v83h52v-367q0 -73 22 -109l-44 -19q-20 29 -24 90l-3 1q-63 -91 -168 -91q-69 0 -116 34.5zM388 87.5q44 50.5 44 125.5v58q0 41 -18.5 82t-56.5 68t-92 27
q-75 0 -115.5 -59t-40.5 -148t40 -146.5t116 -57.5q79 0 123 50.5zM210 566.5q-29 24.5 -29 67.5t29 68t69 25t69 -25t29 -68t-29 -67.5t-69 -24.5t-69 24.5zM320 593.5q16 14.5 16 40.5q0 27 -16 42t-41 15t-41 -15t-16 -42q0 -26 16 -40.5t41 -14.5t41 14.5z" />
    <glyph glyph-name="ae" unicode="&#xe6;" horiz-adv-x="877" 
d="M98.5 30.5q-43.5 40.5 -43.5 110.5q0 64 47.5 104.5t129.5 40.5h168v22q0 60 -39 100t-101 40q-90 0 -147 -49l-29 36q31 28 78.5 44t97.5 16q65 0 106 -27.5t65 -79.5h1q22 50 68.5 78.5t112.5 28.5q114 0 161.5 -70.5t47.5 -168.5q0 -20 -9.5 -29t-31.5 -9h-327v-18
q-2 -73 42 -118t123 -45q41 0 78.5 13t64.5 36l29 -36q-31 -28 -76.5 -44t-95.5 -16q-72 0 -122.5 33t-70.5 87h-1q-26 -53 -78 -86.5t-120 -33.5q-85 0 -128.5 40.5zM770 264q0 86 -37.5 135t-119.5 49q-51 0 -87 -23.5t-54 -59.5t-19 -75v-26h317zM319.5 59.5
q39.5 22.5 60.5 59t21 76.5v45h-173q-61 0 -91 -27.5t-30 -71.5q0 -49 27 -76.5t93 -27.5q53 0 92.5 22.5z" />
    <glyph glyph-name="ccedilla" unicode="&#xe7;" horiz-adv-x="509" 
d="M361 -132q0 -37 -22.5 -57.5t-68.5 -20.5q-20 0 -42.5 6.5t-40.5 18.5l17 35q32 -21 69 -21q21 0 32.5 10.5t11.5 29.5q0 22 -18.5 33t-49.5 9l-17 19l37 61q-99 8 -156.5 75t-57.5 176q0 76 29 133t81.5 88.5t120.5 31.5q41 0 85 -14t70 -39l-23 -42q-17 20 -54 34
t-77 14q-83 0 -130.5 -54.5t-47.5 -151.5q0 -94 49.5 -149.5t138.5 -55.5q33 0 68.5 12t54.5 34l34 -35q-23 -23 -59.5 -38t-76.5 -19l-32 -52q75 -8 75 -71z" />
    <glyph glyph-name="egrave" unicode="&#xe8;" horiz-adv-x="538" 
d="M159 21.5q-51 31.5 -77.5 88t-26.5 129.5q0 108 50.5 182t163.5 74q82 0 130 -40t66 -94.5t18 -104.5q0 -20 -9.5 -29t-31.5 -9h-332q0 -82 44 -131.5t126 -49.5q41 0 78.5 13t64.5 36l29 -36q-31 -28 -76.5 -44t-95.5 -16q-70 0 -121 31.5zM431 264q0 77 -40.5 130.5
t-121.5 53.5q-56 0 -92 -28.5t-52 -70.5t-16 -85h322zM148 733h58l87 -172h-43z" />
    <glyph glyph-name="eacute" unicode="&#xe9;" horiz-adv-x="538" 
d="M159 21.5q-51 31.5 -77.5 88t-26.5 129.5q0 108 50.5 182t163.5 74q82 0 130 -40t66 -94.5t18 -104.5q0 -20 -9.5 -29t-31.5 -9h-332q0 -82 44 -131.5t126 -49.5q41 0 78.5 13t64.5 36l29 -36q-31 -28 -76.5 -44t-95.5 -16q-70 0 -121 31.5zM431 264q0 77 -40.5 130.5
t-121.5 53.5q-56 0 -92 -28.5t-52 -70.5t-16 -85h322zM332 733h58l-102 -172h-43z" />
    <glyph glyph-name="ecircumflex" unicode="&#xea;" horiz-adv-x="538" 
d="M159 21.5q-51 31.5 -77.5 88t-26.5 129.5q0 108 50.5 182t163.5 74q82 0 130 -40t66 -94.5t18 -104.5q0 -20 -9.5 -29t-31.5 -9h-332q0 -82 44 -131.5t126 -49.5q41 0 78.5 13t64.5 36l29 -36q-31 -28 -76.5 -44t-95.5 -16q-70 0 -121 31.5zM431 264q0 77 -40.5 130.5
t-121.5 53.5q-56 0 -92 -28.5t-52 -70.5t-16 -85h322zM248 717q8 10 12.5 13t12.5 3q15 0 22.5 -8t3.5 -15l-3 -5l118 -134h-58l-88 109l-84 -109h-58z" />
    <glyph glyph-name="edieresis" unicode="&#xeb;" horiz-adv-x="538" 
d="M159 21.5q-51 31.5 -77.5 88t-26.5 129.5q0 108 50.5 182t163.5 74q82 0 130 -40t66 -94.5t18 -104.5q0 -20 -9.5 -29t-31.5 -9h-332q0 -82 44 -131.5t126 -49.5q41 0 78.5 13t64.5 36l29 -36q-31 -28 -76.5 -44t-95.5 -16q-70 0 -121 31.5zM431 264q0 77 -40.5 130.5
t-121.5 53.5q-56 0 -92 -28.5t-52 -70.5t-16 -85h322zM144 577q-13 13 -13 31t13 31t32 13q17 0 30 -13t13 -31t-13 -31t-30 -13q-19 0 -32 13zM333 577q-13 13 -13 31t13 31t32 13q17 0 30 -13t13 -31t-13 -31t-30 -13q-19 0 -32 13z" />
    <glyph glyph-name="igrave" unicode="&#xec;" horiz-adv-x="246" 
d="M97 485h52v-485h-52v485zM2 733h58l87 -172h-43z" />
    <glyph glyph-name="iacute" unicode="&#xed;" horiz-adv-x="246" 
d="M97 485h52v-485h-52v485zM186 733h58l-102 -172h-43z" />
    <glyph glyph-name="icircumflex" unicode="&#xee;" horiz-adv-x="246" 
d="M97 485h52v-485h-52v485zM102 717q8 10 12.5 13t12.5 3q15 0 22.5 -8t3.5 -15l-3 -5l118 -134h-58l-88 109l-84 -109h-58z" />
    <glyph glyph-name="idieresis" unicode="&#xef;" horiz-adv-x="246" 
d="M97 485h52v-485h-52v485zM-2 577q-13 13 -13 31t13 31t32 13q17 0 30 -13t13 -31t-13 -31t-30 -13q-19 0 -32 13zM187 577q-13 13 -13 31t13 31t32 13q17 0 30 -13t13 -31t-13 -31t-30 -13q-19 0 -32 13z" />
    <glyph glyph-name="eth" unicode="&#xf0;" horiz-adv-x="628" 
d="M177 21q-58 31 -90 90t-32 139q0 76 32 134.5t90.5 91t135.5 32.5q47 0 87 -13t80 -47l3 2q-29 60 -66 103t-95 83l-137 -63l-20 42l114 52q-51 38 -126 63l21 43q86 -32 156 -82l140 65l20 -42l-118 -54q98 -74 149.5 -175.5t51.5 -223.5q0 -79 -32.5 -140.5t-91.5 -96
t-138 -34.5q-76 0 -134 31zM462.5 97.5q54.5 58.5 54.5 163.5q0 100 -53.5 149t-150.5 49q-95 0 -148.5 -55.5t-53.5 -153.5q0 -100 52.5 -155.5t147.5 -55.5q97 0 151.5 58.5z" />
    <glyph glyph-name="ntilde" unicode="&#xf1;" horiz-adv-x="530" 
d="M404 92v215q0 72 -28.5 106.5t-93.5 34.5q-45 0 -80 -25t-54 -65t-19 -85v-273h-52v372q0 71 -22 104l47 19q18 -32 25 -93q26 45 69 69t94 24q81 0 123.5 -48.5t42.5 -140.5v-214q0 -23 5.5 -45.5t13.5 -37.5l-47 -19q-24 48 -24 102zM123 599q3 32 25 53.5t53 21.5
q23 0 40.5 -8.5t39.5 -24.5q16 -11 25.5 -16t19.5 -5q20 0 31 12.5t16 41.5l34 -18q-3 -32 -25 -53.5t-53 -21.5q-20 0 -36 8t-35 22q-19 13 -30 18.5t-24 5.5q-20 0 -31 -12.5t-16 -41.5z" />
    <glyph glyph-name="ograve" unicode="&#xf2;" horiz-adv-x="542" 
d="M149.5 25.5q-48.5 34.5 -71.5 91.5t-23 126t23 126t71.5 91.5t121.5 34.5t121.5 -34.5t71.5 -91.5t23 -126t-23 -126t-71.5 -91.5t-121.5 -34.5t-121.5 34.5zM391 94.5q42 56.5 42 148.5t-42 148.5t-120 56.5t-120 -56.5t-42 -148.5t42 -148.5t120 -56.5t120 56.5z
M150 733h58l87 -172h-43z" />
    <glyph glyph-name="oacute" unicode="&#xf3;" horiz-adv-x="542" 
d="M149.5 25.5q-48.5 34.5 -71.5 91.5t-23 126t23 126t71.5 91.5t121.5 34.5t121.5 -34.5t71.5 -91.5t23 -126t-23 -126t-71.5 -91.5t-121.5 -34.5t-121.5 34.5zM391 94.5q42 56.5 42 148.5t-42 148.5t-120 56.5t-120 -56.5t-42 -148.5t42 -148.5t120 -56.5t120 56.5z
M334 733h58l-102 -172h-43z" />
    <glyph glyph-name="ocircumflex" unicode="&#xf4;" horiz-adv-x="542" 
d="M149.5 25.5q-48.5 34.5 -71.5 91.5t-23 126t23 126t71.5 91.5t121.5 34.5t121.5 -34.5t71.5 -91.5t23 -126t-23 -126t-71.5 -91.5t-121.5 -34.5t-121.5 34.5zM391 94.5q42 56.5 42 148.5t-42 148.5t-120 56.5t-120 -56.5t-42 -148.5t42 -148.5t120 -56.5t120 56.5z
M250 717q8 10 12.5 13t12.5 3q15 0 22.5 -8t3.5 -15l-3 -5l118 -134h-58l-88 109l-84 -109h-58z" />
    <glyph glyph-name="otilde" unicode="&#xf5;" horiz-adv-x="542" 
d="M149.5 25.5q-48.5 34.5 -71.5 91.5t-23 126t23 126t71.5 91.5t121.5 34.5t121.5 -34.5t71.5 -91.5t23 -126t-23 -126t-71.5 -91.5t-121.5 -34.5t-121.5 34.5zM391 94.5q42 56.5 42 148.5t-42 148.5t-120 56.5t-120 -56.5t-42 -148.5t42 -148.5t120 -56.5t120 56.5z
M129 599q3 32 25 53.5t53 21.5q23 0 40.5 -8.5t39.5 -24.5q16 -11 25.5 -16t19.5 -5q20 0 31 12.5t16 41.5l34 -18q-3 -32 -25 -53.5t-53 -21.5q-20 0 -36 8t-35 22q-19 13 -30 18.5t-24 5.5q-20 0 -31 -12.5t-16 -41.5z" />
    <glyph glyph-name="odieresis" unicode="&#xf6;" horiz-adv-x="542" 
d="M149.5 25.5q-48.5 34.5 -71.5 91.5t-23 126t23 126t71.5 91.5t121.5 34.5t121.5 -34.5t71.5 -91.5t23 -126t-23 -126t-71.5 -91.5t-121.5 -34.5t-121.5 34.5zM391 94.5q42 56.5 42 148.5t-42 148.5t-120 56.5t-120 -56.5t-42 -148.5t42 -148.5t120 -56.5t120 56.5z
M146 577q-13 13 -13 31t13 31t32 13q17 0 30 -13t13 -31t-13 -31t-30 -13q-19 0 -32 13zM335 577q-13 13 -13 31t13 31t32 13q17 0 30 -13t13 -31t-13 -31t-30 -13q-19 0 -32 13z" />
    <glyph glyph-name="divide" unicode="&#xf7;" horiz-adv-x="500" 
d="M226 394q-11 11 -11 24q0 14 10.5 24.5t24.5 10.5t24.5 -10.5t10.5 -24.5t-10.5 -24.5t-24.5 -10.5q-13 0 -24 11zM64 308h372v-46h-372v46zM226 128q-11 11 -11 24q0 14 10.5 24.5t24.5 10.5t24.5 -10.5t10.5 -24.5t-10.5 -24.5t-24.5 -10.5q-13 0 -24 11z" />
    <glyph glyph-name="oslash" unicode="&#xf8;" horiz-adv-x="542" 
d="M467.5 360q19.5 -54 19.5 -117q0 -69 -23 -126t-71.5 -91.5t-121.5 -34.5q-59 0 -103 23l-47 -85l-45 25l50 91q-36 34 -53.5 85.5t-17.5 112.5q0 69 23 126t71.5 91.5t121.5 34.5q53 0 94 -19l45 80l45 -25l-46 -83q39 -34 58.5 -88zM153 92l189 341q-31 15 -71 15
q-78 0 -120 -56.5t-42 -148.5q0 -95 44 -151zM391 94.5q42 56.5 42 148.5q0 102 -50 158l-191 -343q34 -20 79 -20q78 0 120 56.5z" />
    <glyph glyph-name="ugrave" unicode="&#xf9;" horiz-adv-x="530" 
d="M120 38q-45 48 -45 139l1 308h52v-307q0 -73 30.5 -107t96.5 -34q45 0 78 24.5t50.5 65t17.5 85.5v273h52v-372q0 -71 22 -104l-47 -19q-18 32 -25 93q-26 -45 -65 -69t-88 -24q-85 0 -130 48zM144 733h58l87 -172h-43z" />
    <glyph glyph-name="uacute" unicode="&#xfa;" horiz-adv-x="530" 
d="M120 38q-45 48 -45 139l1 308h52v-307q0 -73 30.5 -107t96.5 -34q45 0 78 24.5t50.5 65t17.5 85.5v273h52v-372q0 -71 22 -104l-47 -19q-18 32 -25 93q-26 -45 -65 -69t-88 -24q-85 0 -130 48zM328 733h58l-102 -172h-43z" />
    <glyph glyph-name="ucircumflex" unicode="&#xfb;" horiz-adv-x="530" 
d="M120 38q-45 48 -45 139l1 308h52v-307q0 -73 30.5 -107t96.5 -34q45 0 78 24.5t50.5 65t17.5 85.5v273h52v-372q0 -71 22 -104l-47 -19q-18 32 -25 93q-26 -45 -65 -69t-88 -24q-85 0 -130 48zM244 717q8 10 12.5 13t12.5 3q15 0 22.5 -8t3.5 -15l-3 -5l118 -134h-58
l-88 109l-84 -109h-58z" />
    <glyph glyph-name="udieresis" unicode="&#xfc;" horiz-adv-x="530" 
d="M120 38q-45 48 -45 139l1 308h52v-307q0 -73 30.5 -107t96.5 -34q45 0 78 24.5t50.5 65t17.5 85.5v273h52v-372q0 -71 22 -104l-47 -19q-18 32 -25 93q-26 -45 -65 -69t-88 -24q-85 0 -130 48zM140 577q-13 13 -13 31t13 31t32 13q17 0 30 -13t13 -31t-13 -31t-30 -13
q-19 0 -32 13zM329 577q-13 13 -13 31t13 31t32 13q17 0 30 -13t13 -31t-13 -31t-30 -13q-19 0 -32 13z" />
    <glyph glyph-name="yacute" unicode="&#xfd;" horiz-adv-x="561" 
d="M98 -185q63 25 104.5 77t55.5 123l-203 470h59l173 -420l160 420h59l-201 -506q-33 -82 -77.5 -131t-113.5 -78zM344 733h58l-102 -172h-43z" />
    <glyph glyph-name="thorn" unicode="&#xfe;" horiz-adv-x="566" 
d="M80 704h52v-302q27 43 69 68t95 25q105 0 160 -71t55 -180q0 -113 -53 -183.5t-162 -70.5q-53 0 -95 25t-69 68v-302h-52v923zM419.5 96.5q37.5 59.5 37.5 147.5q0 85 -38.5 144.5t-118.5 59.5q-50 0 -88 -25t-59 -66t-21 -85v-58q0 -44 20 -84.5t57 -66.5t87 -26
q86 0 123.5 59.5z" />
    <glyph glyph-name="ydieresis" unicode="&#xff;" horiz-adv-x="561" 
d="M98 -185q63 25 104.5 77t55.5 123l-203 470h59l173 -420l160 420h59l-201 -506q-33 -82 -77.5 -131t-113.5 -78zM156 577q-13 13 -13 31t13 31t32 13q17 0 30 -13t13 -31t-13 -31t-30 -13q-19 0 -32 13zM345 577q-13 13 -13 31t13 31t32 13q17 0 30 -13t13 -31t-13 -31
t-30 -13q-19 0 -32 13z" />
    <glyph glyph-name="Amacron" unicode="&#x100;" horiz-adv-x="630" 
d="M280 680q7 21 16.5 29.5t23.5 8.5q19 0 28.5 -8t9.5 -18q0 -7 -6 -17l233 -675h-57l-66 195h-294l-66 -195h-57zM447 241l-131 402l-131 -402h262zM184 855h272v-43h-272v43z" />
    <glyph glyph-name="amacron" unicode="&#x101;" horiz-adv-x="559" 
d="M149 24.5q-47 34.5 -70.5 91.5t-23.5 125t23.5 126t70.5 93t116 35q60 0 99.5 -24.5t65.5 -68.5v83h52v-367q0 -73 22 -109l-44 -19q-20 29 -24 90l-3 1q-63 -91 -168 -91q-69 0 -116 34.5zM388 87.5q44 50.5 44 125.5v58q0 41 -18.5 82t-56.5 68t-92 27
q-75 0 -115.5 -59t-40.5 -148t40 -146.5t116 -57.5q79 0 123 50.5zM143 640h272v-43h-272v43z" />
    <glyph glyph-name="Abreve" unicode="&#x102;" horiz-adv-x="630" 
d="M280 680q7 21 16.5 29.5t23.5 8.5q19 0 28.5 -8t9.5 -18q0 -7 -6 -17l233 -675h-57l-66 195h-294l-66 -195h-57zM447 241l-131 402l-131 -402h262zM232 800.5q-33 33.5 -33 92.5v9h46v-8q0 -89 75 -89t75 89v8h46v-9q0 -59 -33 -92.5t-88 -33.5t-88 33.5z" />
    <glyph glyph-name="abreve" unicode="&#x103;" horiz-adv-x="559" 
d="M149 24.5q-47 34.5 -70.5 91.5t-23.5 125t23.5 126t70.5 93t116 35q60 0 99.5 -24.5t65.5 -68.5v83h52v-367q0 -73 22 -109l-44 -19q-20 29 -24 90l-3 1q-63 -91 -168 -91q-69 0 -116 34.5zM388 87.5q44 50.5 44 125.5v58q0 41 -18.5 82t-56.5 68t-92 27
q-75 0 -115.5 -59t-40.5 -148t40 -146.5t116 -57.5q79 0 123 50.5zM191 585.5q-33 33.5 -33 92.5v9h46v-8q0 -89 75 -89t75 89v8h46v-9q0 -59 -33 -92.5t-88 -33.5t-88 33.5z" />
    <glyph glyph-name="Aogonek" unicode="&#x104;" horiz-adv-x="630" 
d="M280 680q7 21 16.5 29.5t23.5 8.5q19 0 28.5 -8t9.5 -18q0 -7 -6 -17l233 -675h-57l-66 195h-294l-66 -195h-57zM447 241l-131 402l-131 -402h262zM477.5 -191.5q-26.5 24.5 -26.5 64.5q0 39 24.5 73.5t63.5 53.5h46q-47 -31 -69.5 -59.5t-22.5 -67.5q0 -52 59 -52
q24 0 57 19l10 -32q-36 -24 -75 -24q-40 0 -66.5 24.5z" />
    <glyph glyph-name="aogonek" unicode="&#x105;" horiz-adv-x="559" 
d="M538 -183q-36 -24 -75 -24q-40 0 -66.5 24.5t-26.5 64.5q0 38 22.5 71.5t58.5 52.5q-13 34 -15 74l-3 1q-63 -91 -168 -91q-69 0 -116 34.5t-70.5 91.5t-23.5 125t23.5 126t70.5 93t116 35q60 0 99.5 -24.5t65.5 -68.5v83h52v-367q0 -73 22 -109q-47 -31 -69.5 -59.5
t-22.5 -67.5q0 -52 59 -52q24 0 57 19zM432 271q0 41 -18.5 82t-56.5 68t-92 27q-75 0 -115.5 -59t-40.5 -148t40 -146.5t116 -57.5q79 0 123 50.5t44 125.5v58z" />
    <glyph glyph-name="Cacute" unicode="&#x106;" horiz-adv-x="605" 
d="M198 36q-69 46 -106 128t-37 187t36.5 186.5t103 127t155.5 45.5q52 0 99 -17t83 -50l-26 -46q-61 64 -156 64q-73 0 -127.5 -42t-83 -112.5t-28.5 -155.5q0 -87 30 -158t86.5 -112.5t132.5 -41.5q44 0 84.5 15.5t67.5 45.5l38 -35q-39 -37 -89 -56t-103 -19
q-91 0 -160 46zM404 948h58l-102 -172h-43z" />
    <glyph glyph-name="cacute" unicode="&#x107;" horiz-adv-x="509" 
d="M119 58q-64 68 -64 184q0 76 29 133t81.5 88.5t120.5 31.5q41 0 85 -14t70 -39l-23 -42q-17 20 -54 34t-77 14q-83 0 -130.5 -54.5t-47.5 -151.5q0 -94 49.5 -149.5t138.5 -55.5q33 0 68.5 12t54.5 34l34 -35q-27 -27 -72 -42.5t-89 -15.5q-110 0 -174 68zM350 733h58
l-102 -172h-43z" />
    <glyph glyph-name="Ccircumflex" unicode="&#x108;" horiz-adv-x="605" 
d="M198 36q-69 46 -106 128t-37 187t36.5 186.5t103 127t155.5 45.5q52 0 99 -17t83 -50l-26 -46q-61 64 -156 64q-73 0 -127.5 -42t-83 -112.5t-28.5 -155.5q0 -87 30 -158t86.5 -112.5t132.5 -41.5q44 0 84.5 15.5t67.5 45.5l38 -35q-39 -37 -89 -56t-103 -19
q-91 0 -160 46zM320 932q8 10 12.5 13t12.5 3q15 0 22.5 -8t3.5 -15l-3 -5l118 -134h-58l-88 109l-84 -109h-58z" />
    <glyph glyph-name="ccircumflex" unicode="&#x109;" horiz-adv-x="509" 
d="M119 58q-64 68 -64 184q0 76 29 133t81.5 88.5t120.5 31.5q41 0 85 -14t70 -39l-23 -42q-17 20 -54 34t-77 14q-83 0 -130.5 -54.5t-47.5 -151.5q0 -94 49.5 -149.5t138.5 -55.5q33 0 68.5 12t54.5 34l34 -35q-27 -27 -72 -42.5t-89 -15.5q-110 0 -174 68zM266 717
q8 10 12.5 13t12.5 3q15 0 22.5 -8t3.5 -15l-3 -5l118 -134h-58l-88 109l-84 -109h-58z" />
    <glyph glyph-name="Cdotaccent" unicode="&#x10a;" horiz-adv-x="605" 
d="M198 36q-69 46 -106 128t-37 187t36.5 186.5t103 127t155.5 45.5q52 0 99 -17t83 -50l-26 -46q-61 64 -156 64q-73 0 -127.5 -42t-83 -112.5t-28.5 -155.5q0 -87 30 -158t86.5 -112.5t132.5 -41.5q44 0 84.5 15.5t67.5 45.5l38 -35q-39 -37 -89 -56t-103 -19
q-91 0 -160 46zM310 822q-13 13 -13 31t13 31t32 13q17 0 30 -13t13 -31t-13 -31t-30 -13q-19 0 -32 13z" />
    <glyph glyph-name="cdotaccent" unicode="&#x10b;" horiz-adv-x="509" 
d="M119 58q-64 68 -64 184q0 76 29 133t81.5 88.5t120.5 31.5q41 0 85 -14t70 -39l-23 -42q-17 20 -54 34t-77 14q-83 0 -130.5 -54.5t-47.5 -151.5q0 -94 49.5 -149.5t138.5 -55.5q33 0 68.5 12t54.5 34l34 -35q-27 -27 -72 -42.5t-89 -15.5q-110 0 -174 68zM256 607
q-13 13 -13 31t13 31t32 13q17 0 30 -13t13 -31t-13 -31t-30 -13q-19 0 -32 13z" />
    <glyph glyph-name="Ccaron" unicode="&#x10c;" horiz-adv-x="605" 
d="M198 36q-69 46 -106 128t-37 187t36.5 186.5t103 127t155.5 45.5q52 0 99 -17t83 -50l-26 -46q-61 64 -156 64q-73 0 -127.5 -42t-83 -112.5t-28.5 -155.5q0 -87 30 -158t86.5 -112.5t132.5 -41.5q44 0 84.5 15.5t67.5 45.5l38 -35q-39 -37 -89 -56t-103 -19
q-91 0 -160 46zM316.5 794q-7.5 8 -3.5 15l3 5l-118 134h58l88 -109l84 109h58l-122 -146q-8 -10 -12.5 -13t-12.5 -3q-15 0 -22.5 8z" />
    <glyph glyph-name="ccaron" unicode="&#x10d;" horiz-adv-x="509" 
d="M119 58q-64 68 -64 184q0 76 29 133t81.5 88.5t120.5 31.5q41 0 85 -14t70 -39l-23 -42q-17 20 -54 34t-77 14q-83 0 -130.5 -54.5t-47.5 -151.5q0 -94 49.5 -149.5t138.5 -55.5q33 0 68.5 12t54.5 34l34 -35q-27 -27 -72 -42.5t-89 -15.5q-110 0 -174 68zM262.5 579
q-7.5 8 -3.5 15l3 5l-118 134h58l88 -109l84 109h58l-122 -146q-8 -10 -12.5 -13t-12.5 -3q-15 0 -22.5 8z" />
    <glyph glyph-name="Dcaron" unicode="&#x10e;" horiz-adv-x="618" 
d="M80 631q0 13 -4 20.5t-12 16.5q-6 6 -8 10t-1 9q3 10 13 20.5t23 10.5q9 0 25 -18h137q145 0 227.5 -89.5t82.5 -258.5q0 -174 -78.5 -263t-226.5 -89h-178v631zM258 46q249 0 249 306q0 150 -67.5 226t-189.5 76h-116v-608h124zM284.5 794q-7.5 8 -3.5 15l3 5l-118 134
h58l88 -109l84 109h58l-122 -146q-8 -10 -12.5 -13t-12.5 -3q-15 0 -22.5 8z" />
    <glyph glyph-name="dcaron" unicode="&#x10f;" horiz-adv-x="709" 
d="M547 566q29 14 46 34t20 41q-5 -2 -15 -2q-18 0 -31 12t-13 32q0 23 13.5 37.5t35.5 14.5q25 0 38 -16.5t13 -44.5q0 -42 -24.5 -77t-67.5 -56zM443.5 25.5q-8.5 26.5 -8.5 57.5q-27 -42 -70.5 -67.5t-98.5 -25.5q-103 0 -157 68.5t-54 178.5q0 113 53 185.5t162 72.5
q54 0 96 -25.5t68 -67.5v332h52v-614q0 -44 6 -68t17 -43l-47 -19q-10 9 -18.5 35.5zM354 62q38 25 59 66t21 85v58q0 44 -20 84.5t-57 66.5t-87 26q-86 0 -123.5 -61t-37.5 -150q0 -85 38.5 -142.5t118.5 -57.5q50 0 88 25z" />
    <glyph glyph-name="Dcroat" unicode="&#x110;" horiz-adv-x="669" 
d="M531.5 610.5q82.5 -89.5 82.5 -258.5q0 -174 -78.5 -263t-226.5 -89h-178v326h-76v46h76v259q0 13 -4 20.5t-12 16.5q-6 6 -8 10t-1 9q3 10 13 20.5t23 10.5q9 0 25 -18h137q145 0 227.5 -89.5zM558 352q0 150 -67.5 226t-189.5 76h-116v-282h166v-46h-166v-280h124
q249 0 249 306z" />
    <glyph glyph-name="dcroat" unicode="&#x111;" horiz-adv-x="604" 
d="M486 593v-473q0 -44 6 -68t17 -43l-47 -19q-10 9 -18.5 35.5t-8.5 57.5q-27 -42 -70.5 -67.5t-98.5 -25.5q-103 0 -157 68.5t-54 178.5q0 113 53 185.5t162 72.5q54 0 96 -25.5t68 -67.5v191h-117v46h117v95h52v-95h63v-46h-63zM434 271q0 44 -20 84.5t-57 66.5t-87 26
q-86 0 -123.5 -61t-37.5 -150q0 -85 38.5 -142.5t118.5 -57.5q50 0 88 25t59 66t21 85v58z" />
    <glyph glyph-name="Emacron" unicode="&#x112;" horiz-adv-x="509" 
d="M81 631q0 13 -4 20.5t-12 16.5q-6 6 -8 10t-1 9q3 10 12.5 20.5t22.5 10.5q4 0 12 -5.5t13 -12.5h329v-46h-310v-264h226v-46h-226v-298h319v-46h-373v631zM129 855h272v-43h-272v43z" />
    <glyph glyph-name="emacron" unicode="&#x113;" horiz-adv-x="538" 
d="M159 21.5q-51 31.5 -77.5 88t-26.5 129.5q0 108 50.5 182t163.5 74q82 0 130 -40t66 -94.5t18 -104.5q0 -20 -9.5 -29t-31.5 -9h-332q0 -82 44 -131.5t126 -49.5q41 0 78.5 13t64.5 36l29 -36q-31 -28 -76.5 -44t-95.5 -16q-70 0 -121 31.5zM431 264q0 77 -40.5 130.5
t-121.5 53.5q-56 0 -92 -28.5t-52 -70.5t-16 -85h322zM133 640h272v-43h-272v43z" />
    <glyph glyph-name="Ebreve" unicode="&#x114;" horiz-adv-x="509" 
d="M81 631q0 13 -4 20.5t-12 16.5q-6 6 -8 10t-1 9q3 10 12.5 20.5t22.5 10.5q4 0 12 -5.5t13 -12.5h329v-46h-310v-264h226v-46h-226v-298h319v-46h-373v631zM177 800.5q-33 33.5 -33 92.5v9h46v-8q0 -89 75 -89t75 89v8h46v-9q0 -59 -33 -92.5t-88 -33.5t-88 33.5z" />
    <glyph glyph-name="ebreve" unicode="&#x115;" horiz-adv-x="538" 
d="M159 21.5q-51 31.5 -77.5 88t-26.5 129.5q0 108 50.5 182t163.5 74q82 0 130 -40t66 -94.5t18 -104.5q0 -20 -9.5 -29t-31.5 -9h-332q0 -82 44 -131.5t126 -49.5q41 0 78.5 13t64.5 36l29 -36q-31 -28 -76.5 -44t-95.5 -16q-70 0 -121 31.5zM431 264q0 77 -40.5 130.5
t-121.5 53.5q-56 0 -92 -28.5t-52 -70.5t-16 -85h322zM181 585.5q-33 33.5 -33 92.5v9h46v-8q0 -89 75 -89t75 89v8h46v-9q0 -59 -33 -92.5t-88 -33.5t-88 33.5z" />
    <glyph glyph-name="Edotaccent" unicode="&#x116;" horiz-adv-x="509" 
d="M81 631q0 13 -4 20.5t-12 16.5q-6 6 -8 10t-1 9q3 10 12.5 20.5t22.5 10.5q4 0 12 -5.5t13 -12.5h329v-46h-310v-264h226v-46h-226v-298h319v-46h-373v631zM234 822q-13 13 -13 31t13 31t32 13q17 0 30 -13t13 -31t-13 -31t-30 -13q-19 0 -32 13z" />
    <glyph glyph-name="edotaccent" unicode="&#x117;" horiz-adv-x="538" 
d="M159 21.5q-51 31.5 -77.5 88t-26.5 129.5q0 108 50.5 182t163.5 74q82 0 130 -40t66 -94.5t18 -104.5q0 -20 -9.5 -29t-31.5 -9h-332q0 -82 44 -131.5t126 -49.5q41 0 78.5 13t64.5 36l29 -36q-31 -28 -76.5 -44t-95.5 -16q-70 0 -121 31.5zM431 264q0 77 -40.5 130.5
t-121.5 53.5q-56 0 -92 -28.5t-52 -70.5t-16 -85h322zM238 607q-13 13 -13 31t13 31t32 13q17 0 30 -13t13 -31t-13 -31t-30 -13q-19 0 -32 13z" />
    <glyph glyph-name="Eogonek" unicode="&#x118;" horiz-adv-x="509" 
d="M485 -186q-36 -24 -75 -24q-40 0 -66.5 24.5t-26.5 64.5q0 36 21 68.5t55 52.5h-312v631q0 13 -4 20.5t-12 16.5q-6 6 -8 10t-1 9q3 10 12.5 20.5t22.5 10.5q4 0 12 -5.5t13 -12.5h329v-46h-310v-264h226v-46h-226v-298h319v-46h-12q-43 -29 -63 -56.5t-20 -64.5
q0 -52 59 -52q24 0 57 19z" />
    <glyph glyph-name="eogonek" unicode="&#x119;" horiz-adv-x="538" 
d="M473.5 227q-9.5 -9 -31.5 -9h-332q0 -82 44 -131.5t126 -49.5q41 0 78.5 13t64.5 36l29 -36q-29 -26 -69.5 -41.5t-86.5 -18.5q-35 -25 -52 -51t-17 -60q0 -52 59 -52q24 0 57 19l10 -32q-36 -24 -75 -24q-40 0 -66.5 24.5t-26.5 65.5q0 33 17 62.5t46 49.5
q-91 10 -142 77.5t-51 169.5q0 108 50.5 182t163.5 74q82 0 130 -40t66 -94.5t18 -104.5q0 -20 -9.5 -29zM431 264q0 77 -40.5 130.5t-121.5 53.5q-56 0 -92 -28.5t-52 -70.5t-16 -85h322z" />
    <glyph glyph-name="Ecaron" unicode="&#x11a;" horiz-adv-x="509" 
d="M81 631q0 13 -4 20.5t-12 16.5q-6 6 -8 10t-1 9q3 10 12.5 20.5t22.5 10.5q4 0 12 -5.5t13 -12.5h329v-46h-310v-264h226v-46h-226v-298h319v-46h-373v631zM240.5 794q-7.5 8 -3.5 15l3 5l-118 134h58l88 -109l84 109h58l-122 -146q-8 -10 -12.5 -13t-12.5 -3
q-15 0 -22.5 8z" />
    <glyph glyph-name="ecaron" unicode="&#x11b;" horiz-adv-x="538" 
d="M159 21.5q-51 31.5 -77.5 88t-26.5 129.5q0 108 50.5 182t163.5 74q82 0 130 -40t66 -94.5t18 -104.5q0 -20 -9.5 -29t-31.5 -9h-332q0 -82 44 -131.5t126 -49.5q41 0 78.5 13t64.5 36l29 -36q-31 -28 -76.5 -44t-95.5 -16q-70 0 -121 31.5zM431 264q0 77 -40.5 130.5
t-121.5 53.5q-56 0 -92 -28.5t-52 -70.5t-16 -85h322zM244.5 579q-7.5 8 -3.5 15l3 5l-118 134h58l88 -109l84 109h58l-122 -146q-8 -10 -12.5 -13t-12.5 -3q-15 0 -22.5 8z" />
    <glyph glyph-name="Gcircumflex" unicode="&#x11c;" horiz-adv-x="636" 
d="M192 36q-67 46 -102 127.5t-35 187.5q0 105 36.5 186.5t103 127t155.5 45.5q61 0 106 -17t81 -50l-26 -45q-30 33 -68.5 48t-92.5 15q-73 0 -127.5 -42t-83 -112.5t-28.5 -155.5q0 -88 28 -158.5t83 -112t133 -41.5q50 0 84.5 9.5t64.5 30.5v237h-173v46h192q10 13 22 13
q14 0 25 -12t11 -23q0 -7 -7 -13t-11.5 -12t-4.5 -22v-243q-55 -33 -99.5 -46.5t-105.5 -13.5q-94 0 -161 46zM329 932q8 10 12.5 13t12.5 3q15 0 22.5 -8t3.5 -15l-3 -5l118 -134h-58l-88 109l-84 -109h-58z" />
    <glyph glyph-name="gcircumflex" unicode="&#x11d;" horiz-adv-x="560" 
d="M178.5 -210q-37.5 8 -63.5 19l18 45q21 -10 53.5 -17.5t65.5 -7.5q94 0 136 48t42 151v65q-27 -43 -69 -68t-97 -25q-108 0 -158.5 71t-50.5 185q0 104 53.5 171.5t155.5 67.5q59 0 99 -24.5t68 -68.5q0 31 8.5 57.5t18.5 35.5l47 -19q-11 -19 -17 -43t-6 -68v-350
q0 -113 -63.5 -173t-166.5 -60q-36 0 -73.5 8zM351.5 73q37.5 26 58 66.5t20.5 84.5v48q0 44 -20.5 85t-58 66t-87.5 25q-80 0 -117.5 -56t-37.5 -136q0 -90 34.5 -149.5t120.5 -59.5q50 0 87.5 26zM259 717q8 10 12.5 13t12.5 3q15 0 22.5 -8t3.5 -15l-3 -5l118 -134h-58
l-88 109l-84 -109h-58z" />
    <glyph glyph-name="Gbreve" unicode="&#x11e;" horiz-adv-x="636" 
d="M192 36q-67 46 -102 127.5t-35 187.5q0 105 36.5 186.5t103 127t155.5 45.5q61 0 106 -17t81 -50l-26 -45q-30 33 -68.5 48t-92.5 15q-73 0 -127.5 -42t-83 -112.5t-28.5 -155.5q0 -88 28 -158.5t83 -112t133 -41.5q50 0 84.5 9.5t64.5 30.5v237h-173v46h192q10 13 22 13
q14 0 25 -12t11 -23q0 -7 -7 -13t-11.5 -12t-4.5 -22v-243q-55 -33 -99.5 -46.5t-105.5 -13.5q-94 0 -161 46zM262 800.5q-33 33.5 -33 92.5v9h46v-8q0 -89 75 -89t75 89v8h46v-9q0 -59 -33 -92.5t-88 -33.5t-88 33.5z" />
    <glyph glyph-name="gbreve" unicode="&#x11f;" horiz-adv-x="560" 
d="M178.5 -210q-37.5 8 -63.5 19l18 45q21 -10 53.5 -17.5t65.5 -7.5q94 0 136 48t42 151v65q-27 -43 -69 -68t-97 -25q-108 0 -158.5 71t-50.5 185q0 104 53.5 171.5t155.5 67.5q59 0 99 -24.5t68 -68.5q0 31 8.5 57.5t18.5 35.5l47 -19q-11 -19 -17 -43t-6 -68v-350
q0 -113 -63.5 -173t-166.5 -60q-36 0 -73.5 8zM351.5 73q37.5 26 58 66.5t20.5 84.5v48q0 44 -20.5 85t-58 66t-87.5 25q-80 0 -117.5 -56t-37.5 -136q0 -90 34.5 -149.5t120.5 -59.5q50 0 87.5 26zM192 585.5q-33 33.5 -33 92.5v9h46v-8q0 -89 75 -89t75 89v8h46v-9
q0 -59 -33 -92.5t-88 -33.5t-88 33.5z" />
    <glyph glyph-name="Gdotaccent" unicode="&#x120;" horiz-adv-x="636" 
d="M192 36q-67 46 -102 127.5t-35 187.5q0 105 36.5 186.5t103 127t155.5 45.5q61 0 106 -17t81 -50l-26 -45q-30 33 -68.5 48t-92.5 15q-73 0 -127.5 -42t-83 -112.5t-28.5 -155.5q0 -88 28 -158.5t83 -112t133 -41.5q50 0 84.5 9.5t64.5 30.5v237h-173v46h192q10 13 22 13
q14 0 25 -12t11 -23q0 -7 -7 -13t-11.5 -12t-4.5 -22v-243q-55 -33 -99.5 -46.5t-105.5 -13.5q-94 0 -161 46zM319 822q-13 13 -13 31t13 31t32 13q17 0 30 -13t13 -31t-13 -31t-30 -13q-19 0 -32 13z" />
    <glyph glyph-name="gdotaccent" unicode="&#x121;" horiz-adv-x="560" 
d="M178.5 -210q-37.5 8 -63.5 19l18 45q21 -10 53.5 -17.5t65.5 -7.5q94 0 136 48t42 151v65q-27 -43 -69 -68t-97 -25q-108 0 -158.5 71t-50.5 185q0 104 53.5 171.5t155.5 67.5q59 0 99 -24.5t68 -68.5q0 31 8.5 57.5t18.5 35.5l47 -19q-11 -19 -17 -43t-6 -68v-350
q0 -113 -63.5 -173t-166.5 -60q-36 0 -73.5 8zM351.5 73q37.5 26 58 66.5t20.5 84.5v48q0 44 -20.5 85t-58 66t-87.5 25q-80 0 -117.5 -56t-37.5 -136q0 -90 34.5 -149.5t120.5 -59.5q50 0 87.5 26zM249 607q-13 13 -13 31t13 31t32 13q17 0 30 -13t13 -31t-13 -31t-30 -13
q-19 0 -32 13z" />
    <glyph glyph-name="uni0122" unicode="&#x122;" horiz-adv-x="636" 
d="M192 36q-67 46 -102 127.5t-35 187.5q0 105 36.5 186.5t103 127t155.5 45.5q61 0 106 -17t81 -50l-26 -45q-30 33 -68.5 48t-92.5 15q-73 0 -127.5 -42t-83 -112.5t-28.5 -155.5q0 -88 28 -158.5t83 -112t133 -41.5q50 0 84.5 9.5t64.5 30.5v237h-173v46h192q10 13 22 13
q14 0 25 -12t11 -23q0 -7 -7 -13t-11.5 -12t-4.5 -22v-243q-55 -33 -99.5 -46.5t-105.5 -13.5q-94 0 -161 46zM299 -236q29 14 46 34t20 41q-5 -2 -15 -2q-18 0 -31 12t-13 32q0 23 13.5 37.5t35.5 14.5q25 0 38 -16.5t13 -44.5q0 -42 -24.5 -77t-67.5 -56z" />
    <glyph glyph-name="uni0123" unicode="&#x123;" horiz-adv-x="560" 
d="M178.5 -210q-37.5 8 -63.5 19l18 45q21 -10 53.5 -17.5t65.5 -7.5q94 0 136 48t42 151v65q-27 -43 -69 -68t-97 -25q-108 0 -158.5 71t-50.5 185q0 104 53.5 171.5t155.5 67.5q59 0 99 -24.5t68 -68.5q0 31 8.5 57.5t18.5 35.5l47 -19q-11 -19 -17 -43t-6 -68v-350
q0 -113 -63.5 -173t-166.5 -60q-36 0 -73.5 8zM351.5 73q37.5 26 58 66.5t20.5 84.5v48q0 44 -20.5 85t-58 66t-87.5 25q-80 0 -117.5 -56t-37.5 -136q0 -90 34.5 -149.5t120.5 -59.5q50 0 87.5 26zM236 572.5q-13 16.5 -13 44.5q0 42 24.5 77t67.5 56l15 -25
q-29 -14 -46 -34t-20 -41q5 2 15 2q18 0 31 -12t13 -32q0 -23 -13.5 -37.5t-35.5 -14.5q-25 0 -38 16.5z" />
    <glyph glyph-name="Hcircumflex" unicode="&#x124;" horiz-adv-x="621" 
d="M80 700h54v-309h353v309h54v-700h-54v345h-353v-345h-54v700zM290 932q8 10 12.5 13t12.5 3q15 0 22.5 -8t3.5 -15l-3 -5l118 -134h-58l-88 109l-84 -109h-58z" />
    <glyph glyph-name="hcircumflex" unicode="&#x125;" horiz-adv-x="533" 
d="M407 92v215q0 71 -30 106t-94 35q-44 0 -78.5 -25t-53.5 -65.5t-19 -84.5v-273h-52v734h52v-329q23 42 65 66t96 24q81 0 123.5 -48.5t42.5 -140.5v-214q0 -23 5.5 -45.5t13.5 -37.5l-47 -19q-24 48 -24 102zM204 966q8 10 12.5 13t12.5 3q15 0 22.5 -8t3.5 -15l-3 -5
l118 -134h-58l-88 109l-84 -109h-58z" />
    <glyph glyph-name="Hbar" unicode="&#x126;" horiz-adv-x="687" 
d="M652 514h-78v-514h-54v345h-353v-345h-54v514h-78v46h78v140h54v-140h353v140h54v-140h78v-46zM520 514h-353v-123h353v123z" />
    <glyph glyph-name="hbar" unicode="&#x127;" horiz-adv-x="563" 
d="M494.5 46.5q5.5 -22.5 13.5 -37.5l-47 -19q-24 48 -24 102v215q0 71 -30 106t-94 35q-44 0 -78.5 -25t-53.5 -65.5t-19 -84.5v-273h-52v594h-65v46h65v94h52v-94h135v-46h-135v-189q23 42 65 66t96 24q81 0 123.5 -48.5t42.5 -140.5v-214q0 -23 5.5 -45.5z" />
    <glyph glyph-name="Itilde" unicode="&#x128;" horiz-adv-x="294" 
d="M120 700h54v-700h-54v700zM5 814q3 32 25 53.5t53 21.5q23 0 40.5 -8.5t39.5 -24.5q16 -11 25.5 -16t19.5 -5q20 0 31 12.5t16 41.5l34 -18q-3 -32 -25 -53.5t-53 -21.5q-20 0 -36 8t-35 22q-19 13 -30 18.5t-24 5.5q-20 0 -31 -12.5t-16 -41.5z" />
    <glyph glyph-name="itilde" unicode="&#x129;" horiz-adv-x="246" 
d="M97 485h52v-485h-52v485zM-19 599q3 32 25 53.5t53 21.5q23 0 40.5 -8.5t39.5 -24.5q16 -11 25.5 -16t19.5 -5q20 0 31 12.5t16 41.5l34 -18q-3 -32 -25 -53.5t-53 -21.5q-20 0 -36 8t-35 22q-19 13 -30 18.5t-24 5.5q-20 0 -31 -12.5t-16 -41.5z" />
    <glyph glyph-name="Imacron" unicode="&#x12a;" horiz-adv-x="294" 
d="M120 700h54v-700h-54v700zM11 855h272v-43h-272v43z" />
    <glyph glyph-name="imacron" unicode="&#x12b;" horiz-adv-x="246" 
d="M97 485h52v-485h-52v485zM-13 640h272v-43h-272v43z" />
    <glyph glyph-name="Ibreve" unicode="&#x12c;" horiz-adv-x="294" 
d="M120 700h54v-700h-54v700zM59 800.5q-33 33.5 -33 92.5v9h46v-8q0 -89 75 -89t75 89v8h46v-9q0 -59 -33 -92.5t-88 -33.5t-88 33.5z" />
    <glyph glyph-name="ibreve" unicode="&#x12d;" horiz-adv-x="246" 
d="M97 485h52v-485h-52v485zM35 585.5q-33 33.5 -33 92.5v9h46v-8q0 -89 75 -89t75 89v8h46v-9q0 -59 -33 -92.5t-88 -33.5t-88 33.5z" />
    <glyph glyph-name="Iogonek" unicode="&#x12e;" horiz-adv-x="294" 
d="M208 -186q-36 -24 -75 -24q-40 0 -66.5 24.5t-26.5 64.5q0 37 22.5 70.5t57.5 52.5v698h54v-700h-9q-43 -29 -63 -56.5t-20 -64.5q0 -52 59 -52q24 0 57 19z" />
    <glyph glyph-name="iogonek" unicode="&#x12f;" horiz-adv-x="246" 
d="M93 637q-13 13 -13 30t13 30t30 13t30 -13t13 -30t-13 -30t-30 -13t-30 13zM96 485h52v-485h-52v485zM40.5 -191.5q-26.5 24.5 -26.5 64.5q0 39 24.5 73.5t63.5 53.5h46q-47 -31 -69.5 -59.5t-22.5 -67.5q0 -52 59 -52q24 0 57 19l10 -32q-36 -24 -75 -24
q-40 0 -66.5 24.5z" />
    <glyph glyph-name="Idotaccent" unicode="&#x130;" horiz-adv-x="294" 
d="M120 700h54v-700h-54v700zM116 822q-13 13 -13 31t13 31t32 13q17 0 30 -13t13 -31t-13 -31t-30 -13q-19 0 -32 13z" />
    <glyph glyph-name="dotlessi" unicode="&#x131;" horiz-adv-x="246" 
d="M97 485h52v-485h-52v485z" />
    <glyph glyph-name="IJ" unicode="&#x132;" horiz-adv-x="721" 
d="M120 700h54v-700h-54v700zM398.5 0q-35.5 10 -59.5 25l23 45q18 -13 49 -22t56 -9q57 0 88.5 31.5t31.5 90.5v539h54v-536q0 -81 -48.5 -127.5t-129.5 -46.5q-29 0 -64.5 10z" />
    <glyph glyph-name="ij" unicode="&#x133;" horiz-adv-x="567" 
d="M93 662q-13 13 -13 30t13 30t30 13t30 -13t13 -30t-13 -30t-30 -13t-30 13zM414 662q-13 13 -13 30t13 30t30 13t30 -13t13 -30t-13 -30t-30 -13t-30 13zM96 485h52v-485h-52v485zM201 -186l23 41q42 -29 95 -29q54 0 76 30t22 104v525h52v-525q0 -93 -37.5 -136
t-112.5 -43q-64 0 -118 33z" />
    <glyph glyph-name="Jcircumflex" unicode="&#x134;" horiz-adv-x="427" 
d="M104.5 0q-35.5 10 -59.5 25l23 45q18 -13 49 -22t56 -9q57 0 88.5 31.5t31.5 90.5v539h54v-536q0 -81 -48.5 -127.5t-129.5 -46.5q-29 0 -64.5 10zM300 932q8 10 12.5 13t12.5 3q15 0 22.5 -8t3.5 -15l-3 -5l118 -134h-58l-88 109l-84 -109h-58z" />
    <glyph glyph-name="jcircumflex" unicode="&#x135;" horiz-adv-x="411" 
d="M45 -186l23 41q42 -29 95 -29q54 0 76 30t22 104v525h52v-525q0 -93 -37.5 -136t-112.5 -43q-64 0 -118 33zM266 717q8 10 12.5 13t12.5 3q15 0 22.5 -8t3.5 -15l-3 -5l118 -134h-58l-88 109l-84 -109h-58z" />
    <glyph glyph-name="uni0136" unicode="&#x136;" horiz-adv-x="579" 
d="M80 700h54v-325l291 325h70l-303 -334l332 -366h-71l-319 356v-356h-54v700zM239 -236q29 14 46 34t20 41q-5 -2 -15 -2q-18 0 -31 12t-13 32q0 23 13.5 37.5t35.5 14.5q25 0 38 -16.5t13 -44.5q0 -42 -24.5 -77t-67.5 -56z" />
    <glyph glyph-name="uni0137" unicode="&#x137;" horiz-adv-x="483" 
d="M80 734h52v-438l214 189h70l-245 -217l282 -268h-67l-254 240v-240h-52v734zM203 -236q29 14 46 34t20 41q-5 -2 -15 -2q-18 0 -31 12t-13 32q0 23 13.5 37.5t35.5 14.5q25 0 38 -16.5t13 -44.5q0 -42 -24.5 -77t-67.5 -56z" />
    <glyph glyph-name="kgreenlandic" unicode="&#x138;" horiz-adv-x="508" 
d="M80 497h52v-233l214 231h70l-239 -249l276 -246h-67l-254 228v-228h-52v497z" />
    <glyph glyph-name="Lacute" unicode="&#x139;" horiz-adv-x="483" 
d="M65.5 -0.5q-10.5 9.5 -10.5 21.5q0 9 9 18q7 8 10.5 15t3.5 18v628h54v-654h306v-46h-328q-8 -10 -19 -10q-15 0 -25.5 9.5zM174 948h58l-102 -172h-43z" />
    <glyph glyph-name="lacute" unicode="&#x13a;" horiz-adv-x="212" 
d="M80 734h52v-734h-52v734zM169 982h58l-102 -172h-43z" />
    <glyph glyph-name="uni013B" unicode="&#x13b;" horiz-adv-x="483" 
d="M65.5 -0.5q-10.5 9.5 -10.5 21.5q0 9 9 18q7 8 10.5 15t3.5 18v628h54v-654h306v-46h-328q-8 -10 -19 -10q-15 0 -25.5 9.5zM189 -236q29 14 46 34t20 41q-5 -2 -15 -2q-18 0 -31 12t-13 32q0 23 13.5 37.5t35.5 14.5q25 0 38 -16.5t13 -44.5q0 -42 -24.5 -77t-67.5 -56z
" />
    <glyph glyph-name="uni013C" unicode="&#x13c;" horiz-adv-x="212" 
d="M80 734h52v-734h-52v734zM55 -236q29 14 46 34t20 41q-5 -2 -15 -2q-18 0 -31 12t-13 32q0 23 13.5 37.5t35.5 14.5q25 0 38 -16.5t13 -44.5q0 -42 -24.5 -77t-67.5 -56z" />
    <glyph glyph-name="Lcaron" unicode="&#x13d;" horiz-adv-x="483" 
d="M65.5 -0.5q-10.5 9.5 -10.5 21.5q0 9 9 18q7 8 10.5 15t3.5 18v628h54v-654h306v-46h-328q-8 -10 -19 -10q-15 0 -25.5 9.5zM332 541q29 14 46 34t20 41q-5 -2 -15 -2q-18 0 -31 12t-13 32q0 23 13.5 37.5t35.5 14.5q25 0 38 -16.5t13 -44.5q0 -42 -24.5 -77t-67.5 -56z
" />
    <glyph glyph-name="lcaron" unicode="&#x13e;" horiz-adv-x="212" 
d="M80 734h52v-734h-52v734zM201 566q29 14 46 34t20 41q-5 -2 -15 -2q-18 0 -31 12t-13 32q0 23 13.5 37.5t35.5 14.5q25 0 38 -16.5t13 -44.5q0 -42 -24.5 -77t-67.5 -56z" />
    <glyph glyph-name="Ldot" unicode="&#x13f;" horiz-adv-x="483" 
d="M65.5 -0.5q-10.5 9.5 -10.5 21.5q0 9 9 18q7 8 10.5 15t3.5 18v628h54v-654h306v-46h-328q-8 -10 -19 -10q-15 0 -25.5 9.5zM308 309q-13 13 -13 31t13 31t32 13q17 0 30 -13t13 -31t-13 -31t-30 -13q-19 0 -32 13z" />
    <glyph glyph-name="ldot" unicode="&#x140;" horiz-adv-x="290" 
d="M80 734h52v-734h-52v734zM195 335q-13 13 -13 31t13 31t32 13q17 0 30 -13t13 -31t-13 -31t-30 -13q-19 0 -32 13z" />
    <glyph glyph-name="Lslash" unicode="&#x141;" horiz-adv-x="533" 
d="M488 46v-46h-328q-8 -10 -19 -10q-15 0 -25.5 9.5t-10.5 21.5q0 9 9 18q7 8 10.5 15t3.5 18v230l-83 -40v50l83 40v348h54v-322l175 84v-50l-175 -84v-282h306z" />
    <glyph glyph-name="lslash" unicode="&#x142;" horiz-adv-x="242" 
d="M222 362l-75 -37v-325h-52v299l-75 -37v50l75 37v385h52v-359l75 37v-50z" />
    <glyph glyph-name="Nacute" unicode="&#x143;" horiz-adv-x="617" 
d="M77 634q0 13 -4 20.5t-11 15.5t-7 14q0 10 10.5 22t24.5 12t25 -17l368 -597v596h54v-700h-48l-358 579v-579h-54v634zM371 948h58l-102 -172h-43z" />
    <glyph glyph-name="nacute" unicode="&#x144;" horiz-adv-x="530" 
d="M404 92v215q0 72 -28.5 106.5t-93.5 34.5q-45 0 -80 -25t-54 -65t-19 -85v-273h-52v372q0 71 -22 104l47 19q18 -32 25 -93q26 45 69 69t94 24q81 0 123.5 -48.5t42.5 -140.5v-214q0 -23 5.5 -45.5t13.5 -37.5l-47 -19q-24 48 -24 102zM328 733h58l-102 -172h-43z" />
    <glyph glyph-name="uni0145" unicode="&#x145;" horiz-adv-x="617" 
d="M77 634q0 13 -4 20.5t-11 15.5t-7 14q0 10 10.5 22t24.5 12t25 -17l368 -597v596h54v-700h-48l-358 579v-579h-54v634zM257 -236q29 14 46 34t20 41q-5 -2 -15 -2q-18 0 -31 12t-13 32q0 23 13.5 37.5t35.5 14.5q25 0 38 -16.5t13 -44.5q0 -42 -24.5 -77t-67.5 -56z" />
    <glyph glyph-name="uni0146" unicode="&#x146;" horiz-adv-x="530" 
d="M404 92v215q0 72 -28.5 106.5t-93.5 34.5q-45 0 -80 -25t-54 -65t-19 -85v-273h-52v372q0 71 -22 104l47 19q18 -32 25 -93q26 45 69 69t94 24q81 0 123.5 -48.5t42.5 -140.5v-214q0 -23 5.5 -45.5t13.5 -37.5l-47 -19q-24 48 -24 102zM214 -236q29 14 46 34t20 41
q-5 -2 -15 -2q-18 0 -31 12t-13 32q0 23 13.5 37.5t35.5 14.5q25 0 38 -16.5t13 -44.5q0 -42 -24.5 -77t-67.5 -56z" />
    <glyph glyph-name="Ncaron" unicode="&#x147;" horiz-adv-x="617" 
d="M77 634q0 13 -4 20.5t-11 15.5t-7 14q0 10 10.5 22t24.5 12t25 -17l368 -597v596h54v-700h-48l-358 579v-579h-54v634zM283.5 794q-7.5 8 -3.5 15l3 5l-118 134h58l88 -109l84 109h58l-122 -146q-8 -10 -12.5 -13t-12.5 -3q-15 0 -22.5 8z" />
    <glyph glyph-name="ncaron" unicode="&#x148;" horiz-adv-x="530" 
d="M404 92v215q0 72 -28.5 106.5t-93.5 34.5q-45 0 -80 -25t-54 -65t-19 -85v-273h-52v372q0 71 -22 104l47 19q18 -32 25 -93q26 45 69 69t94 24q81 0 123.5 -48.5t42.5 -140.5v-214q0 -23 5.5 -45.5t13.5 -37.5l-47 -19q-24 48 -24 102zM240.5 579q-7.5 8 -3.5 15l3 5
l-118 134h58l88 -109l84 109h58l-122 -146q-8 -10 -12.5 -13t-12.5 -3q-15 0 -22.5 8z" />
    <glyph glyph-name="napostrophe" unicode="&#x149;" horiz-adv-x="530" 
d="M404 92v215q0 72 -28.5 106.5t-93.5 34.5q-45 0 -80 -25t-54 -65t-19 -85v-273h-52v372q0 71 -22 104l47 19q18 -32 25 -93q26 45 69 69t94 24q81 0 123.5 -48.5t42.5 -140.5v-214q0 -23 5.5 -45.5t13.5 -37.5l-47 -19q-24 48 -24 102zM-79 483q29 14 46 34t20 41
q-5 -2 -15 -2q-18 0 -31 12t-13 32q0 23 13.5 37.5t35.5 14.5q25 0 38 -16.5t13 -44.5q0 -42 -24.5 -77t-67.5 -56z" />
    <glyph glyph-name="Eng" unicode="&#x14a;" horiz-adv-x="618" 
d="M304.5 -255q-32.5 10 -56.5 25l23 45q15 -13 44 -22t54 -9q56 0 85.5 31t29.5 91v104l-352 569v-579h-54v634q0 13 -4 21t-12 16.5t-6 15.5q3 10 12.5 20.5t22.5 10.5q5 0 13 -5t12 -12l368 -597v596h54v-791q0 -82 -46 -128t-127 -46q-28 0 -60.5 10z" />
    <glyph glyph-name="eng" unicode="&#x14b;" horiz-adv-x="555" 
d="M188 -186l23 41q42 -29 95 -29q54 0 76 30t22 104v347q0 72 -28.5 106.5t-93.5 34.5q-45 0 -80 -25t-54 -65t-19 -85v-273h-52v372q0 71 -22 104l47 19q18 -32 25 -93q26 45 69 69t94 24q82 0 124.5 -48.5t42.5 -140.5l-1 -346q0 -93 -37.5 -136t-112.5 -43
q-64 0 -118 33z" />
    <glyph glyph-name="Omacron" unicode="&#x14c;" horiz-adv-x="652" 
d="M124 86q-69 96 -69 264t69 264t202 96t202 -96t69 -264t-69 -264t-202 -96t-202 96zM490 124q51 85 51 226t-51 226t-164 85t-164 -85t-51 -226t51 -226t164 -85t164 85zM190 855h272v-43h-272v43z" />
    <glyph glyph-name="omacron" unicode="&#x14d;" horiz-adv-x="542" 
d="M149.5 25.5q-48.5 34.5 -71.5 91.5t-23 126t23 126t71.5 91.5t121.5 34.5t121.5 -34.5t71.5 -91.5t23 -126t-23 -126t-71.5 -91.5t-121.5 -34.5t-121.5 34.5zM391 94.5q42 56.5 42 148.5t-42 148.5t-120 56.5t-120 -56.5t-42 -148.5t42 -148.5t120 -56.5t120 56.5z
M135 640h272v-43h-272v43z" />
    <glyph glyph-name="Obreve" unicode="&#x14e;" horiz-adv-x="652" 
d="M124 86q-69 96 -69 264t69 264t202 96t202 -96t69 -264t-69 -264t-202 -96t-202 96zM490 124q51 85 51 226t-51 226t-164 85t-164 -85t-51 -226t51 -226t164 -85t164 85zM238 800.5q-33 33.5 -33 92.5v9h46v-8q0 -89 75 -89t75 89v8h46v-9q0 -59 -33 -92.5t-88 -33.5
t-88 33.5z" />
    <glyph glyph-name="obreve" unicode="&#x14f;" horiz-adv-x="542" 
d="M149.5 25.5q-48.5 34.5 -71.5 91.5t-23 126t23 126t71.5 91.5t121.5 34.5t121.5 -34.5t71.5 -91.5t23 -126t-23 -126t-71.5 -91.5t-121.5 -34.5t-121.5 34.5zM391 94.5q42 56.5 42 148.5t-42 148.5t-120 56.5t-120 -56.5t-42 -148.5t42 -148.5t120 -56.5t120 56.5z
M183 585.5q-33 33.5 -33 92.5v9h46v-8q0 -89 75 -89t75 89v8h46v-9q0 -59 -33 -92.5t-88 -33.5t-88 33.5z" />
    <glyph glyph-name="Ohungarumlaut" unicode="&#x150;" horiz-adv-x="652" 
d="M124 86q-69 96 -69 264t69 264t202 96t202 -96t69 -264t-69 -264t-202 -96t-202 96zM490 124q51 85 51 226t-51 226t-164 85t-164 -85t-51 -226t51 -226t164 -85t164 85zM315 948h65l-116 -172h-51zM477 948h69l-141 -172h-53z" />
    <glyph glyph-name="ohungarumlaut" unicode="&#x151;" horiz-adv-x="542" 
d="M149.5 25.5q-48.5 34.5 -71.5 91.5t-23 126t23 126t71.5 91.5t121.5 34.5t121.5 -34.5t71.5 -91.5t23 -126t-23 -126t-71.5 -91.5t-121.5 -34.5t-121.5 34.5zM391 94.5q42 56.5 42 148.5t-42 148.5t-120 56.5t-120 -56.5t-42 -148.5t42 -148.5t120 -56.5t120 56.5z
M260 733h65l-116 -172h-51zM422 733h69l-141 -172h-53z" />
    <glyph glyph-name="OE" unicode="&#x152;" horiz-adv-x="963" 
d="M124 86q-69 96 -69 264t69 264t202 96q73 0 126.5 -32t84.5 -89v111h362v-46h-310v-264h226v-46h-225l-1 -298h319v-46h-371v111q-31 -57 -84.5 -89t-126.5 -32q-133 0 -202 96zM490 124q51 85 51 226t-51 226t-164 85t-164 -85t-51 -226t51 -226t164 -85t164 85z" />
    <glyph glyph-name="oe" unicode="&#x153;" horiz-adv-x="912" 
d="M149.5 24.5q-48.5 34.5 -71.5 92t-23 126.5t23 126t71.5 91.5t121.5 34.5q68 0 114 -31.5t71 -86.5q24 54 70 86t117 32q82 0 130 -40t66 -94.5t18 -104.5q0 -20 -9.5 -29t-31.5 -9h-332q0 -85 42 -133t122 -48q41 0 78.5 13t64.5 36l29 -36q-31 -28 -76.5 -44t-95.5 -16
q-69 0 -119 31.5t-73 88.5q-25 -53 -74.5 -86.5t-110.5 -33.5q-73 0 -121.5 34.5zM391 94q42 57 42 149t-42 148.5t-120 56.5t-120 -56.5t-42 -148.5t42 -149t120 -57t120 57zM805 264q0 81 -40 132.5t-122 51.5q-84 0 -122 -53t-38 -131h322z" />
    <glyph glyph-name="Racute" unicode="&#x154;" horiz-adv-x="567" 
d="M80 629q0 13 -4 21t-12 17q-4 5 -7 10t-2 10q3 10 12.5 20.5t22.5 10.5q4 0 12 -5.5t14 -12.5h144q252 0 252 -205q0 -96 -58.5 -145t-147.5 -52l192 -298h-63l-191 296h-110v-296h-54v629zM263 341q101 0 147 37.5t46 116.5q0 78 -47 118.5t-148 40.5h-127v-313h129z
M323 948h58l-102 -172h-43z" />
    <glyph glyph-name="racute" unicode="&#x155;" horiz-adv-x="373" 
d="M77 372q0 71 -22 104l47 19q18 -32 25 -93q23 46 56.5 69.5t82.5 23.5q20 0 35.5 -4t36.5 -14l-23 -41q-22 12 -54 12q-42 0 -71.5 -24.5t-45 -65t-15.5 -85.5v-273h-52v372zM250 733h58l-102 -172h-43z" />
    <glyph glyph-name="uni0156" unicode="&#x156;" horiz-adv-x="567" 
d="M80 629q0 13 -4 21t-12 17q-4 5 -7 10t-2 10q3 10 12.5 20.5t22.5 10.5q4 0 12 -5.5t14 -12.5h144q252 0 252 -205q0 -96 -58.5 -145t-147.5 -52l192 -298h-63l-191 296h-110v-296h-54v629zM263 341q101 0 147 37.5t46 116.5q0 78 -47 118.5t-148 40.5h-127v-313h129z
M229 -236q29 14 46 34t20 41q-5 -2 -15 -2q-18 0 -31 12t-13 32q0 23 13.5 37.5t35.5 14.5q25 0 38 -16.5t13 -44.5q0 -42 -24.5 -77t-67.5 -56z" />
    <glyph glyph-name="uni0157" unicode="&#x157;" horiz-adv-x="373" 
d="M77 372q0 71 -22 104l47 19q18 -32 25 -93q23 46 56.5 69.5t82.5 23.5q20 0 35.5 -4t36.5 -14l-23 -41q-22 12 -54 12q-42 0 -71.5 -24.5t-45 -65t-15.5 -85.5v-273h-52v372zM53 -236q29 14 46 34t20 41q-5 -2 -15 -2q-18 0 -31 12t-13 32q0 23 13.5 37.5t35.5 14.5
q25 0 38 -16.5t13 -44.5q0 -42 -24.5 -77t-67.5 -56z" />
    <glyph glyph-name="Rcaron" unicode="&#x158;" horiz-adv-x="567" 
d="M80 629q0 13 -4 21t-12 17q-4 5 -7 10t-2 10q3 10 12.5 20.5t22.5 10.5q4 0 12 -5.5t14 -12.5h144q252 0 252 -205q0 -96 -58.5 -145t-147.5 -52l192 -298h-63l-191 296h-110v-296h-54v629zM263 341q101 0 147 37.5t46 116.5q0 78 -47 118.5t-148 40.5h-127v-313h129z
M235.5 794q-7.5 8 -3.5 15l3 5l-118 134h58l88 -109l84 109h58l-122 -146q-8 -10 -12.5 -13t-12.5 -3q-15 0 -22.5 8z" />
    <glyph glyph-name="rcaron" unicode="&#x159;" horiz-adv-x="373" 
d="M77 372q0 71 -22 104l47 19q18 -32 25 -93q23 46 56.5 69.5t82.5 23.5q20 0 35.5 -4t36.5 -14l-23 -41q-22 12 -54 12q-42 0 -71.5 -24.5t-45 -65t-15.5 -85.5v-273h-52v372zM162.5 579q-7.5 8 -3.5 15l3 5l-118 134h58l88 -109l84 109h58l-122 -146q-8 -10 -12.5 -13
t-12.5 -3q-15 0 -22.5 8z" />
    <glyph glyph-name="Sacute" unicode="&#x15a;" horiz-adv-x="568" 
d="M159 16.5q-62 26.5 -104 67.5l36 38q87 -84 208 -84q77 0 117.5 32t40.5 89q0 43 -16 69t-54 47t-116 49q-103 37 -150.5 83t-47.5 121q0 84 54 133t156 49q114 0 200 -63l-30 -42q-73 56 -171 56q-77 0 -115 -32.5t-38 -99.5q0 -44 21 -72.5t58.5 -47.5t104.5 -43
q71 -25 114 -52t64.5 -64t21.5 -91q0 -75 -55.5 -122t-158.5 -47q-78 0 -140 26.5zM347 948h58l-102 -172h-43z" />
    <glyph glyph-name="sacute" unicode="&#x15b;" horiz-adv-x="477" 
d="M55 58l35 38q26 -28 70 -44t90 -16q119 0 119 75q0 26 -10.5 42.5t-38 31t-86.5 35.5q-60 22 -94.5 40.5t-52.5 44.5t-18 65q0 56 43.5 90.5t124.5 34.5q48 0 87 -13.5t65 -32.5l-23 -43q-29 22 -60 32.5t-70 10.5q-56 0 -85 -21.5t-29 -57.5q0 -25 12.5 -41.5t33 -27.5
t61.5 -27l29 -12q67 -28 99.5 -45.5t48.5 -41.5t16 -63q0 -58 -45 -90t-128 -32q-126 0 -194 68zM302 733h58l-102 -172h-43z" />
    <glyph glyph-name="Scircumflex" unicode="&#x15c;" horiz-adv-x="568" 
d="M159 16.5q-62 26.5 -104 67.5l36 38q87 -84 208 -84q77 0 117.5 32t40.5 89q0 43 -16 69t-54 47t-116 49q-103 37 -150.5 83t-47.5 121q0 84 54 133t156 49q114 0 200 -63l-30 -42q-73 56 -171 56q-77 0 -115 -32.5t-38 -99.5q0 -44 21 -72.5t58.5 -47.5t104.5 -43
q71 -25 114 -52t64.5 -64t21.5 -91q0 -75 -55.5 -122t-158.5 -47q-78 0 -140 26.5zM263 932q8 10 12.5 13t12.5 3q15 0 22.5 -8t3.5 -15l-3 -5l118 -134h-58l-88 109l-84 -109h-58z" />
    <glyph glyph-name="scircumflex" unicode="&#x15d;" horiz-adv-x="477" 
d="M55 58l35 38q26 -28 70 -44t90 -16q119 0 119 75q0 26 -10.5 42.5t-38 31t-86.5 35.5q-60 22 -94.5 40.5t-52.5 44.5t-18 65q0 56 43.5 90.5t124.5 34.5q48 0 87 -13.5t65 -32.5l-23 -43q-29 22 -60 32.5t-70 10.5q-56 0 -85 -21.5t-29 -57.5q0 -25 12.5 -41.5t33 -27.5
t61.5 -27l29 -12q67 -28 99.5 -45.5t48.5 -41.5t16 -63q0 -58 -45 -90t-128 -32q-126 0 -194 68zM218 717q8 10 12.5 13t12.5 3q15 0 22.5 -8t3.5 -15l-3 -5l118 -134h-58l-88 109l-84 -109h-58z" />
    <glyph glyph-name="Scedilla" unicode="&#x15e;" horiz-adv-x="568" 
d="M461 40.5q-52 -46.5 -147 -50.5l-31 -51q75 -8 75 -71q0 -37 -22.5 -57.5t-68.5 -20.5q-20 0 -42.5 6.5t-40.5 18.5l17 35q32 -21 69 -21q21 0 32.5 10.5t11.5 29.5q0 22 -18.5 33t-49.5 9l-17 19l37 61q-67 6 -120.5 31t-90.5 62l36 38q87 -84 208 -84q77 0 117.5 32
t40.5 89q0 43 -16 69t-54 47t-116 49q-103 37 -150.5 83t-47.5 121q0 84 54 133t156 49q114 0 200 -63l-30 -42q-73 56 -171 56q-77 0 -115 -32.5t-38 -99.5q0 -44 21 -72.5t58.5 -47.5t104.5 -43q71 -25 114 -52t64.5 -64t21.5 -91q0 -72 -52 -118.5z" />
    <glyph glyph-name="scedilla" unicode="&#x15f;" horiz-adv-x="477" 
d="M382.5 26q-39.5 -31 -112.5 -35l-32 -52q75 -8 75 -71q0 -37 -22.5 -57.5t-68.5 -20.5q-20 0 -42.5 6.5t-40.5 18.5l17 35q32 -21 69 -21q21 0 32.5 10.5t11.5 29.5q0 22 -18.5 33t-49.5 9l-17 19l37 61q-106 7 -166 67l35 38q26 -28 70 -44t90 -16q119 0 119 75
q0 26 -10.5 42.5t-38 31t-86.5 35.5q-60 22 -94.5 40.5t-52.5 44.5t-18 65q0 56 43.5 90.5t124.5 34.5q48 0 87 -13.5t65 -32.5l-23 -43q-29 22 -60 32.5t-70 10.5q-56 0 -85 -21.5t-29 -57.5q0 -25 12.5 -41.5t33 -27.5t61.5 -27l29 -12q67 -28 99.5 -45.5t48.5 -41.5
t16 -63q0 -55 -39.5 -86z" />
    <glyph glyph-name="Scaron" unicode="&#x160;" horiz-adv-x="568" 
d="M159 16.5q-62 26.5 -104 67.5l36 38q87 -84 208 -84q77 0 117.5 32t40.5 89q0 43 -16 69t-54 47t-116 49q-103 37 -150.5 83t-47.5 121q0 84 54 133t156 49q114 0 200 -63l-30 -42q-73 56 -171 56q-77 0 -115 -32.5t-38 -99.5q0 -44 21 -72.5t58.5 -47.5t104.5 -43
q71 -25 114 -52t64.5 -64t21.5 -91q0 -75 -55.5 -122t-158.5 -47q-78 0 -140 26.5zM259.5 794q-7.5 8 -3.5 15l3 5l-118 134h58l88 -109l84 109h58l-122 -146q-8 -10 -12.5 -13t-12.5 -3q-15 0 -22.5 8z" />
    <glyph glyph-name="scaron" unicode="&#x161;" horiz-adv-x="477" 
d="M55 58l35 38q26 -28 70 -44t90 -16q119 0 119 75q0 26 -10.5 42.5t-38 31t-86.5 35.5q-60 22 -94.5 40.5t-52.5 44.5t-18 65q0 56 43.5 90.5t124.5 34.5q48 0 87 -13.5t65 -32.5l-23 -43q-29 22 -60 32.5t-70 10.5q-56 0 -85 -21.5t-29 -57.5q0 -25 12.5 -41.5t33 -27.5
t61.5 -27l29 -12q67 -28 99.5 -45.5t48.5 -41.5t16 -63q0 -58 -45 -90t-128 -32q-126 0 -194 68zM214.5 579q-7.5 8 -3.5 15l3 5l-118 134h58l88 -109l84 109h58l-122 -146q-8 -10 -12.5 -13t-12.5 -3q-15 0 -22.5 8z" />
    <glyph glyph-name="uni0162" unicode="&#x162;" horiz-adv-x="544" 
d="M295 0l-37 -61q75 -8 75 -71q0 -37 -22.5 -57.5t-68.5 -20.5q-20 0 -42.5 6.5t-40.5 18.5l17 35q31 -21 69 -21q21 0 32.5 10.5t11.5 29.5q0 22 -18.5 33t-49.5 9l-17 19l42 70h-1v654h-200v46h454v-46h-200v-654h-4z" />
    <glyph glyph-name="uni0163" unicode="&#x163;" horiz-adv-x="363" 
d="M295 -132q0 -37 -22.5 -57.5t-68.5 -20.5q-20 0 -42.5 6.5t-40.5 18.5l17 35q32 -21 69 -21q21 0 32.5 10.5t11.5 29.5q0 22 -18.5 33t-49.5 9l-17 19l38 63q-77 15 -77 118v328h-82l12 46h71v137l50 23v-160h121l-11 -46h-109v-327q0 -44 13 -60.5t49 -16.5q37 0 63 13
l14 -41q-28 -13 -66 -16l-32 -52q75 -8 75 -71z" />
    <glyph glyph-name="Tcaron" unicode="&#x164;" horiz-adv-x="544" 
d="M245 654h-200v46h454v-46h-200v-654h-54v654zM247.5 794q-7.5 8 -3.5 15l3 5l-118 134h58l88 -109l84 109h58l-122 -146q-8 -10 -12.5 -13t-12.5 -3q-15 0 -22.5 8z" />
    <glyph glyph-name="tcaron" unicode="&#x165;" horiz-adv-x="440" 
d="M153 21q-26 31 -26 90v328h-82l12 46h71v137l50 23v-160h121l-11 -46h-109v-327q0 -44 13 -60.5t49 -16.5q37 0 63 13l14 -41q-15 -7 -38.5 -12t-43.5 -5q-57 0 -83 31zM365 566q29 14 46 34t20 41q-5 -2 -15 -2q-18 0 -31 12t-13 32q0 23 13.5 37.5t35.5 14.5
q25 0 38 -16.5t13 -44.5q0 -42 -24.5 -77t-67.5 -56z" />
    <glyph glyph-name="Tbar" unicode="&#x166;" horiz-adv-x="544" 
d="M299 654v-261h130v-46h-130v-347h-54v347h-130v46h130v261h-200v46h454v-46h-200z" />
    <glyph glyph-name="tbar" unicode="&#x167;" horiz-adv-x="363" 
d="M318 7q-15 -7 -38.5 -12t-43.5 -5q-57 0 -83 31t-26 90v131h-77v46h77v151h-82l12 46h71v137l50 23v-160h121l-11 -46h-109v-151h107v-46h-107v-130q0 -44 13 -60.5t49 -16.5q37 0 63 13z" />
    <glyph glyph-name="Utilde" unicode="&#x168;" horiz-adv-x="644" 
d="M141 53.5q-66 63.5 -66 178.5v468h54v-474q0 -95 51.5 -141t141.5 -46t141.5 46t51.5 141v474h54v-468q0 -115 -66 -178.5t-181 -63.5t-181 63.5zM180 814q3 32 25 53.5t53 21.5q23 0 40.5 -8.5t39.5 -24.5q16 -11 25.5 -16t19.5 -5q20 0 31 12.5t16 41.5l34 -18
q-3 -32 -25 -53.5t-53 -21.5q-20 0 -36 8t-35 22q-19 13 -30 18.5t-24 5.5q-20 0 -31 -12.5t-16 -41.5z" />
    <glyph glyph-name="utilde" unicode="&#x169;" horiz-adv-x="530" 
d="M120 38q-45 48 -45 139l1 308h52v-307q0 -73 30.5 -107t96.5 -34q45 0 78 24.5t50.5 65t17.5 85.5v273h52v-372q0 -71 22 -104l-47 -19q-18 32 -25 93q-26 -45 -65 -69t-88 -24q-85 0 -130 48zM123 599q3 32 25 53.5t53 21.5q23 0 40.5 -8.5t39.5 -24.5q16 -11 25.5 -16
t19.5 -5q20 0 31 12.5t16 41.5l34 -18q-3 -32 -25 -53.5t-53 -21.5q-20 0 -36 8t-35 22q-19 13 -30 18.5t-24 5.5q-20 0 -31 -12.5t-16 -41.5z" />
    <glyph glyph-name="Umacron" unicode="&#x16a;" horiz-adv-x="644" 
d="M141 53.5q-66 63.5 -66 178.5v468h54v-474q0 -95 51.5 -141t141.5 -46t141.5 46t51.5 141v474h54v-468q0 -115 -66 -178.5t-181 -63.5t-181 63.5zM186 855h272v-43h-272v43z" />
    <glyph glyph-name="umacron" unicode="&#x16b;" horiz-adv-x="530" 
d="M120 38q-45 48 -45 139l1 308h52v-307q0 -73 30.5 -107t96.5 -34q45 0 78 24.5t50.5 65t17.5 85.5v273h52v-372q0 -71 22 -104l-47 -19q-18 32 -25 93q-26 -45 -65 -69t-88 -24q-85 0 -130 48zM129 640h272v-43h-272v43z" />
    <glyph glyph-name="Ubreve" unicode="&#x16c;" horiz-adv-x="644" 
d="M141 53.5q-66 63.5 -66 178.5v468h54v-474q0 -95 51.5 -141t141.5 -46t141.5 46t51.5 141v474h54v-468q0 -115 -66 -178.5t-181 -63.5t-181 63.5zM234 800.5q-33 33.5 -33 92.5v9h46v-8q0 -89 75 -89t75 89v8h46v-9q0 -59 -33 -92.5t-88 -33.5t-88 33.5z" />
    <glyph glyph-name="ubreve" unicode="&#x16d;" horiz-adv-x="530" 
d="M120 38q-45 48 -45 139l1 308h52v-307q0 -73 30.5 -107t96.5 -34q45 0 78 24.5t50.5 65t17.5 85.5v273h52v-372q0 -71 22 -104l-47 -19q-18 32 -25 93q-26 -45 -65 -69t-88 -24q-85 0 -130 48zM177 585.5q-33 33.5 -33 92.5v9h46v-8q0 -89 75 -89t75 89v8h46v-9
q0 -59 -33 -92.5t-88 -33.5t-88 33.5z" />
    <glyph glyph-name="Uring" unicode="&#x16e;" horiz-adv-x="644" 
d="M141 53.5q-66 63.5 -66 178.5v468h54v-474q0 -95 51.5 -141t141.5 -46t141.5 46t51.5 141v474h54v-468q0 -115 -66 -178.5t-181 -63.5t-181 63.5zM253 781.5q-29 24.5 -29 67.5t29 68t69 25t69 -25t29 -68t-29 -67.5t-69 -24.5t-69 24.5zM363 808.5q16 14.5 16 40.5
q0 27 -16 42t-41 15t-41 -15t-16 -42q0 -26 16 -40.5t41 -14.5t41 14.5z" />
    <glyph glyph-name="uring" unicode="&#x16f;" horiz-adv-x="530" 
d="M120 38q-45 48 -45 139l1 308h52v-307q0 -73 30.5 -107t96.5 -34q45 0 78 24.5t50.5 65t17.5 85.5v273h52v-372q0 -71 22 -104l-47 -19q-18 32 -25 93q-26 -45 -65 -69t-88 -24q-85 0 -130 48zM196 566.5q-29 24.5 -29 67.5t29 68t69 25t69 -25t29 -68t-29 -67.5
t-69 -24.5t-69 24.5zM306 593.5q16 14.5 16 40.5q0 27 -16 42t-41 15t-41 -15t-16 -42q0 -26 16 -40.5t41 -14.5t41 14.5z" />
    <glyph glyph-name="Uhungarumlaut" unicode="&#x170;" horiz-adv-x="644" 
d="M141 53.5q-66 63.5 -66 178.5v468h54v-474q0 -95 51.5 -141t141.5 -46t141.5 46t51.5 141v474h54v-468q0 -115 -66 -178.5t-181 -63.5t-181 63.5zM311 948h65l-116 -172h-51zM473 948h69l-141 -172h-53z" />
    <glyph glyph-name="uhungarumlaut" unicode="&#x171;" horiz-adv-x="530" 
d="M120 38q-45 48 -45 139l1 308h52v-307q0 -73 30.5 -107t96.5 -34q45 0 78 24.5t50.5 65t17.5 85.5v273h52v-372q0 -71 22 -104l-47 -19q-18 32 -25 93q-26 -45 -65 -69t-88 -24q-85 0 -130 48zM254 733h65l-116 -172h-51zM416 733h69l-141 -172h-53z" />
    <glyph glyph-name="Uogonek" unicode="&#x172;" horiz-adv-x="644" 
d="M569 700v-468q0 -108 -59 -171t-163 -70q-36 -26 -53 -52t-17 -60q0 -52 59 -52q24 0 57 19l10 -32q-36 -24 -75 -24q-40 0 -66.5 24.5t-26.5 65.5q0 32 17 61.5t45 49.5q-104 7 -163 70t-59 171v468h54v-474q0 -95 51.5 -141t141.5 -46t141.5 46t51.5 141v474h54z" />
    <glyph glyph-name="uogonek" unicode="&#x173;" horiz-adv-x="530" 
d="M509 -183q-36 -24 -75 -24q-40 0 -66.5 24.5t-26.5 64.5q0 37 22.5 70.5t57.5 52.5q-12 32 -18 78q-26 -45 -65 -69t-88 -24q-85 0 -130 48t-45 139l1 308h52v-307q0 -73 30.5 -107t96.5 -34q45 0 78 24.5t50.5 65t17.5 85.5v273h52v-372q0 -71 22 -104
q-47 -31 -69.5 -59.5t-22.5 -67.5q0 -52 59 -52q24 0 57 19z" />
    <glyph glyph-name="Wcircumflex" unicode="&#x174;" horiz-adv-x="831" 
d="M166 15q0 8 2 12l6 15l-119 658h54l104 -601l180 593q5 18 22 18q21 0 30 -8.5t5 -21.5l-3 -10l171 -571l104 601h54l-121 -658l6 -15q2 -4 2 -12q0 -18 -23 -23q-10 -2 -13 -2q-13 0 -21 10t-15 32l-175 579l-178 -579q-7 -22 -15 -32t-21 -10q-3 0 -13 2q-23 5 -23 23z
M395 932q8 10 12.5 13t12.5 3q15 0 22.5 -8t3.5 -15l-3 -5l118 -134h-58l-88 109l-84 -109h-58z" />
    <glyph glyph-name="wcircumflex" unicode="&#x175;" horiz-adv-x="712" 
d="M185.5 -1.5q-8.5 8.5 -5.5 19.5l3 12l-128 455h56l104 -416l123 413q3 13 23 13q16 0 23.5 -7t7.5 -18q0 -5 -1 -8l-4 -19l110 -374l104 416h56l-128 -455l3 -12q3 -11 -5.5 -19.5t-22.5 -8.5t-21.5 5t-11.5 17l-115 391l-115 -391q-4 -12 -11.5 -17t-21.5 -5t-22.5 8.5z
M335 717q8 10 12.5 13t12.5 3q15 0 22.5 -8t3.5 -15l-3 -5l118 -134h-58l-88 109l-84 -109h-58z" />
    <glyph glyph-name="Ycircumflex" unicode="&#x176;" horiz-adv-x="616" 
d="M283 273l-228 427h59l194 -377l194 377h59l-228 -427v-273h-50v273zM287 932q8 10 12.5 13t12.5 3q15 0 22.5 -8t3.5 -15l-3 -5l118 -134h-58l-88 109l-84 -109h-58z" />
    <glyph glyph-name="ycircumflex" unicode="&#x177;" horiz-adv-x="561" 
d="M98 -185q63 25 104.5 77t55.5 123l-203 470h59l173 -420l160 420h59l-201 -506q-33 -82 -77.5 -131t-113.5 -78zM260 717q8 10 12.5 13t12.5 3q15 0 22.5 -8t3.5 -15l-3 -5l118 -134h-58l-88 109l-84 -109h-58z" />
    <glyph glyph-name="Ydieresis" unicode="&#x178;" horiz-adv-x="616" 
d="M283 273l-228 427h59l194 -377l194 377h59l-228 -427v-273h-50v273zM183 792q-13 13 -13 31t13 31t32 13q17 0 30 -13t13 -31t-13 -31t-30 -13q-19 0 -32 13zM372 792q-13 13 -13 31t13 31t32 13q17 0 30 -13t13 -31t-13 -31t-30 -13q-19 0 -32 13z" />
    <glyph glyph-name="Zacute" unicode="&#x179;" horiz-adv-x="621" 
d="M86 -10q-13 0 -28 18q-3 3 -3 8q0 7 13 25l420 613h-406v46h427l10 11q7 7 16 7q11 0 19 -8q12 -10 12 -20q0 -8 -12 -27l-423 -617h435v-46h-464l-8 -7q-3 -3 -8 -3zM373 948h58l-102 -172h-43z" />
    <glyph glyph-name="zacute" unicode="&#x17a;" horiz-adv-x="524" 
d="M84 -10q-12 0 -27 28q-2 3 -2 9q0 9 16 19q12 8 20 19l302 374h-312v46h326q19 0 25 6q3 3 8 3q9 0 22 -13q7 -7 7 -14q0 -8 -9 -19l-325 -402h330v-46h-343q-19 0 -29 -7q-4 -3 -9 -3zM325 733h58l-102 -172h-43z" />
    <glyph glyph-name="Zdotaccent" unicode="&#x17b;" horiz-adv-x="621" 
d="M86 -10q-13 0 -28 18q-3 3 -3 8q0 7 13 25l420 613h-406v46h427l10 11q7 7 16 7q11 0 19 -8q12 -10 12 -20q0 -8 -12 -27l-423 -617h435v-46h-464l-8 -7q-3 -3 -8 -3zM279 822q-13 13 -13 31t13 31t32 13q17 0 30 -13t13 -31t-13 -31t-30 -13q-19 0 -32 13z" />
    <glyph glyph-name="zdotaccent" unicode="&#x17c;" horiz-adv-x="524" 
d="M84 -10q-12 0 -27 28q-2 3 -2 9q0 9 16 19q12 8 20 19l302 374h-312v46h326q19 0 25 6q3 3 8 3q9 0 22 -13q7 -7 7 -14q0 -8 -9 -19l-325 -402h330v-46h-343q-19 0 -29 -7q-4 -3 -9 -3zM231 607q-13 13 -13 31t13 31t32 13q17 0 30 -13t13 -31t-13 -31t-30 -13
q-19 0 -32 13z" />
    <glyph glyph-name="Zcaron" unicode="&#x17d;" horiz-adv-x="621" 
d="M86 -10q-13 0 -28 18q-3 3 -3 8q0 7 13 25l420 613h-406v46h427l10 11q7 7 16 7q11 0 19 -8q12 -10 12 -20q0 -8 -12 -27l-423 -617h435v-46h-464l-8 -7q-3 -3 -8 -3zM285.5 794q-7.5 8 -3.5 15l3 5l-118 134h58l88 -109l84 109h58l-122 -146q-8 -10 -12.5 -13t-12.5 -3
q-15 0 -22.5 8z" />
    <glyph glyph-name="zcaron" unicode="&#x17e;" horiz-adv-x="524" 
d="M84 -10q-12 0 -27 28q-2 3 -2 9q0 9 16 19q12 8 20 19l302 374h-312v46h326q19 0 25 6q3 3 8 3q9 0 22 -13q7 -7 7 -14q0 -8 -9 -19l-325 -402h330v-46h-343q-19 0 -29 -7q-4 -3 -9 -3zM237.5 579q-7.5 8 -3.5 15l3 5l-118 134h58l88 -109l84 109h58l-122 -146
q-8 -10 -12.5 -13t-12.5 -3q-15 0 -22.5 8z" />
    <glyph glyph-name="uni018F" unicode="&#x18f;" horiz-adv-x="659" 
d="M182 30.5q-61 40.5 -94 117t-33 181.5q0 20 9.5 29t31.5 9h453q0 140 -59.5 218t-166.5 78q-48 0 -101 -16t-100 -45l-29 36q50 34 110.5 53t119.5 19q85 0 148.5 -43.5t98 -125.5t34.5 -195q0 -110 -34.5 -190.5t-97.5 -123t-146 -42.5t-144 40.5zM443 71q51 34 79 98
t28 152h-443q0 -88 27 -152t76.5 -98t115.5 -34t117 34z" />
    <glyph glyph-name="florin" unicode="&#x192;" horiz-adv-x="569" 
d="M45 -121l18 44q29 -9 53 -9q38 0 59.5 19.5t29.5 66.5l67 379h-100l20 46h88l31 178q12 69 50.5 101t94.5 32q29 0 68 -12l-19 -44q-29 9 -53 9q-38 0 -59.5 -19.5t-29.5 -66.5l-31 -178h142l-20 -46h-130l-67 -379q-23 -133 -144 -133q-30 0 -68 12z" />
    <glyph glyph-name="Ohorn" unicode="&#x1a0;" horiz-adv-x="652" 
d="M602 665q-28 -36 -78 -46q73 -94 73 -269q0 -168 -69 -264t-202 -96t-202 96t-69 264t69 264t202 96q97 0 160 -52q93 2 93 104v18h51v-19q0 -60 -28 -96zM490 124q51 85 51 226t-51 226t-164 85t-164 -85t-51 -226t51 -226t164 -85t164 85z" />
    <glyph glyph-name="ohorn" unicode="&#x1a1;" horiz-adv-x="542" 
d="M549 566v-19q0 -59 -28 -95t-76 -47q42 -65 42 -162q0 -69 -23 -126t-71.5 -91.5t-121.5 -34.5t-121.5 34.5t-71.5 91.5t-23 126t23 126t71.5 91.5t121.5 34.5q88 0 142 -51q85 6 85 104v18h51zM391 94.5q42 56.5 42 148.5t-42 148.5t-120 56.5t-120 -56.5t-42 -148.5
t42 -148.5t120 -56.5t120 56.5z" />
    <glyph glyph-name="Uhorn" unicode="&#x1af;" horiz-adv-x="664" 
d="M703 772v-19q0 -68 -36.5 -105t-97.5 -41v-375q0 -115 -66 -178.5t-181 -63.5t-181 63.5t-66 178.5v468h54v-474q0 -95 51.5 -141t141.5 -46t141.5 46t51.5 141v474h54v-50q83 8 83 104v18h51z" />
    <glyph glyph-name="uhorn" unicode="&#x1b0;" horiz-adv-x="530" 
d="M585 565v-19q0 -67 -35.5 -104t-96.5 -42v-287q0 -71 22 -104l-47 -19q-18 32 -25 93q-26 -45 -65 -69t-88 -24q-85 0 -130 48t-45 139l1 308h52v-307q0 -73 30.5 -107t96.5 -34q45 0 78 24.5t50.5 65t17.5 85.5v273h52v-41q39 3 60 28.5t21 74.5v18h51z" />
    <glyph glyph-name="uni01CD" unicode="&#x1cd;" horiz-adv-x="630" 
d="M280 680q7 21 16.5 29.5t23.5 8.5q19 0 28.5 -8t9.5 -18q0 -7 -6 -17l233 -675h-57l-66 195h-294l-66 -195h-57zM447 241l-131 402l-131 -402h262zM295.5 794q-7.5 8 -3.5 15l3 5l-118 134h58l88 -109l84 109h58l-122 -146q-8 -10 -12.5 -13t-12.5 -3q-15 0 -22.5 8z" />
    <glyph glyph-name="uni01CE" unicode="&#x1ce;" horiz-adv-x="559" 
d="M149 24.5q-47 34.5 -70.5 91.5t-23.5 125t23.5 126t70.5 93t116 35q60 0 99.5 -24.5t65.5 -68.5v83h52v-367q0 -73 22 -109l-44 -19q-20 29 -24 90l-3 1q-63 -91 -168 -91q-69 0 -116 34.5zM388 87.5q44 50.5 44 125.5v58q0 41 -18.5 82t-56.5 68t-92 27
q-75 0 -115.5 -59t-40.5 -148t40 -146.5t116 -57.5q79 0 123 50.5zM254.5 579q-7.5 8 -3.5 15l3 5l-118 134h58l88 -109l84 109h58l-122 -146q-8 -10 -12.5 -13t-12.5 -3q-15 0 -22.5 8z" />
    <glyph glyph-name="uni01CF" unicode="&#x1cf;" horiz-adv-x="294" 
d="M120 700h54v-700h-54v700zM122.5 794q-7.5 8 -3.5 15l3 5l-118 134h58l88 -109l84 109h58l-122 -146q-8 -10 -12.5 -13t-12.5 -3q-15 0 -22.5 8z" />
    <glyph glyph-name="uni01D0" unicode="&#x1d0;" horiz-adv-x="246" 
d="M97 485h52v-485h-52v485zM98.5 579q-7.5 8 -3.5 15l3 5l-118 134h58l88 -109l84 109h58l-122 -146q-8 -10 -12.5 -13t-12.5 -3q-15 0 -22.5 8z" />
    <glyph glyph-name="uni01D1" unicode="&#x1d1;" horiz-adv-x="652" 
d="M124 86q-69 96 -69 264t69 264t202 96t202 -96t69 -264t-69 -264t-202 -96t-202 96zM490 124q51 85 51 226t-51 226t-164 85t-164 -85t-51 -226t51 -226t164 -85t164 85zM301.5 794q-7.5 8 -3.5 15l3 5l-118 134h58l88 -109l84 109h58l-122 -146q-8 -10 -12.5 -13
t-12.5 -3q-15 0 -22.5 8z" />
    <glyph glyph-name="uni01D2" unicode="&#x1d2;" horiz-adv-x="542" 
d="M149.5 25.5q-48.5 34.5 -71.5 91.5t-23 126t23 126t71.5 91.5t121.5 34.5t121.5 -34.5t71.5 -91.5t23 -126t-23 -126t-71.5 -91.5t-121.5 -34.5t-121.5 34.5zM391 94.5q42 56.5 42 148.5t-42 148.5t-120 56.5t-120 -56.5t-42 -148.5t42 -148.5t120 -56.5t120 56.5z
M246.5 579q-7.5 8 -3.5 15l3 5l-118 134h58l88 -109l84 109h58l-122 -146q-8 -10 -12.5 -13t-12.5 -3q-15 0 -22.5 8z" />
    <glyph glyph-name="uni01D3" unicode="&#x1d3;" horiz-adv-x="644" 
d="M141 53.5q-66 63.5 -66 178.5v468h54v-474q0 -95 51.5 -141t141.5 -46t141.5 46t51.5 141v474h54v-468q0 -115 -66 -178.5t-181 -63.5t-181 63.5zM297.5 794q-7.5 8 -3.5 15l3 5l-118 134h58l88 -109l84 109h58l-122 -146q-8 -10 -12.5 -13t-12.5 -3q-15 0 -22.5 8z" />
    <glyph glyph-name="uni01D4" unicode="&#x1d4;" horiz-adv-x="530" 
d="M120 38q-45 48 -45 139l1 308h52v-307q0 -73 30.5 -107t96.5 -34q45 0 78 24.5t50.5 65t17.5 85.5v273h52v-372q0 -71 22 -104l-47 -19q-18 32 -25 93q-26 -45 -65 -69t-88 -24q-85 0 -130 48zM240.5 579q-7.5 8 -3.5 15l3 5l-118 134h58l88 -109l84 109h58l-122 -146
q-8 -10 -12.5 -13t-12.5 -3q-15 0 -22.5 8z" />
    <glyph glyph-name="uni01D5" unicode="&#x1d5;" horiz-adv-x="644" 
d="M141 53.5q-66 63.5 -66 178.5v468h54v-474q0 -95 51.5 -141t141.5 -46t141.5 46t51.5 141v474h54v-468q0 -115 -66 -178.5t-181 -63.5t-181 63.5zM197 792q-13 13 -13 31t13 31t32 13q17 0 30 -13t13 -31t-13 -31t-30 -13q-19 0 -32 13zM386 792q-13 13 -13 31t13 31
t32 13q17 0 30 -13t13 -31t-13 -31t-30 -13q-19 0 -32 13zM186 1018h272v-43h-272v43z" />
    <glyph glyph-name="uni01D6" unicode="&#x1d6;" horiz-adv-x="530" 
d="M120 38q-45 48 -45 139l1 308h52v-307q0 -73 30.5 -107t96.5 -34q45 0 78 24.5t50.5 65t17.5 85.5v273h52v-372q0 -71 22 -104l-47 -19q-18 32 -25 93q-26 -45 -65 -69t-88 -24q-85 0 -130 48zM140 577q-13 13 -13 31t13 31t32 13q17 0 30 -13t13 -31t-13 -31t-30 -13
q-19 0 -32 13zM329 577q-13 13 -13 31t13 31t32 13q17 0 30 -13t13 -31t-13 -31t-30 -13q-19 0 -32 13zM129 803h272v-43h-272v43z" />
    <glyph glyph-name="uni01D7" unicode="&#x1d7;" horiz-adv-x="644" 
d="M141 53.5q-66 63.5 -66 178.5v468h54v-474q0 -95 51.5 -141t141.5 -46t141.5 46t51.5 141v474h54v-468q0 -115 -66 -178.5t-181 -63.5t-181 63.5zM373 1043h58l-91 -137h-43zM198 822q-13 13 -13 31t13 31t32 13q17 0 30 -13t13 -31t-13 -31t-30 -13q-19 0 -32 13z
M387 822q-13 13 -13 31t13 31t32 13q17 0 30 -13t13 -31t-13 -31t-30 -13q-19 0 -32 13z" />
    <glyph glyph-name="uni01D8" unicode="&#x1d8;" horiz-adv-x="530" 
d="M120 38q-45 48 -45 139l1 308h52v-307q0 -73 30.5 -107t96.5 -34q45 0 78 24.5t50.5 65t17.5 85.5v273h52v-372q0 -71 22 -104l-47 -19q-18 32 -25 93q-26 -45 -65 -69t-88 -24q-85 0 -130 48zM316 828h58l-91 -137h-43zM141 607q-13 13 -13 31t13 31t32 13q17 0 30 -13
t13 -31t-13 -31t-30 -13q-19 0 -32 13zM330 607q-13 13 -13 31t13 31t32 13q17 0 30 -13t13 -31t-13 -31t-30 -13q-19 0 -32 13z" />
    <glyph glyph-name="uni01D9" unicode="&#x1d9;" horiz-adv-x="644" 
d="M141 53.5q-66 63.5 -66 178.5v468h54v-474q0 -95 51.5 -141t141.5 -46t141.5 46t51.5 141v474h54v-468q0 -115 -66 -178.5t-181 -63.5t-181 63.5zM295.5 906.5q-7.5 8.5 -3.5 15.5l3 5l-113 116h58l83 -91l79 91h58l-117 -128q-2 -2 -7 -7.5t-9 -7.5t-9 -2
q-15 0 -22.5 8.5zM198 822q-13 13 -13 31t13 31t32 13q17 0 30 -13t13 -31t-13 -31t-30 -13q-19 0 -32 13zM387 822q-13 13 -13 31t13 31t32 13q17 0 30 -13t13 -31t-13 -31t-30 -13q-19 0 -32 13z" />
    <glyph glyph-name="uni01DA" unicode="&#x1da;" horiz-adv-x="530" 
d="M120 38q-45 48 -45 139l1 308h52v-307q0 -73 30.5 -107t96.5 -34q45 0 78 24.5t50.5 65t17.5 85.5v273h52v-372q0 -71 22 -104l-47 -19q-18 32 -25 93q-26 -45 -65 -69t-88 -24q-85 0 -130 48zM238.5 691.5q-7.5 8.5 -3.5 15.5l3 5l-113 116h58l83 -91l79 91h58
l-117 -128q-2 -2 -7 -7.5t-9 -7.5t-9 -2q-15 0 -22.5 8.5zM141 607q-13 13 -13 31t13 31t32 13q17 0 30 -13t13 -31t-13 -31t-30 -13q-19 0 -32 13zM330 607q-13 13 -13 31t13 31t32 13q17 0 30 -13t13 -31t-13 -31t-30 -13q-19 0 -32 13z" />
    <glyph glyph-name="uni01DB" unicode="&#x1db;" horiz-adv-x="644" 
d="M141 53.5q-66 63.5 -66 178.5v468h54v-474q0 -95 51.5 -141t141.5 -46t141.5 46t51.5 141v474h54v-468q0 -115 -66 -178.5t-181 -63.5t-181 63.5zM209 1043h58l76 -137h-43zM198 822q-13 13 -13 31t13 31t32 13q17 0 30 -13t13 -31t-13 -31t-30 -13q-19 0 -32 13z
M387 822q-13 13 -13 31t13 31t32 13q17 0 30 -13t13 -31t-13 -31t-30 -13q-19 0 -32 13z" />
    <glyph glyph-name="uni01DC" unicode="&#x1dc;" horiz-adv-x="530" 
d="M120 38q-45 48 -45 139l1 308h52v-307q0 -73 30.5 -107t96.5 -34q45 0 78 24.5t50.5 65t17.5 85.5v273h52v-372q0 -71 22 -104l-47 -19q-18 32 -25 93q-26 -45 -65 -69t-88 -24q-85 0 -130 48zM152 828h58l76 -137h-43zM141 607q-13 13 -13 31t13 31t32 13q17 0 30 -13
t13 -31t-13 -31t-30 -13q-19 0 -32 13zM330 607q-13 13 -13 31t13 31t32 13q17 0 30 -13t13 -31t-13 -31t-30 -13q-19 0 -32 13z" />
    <glyph glyph-name="Gcaron" unicode="&#x1e6;" horiz-adv-x="636" 
d="M192 36q-67 46 -102 127.5t-35 187.5q0 105 36.5 186.5t103 127t155.5 45.5q61 0 106 -17t81 -50l-26 -45q-30 33 -68.5 48t-92.5 15q-73 0 -127.5 -42t-83 -112.5t-28.5 -155.5q0 -88 28 -158.5t83 -112t133 -41.5q50 0 84.5 9.5t64.5 30.5v237h-173v46h192q10 13 22 13
q14 0 25 -12t11 -23q0 -7 -7 -13t-11.5 -12t-4.5 -22v-243q-55 -33 -99.5 -46.5t-105.5 -13.5q-94 0 -161 46zM325.5 794q-7.5 8 -3.5 15l3 5l-118 134h58l88 -109l84 109h58l-122 -146q-8 -10 -12.5 -13t-12.5 -3q-15 0 -22.5 8z" />
    <glyph glyph-name="gcaron" unicode="&#x1e7;" horiz-adv-x="560" 
d="M178.5 -210q-37.5 8 -63.5 19l18 45q21 -10 53.5 -17.5t65.5 -7.5q94 0 136 48t42 151v65q-27 -43 -69 -68t-97 -25q-108 0 -158.5 71t-50.5 185q0 104 53.5 171.5t155.5 67.5q59 0 99 -24.5t68 -68.5q0 31 8.5 57.5t18.5 35.5l47 -19q-11 -19 -17 -43t-6 -68v-350
q0 -113 -63.5 -173t-166.5 -60q-36 0 -73.5 8zM351.5 73q37.5 26 58 66.5t20.5 84.5v48q0 44 -20.5 85t-58 66t-87.5 25q-80 0 -117.5 -56t-37.5 -136q0 -90 34.5 -149.5t120.5 -59.5q50 0 87.5 26zM255.5 579q-7.5 8 -3.5 15l3 5l-118 134h58l88 -109l84 109h58l-122 -146
q-8 -10 -12.5 -13t-12.5 -3q-15 0 -22.5 8z" />
    <glyph glyph-name="Aringacute" unicode="&#x1fa;" horiz-adv-x="630" 
d="M280 680q7 21 16.5 29.5t23.5 8.5q19 0 28.5 -8t9.5 -18q0 -7 -6 -17l233 -675h-57l-66 195h-294l-66 -195h-57zM447 241l-131 402l-131 -402h262zM251 781.5q-29 24.5 -29 67.5t29 68t69 25t69 -25t29 -68t-29 -67.5t-69 -24.5t-69 24.5zM361 808.5q16 14.5 16 40.5
q0 27 -16 42t-41 15t-41 -15t-16 -42q0 -26 16 -40.5t41 -14.5t41 14.5zM383 1160h58l-102 -172h-43z" />
    <glyph glyph-name="aringacute" unicode="&#x1fb;" horiz-adv-x="559" 
d="M149 24.5q-47 34.5 -70.5 91.5t-23.5 125t23.5 126t70.5 93t116 35q60 0 99.5 -24.5t65.5 -68.5v83h52v-367q0 -73 22 -109l-44 -19q-20 29 -24 90l-3 1q-63 -91 -168 -91q-69 0 -116 34.5zM388 87.5q44 50.5 44 125.5v58q0 41 -18.5 82t-56.5 68t-92 27
q-75 0 -115.5 -59t-40.5 -148t40 -146.5t116 -57.5q79 0 123 50.5zM210 566.5q-29 24.5 -29 67.5t29 68t69 25t69 -25t29 -68t-29 -67.5t-69 -24.5t-69 24.5zM320 593.5q16 14.5 16 40.5q0 27 -16 42t-41 15t-41 -15t-16 -42q0 -26 16 -40.5t41 -14.5t41 14.5zM342 945h58
l-102 -172h-43z" />
    <glyph glyph-name="AEacute" unicode="&#x1fc;" horiz-adv-x="800" 
d="M369 700h367v-46h-291v-264h207v-46h-207v-298h300v-46h-353v195h-192l-88 -195h-57zM392 241v384l-172 -384h172zM517 948h58l-102 -172h-43z" />
    <glyph glyph-name="aeacute" unicode="&#x1fd;" horiz-adv-x="877" 
d="M98.5 30.5q-43.5 40.5 -43.5 110.5q0 64 47.5 104.5t129.5 40.5h168v22q0 60 -39 100t-101 40q-90 0 -147 -49l-29 36q31 28 78.5 44t97.5 16q65 0 106 -27.5t65 -79.5h1q22 50 68.5 78.5t112.5 28.5q114 0 161.5 -70.5t47.5 -168.5q0 -20 -9.5 -29t-31.5 -9h-327v-18
q-2 -73 42 -118t123 -45q41 0 78.5 13t64.5 36l29 -36q-31 -28 -76.5 -44t-95.5 -16q-72 0 -122.5 33t-70.5 87h-1q-26 -53 -78 -86.5t-120 -33.5q-85 0 -128.5 40.5zM770 264q0 86 -37.5 135t-119.5 49q-51 0 -87 -23.5t-54 -59.5t-19 -75v-26h317zM319.5 59.5
q39.5 22.5 60.5 59t21 76.5v45h-173q-61 0 -91 -27.5t-30 -71.5q0 -49 27 -76.5t93 -27.5q53 0 92.5 22.5zM497 733h58l-102 -172h-43z" />
    <glyph glyph-name="Oslashacute" unicode="&#x1fe;" horiz-adv-x="652" 
d="M597 350q0 -168 -69 -264t-202 -96q-86 0 -148 42l-57 -103l-45 25l63 113q-42 47 -63 119t-21 164q0 168 69 264t202 96q84 0 146 -41l57 102l45 -25l-62 -112q85 -94 85 -284zM167 117l280 506q-49 38 -121 38q-113 0 -164 -85t-51 -226q0 -153 56 -233zM490 124
q51 85 51 226q0 155 -57 234l-280 -506q48 -39 122 -39q113 0 164 85zM389 948h58l-102 -172h-43z" />
    <glyph glyph-name="oslashacute" unicode="&#x1ff;" horiz-adv-x="542" 
d="M467.5 360q19.5 -54 19.5 -117q0 -69 -23 -126t-71.5 -91.5t-121.5 -34.5q-59 0 -103 23l-47 -85l-45 25l50 91q-36 34 -53.5 85.5t-17.5 112.5q0 69 23 126t71.5 91.5t121.5 34.5q53 0 94 -19l45 80l45 -25l-46 -83q39 -34 58.5 -88zM153 92l189 341q-31 15 -71 15
q-78 0 -120 -56.5t-42 -148.5q0 -95 44 -151zM391 94.5q42 56.5 42 148.5q0 102 -50 158l-191 -343q34 -20 79 -20q78 0 120 56.5zM334 733h58l-102 -172h-43z" />
    <glyph glyph-name="uni0218" unicode="&#x218;" horiz-adv-x="568" 
d="M159 16.5q-62 26.5 -104 67.5l36 38q87 -84 208 -84q77 0 117.5 32t40.5 89q0 43 -16 69t-54 47t-116 49q-103 37 -150.5 83t-47.5 121q0 84 54 133t156 49q114 0 200 -63l-30 -42q-73 56 -171 56q-77 0 -115 -32.5t-38 -99.5q0 -44 21 -72.5t58.5 -47.5t104.5 -43
q71 -25 114 -52t64.5 -64t21.5 -91q0 -75 -55.5 -122t-158.5 -47q-78 0 -140 26.5zM233 -236q29 14 46 34t20 41q-5 -2 -15 -2q-18 0 -31 12t-13 32q0 23 13.5 37.5t35.5 14.5q25 0 38 -16.5t13 -44.5q0 -42 -24.5 -77t-67.5 -56z" />
    <glyph glyph-name="uni0219" unicode="&#x219;" horiz-adv-x="477" 
d="M55 58l35 38q26 -28 70 -44t90 -16q119 0 119 75q0 26 -10.5 42.5t-38 31t-86.5 35.5q-60 22 -94.5 40.5t-52.5 44.5t-18 65q0 56 43.5 90.5t124.5 34.5q48 0 87 -13.5t65 -32.5l-23 -43q-29 22 -60 32.5t-70 10.5q-56 0 -85 -21.5t-29 -57.5q0 -25 12.5 -41.5t33 -27.5
t61.5 -27l29 -12q67 -28 99.5 -45.5t48.5 -41.5t16 -63q0 -58 -45 -90t-128 -32q-126 0 -194 68zM188 -236q29 14 46 34t20 41q-5 -2 -15 -2q-18 0 -31 12t-13 32q0 23 13.5 37.5t35.5 14.5q25 0 38 -16.5t13 -44.5q0 -42 -24.5 -77t-67.5 -56z" />
    <glyph glyph-name="uni021A" unicode="&#x21a;" horiz-adv-x="544" 
d="M245 654h-200v46h454v-46h-200v-654h-54v654zM208 -236q29 14 46 34t20 41q-5 -2 -15 -2q-18 0 -31 12t-13 32q0 23 13.5 37.5t35.5 14.5q25 0 38 -16.5t13 -44.5q0 -42 -24.5 -77t-67.5 -56z" />
    <glyph glyph-name="uni021B" unicode="&#x21b;" horiz-adv-x="363" 
d="M153 21q-26 31 -26 90v328h-82l12 46h71v137l50 23v-160h121l-11 -46h-109v-327q0 -44 13 -60.5t49 -16.5q37 0 63 13l14 -41q-15 -7 -38.5 -12t-43.5 -5q-57 0 -83 31zM170 -236q29 14 46 34t20 41q-5 -2 -15 -2q-18 0 -31 12t-13 32q0 23 13.5 37.5t35.5 14.5
q25 0 38 -16.5t13 -44.5q0 -42 -24.5 -77t-67.5 -56z" />
    <glyph glyph-name="uni0237" unicode="&#x237;" horiz-adv-x="411" 
d="M45 -186l23 41q42 -29 95 -29q54 0 76 30t22 104v525h52v-525q0 -93 -37.5 -136t-112.5 -43q-64 0 -118 33z" />
    <glyph glyph-name="uni0251" unicode="&#x251;" horiz-adv-x="561" 
d="M149.5 24.5q-47.5 34.5 -71 91.5t-23.5 125q0 74 28.5 132t79.5 90t117 32q95 0 149.5 -56.5t54.5 -149.5v-171q0 -73 22 -109l-44 -19q-20 29 -24 90l-3 1q-63 -91 -169 -91q-69 0 -116.5 34.5zM357 60.5q38 23.5 57.5 64t19.5 88.5v58q0 80 -40 128.5t-114 48.5
q-50 0 -89 -26.5t-60.5 -73.5t-21.5 -107q0 -89 40.5 -146.5t116.5 -57.5q53 0 91 23.5z" />
    <glyph glyph-name="uni0259" unicode="&#x259;" horiz-adv-x="538" 
d="M139 30q-48 40 -66 94.5t-18 104.5q0 20 9.5 29t31.5 9h332q0 82 -42.5 131.5t-121.5 49.5q-41 0 -79.5 -12t-63.5 -34l-34 35q30 27 76.5 42.5t100.5 15.5q68 0 117.5 -31.5t75.5 -88t26 -129.5q0 -108 -50.5 -182t-163.5 -74q-82 0 -130 40zM361 65.5q36 28.5 52 70.5
t16 85h-322q0 -77 40.5 -130.5t121.5 -53.5q56 0 92 28.5z" />
    <glyph glyph-name="uni02BB" unicode="&#x2bb;" horiz-adv-x="217" 
d="M68 557.5q-13 16.5 -13 44.5q0 42 24.5 77t67.5 56l15 -25q-29 -14 -46 -34t-20 -41q5 2 15 2q18 0 31 -12t13 -32q0 -23 -13.5 -37.5t-35.5 -14.5q-25 0 -38 16.5z" />
    <glyph glyph-name="uni02BC" unicode="&#x2bc;" horiz-adv-x="217" 
d="M55 566q29 14 46 34t20 41q-5 -2 -15 -2q-18 0 -31 12t-13 32q0 23 13.5 37.5t35.5 14.5q25 0 38 -16.5t13 -44.5q0 -42 -24.5 -77t-67.5 -56z" />
    <glyph glyph-name="uni02BE" unicode="&#x2be;" 
d="M-68 568h8q31 0 48.5 15.5t17.5 41.5t-17.5 41.5t-48.5 15.5h-8v39h9q50 0 79.5 -25t29.5 -71t-29.5 -71t-79.5 -25h-9v39z" />
    <glyph glyph-name="uni02BF" unicode="&#x2bf;" 
d="M-38.5 554q-29.5 25 -29.5 71t29.5 71t79.5 25h9v-39h-8q-31 0 -48.5 -15.5t-17.5 -41.5t17.5 -41.5t48.5 -15.5h8v-39h-9q-50 0 -79.5 25z" />
    <glyph glyph-name="circumflex" unicode="&#x2c6;" horiz-adv-x="398" 
d="M177 702q8 10 12.5 13t12.5 3q15 0 22.5 -8t3.5 -15l-3 -5l118 -134h-58l-88 109l-84 -109h-58z" />
    <glyph glyph-name="caron" unicode="&#x2c7;" horiz-adv-x="398" 
d="M173.5 564q-7.5 8 -3.5 15l3 5l-118 134h58l88 -109l84 109h58l-122 -146q-8 -10 -12.5 -13t-12.5 -3q-15 0 -22.5 8z" />
    <glyph glyph-name="uni02C8" unicode="&#x2c8;" 
d="M-22 730h44v-152h-44v152z" />
    <glyph glyph-name="uni02C9" unicode="&#x2c9;" horiz-adv-x="412" 
d="M55 625h302v-43h-302v43z" />
    <glyph glyph-name="uni02CA" unicode="&#x2ca;" 
d="M-68 589l119 120l35 -35l-127 -112z" />
    <glyph glyph-name="uni02CB" unicode="&#x2cb;" 
d="M-68 674l35 35l119 -120l-27 -27z" />
    <glyph glyph-name="uni02CC" unicode="&#x2cc;" 
d="M-22 -38h44v-152h-44v152z" />
    <glyph glyph-name="breve" unicode="&#x2d8;" horiz-adv-x="352" 
d="M88 570.5q-33 33.5 -33 92.5v9h46v-8q0 -89 75 -89t75 89v8h46v-9q0 -59 -33 -92.5t-88 -33.5t-88 33.5z" />
    <glyph glyph-name="dotaccent" unicode="&#x2d9;" horiz-adv-x="198" 
d="M68 592q-13 13 -13 31t13 31t32 13q17 0 30 -13t13 -31t-13 -31t-30 -13q-19 0 -32 13z" />
    <glyph glyph-name="ring" unicode="&#x2da;" horiz-adv-x="306" 
d="M84 551.5q-29 24.5 -29 67.5t29 68t69 25t69 -25t29 -68t-29 -67.5t-69 -24.5t-69 24.5zM194 578.5q16 14.5 16 40.5q0 27 -16 42t-41 15t-41 -15t-16 -42q0 -26 16 -40.5t41 -14.5t41 14.5z" />
    <glyph glyph-name="ogonek" unicode="&#x2db;" horiz-adv-x="278" 
d="M81.5 -185.5q-26.5 24.5 -26.5 64.5q0 39 24.5 73.5t63.5 53.5h46q-47 -31 -69.5 -59.5t-22.5 -67.5q0 -52 59 -52q24 0 57 19l10 -32q-36 -24 -75 -24q-40 0 -66.5 24.5z" />
    <glyph glyph-name="tilde" unicode="&#x2dc;" horiz-adv-x="394" 
d="M55 584q3 32 25 53.5t53 21.5q23 0 40.5 -8.5t39.5 -24.5q16 -11 25.5 -16t19.5 -5q20 0 31 12.5t16 41.5l34 -18q-3 -32 -25 -53.5t-53 -21.5q-19 0 -35.5 8t-35.5 22q-19 13 -30 18.5t-24 5.5q-20 0 -31 -12.5t-16 -41.5z" />
    <glyph glyph-name="hungarumlaut" unicode="&#x2dd;" horiz-adv-x="443" 
d="M157 718h65l-116 -172h-51zM319 718h69l-141 -172h-53z" />
    <glyph glyph-name="gravecomb" unicode="&#x300;" 
d="M-55 718h58l87 -172h-43z" />
    <glyph glyph-name="acutecomb" unicode="&#x301;" 
d="M32 718h58l-102 -172h-43z" />
    <glyph glyph-name="uni0302" unicode="&#x302;" 
d="M-22 702q8 10 12.5 13t12.5 3q15 0 22.5 -8t3.5 -15l-3 -5l118 -134h-58l-88 109l-84 -109h-58z" />
    <glyph glyph-name="tildecomb" unicode="&#x303;" 
d="M-142 584q3 32 25 53.5t53 21.5q23 0 40.5 -8.5t39.5 -24.5q16 -11 25.5 -16t19.5 -5q20 0 31 12.5t16 41.5l34 -18q-3 -32 -25 -53.5t-53 -21.5q-20 0 -36 8t-35 22q-19 13 -30 18.5t-24 5.5q-20 0 -31 -12.5t-16 -41.5z" />
    <glyph glyph-name="uni0304" unicode="&#x304;" 
d="M-136 625h272v-43h-272v43z" />
    <glyph glyph-name="uni0306" unicode="&#x306;" 
d="M-88 570.5q-33 33.5 -33 92.5v9h46v-8q0 -89 75 -89t75 89v8h46v-9q0 -59 -33 -92.5t-88 -33.5t-88 33.5z" />
    <glyph glyph-name="uni0307" unicode="&#x307;" 
d="M-32 592q-13 13 -13 31t13 31t32 13q17 0 30 -13t13 -31t-13 -31t-30 -13q-19 0 -32 13z" />
    <glyph glyph-name="uni0308" unicode="&#x308;" 
d="M-125 562q-13 13 -13 31t13 31t32 13q17 0 30 -13t13 -31t-13 -31t-30 -13q-19 0 -32 13zM64 562q-13 13 -13 31t13 31t32 13q17 0 30 -13t13 -31t-13 -31t-30 -13q-19 0 -32 13z" />
    <glyph glyph-name="hookabovecomb" unicode="&#x309;" 
d="M-276.5 588.5q10.5 15.5 31.5 35.5q16 14 24 25t8 25q0 42 -50 42q-40 0 -66 -40l-30 22q17 26 42 40.5t55 14.5q43 0 67 -21t24 -58q0 -20 -9 -33.5t-26 -29.5q-17 -17 -25.5 -29.5t-8.5 -31.5h-47q0 23 10.5 38.5z" />
    <glyph glyph-name="uni030A" unicode="&#x30a;" 
d="M-69 551.5q-29 24.5 -29 67.5t29 68t69 25t69 -25t29 -68t-29 -67.5t-69 -24.5t-69 24.5zM41 578.5q16 14.5 16 40.5q0 27 -16 42t-41 15t-41 -15t-16 -42q0 -26 16 -40.5t41 -14.5t41 14.5z" />
    <glyph glyph-name="uni030B" unicode="&#x30b;" 
d="M-11 718h65l-116 -172h-51zM151 718h69l-141 -172h-53z" />
    <glyph glyph-name="uni030C" unicode="&#x30c;" 
d="M-25.5 564q-7.5 8 -3.5 15l3 5l-118 134h58l88 -109l84 109h58l-122 -146q-8 -10 -12.5 -13t-12.5 -3q-15 0 -22.5 8z" />
    <glyph glyph-name="uni031B" unicode="&#x31b;" 
d="M-73 409q95 0 95 104v18h51v-19q0 -71 -40 -108.5t-106 -37.5v43z" />
    <glyph glyph-name="dotbelowcomb" unicode="&#x323;" 
d="M-32 -137q-13 13 -13 31t13 31t32 13q17 0 30 -13t13 -31t-13 -31t-30 -13q-19 0 -32 13z" />
    <glyph glyph-name="uni0324" unicode="&#x324;" 
d="M-125 -144q-13 13 -13 31t13 31t32 13q17 0 30 -13t13 -31t-13 -31t-30 -13q-19 0 -32 13zM64 -144q-13 13 -13 31t13 31t32 13q17 0 30 -13t13 -31t-13 -31t-30 -13q-19 0 -32 13z" />
    <glyph glyph-name="uni0326" unicode="&#x326;" 
d="M-162 -236q29 14 46 34t20 41q-5 -2 -15 -2q-18 0 -31 12t-13 32q0 23 13.5 37.5t35.5 14.5q25 0 38 -16.5t13 -44.5q0 -42 -24.5 -77t-67.5 -56z" />
    <glyph glyph-name="uni0327" unicode="&#x327;" 
d="M-58.5 -203.5q-22.5 6.5 -40.5 18.5l17 35q32 -21 69 -21q21 0 32.5 10.5t11.5 29.5q0 22 -18.5 33t-49.5 9l-17 19l46 76h49l-41 -67q75 -8 75 -71q0 -37 -22.5 -57.5t-68.5 -20.5q-20 0 -42.5 6.5z" />
    <glyph glyph-name="uni0328" unicode="&#x328;" 
d="M-68.5 -185.5q-26.5 24.5 -26.5 64.5q0 39 24.5 73.5t63.5 53.5h46q-47 -31 -69.5 -59.5t-22.5 -67.5q0 -52 59 -52q24 0 57 19l10 -32q-36 -24 -75 -24q-40 0 -66.5 24.5z" />
    <glyph glyph-name="uni032E" unicode="&#x32e;" 
d="M-88 -150.5q-33 33.5 -33 92.5v9h46v-8q0 -89 75 -89t75 89v8h46v-9q0 -59 -33 -92.5t-88 -33.5t-88 33.5z" />
    <glyph glyph-name="uni0331" unicode="&#x331;" 
d="M-136 -67h272v-43h-272v43z" />
    <glyph glyph-name="uni0394" unicode="&#x394;" horiz-adv-x="650" 
d="M290 680q7 21 16.5 29.5t23.5 8.5q19 0 29 -8t10 -18q0 -9 -6 -17l232 -675h-540zM522 47l-196 592l-196 -592h392z" />
    <glyph glyph-name="uni03A9" unicode="&#x3a9;" horiz-adv-x="694" 
d="M96 46h161v123q-93 12 -147.5 78t-54.5 183q0 83 37 146.5t103.5 98.5t151.5 35t151.5 -35t103.5 -98.5t37 -146.5q0 -117 -54.5 -183t-147.5 -78v-123h161v-46h-215v208q102 8 151 61t49 161t-64.5 169.5t-171.5 61.5t-171.5 -61.5t-64.5 -169.5q0 -110 49 -162t151 -60
v-208h-215v46z" />
    <glyph glyph-name="uni03BC" unicode="&#x3bc;" horiz-adv-x="534" 
d="M80 485h52v-307q0 -71 30.5 -106t96.5 -35q45 0 78 25t50.5 65t17.5 85v273h52v-372q0 -71 22 -104l-47 -19q-18 32 -25 93q-26 -45 -66 -69t-90 -24q-39 0 -71 13t-48 36v-289h-52v735z" />
    <glyph glyph-name="pi" unicode="&#x3c0;" horiz-adv-x="622" 
d="M427 21.5q-21 30.5 -21 90.5v312h-207v-424h-54v424h-100v46h524v-46h-111v-311q0 -43 10.5 -60t37.5 -17q37 0 57 10l14 -41q-31 -14 -76 -14q-53 0 -74 30.5z" />
    <glyph glyph-name="uni0E01" unicode="&#xe01;" horiz-adv-x="630" 
d="M132 304q0 35 13 55l-90 60q8 48 43 90.5t90.5 68t122.5 25.5q74 0 120.5 -23.5t87.5 -72.5q5 7 13 7q9 0 21 -11t12 -22q0 -7 -4.5 -12.5t-5.5 -6.5q-9 -10 -13.5 -18.5t-4.5 -24.5v-419h-52v419q0 30 8 43q-30 45 -73 70.5t-108 25.5q-77 0 -130 -35t-71 -84l57 -37
q10 12 28 25t36 19l22 -38q-37 -17 -53.5 -42t-16.5 -63v-303h-52v304z" />
    <glyph glyph-name="uni0E02" unicode="&#xe02;" horiz-adv-x="556" 
d="M146 -10q-10 0 -20 17q-6 11 -6 17q0 9 12 18q14 10 19.5 21t5.5 29v87q0 40 17 68t51 64q25 28 39.5 46.5t24.5 45t10 59.5q0 49 -23 73t-61 24q-25 0 -52 -10v-2q42 -4 62.5 -26.5t20.5 -55.5q0 -40 -26.5 -66t-69.5 -26q-41 0 -68 25.5t-27 66.5q0 39 20.5 70.5
t56 49.5t79.5 18q67 0 103.5 -39t36.5 -99q0 -55 -21.5 -92.5t-61.5 -83.5q-30 -32 -44.5 -56t-14.5 -52v-94q0 -27 -13 -44h233v550h52v-540q0 -23 -12.5 -38t-35.5 -15h-246q-18 0 -32 -8q-3 -2 -9 -2zM185.5 430.5q14.5 13.5 14.5 34.5q0 20 -14.5 34.5t-35.5 14.5
q-20 0 -34.5 -14.5t-14.5 -34.5q0 -21 14 -34.5t35 -13.5t35.5 13.5z" />
    <glyph glyph-name="uni0E03" unicode="&#xe03;" horiz-adv-x="610" 
d="M200 -10q-10 0 -20 17q-6 11 -6 17q0 9 12 18q14 10 19.5 21t5.5 29v87q0 46 24.5 90t70.5 105q31 40 44.5 62.5t13.5 39.5q0 57 -36 80l-38 -31q9 -17 9 -27q0 -11 -12 -16q-12 -4 -15 -4q-9 0 -15 12q-17 38 -32.5 53.5t-46.5 15.5q-34 0 -53 -28t-22 -66h1
q10 13 26.5 20t34.5 7q40 0 64 -25.5t24 -65.5q0 -38 -27 -64.5t-66 -26.5q-52 0 -78.5 35.5t-26.5 92.5q0 71 33 118t90 47q53 0 91 -49l46 40q11 9 21 9q12 0 20 -6q59 -44 59 -121q0 -25 -15.5 -50.5t-47.5 -66.5q-43 -53 -66 -94t-23 -90v-88q0 -27 -13 -44h233v550h52
v-540q0 -23 -12.5 -38t-35.5 -15h-246q-18 0 -32 -8q-3 -2 -9 -2zM193.5 368q13.5 14 13.5 34t-13.5 33.5t-33.5 13.5t-34.5 -14t-14.5 -33q0 -20 14.5 -34t34.5 -14t33.5 14z" />
    <glyph glyph-name="uni0E04" unicode="&#xe04;" horiz-adv-x="608" 
d="M463 419q0 31 10 47q-31 45 -71.5 68.5t-105.5 23.5q-89 0 -138.5 -49t-49.5 -137q0 -45 3.5 -76.5t11.5 -79.5q11 -55 13 -99h1q20 53 30 89.5t18 77.5q8 44 19 74q24 64 94 64q43 0 68 -25t25 -65q0 -39 -26.5 -64t-66.5 -25q-39 0 -67 28l-5 -21q-20 -77 -39 -128
t-62 -113q-8 -11 -18 -11q-8 0 -18 7q-14 9 -14 19q0 9 9 22q10 16 10 43q0 32 -16 107q-11 52 -17 93.5t-6 82.5q0 109 64 170t177 61q73 0 120 -24.5t85 -71.5q5 7 11 7q7 0 19 -11t12 -22q0 -7 -4.5 -12.5t-5.5 -6.5q-9 -10 -13.5 -18.5t-4.5 -24.5v-419h-52v419z
M331.5 298.5q13.5 13.5 13.5 33.5t-13.5 33.5t-33.5 13.5t-33.5 -13.5t-13.5 -33.5t13.5 -33.5t33.5 -13.5t33.5 13.5z" />
    <glyph glyph-name="uni0E05" unicode="&#xe05;" horiz-adv-x="608" 
d="M463 439q0 31 10 47q-10 35 -28.5 53.5t-50.5 18.5q-25 0 -42.5 -11.5t-33.5 -32.5q3 -4 3 -10q0 -11 -15 -18q-7 -4 -14 -4q-10 0 -16 12q-19 34 -33 49t-40 15q-49 0 -72 -46.5t-23 -139.5q0 -45 3.5 -76.5t11.5 -79.5q11 -55 13 -99h1q20 53 30 89.5t18 77.5
q8 44 19 74q24 64 94 64q43 0 68 -25t25 -65q0 -39 -26.5 -64t-66.5 -25q-39 0 -67 28l-5 -21q-20 -77 -39 -128t-62 -113q-8 -11 -18 -11q-8 0 -18 7q-14 9 -14 19q0 9 9 22q10 16 10 43q0 32 -16 107q-11 52 -17 93.5t-6 82.5q0 107 36 169t108 62q62 0 98 -58
q17 26 43 42t58 16q38 0 62 -20.5t41 -55.5q5 7 11 7q7 0 19 -11t12 -22q0 -7 -4.5 -12.5t-5.5 -6.5q-9 -10 -13.5 -18.5t-4.5 -24.5v-439h-52v439zM331.5 298.5q13.5 13.5 13.5 33.5t-13.5 33.5t-33.5 13.5t-33.5 -13.5t-13.5 -33.5t13.5 -33.5t33.5 -13.5t33.5 13.5z" />
    <glyph glyph-name="uni0E06" unicode="&#xe06;" horiz-adv-x="671" 
d="M129 17q-27 27 -27 79q0 66 39 107t94 48v11q0 31 19.5 61t55.5 70q30 33 44.5 53.5t14.5 39.5q0 29 -8.5 43.5t-27.5 26.5l-38 -31q9 -16 9 -27t-12 -16q-12 -4 -15 -4q-9 0 -15 12q-17 38 -32.5 53.5t-46.5 15.5q-35 0 -56 -24.5t-24 -60.5h1q10 13 26.5 20t34.5 7
q40 0 64 -25.5t24 -65.5q0 -38 -27 -64.5t-66 -26.5q-52 0 -78.5 35.5t-26.5 92.5q0 69 35 112.5t93 43.5q53 0 91 -49l46 40q11 9 21 9q12 0 20 -6q29 -22 44 -47t15 -64q0 -27 -16 -50.5t-49 -57.5q-34 -35 -51 -60t-17 -56v-11q71 -8 143.5 -41.5t115.5 -79.5v463h50
v-593h-50v58q-43 66 -114 103.5t-145 45.5v-129q0 -40 -23 -64t-63 -24q-45 0 -72 27zM193.5 377q13.5 14 13.5 34t-13.5 33.5t-33.5 13.5t-34.5 -14t-14.5 -33q0 -20 14.5 -34t34.5 -14t33.5 14zM226 46q9 11 9 32v128q-80 -17 -80 -110q0 -30 12 -45.5t34 -15.5
q16 0 25 11z" />
    <glyph glyph-name="uni0E07" unicode="&#xe07;" horiz-adv-x="489" 
d="M349 -11q-9 0 -19 10q-9 9 -9 17q0 7 6 14l-302 302l35 35l295 -295q7 13 7 33v332q-21 -13 -45 -13q-40 0 -65.5 24t-25.5 65q0 40 27 65t68 25t67 -23.5t26 -61.5v-402q0 -38 -9.5 -63.5t-38.5 -54.5q-7 -9 -17 -9zM354.5 479q13.5 13 13.5 34q0 20 -13.5 33.5
t-33.5 13.5q-21 0 -35 -13.5t-14 -33.5q0 -21 14 -34t35 -13q20 0 33.5 13z" />
    <glyph glyph-name="uni0E08" unicode="&#xe08;" horiz-adv-x="610" 
d="M398 -10q-9 0 -19 11q-6 8 -6 14q0 12 20 27l-51 219q-28 -28 -66 -28q-40 0 -66 25t-26 64q0 40 26 65t67 25q38 0 62.5 -20t32.5 -55l54 -249l50 351q3 19 13 31q-33 43 -76 65.5t-114 22.5t-123 -36t-76 -105l-45 14q14 45 46.5 84t83 63.5t114.5 24.5q76 0 126 -25.5
t91 -70.5q4 4 10 4q9 0 20 -12q9 -10 9 -17q0 -8 -15 -23q-17 -17 -19 -35l-57 -363q-5 -27 -50 -65q-8 -6 -16 -6zM310.5 288.5q13.5 13.5 13.5 33.5t-13.5 33.5t-33.5 13.5q-19 0 -33 -13.5t-14 -33.5t13.5 -33.5t33.5 -13.5t33.5 13.5z" />
    <glyph glyph-name="uni0E09" unicode="&#xe09;" horiz-adv-x="626" 
d="M388.5 17.5q-30.5 27.5 -30.5 68.5q0 25 12.5 46t36.5 35v1q-49 -1 -88 -41t-93 -127q-6 -10 -15 -10t-21 9q-15 12 -15 20q0 5 4 9q21 24 21 64v102q-18 -8 -35 -8q-39 0 -66.5 25.5t-27.5 64.5q0 37 27 63t68 26t67 -26.5t26 -63.5q0 -20 -7 -38v-127q38 51 81.5 77
t103.5 26q21 0 44 -3v209q0 16 1.5 25.5t6.5 17.5q-28 50 -71 73t-115 23q-70 0 -123 -37.5t-78 -103.5l-47 14q14 44 47.5 83.5t85 64t115.5 24.5q76 0 131 -25.5t85 -71.5q5 7 13 7q10 0 21 -10q12 -11 12 -22q0 -9 -12 -19q-10 -10 -15 -18.5t-5 -24.5v-249
q38 -28 38 -78q0 -43 -29.5 -72.5t-76.5 -29.5q-46 0 -76.5 27.5zM199.5 241q13.5 13 13.5 34q0 20 -13.5 33.5t-33.5 13.5q-21 0 -35 -13.5t-14 -33.5q0 -21 14 -34t35 -13q20 0 33.5 13zM505.5 51q15.5 16 15.5 41q0 26 -15 42.5t-41 16.5q-25 0 -41 -16.5t-16 -42.5
q0 -24 16 -40.5t41 -16.5t40.5 16z" />
    <glyph glyph-name="uni0E0A" unicode="&#xe0a;" horiz-adv-x="631" 
d="M172 -10q-10 0 -20 17q-6 11 -6 17q0 9 12 18q14 10 19.5 21t5.5 29v97q0 41 14.5 70t43.5 66t43.5 66.5t14.5 70.5q0 49 -23 73t-61 24q-25 0 -52 -10v-2q42 -4 62.5 -26.5t20.5 -55.5q0 -40 -26.5 -66t-69.5 -26q-41 0 -68 25.5t-27 66.5q0 39 20.5 70.5t56 49.5
t79.5 18q67 0 103.5 -39t36.5 -99q0 -47 -16.5 -81.5t-47.5 -76.5q-26 -34 -39 -60t-13 -56v-104q0 -27 -13 -44h233v286q0 43 -10.5 61t-44.5 25q-19 4 -19 20q0 8 4 15q31 64 71 113t98 83l32 -39q-51 -29 -90 -72t-60 -89q42 -13 56.5 -38t14.5 -80v-275q0 -23 -12.5 -38
t-35.5 -15h-246q-18 0 -32 -8q-3 -2 -9 -2zM185.5 430.5q14.5 13.5 14.5 34.5q0 20 -14.5 34.5t-35.5 14.5q-20 0 -34.5 -14.5t-14.5 -34.5q0 -21 14 -34.5t35 -13.5t35.5 13.5z" />
    <glyph glyph-name="uni0E0B" unicode="&#xe0b;" horiz-adv-x="661" 
d="M202 -10q-10 0 -20 17q-6 11 -6 17q0 9 12 18q14 10 19.5 21t5.5 29v87q0 48 21.5 89t61.5 94q29 39 42 61.5t13 43.5q0 35 -8 56t-25 32l-34 -31q9 -17 9 -27q0 -11 -12 -16q-12 -4 -15 -4q-9 0 -15 12q-12 27 -20.5 40.5t-21 21t-34.5 7.5q-34 0 -51 -27.5t-21 -66.5h1
q10 13 26.5 20t34.5 7q40 0 64 -25.5t24 -65.5q0 -38 -27 -64.5t-66 -26.5q-52 0 -78.5 35.5t-26.5 92.5q0 72 31.5 118.5t88.5 46.5q28 0 48.5 -12.5t39.5 -36.5l42 40q11 9 21 9q12 0 20 -6q26 -20 40 -53.5t14 -75.5q0 -26 -14 -51.5t-43 -63.5q-37 -49 -57.5 -89
t-20.5 -88v-88q0 -27 -13 -44h233v286q0 44 -8 62.5t-33 23.5q-19 4 -19 20q0 8 4 15q25 50 43 81t45.5 61.5t66.5 53.5l32 -39q-49 -27 -81 -68.5t-55 -92.5q31 -14 44 -39.5t13 -78.5v-275q0 -23 -12.5 -38t-35.5 -15h-246q-18 0 -32 -8q-3 -2 -9 -2zM193.5 367
q13.5 14 13.5 34t-13.5 33.5t-33.5 13.5t-34.5 -14t-14.5 -33q0 -20 14.5 -34t34.5 -14t33.5 14z" />
    <glyph glyph-name="uni0E0C" unicode="&#xe0c;" horiz-adv-x="901" 
d="M158.5 16.5q-26.5 26.5 -26.5 66.5v221q0 35 13 55l-90 60q8 49 42 91t88 67.5t121 25.5q73 0 117 -23.5t86 -72.5q5 7 12 7q9 0 21 -11t12 -22q0 -7 -4.5 -12.5t-5.5 -6.5q-9 -10 -13.5 -18.5t-4.5 -24.5v-177q74 -6 140 -36.5t110 -77.5v465h50v-593h-50v60
q-79 122 -229 136q13 -24 19 -45.5t6 -51.5q0 -49 -25 -79t-68 -30t-67.5 29t-24.5 80q0 48 24 85t64 56v179q0 30 8 43q-30 47 -70.5 71.5t-105.5 24.5q-76 0 -127 -35t-69 -84l57 -37q10 12 28 25t36 19l22 -38q-37 -17 -53.5 -42t-16.5 -63v-147q21 13 45 13
q42 0 66.5 -24.5t24.5 -64.5q0 -39 -27 -64.5t-68 -25.5q-40 0 -66.5 26.5zM513 50.5q12 17.5 12 48.5q0 32 -7 56t-23 45q-60 -26 -60 -101q0 -31 11.5 -48.5t32.5 -17.5q22 0 34 17.5zM260 46.5q14 13.5 14 33.5q0 21 -14 34t-35 13q-20 0 -33.5 -13t-13.5 -34
q0 -20 13.5 -33.5t33.5 -13.5q21 0 35 13.5z" />
    <glyph glyph-name="uni0E0D" unicode="&#xe0d;" horiz-adv-x="898" 
d="M501.5 -130.5q-42.5 28.5 -42.5 77.5q0 39 24.5 63t64.5 24q42 0 66 -23.5t24 -57.5q0 -42 -36 -66v-1q83 0 126 53t43 145h-266q-18 0 -32 -8q-3 -2 -9 -2q-10 0 -20 17q-6 11 -6 17q0 9 12 18q14 10 19.5 21t5.5 29v243q0 30 8 43q-30 47 -70.5 71.5t-105.5 24.5
q-76 0 -127 -35t-69 -84l57 -37q10 12 28 25t36 19l22 -38q-37 -17 -53.5 -42t-16.5 -63v-147q21 13 45 13q42 0 66.5 -24.5t24.5 -64.5q0 -39 -27 -64.5t-68 -25.5q-40 0 -66.5 26.5t-26.5 66.5v221q0 35 13 55l-90 60q8 49 42 91t88 67.5t121 25.5q73 0 117 -23.5
t86 -72.5q5 7 13 7q9 0 21 -11t12 -22q0 -7 -4.5 -12.5t-5.5 -6.5q-9 -10 -13.5 -18.5t-4.5 -24.5v-248q0 -27 -13 -44h257v466h52v-509q0 -71 -26.5 -126t-76 -86t-118.5 -31q-58 0 -100.5 28.5zM260 46.5q14 13.5 14 33.5q0 21 -14 34t-35 13q-20 0 -33.5 -13t-13.5 -34
q0 -20 13.5 -33.5t33.5 -13.5q21 0 35 13.5zM579.5 -83.5q12.5 12.5 12.5 30.5q0 20 -12 32t-32 12q-19 0 -31 -12.5t-12 -31.5q0 -18 12.5 -30.5t30.5 -12.5q19 0 31.5 12.5z" />
    <glyph glyph-name="uni0E0E" unicode="&#xe0e;" horiz-adv-x="650" 
d="M101 -332q-27 27 -27 71q0 48 38 75t94 27q9 0 27 -2v53h52v-57q54 -14 94.5 -47t62.5 -79q33 18 48 45.5t15 67.5v597q0 30 8 43q-30 45 -73.5 70.5t-108.5 25.5q-48 0 -89.5 -16.5t-70.5 -43.5t-40 -57l75 -44q10 13 29 27.5t34 17.5l22 -39q-38 -17 -51.5 -43
t-13.5 -66v-176q7 -17 7 -38q0 -37 -26 -63.5t-67 -26.5t-68 26t-27 63q0 39 27.5 64.5t66.5 25.5q17 0 35 -8v134q0 47 8 60l-109 64q11 50 47 92t91 67t119 25q74 0 121 -24t88 -72q5 7 13 7q9 0 21 -11t12 -22q0 -7 -4.5 -12.5t-5.5 -6.5q-9 -10 -13.5 -18.5t-4.5 -24.5
v-597q0 -119 -124 -177q-8 -4 -17 -4q-15 0 -22 12q-4 7 -4 13q0 10 13 21q-45 84 -118 101v-16q0 -56 -27.5 -93.5t-84.5 -37.5q-45 0 -72 27zM173.5 46.5q13.5 13.5 13.5 33.5q0 21 -13.5 34t-33.5 13q-21 0 -35 -13t-14 -34q0 -20 14 -33.5t35 -13.5q20 0 33.5 13.5z
M219.5 -296q13.5 20 13.5 65v27q-18 3 -33 3q-39 0 -58.5 -16t-19.5 -45q0 -23 13.5 -38.5t37.5 -15.5q33 0 46.5 20z" />
    <glyph glyph-name="uni0E0F" unicode="&#xe0f;" horiz-adv-x="651" 
d="M71 -333q-26 26 -26 70q0 48 36.5 74t91.5 26q8 0 28 -2v53h52v-60q70 -28 87 -104q12 16 23.5 24t25.5 8q23 0 39 -18l33 -37q12 -15 24 -15q8 0 14.5 6.5t6.5 16.5v710q0 30 8 43q-30 45 -73.5 70.5t-108.5 25.5q-48 0 -89.5 -16.5t-70.5 -43.5t-40 -57l75 -44
q10 13 29 27.5t34 17.5l22 -39q-38 -17 -51.5 -43t-13.5 -66v-176q7 -17 7 -38q0 -37 -26 -63.5t-67 -26.5t-68 26t-27 63q0 39 27.5 64.5t66.5 25.5q17 0 35 -8v134q0 47 8 60l-109 64q11 50 47 92t91 67t119 25q73 0 120.5 -25t89.5 -74q7 7 15 7q10 0 18 -8
q12 -12 12 -22q0 -7 -4.5 -12.5t-5.5 -6.5q-9 -10 -13.5 -18.5t-4.5 -24.5v-693q0 -85 -66 -85q-31 0 -54 25l-26 29q-6 7 -11.5 11.5t-11.5 4.5q-7 0 -12 -3.5t-11 -12.5l-31 -44q-7 -10 -17 -10q-7 0 -15 6q-10 7 -10 16q0 6 6 14l11 15q-6 37 -19.5 58t-36.5 33v-11
q0 -60 -27 -95.5t-85 -35.5q-45 0 -71 26zM174.5 46.5q13.5 13.5 13.5 33.5q0 21 -13.5 34t-33.5 13q-21 0 -35 -13t-14 -34q0 -20 14 -33.5t35 -13.5q20 0 33.5 13.5zM188.5 -297q13.5 19 13.5 64v25q-19 3 -34 3q-38 0 -56.5 -15.5t-18.5 -43.5q0 -23 12.5 -37.5
t36.5 -14.5q33 0 46.5 19z" />
    <glyph glyph-name="uni0E10" unicode="&#xe10;" horiz-adv-x="614" 
d="M385 -9q-10 0 -19 10q-7 7 -7 15q0 10 20 27l-48 185q-14 -14 -29.5 -21t-35.5 -7q-40 0 -66 25t-26 64q0 40 26 65t67 25q38 0 62.5 -20t32.5 -55l50 -216l35 259q4 25 12 37q-33 22 -89.5 35t-118.5 13q-68 0 -122 -16l-6 -13q-5 -11 -16 -11q-7 0 -14 3q-14 6 -14 18
q0 9 4 21q29 88 82 128.5t151 40.5q32 0 65 -6t91 -18q66 -15 87 -17l-14 -42q-22 3 -79 15q-48 11 -82.5 17t-69.5 6q-72 0 -110.5 -21t-59.5 -75q46 10 105 10q67 0 129.5 -13.5t98.5 -37.5q3 4 9 4q10 0 21 -11q9 -9 9 -18q0 -7 -8 -17q-6 -7 -9 -16.5t-6 -24.5l-42 -277
q-3 -17 -16.5 -34.5t-33.5 -30.5q-7 -5 -16 -5zM300.5 255.5q13.5 13.5 13.5 33.5t-13.5 33.5t-33.5 13.5q-19 0 -33 -13.5t-14 -33.5t13.5 -33.5t33.5 -13.5t33.5 13.5zM81 -334q-26 25 -26 66q0 48 34 73t85 25q17 0 35 -3v63h50v-77q73 -32 96 -100q32 24 69 24
q21 0 45 -8v69q-19 -12 -44 -12q-40 0 -64 23t-24 61q0 39 25.5 63.5t65.5 24.5q42 0 66.5 -24.5t24.5 -63.5v-161q5 -8 5 -15q0 -12 -13 -21q-7 -5 -13 -5q-9 0 -25 12q-19 15 -44 15q-21 0 -41 -11.5t-33 -30.5q-6 -10 -17 -10q-7 0 -14 4q-13 6 -13 16q0 8 4 15l7 14
q-12 32 -24.5 47t-38.5 30q0 -57 -28.5 -92.5t-77.5 -35.5q-46 0 -72 25zM462.5 -163.5q12.5 12.5 12.5 34.5q0 20 -12.5 32t-34.5 12q-20 0 -32.5 -12t-12.5 -32q0 -22 12.5 -34.5t34.5 -12.5q20 0 32.5 12.5zM195 -296q15 21 15 59v20q-21 6 -41 6q-31 0 -50 -14.5
t-19 -42.5q0 -23 14 -36t39 -13q27 0 42 21z" />
    <glyph glyph-name="uni0E11" unicode="&#xe11;" horiz-adv-x="744" 
d="M244 16q0 6 4 13q1 2 10.5 18t9.5 31v206q0 58 18 98t47 80q9 13 16.5 25.5t7.5 21.5q0 12 -10.5 25.5t-24.5 21.5l-41 -31q5 -8 5 -13q0 -9 -13 -16q-10 -5 -15 -5q-9 0 -17 14q-17 30 -32 42t-38 12q-59 0 -68 -94h1q10 13 26.5 20t34.5 7q40 0 64 -25.5t24 -65.5
q0 -38 -27 -64.5t-66 -26.5q-52 0 -78.5 35.5t-26.5 92.5q0 72 29.5 118.5t86.5 46.5q50 0 84 -45l42 32q6 5 13.5 9t15.5 4q14 0 26 -9q19 -14 38.5 -38.5t19.5 -44.5q0 -14 -8 -28.5t-25 -35.5q-28 -39 -43.5 -71.5t-15.5 -77.5v-134l183 427q42 0 76.5 -12.5t57.5 -34.5
q6 7 13 7q8 0 19 -8q12 -9 12 -22q0 -7 -4.5 -12.5t-5.5 -6.5q-9 -10 -13.5 -18.5t-4.5 -24.5v-459h-52v459q0 23 9 46q-14 18 -33.5 27.5t-40.5 9.5l-230 -532q-7 -19 -22 -19q-11 0 -21 5q-17 7 -17 20zM193.5 368q13.5 14 13.5 34t-13.5 33.5t-33.5 13.5t-34.5 -14
t-14.5 -33q0 -20 14.5 -34t34.5 -14t33.5 14z" />
    <glyph glyph-name="uni0E12" unicode="&#xe12;" horiz-adv-x="886" 
d="M396.5 19q-24.5 29 -24.5 80q0 48 24 85t64 56v203q0 17 1 27t6 17q-10 37 -25 54t-48 17q-39 0 -72 -44q3 -4 3 -10q0 -13 -15 -18q-9 -4 -17 -4q-10 0 -16 12q-19 34 -33.5 49t-40.5 15q-49 0 -72 -44t-23 -132q0 -47 5.5 -84.5t15.5 -85.5q13 -59 15 -92h1
q65 98 116 136q-31 8 -50.5 30.5t-19.5 53.5q0 40 28 66t71 26q42 0 69.5 -24.5t27.5 -64.5q0 -25 -15.5 -48t-51.5 -49q-49 -36 -94 -92.5t-97 -143.5q-7 -12 -18 -12q-9 0 -19 7q-14 9 -14 20q0 8 9 21q10 13 10 35q0 29 -4.5 57.5t-14.5 70.5q-11 53 -17 91t-6 82
q0 105 35.5 163t108.5 58q63 0 99 -58q17 26 42.5 42t57.5 16q39 0 62.5 -18.5t39.5 -52.5q4 5 11 5q9 0 19 -10q12 -12 12 -22q0 -8 -11 -19q-10 -10 -15 -18.5t-5 -24.5v-201q74 -6 140 -36.5t110 -77.5v465h50v-593h-50v60q-79 122 -229 136q13 -24 19 -45.5t6 -51.5
q0 -49 -25 -79t-68 -30t-67.5 29zM323 305.5q14 13.5 14 34.5q0 20 -14 33.5t-33 13.5q-20 0 -34.5 -13.5t-14.5 -33.5q0 -21 14.5 -34.5t34.5 -13.5q19 0 33 13.5zM498 50.5q12 17.5 12 48.5q0 32 -7 56t-23 45q-60 -26 -60 -101q0 -31 11.5 -48.5t32.5 -17.5q22 0 34 17.5
z" />
    <glyph glyph-name="uni0E13" unicode="&#xe13;" horiz-adv-x="934" 
d="M158.5 16.5q-26.5 26.5 -26.5 66.5v221q0 35 13 55l-90 60q8 49 42 91t88 67.5t121 25.5q73 0 117 -23.5t86 -72.5q5 7 12 7q9 0 21 -11t12 -22q0 -7 -4.5 -12.5t-5.5 -6.5q-9 -10 -13.5 -18.5t-4.5 -24.5v-309q41 48 96.5 75.5t123.5 27.5q20 0 43 -3v383h52v-423
q38 -28 38 -78q0 -43 -29.5 -72.5t-76.5 -29.5q-46 0 -76.5 27.5t-30.5 68.5q0 25 12.5 46t36.5 35v1q-63 -1 -113.5 -44t-100.5 -124q-6 -10 -15 -10t-21 9q-15 12 -15 20q0 5 4 9q21 24 21 64v327q0 30 8 43q-30 47 -70.5 71.5t-105.5 24.5q-76 0 -127 -35t-69 -84l57 -37
q10 12 28 25t36 19l22 -38q-37 -17 -53.5 -42t-16.5 -63v-147q21 13 45 13q42 0 66.5 -24.5t24.5 -64.5q0 -39 -27 -64.5t-68 -25.5q-40 0 -66.5 26.5zM813.5 51q15.5 16 15.5 41q0 26 -15 42.5t-41 16.5q-25 0 -41 -16.5t-16 -42.5q0 -24 16 -40.5t41 -16.5t40.5 16z
M260 46.5q14 13.5 14 33.5q0 21 -14 34t-35 13q-20 0 -33.5 -13t-13.5 -34q0 -20 13.5 -33.5t33.5 -13.5q21 0 35 13.5z" />
    <glyph glyph-name="uni0E14" unicode="&#xe14;" horiz-adv-x="619" 
d="M474 419q0 31 10 47q-54 92 -183 92q-97 0 -145 -50.5t-48 -139.5q0 -47 5.5 -82t15.5 -78q13 -55 15 -88h1q67 93 125 136q-31 8 -50.5 30.5t-19.5 53.5q0 40 28 66t71 26q42 0 69.5 -24.5t27.5 -64.5q0 -25 -15 -47.5t-52 -49.5q-105 -79 -200 -236q-7 -12 -18 -12
q-9 0 -19 7q-14 9 -14 20q0 8 9 21q10 13 10 35q0 29 -4.5 56t-14.5 66q-11 48 -17 84.5t-6 80.5q0 106 63 170.5t182 64.5q137 0 212 -98q6 8 12 8q8 0 19 -10q12 -11 12 -22q0 -8 -11 -19q-9 -10 -13.5 -18.5t-4.5 -24.5v-419h-52v419zM332 305.5q14 13.5 14 34.5
q0 20 -14 33.5t-33 13.5q-20 0 -34.5 -13.5t-14.5 -33.5q0 -21 14.5 -34.5t34.5 -13.5q19 0 33 13.5z" />
    <glyph glyph-name="uni0E15" unicode="&#xe15;" horiz-adv-x="619" 
d="M474 443q0 17 1 27t6 17q-10 36 -26.5 53.5t-49.5 17.5q-42 0 -75 -44q3 -4 3 -10q0 -11 -15 -18q-7 -4 -15 -4q-12 0 -18 12q-18 32 -35 48t-43 16q-49 0 -74 -44.5t-25 -131.5q0 -47 5.5 -84.5t15.5 -85.5q13 -59 15 -92h1q67 93 125 136q-31 8 -50.5 30.5t-19.5 53.5
q0 40 28 66t71 26q42 0 69.5 -24.5t27.5 -64.5q0 -25 -15 -47.5t-52 -49.5q-105 -79 -200 -236q-7 -12 -18 -12q-9 0 -19 7q-14 9 -14 20q0 8 9 21q10 13 10 35q0 29 -4.5 57.5t-14.5 70.5q-11 53 -17 91t-6 82q0 105 37.5 163t110.5 58q34 0 60.5 -16t42.5 -42q17 26 44 42
t59 16q39 0 64 -19t41 -52q4 5 10 5q8 0 18 -10q12 -12 12 -22q0 -7 -4.5 -12.5t-5.5 -6.5q-9 -10 -13.5 -18.5t-4.5 -24.5v-443h-52v443zM332 305.5q14 13.5 14 34.5q0 20 -14 33.5t-33 13.5q-20 0 -34.5 -13.5t-14.5 -33.5q0 -21 14.5 -34.5t34.5 -13.5q19 0 33 13.5z" />
    <glyph glyph-name="uni0E16" unicode="&#xe16;" horiz-adv-x="630" 
d="M158.5 16.5q-26.5 26.5 -26.5 66.5v221q0 35 13 55l-90 60q8 48 43 90.5t90.5 68t122.5 25.5q74 0 120.5 -23.5t87.5 -72.5q5 7 13 7q9 0 21 -11t12 -22q0 -7 -4.5 -12.5t-5.5 -6.5q-9 -10 -13.5 -18.5t-4.5 -24.5v-419h-52v419q0 30 8 43q-30 46 -72.5 71t-108.5 25
q-77 0 -130 -35t-71 -84l57 -37q10 12 28 25t36 19l22 -38q-37 -17 -53.5 -42t-16.5 -63v-147q21 13 45 13q42 0 66.5 -24.5t24.5 -64.5q0 -39 -27 -64.5t-68 -25.5q-40 0 -66.5 26.5zM260 46.5q14 13.5 14 33.5q0 21 -14 34t-35 13q-20 0 -33.5 -13t-13.5 -34
q0 -20 13.5 -33.5t33.5 -13.5q21 0 35 13.5z" />
    <glyph glyph-name="uni0E17" unicode="&#xe17;" horiz-adv-x="656" 
d="M162 15q0 5 4 13q15 26 15 50v359q-21 -13 -45 -13q-40 0 -65.5 24t-25.5 65q0 40 27 65t68 25t67 -23.5t26 -61.5v-355l182 440q78 0 128 -47q6 7 15 7q10 0 21 -8q12 -9 12 -22q0 -7 -4.5 -12.5t-5.5 -6.5q-9 -10 -13.5 -18.5t-4.5 -24.5v-471h-52v471q0 26 7 44
q-12 18 -31.5 28.5t-38.5 10.5l-228 -545q-4 -10 -8.5 -14.5t-11.5 -4.5q-10 0 -20 5q-18 7 -18 20zM173.5 479q13.5 13 13.5 34q0 20 -13.5 33.5t-33.5 13.5q-21 0 -35 -13.5t-14 -33.5q0 -21 14 -34t35 -13q20 0 33.5 13z" />
    <glyph glyph-name="uni0E18" unicode="&#xe18;" horiz-adv-x="590" 
d="M117 431q39 7 97 7q76 0 147.5 -12.5t106.5 -34.5q3 5 9 5q9 0 21 -12q10 -10 10 -20q0 -9 -8 -17q-18 -18 -18 -39v-255q0 -23 -12.5 -38t-35.5 -15h-250q-18 0 -32 -8q-3 -2 -9 -2q-10 0 -20 17q-6 11 -6 17q0 9 12 18q14 10 19.5 21t5.5 29v298q-19 -1 -49 -7l-5 -10
q-6 -11 -17 -11q-6 0 -14 3q-14 7 -14 19q0 10 4 25q23 89 80 141.5t153 52.5q30 0 60 -5.5t71 -15.5q8 -2 43.5 -9.5t68.5 -10.5l-14 -42q-38 4 -90 18q-44 10 -73.5 15t-67.5 5q-135 0 -173 -127zM342 384q-66 11 -136 9v-306q0 -27 -13 -44h237v274q0 21 10 36
q-32 20 -98 31z" />
    <glyph glyph-name="uni0E19" unicode="&#xe19;" horiz-adv-x="650" 
d="M412.5 17.5q-30.5 27.5 -30.5 68.5q0 25 12.5 46t36.5 35v1q-64 -1 -121 -45.5t-103 -122.5q-6 -10 -15 -10t-21 9q-14 11 -14 20q0 5 3 9q21 24 21 64v345q-21 -13 -45 -13q-40 0 -65.5 24t-25.5 65q0 40 27 65t68 25t67 -23.5t26 -61.5v-408q40 47 99.5 75t129.5 28
q20 0 43 -3v383h52v-423q38 -28 38 -78q0 -43 -29.5 -72.5t-76.5 -29.5q-46 0 -76.5 27.5zM173.5 479q13.5 13 13.5 34q0 20 -13.5 33.5t-33.5 13.5q-21 0 -35 -13.5t-14 -33.5q0 -21 14 -34t35 -13q20 0 33.5 13zM529.5 51q15.5 16 15.5 41q0 26 -15 42.5t-41 16.5
q-25 0 -41 -16.5t-16 -42.5q0 -24 16 -40.5t41 -16.5t40.5 16z" />
    <glyph glyph-name="uni0E1A" unicode="&#xe1a;" horiz-adv-x="666" 
d="M170 -10q-10 0 -20 17q-6 11 -6 17q0 9 12 18q14 10 19.5 21t5.5 29v345q-21 -13 -45 -13q-40 0 -65.5 24t-25.5 65q0 40 27 65t68 25t67 -23.5t26 -61.5v-429q0 -29 -13 -46h319v550h52v-540q0 -23 -12.5 -38t-35.5 -15h-332q-18 0 -32 -8q-3 -2 -9 -2zM173.5 479
q13.5 13 13.5 34q0 20 -13.5 33.5t-33.5 13.5q-21 0 -35 -13.5t-14 -33.5q0 -21 14 -34t35 -13q20 0 33.5 13z" />
    <glyph glyph-name="uni0E1B" unicode="&#xe1b;" horiz-adv-x="668" 
d="M170 -10q-10 0 -20 17q-6 11 -6 17q0 9 12 18q14 10 19.5 21t5.5 29v345q-21 -13 -45 -13q-40 0 -65.5 24t-25.5 65q0 40 27 65t68 25t67 -23.5t26 -61.5v-429q0 -29 -13 -46h321v771h52v-761q0 -23 -12.5 -38t-35.5 -15h-334q-18 0 -32 -8q-3 -2 -9 -2zM173.5 479
q13.5 13 13.5 34q0 20 -13.5 33.5t-33.5 13.5q-21 0 -35 -13.5t-14 -33.5q0 -21 14 -34t35 -13q20 0 33.5 13z" />
    <glyph glyph-name="uni0E1C" unicode="&#xe1c;" horiz-adv-x="608" 
d="M508 -9q-12 0 -21 16l-170 289l-199 -293q-11 -14 -22 -14q-7 0 -18 8q-13 10 -13 20q0 7 7 15q9 11 12.5 22t3.5 26v436q0 38 26 62.5t67 24.5t68 -25t27 -65q0 -41 -25.5 -65t-65.5 -24q-24 0 -45 13v-326l150 229q6 8 11.5 12t15.5 4t14.5 -3.5t10.5 -12.5l139 -229
v482h52v-569q0 -15 -3.5 -22t-11.5 -9t-10 -2zM216 479q14 13 14 34q0 20 -14 33.5t-35 13.5q-20 0 -33.5 -13.5t-13.5 -33.5q0 -21 13.5 -34t33.5 -13q21 0 35 13z" />
    <glyph glyph-name="uni0E1D" unicode="&#xe1d;" horiz-adv-x="610" 
d="M510 -9q-12 0 -21 16l-171 289l-200 -293q-11 -14 -22 -14q-7 0 -18 8q-13 10 -13 20q0 7 7 15q9 11 12.5 22t3.5 26v436q0 38 26 62.5t67 24.5t68 -25t27 -65q0 -41 -25.5 -65t-65.5 -24q-24 0 -45 13v-326l151 229q6 8 11.5 12t15.5 4t14.5 -3.5t10.5 -12.5l140 -229
v703h52v-790q0 -15 -3.5 -22t-11.5 -9t-10 -2zM216 479q14 13 14 34q0 20 -14 33.5t-35 13.5q-20 0 -33.5 -13.5t-13.5 -33.5q0 -21 13.5 -34t33.5 -13q21 0 35 13z" />
    <glyph glyph-name="uni0E1E" unicode="&#xe1e;" horiz-adv-x="702" 
d="M577.5 -5.5q-5.5 4.5 -10.5 19.5l-156 486l-172 -480q-6 -15 -13 -22t-18 -7q-19 0 -30.5 8.5t-11.5 20.5q0 8 4 13q11 18 11 47v357q-21 -13 -45 -13q-40 0 -65.5 24t-25.5 65q0 40 27 65t68 25t67 -23.5t26 -61.5v-376l153 426q3 8 8.5 12t16.5 4t15.5 -4t7.5 -12
l141 -426v451h52v-569q0 -34 -28 -34q-16 0 -21.5 4.5zM173.5 479q13.5 13 13.5 34q0 20 -13.5 33.5t-33.5 13.5q-21 0 -35 -13.5t-14 -33.5q0 -21 14 -34t35 -13q20 0 33.5 13z" />
    <glyph glyph-name="uni0E1F" unicode="&#xe1f;" horiz-adv-x="704" 
d="M579.5 -5.5q-5.5 4.5 -10.5 19.5l-157 486l-173 -480q-6 -15 -13 -22t-18 -7q-19 0 -30.5 8.5t-11.5 20.5q0 8 4 13q11 18 11 47v357q-21 -13 -45 -13q-40 0 -65.5 24t-25.5 65q0 40 27 65t68 25t67 -23.5t26 -61.5v-376l154 426q3 8 8.5 12t16.5 4t15.5 -4t7.5 -12
l142 -426v672h52v-790q0 -34 -28 -34q-16 0 -21.5 4.5zM173.5 479q13.5 13 13.5 34q0 20 -13.5 33.5t-33.5 13.5q-21 0 -35 -13.5t-14 -33.5q0 -21 14 -34t35 -13q20 0 33.5 13z" />
    <glyph glyph-name="uni0E20" unicode="&#xe20;" horiz-adv-x="648" 
d="M72 16q-27 26 -27 63q0 39 27.5 64.5t66.5 25.5q17 0 35 -8v134q0 47 8 60l-109 64q11 50 46.5 92t90.5 67t119 25q74 0 120.5 -23.5t87.5 -72.5q5 7 13 7q9 0 21 -11t12 -22q0 -7 -4.5 -12.5t-5.5 -6.5q-9 -10 -13.5 -18.5t-4.5 -24.5v-419h-52v419q0 30 8 43
q-30 45 -73 70.5t-108 25.5q-48 0 -89 -16.5t-70 -43.5t-40 -57l75 -44q10 13 29 27.5t34 17.5l22 -39q-38 -17 -51.5 -43t-13.5 -66v-176q7 -17 7 -38q0 -37 -26 -63.5t-67 -26.5t-68 26zM173.5 46.5q13.5 13.5 13.5 33.5q0 21 -13.5 34t-33.5 13q-21 0 -35 -13t-14 -34
q0 -20 14 -33.5t35 -13.5q20 0 33.5 13.5z" />
    <glyph glyph-name="uni0E21" unicode="&#xe21;" horiz-adv-x="627" 
d="M85 17q-27 27 -27 79q0 66 39 107t94 48v186q-21 -13 -45 -13q-40 0 -65.5 24t-25.5 65q0 40 27 65t68 25t67 -23.5t26 -61.5v-267q71 -8 143.5 -41.5t115.5 -79.5v463h50v-593h-50v58q-43 66 -114 103.5t-145 45.5v-129q0 -40 -23 -64t-63 -24q-45 0 -72 27zM183.5 479
q13.5 13 13.5 34q0 20 -13.5 33.5t-33.5 13.5q-21 0 -35 -13.5t-14 -33.5q0 -21 14 -34t35 -13q20 0 33.5 13zM182 46q9 11 9 32v128q-80 -17 -80 -110q0 -30 12 -45.5t34 -15.5q16 0 25 11z" />
    <glyph glyph-name="uni0E22" unicode="&#xe22;" horiz-adv-x="595" 
d="M107 -10q-10 0 -18 16q-6 12 -6 18t3.5 9.5t12.5 8.5q14 9 19.5 18t5.5 23v192q-69 48 -69 146q0 48 20 90t57 67t84 25q45 0 70 -24.5t25 -65.5q0 -42 -25 -65.5t-68 -23.5q-33 0 -57.5 20t-32.5 54h-1q-8 -14 -13.5 -36t-5.5 -41q0 -64 33 -96.5t95 -32.5q31 0 57 5.5
t56 18.5l14 -42q-28 -13 -62.5 -20t-61.5 -7q-34 0 -63 8v-172q0 -23 -13 -40h305v550h52v-540q0 -23 -12.5 -38t-35.5 -15h-320q-16 0 -32 -7q-7 -3 -13 -3zM251.5 479q13.5 13 13.5 34t-13.5 34t-33.5 13q-21 0 -35 -13.5t-14 -33.5q0 -21 14 -34t35 -13q20 0 33.5 13z
" />
    <glyph glyph-name="uni0E23" unicode="&#xe23;" horiz-adv-x="551" 
d="M247 14q-27 24 -27 63q0 40 25.5 66t65.5 26q24 0 45 -13v176q0 21 10 36q-31 20 -74.5 30.5t-92.5 10.5t-93 -10l-6 -11q-6 -11 -17 -11q-5 0 -13 3q-8 4 -11.5 8.5t-3.5 11.5q0 6 5 24q24 83 74.5 131t138.5 48q29 0 54 -5t63 -15q33 -9 56 -14t50 -7l-14 -42
q-35 4 -94 19q-34 10 -59.5 14.5t-57.5 4.5q-112 0 -151 -113q39 7 83 7q55 0 105 -12t86 -35q3 5 10 5q9 0 20 -11q9 -9 9 -17q0 -9 -9 -18q-7 -7 -11.5 -18.5t-4.5 -22.5v-240q0 -40 -26.5 -66.5t-66.5 -26.5q-41 0 -68 24zM348.5 46.5q13.5 13.5 13.5 33.5q0 21 -13.5 34
t-33.5 13q-21 0 -35 -13t-14 -34q0 -20 14 -33.5t35 -13.5q20 0 33.5 13.5z" />
    <glyph glyph-name="uni0E24" unicode="&#xe24;" horiz-adv-x="632" 
d="M487 419q0 30 8 43q-30 46 -73 71t-109 25q-77 0 -130.5 -35t-71.5 -84l57 -37q10 12 28 25t36 19l22 -38q-37 -17 -53.5 -42t-16.5 -63v-147q21 13 45 13q42 0 66.5 -24.5t24.5 -64.5q0 -39 -27 -64.5t-68 -25.5q-40 0 -66.5 26.5t-26.5 66.5v221q0 35 13 55l-90 60
q8 48 43.5 90.5t91 68t122.5 25.5q74 0 121 -24t88 -72q5 7 13 7q9 0 21 -11t12 -22q0 -7 -4.5 -12.5t-5.5 -6.5q-9 -10 -13.5 -18.5t-4.5 -24.5v-778h-52v778zM260 46.5q14 13.5 14 33.5q0 21 -14 34t-35 13q-20 0 -33.5 -13t-13.5 -34q0 -20 13.5 -33.5t33.5 -13.5
q21 0 35 13.5z" />
    <glyph glyph-name="uni0E25" unicode="&#xe25;" horiz-adv-x="618" 
d="M127 16.5q-25 26.5 -25 67.5q0 103 42.5 174.5t107.5 112.5q-7 7 -7 17t9 19t17 9q7 0 14 -6q67 -53 111.5 -105t76.5 -119v256q0 19 8 31q-64 85 -179 85q-74 0 -125.5 -37t-76.5 -104l-45 14q14 44 47 83.5t84.5 64t115.5 24.5q128 0 208 -91q4 2 8 2q13 0 24 -14
t11 -22q0 -9 -12 -20q-16 -13 -16 -31v-427h-52v24q0 50 -26 113t-67.5 119t-86.5 87q-52 -27 -88.5 -76.5t-49.5 -113.5q9 7 22.5 11.5t27.5 4.5q40 0 62.5 -24.5t22.5 -64.5t-25.5 -65t-69.5 -25q-43 0 -68 26.5zM230 46.5q14 13.5 14 33.5q0 21 -14 34t-35 13
q-20 0 -33.5 -13t-13.5 -34q0 -20 13.5 -33.5t33.5 -13.5q21 0 35 13.5z" />
    <glyph glyph-name="uni0E26" unicode="&#xe26;" horiz-adv-x="650" 
d="M505 419q0 30 8 43q-30 45 -73.5 70.5t-108.5 25.5q-48 0 -89.5 -16.5t-70.5 -43.5t-40 -57l75 -44q10 13 29 27.5t34 17.5l22 -39q-38 -17 -51.5 -43t-13.5 -66v-176q7 -17 7 -38q0 -37 -26 -63.5t-67 -26.5t-68 26t-27 63q0 39 27.5 64.5t66.5 25.5q17 0 35 -8v134
q0 47 8 60l-109 64q11 50 47 92t91 67t119 25q74 0 121 -24t88 -72q5 7 13 7q9 0 21 -11t12 -22q0 -7 -4.5 -12.5t-5.5 -6.5q-9 -10 -13.5 -18.5t-4.5 -24.5v-778h-52v778zM173.5 46.5q13.5 13.5 13.5 33.5q0 21 -13.5 34t-33.5 13q-21 0 -35 -13t-14 -34q0 -20 14 -33.5
t35 -13.5q20 0 33.5 13.5z" />
    <glyph glyph-name="uni0E27" unicode="&#xe27;" horiz-adv-x="551" 
d="M297 14q-27 24 -27 63q0 40 25.5 66t65.5 26q24 0 45 -13v272q0 16 1.5 25.5t6.5 17.5q-23 43 -57.5 65t-90.5 22q-58 0 -103.5 -33.5t-69.5 -97.5l-48 14q13 43 44.5 80t77.5 59.5t99 22.5q64 0 105 -21.5t73 -66.5q5 7 11 7q8 0 19 -10q12 -11 12 -22q0 -7 -4.5 -12.5
t-5.5 -6.5q-9 -10 -13.5 -18.5t-4.5 -24.5v-345q0 -40 -26.5 -66.5t-66.5 -26.5q-41 0 -68 24zM398.5 46.5q13.5 13.5 13.5 33.5q0 21 -13.5 34t-33.5 13q-21 0 -35 -13t-14 -34q0 -20 14 -33.5t35 -13.5q20 0 33.5 13.5z" />
    <glyph glyph-name="uni0E28" unicode="&#xe28;" horiz-adv-x="608" 
d="M547 481q0 -9 -12 -19q-10 -10 -15 -18.5t-5 -24.5v-419h-52v419q0 31 10 47q-31 45 -71.5 68.5t-105.5 23.5q-84 0 -136 -51.5t-52 -134.5q0 -45 3.5 -76.5t11.5 -79.5q11 -55 13 -99h1q20 53 30 89.5t18 77.5q8 44 19 74q24 64 94 64q43 0 68 -25t25 -65
q0 -39 -26.5 -64t-66.5 -25q-39 0 -67 28l-5 -21q-20 -77 -39 -128t-62 -113q-8 -11 -18 -11q-8 0 -18 7q-14 9 -14 19q0 9 9 22q10 16 10 43q0 32 -16 107q-11 52 -17 93.5t-6 82.5q0 68 31 120.5t86 81.5t124 29q88 0 147 -41q43 47 94 91l36 -40q-56 -40 -94 -81
q12 -12 22 -25q5 7 13 7q9 0 21 -11t12 -22zM264.5 365.5q-13.5 -13.5 -13.5 -33.5t13.5 -33.5t33.5 -13.5t33.5 13.5t13.5 33.5t-13.5 33.5t-33.5 13.5t-33.5 -13.5z" />
    <glyph glyph-name="uni0E29" unicode="&#xe29;" horiz-adv-x="668" 
d="M170 -10q-10 0 -20 17q-6 11 -6 17q0 9 12 18q14 10 19.5 21t5.5 29v345q-21 -13 -45 -13q-40 0 -65.5 24t-25.5 65q0 40 27 65t68 25t67 -23.5t26 -61.5v-429q0 -29 -13 -46h321v221q-46 -70 -129 -70q-53 0 -88 27.5t-35 78.5q0 46 28.5 76.5t71.5 30.5q36 0 31 -27
q-3 -13 -9 -15t-23 -2q-24 0 -37.5 -18t-13.5 -45q0 -30 20.5 -45.5t55.5 -15.5q64 0 96 44t32 120v190h52v-540q0 -23 -12.5 -38t-35.5 -15h-334q-18 0 -32 -8q-3 -2 -9 -2zM173.5 479q13.5 13 13.5 34q0 20 -13.5 33.5t-33.5 13.5q-21 0 -35 -13.5t-14 -33.5q0 -21 14 -34
t35 -13q20 0 33.5 13z" />
    <glyph glyph-name="uni0E2A" unicode="&#xe2a;" horiz-adv-x="598" 
d="M498 514q12 0 23 -14q11 -12 11 -21t-14 -21q-13 -11 -13 -31v-427h-52v24q0 50 -26 113t-67.5 119t-86.5 87q-52 -27 -88.5 -76.5t-49.5 -113.5q9 7 22.5 11.5t27.5 4.5q40 0 62.5 -24.5t22.5 -64.5t-25.5 -65t-69.5 -25q-43 0 -68 26.5t-25 67.5q0 103 42.5 174.5
t107.5 112.5q-7 7 -7 17t9 19t17 9q7 0 14 -6q67 -53 111.5 -105t76.5 -119v256q0 19 8 31q-64 85 -179 85q-74 0 -125.5 -37t-76.5 -104l-45 14q14 44 47 83.5t84.5 64t115.5 24.5q90 0 158 -46q51 62 105 94l28 -41q-31 -17 -53.5 -36.5t-44.5 -45.5l15 -16q4 2 8 2z
M141.5 114q-13.5 -13 -13.5 -34q0 -20 13.5 -33.5t33.5 -13.5q21 0 35 13.5t14 33.5q0 21 -14 34t-35 13q-20 0 -33.5 -13z" />
    <glyph glyph-name="uni0E2B" unicode="&#xe2b;" horiz-adv-x="648" 
d="M152 19q0 4 5 12q13 16 18.5 33t5.5 39v334q-21 -13 -45 -13q-40 0 -65.5 24t-25.5 65q0 40 27 65t68 25t67 -23.5t26 -61.5v-400l210 316q-48 27 -48 79q0 40 26 65t69 25q41 0 67 -24t26 -66q0 -25 -12 -46.5t-37 -32.5q23 -12 31 -29.5t8 -50.5v-354h-52v354
q0 53 -41 53l-272 -407q-7 -10 -18 -10q-9 0 -22 8q-16 11 -16 21zM173.5 479q13.5 13 13.5 34q0 20 -13.5 33.5t-33.5 13.5q-21 0 -35 -13.5t-14 -33.5q0 -21 14 -34t35 -13q20 0 33.5 13zM523.5 479q13.5 13 13.5 34q0 20 -13.5 33.5t-33.5 13.5q-21 0 -35 -13.5
t-14 -33.5q0 -21 14 -34t35 -13q20 0 33.5 13z" />
    <glyph glyph-name="uni0E2C" unicode="&#xe2c;" horiz-adv-x="755" 
d="M580 -5.5q-5 4.5 -11 19.5l-157 421l-173 -415q-6 -15 -13 -22t-18 -7q-19 0 -30.5 8.5t-11.5 20.5q0 8 4 13q11 18 11 47v357q-21 -13 -45 -13q-40 0 -65.5 24t-25.5 65q0 40 27 65t68 25t67 -23.5t26 -61.5v-386l154 371q3 8 8.5 12t16.5 4t15.5 -4t7.5 -12l142 -371
v514q-19 -12 -46 -12q-43 0 -69.5 24t-26.5 66q0 40 26.5 65t69.5 25q36 0 59.5 -17t31.5 -50l58 64l40 -30l-91 -101v-656q0 -34 -28 -34q-16 0 -21 4.5zM565.5 690q13.5 13 13.5 34q0 23 -12 35t-35 12t-36 -12.5t-13 -34.5t13 -34.5t36 -12.5q20 0 33.5 13zM173.5 479
q13.5 13 13.5 34q0 20 -13.5 33.5t-33.5 13.5q-21 0 -35 -13.5t-14 -33.5q0 -21 14 -34t35 -13q20 0 33.5 13z" />
    <glyph glyph-name="uni0E2D" unicode="&#xe2d;" horiz-adv-x="611" 
d="M126 -10q-10 0 -20 17q-6 11 -6 17q0 9 12 18q14 10 19.5 21t5.5 29v193q0 39 26 64t67 25q44 0 69.5 -24.5t25.5 -65.5q0 -38 -25.5 -63.5t-65.5 -25.5q-24 0 -45 13v-121q0 -27 -13 -44h290v376q0 16 1.5 25.5t6.5 17.5q-28 51 -66 73.5t-109 22.5q-69 0 -120.5 -37
t-76.5 -104l-47 14q14 45 46.5 84t83 63.5t114.5 24.5q75 0 125 -25t80 -72q5 7 11 7q8 0 19 -10q12 -11 12 -22q0 -7 -4.5 -12.5t-5.5 -6.5q-9 -10 -13.5 -18.5t-4.5 -24.5v-366q0 -23 -12.5 -38t-35.5 -15h-303q-18 0 -32 -8q-3 -2 -9 -2zM265 250q14 13 14 34
q0 20 -14 33.5t-35 13.5q-20 0 -33.5 -13.5t-13.5 -33.5q0 -21 13.5 -34t33.5 -13q21 0 35 13z" />
    <glyph glyph-name="uni0E2E" unicode="&#xe2e;" horiz-adv-x="566" 
d="M81 -10q-10 0 -20 17q-6 11 -6 17q0 9 12 18q14 10 19.5 21t5.5 29v193q0 39 26 64t67 25q44 0 69.5 -24.5t25.5 -65.5q0 -38 -25.5 -63.5t-65.5 -25.5q-24 0 -45 13v-121q0 -27 -13 -44h290v373q0 18 1 27t6 16l-23 17q-40 -34 -85 -48t-109 -14q-70 0 -111 25t-41 67
q0 47 44 72t121 25q53 0 98.5 -17.5t76.5 -42.5q47 60 104 100l28 -41q-32 -22 -54 -41.5t-43 -45.5l20 -16q5 8 15 8q9 0 20 -7q12 -8 12 -22q0 -7 -4.5 -12.5t-5.5 -6.5q-9 -10 -13.5 -18.5t-4.5 -24.5v-363q0 -23 -12.5 -38t-35.5 -15h-303q-18 0 -32 -8q-3 -2 -9 -2z
M368 509q-30 25 -64 37t-80 12q-53 0 -82.5 -13t-29.5 -39q0 -22 27 -34.5t74 -12.5q106 0 155 50zM220 250q14 13 14 34q0 20 -14 33.5t-35 13.5q-20 0 -33.5 -13.5t-13.5 -33.5q0 -21 13.5 -34t33.5 -13q21 0 35 13z" />
    <glyph glyph-name="uni0E2F" unicode="&#xe2f;" horiz-adv-x="526" 
d="M382 -10q-13 0 -21 11q-6 9 -6 14q0 8 12 17q18 13 25.5 26t7.5 31v362q-58 -96 -172 -96q-45 0 -85 19.5t-64 55.5t-24 83q0 38 26.5 64t66.5 26q44 0 69.5 -23.5t25.5 -66.5q0 -35 -25 -59.5t-71 -26.5q14 -14 32 -20.5t49 -6.5q73 0 113.5 44t70.5 142q5 16 21 16
q15 0 22.5 -7t4.5 -17l-8 -27v-470q0 -61 -53 -87q-7 -4 -17 -4zM182.5 480q14.5 14 14.5 33q0 22 -13 34.5t-36 12.5q-22 0 -34.5 -12t-12.5 -35q0 -19 14 -33t33 -14q20 0 34.5 14z" />
    <glyph glyph-name="uni0E30" unicode="&#xe30;" horiz-adv-x="521" 
d="M100 351q-45 29 -45 83q0 40 27 65t67 25q39 0 66 -24.5t27 -65.5q0 -24 -11.5 -42.5t-33.5 -28.5v-2q84 0 138.5 38t84.5 113l46 -21q-32 -81 -99 -125t-156 -44q-66 0 -111 29zM183.5 400q12.5 13 12.5 34t-12.5 34t-34.5 13t-35 -13t-13 -34t13 -34t35 -13t34.5 13z
M100 32q-45 29 -45 83q0 40 27 65t67 25q39 0 66 -24.5t27 -65.5q0 -24 -11.5 -42.5t-33.5 -28.5v-2q84 0 138.5 38t84.5 113l46 -21q-32 -81 -99 -125t-156 -44q-66 0 -111 29zM183.5 81q12.5 13 12.5 34t-12.5 34t-34.5 13t-35 -13t-13 -34t13 -34t35 -13t34.5 13z" />
    <glyph glyph-name="uni0E31" unicode="&#xe31;" 
d="M-312.5 702.5q-42.5 28.5 -42.5 78.5q0 39 25.5 64.5t67.5 25.5q43 0 69 -24.5t26 -64.5q0 -39 -30 -63v-3q90 0 149.5 33t93.5 103l42 -22q-39 -79 -109.5 -117.5t-177.5 -38.5q-71 0 -113.5 28.5zM-227 747q14 13 14 34q0 20 -14 33.5t-35 13.5q-20 0 -33.5 -13.5
t-13.5 -33.5q0 -21 13.5 -34t33.5 -13q21 0 35 13z" />
    <glyph glyph-name="uni0E32" unicode="&#xe32;" horiz-adv-x="525" 
d="M376 430q0 31 11 46q-24 39 -59 60.5t-86 21.5q-107 0 -164 -100l-43 21q31 59 85 91.5t121 32.5q111 0 174 -86q5 7 13 7q9 0 20 -10q12 -11 12 -22q0 -9 -12 -19q-10 -10 -15 -18.5t-5 -24.5v-430h-52v430z" />
    <glyph glyph-name="uni0E33" unicode="&#xe33;" horiz-adv-x="525" 
d="M-167.5 669q-27.5 26 -27.5 65t27.5 65t66.5 26t66.5 -26t27.5 -65t-27.5 -65t-66.5 -26t-66.5 26zM-66 699q14 14 14 35t-14 35t-35 14t-35 -14t-14 -35t14 -35t35 -14t35 14zM376 430q0 31 11 46q-24 39 -59 60.5t-86 21.5q-107 0 -164 -100l-43 21q31 59 85 91.5
t121 32.5q111 0 174 -86q5 7 13 7q9 0 20 -10q12 -11 12 -22q0 -9 -12 -19q-10 -10 -15 -18.5t-5 -24.5v-430h-52v430z" />
    <glyph glyph-name="uni0E34" unicode="&#xe34;" 
d="M-227.5 693.5q-61.5 8.5 -132.5 8.5q-63 0 -102 -3t-71 -14q-2 -1 -7 -1q-8 0 -17 15q-3 5 -3 10q0 13 23 22q33 61 91 95t129 34q88 0 152 -42t100 -120q3 -6 3 -15q0 -15 -12 -24q-7 -5 -12 -5q-3 0 -13 4q-67 27 -128.5 35.5zM-317 818q-110 0 -171 -86q53 10 126 10
t130.5 -9t120.5 -33q-64 118 -206 118z" />
    <glyph glyph-name="uni0E35" unicode="&#xe35;" 
d="M-62 683q0 -15 -12 -24q-7 -5 -12 -5q-3 0 -13 4q-67 27 -128.5 35.5t-132.5 8.5q-63 0 -102 -3t-71 -14q-2 -1 -7 -1q-8 0 -17 15q-3 5 -3 10q0 13 23 22q33 61 91 95t129 34q116 0 191 -73v105h51v-174q4 -6 10 -20q3 -6 3 -15zM-231.5 733q57.5 -9 120.5 -33
q-64 118 -206 118q-110 0 -171 -86q53 10 126 10t130.5 -9z" />
    <glyph glyph-name="uni0E36" unicode="&#xe36;" 
d="M-227.5 693.5q-61.5 8.5 -132.5 8.5q-63 0 -102 -3t-71 -14q-2 -1 -7 -1q-10 0 -17 15q-3 5 -3 10q0 13 23 22q33 61 91 95t129 34q59 0 116 -25q3 27 25.5 46.5t53.5 19.5q36 0 58 -21.5t22 -56.5q0 -26 -15.5 -44.5t-40.5 -25.5q17 -20 33 -55q3 -6 3 -15
q0 -15 -12 -24q-7 -5 -12 -5q-3 0 -13 4q-67 27 -128.5 35.5zM-93.5 794q11.5 12 11.5 29t-11.5 28.5t-28.5 11.5t-29 -11.5t-12 -28.5t12 -29t29 -12t28.5 12zM-317 818q-110 0 -171 -86q53 10 126 10t130.5 -9t120.5 -33q-64 118 -206 118z" />
    <glyph glyph-name="uni0E37" unicode="&#xe37;" 
d="M-62 683q0 -15 -12 -24q-7 -5 -12 -5q-3 0 -13 4q-67 27 -128.5 35.5t-132.5 8.5q-63 0 -102 -3t-71 -14q-2 -1 -7 -1q-8 0 -17 15q-3 5 -3 10q0 13 23 22q33 61 91 95t129 34q58 0 106 -18v50h49v-76q20 -13 39 -32v108h48v-174q4 -6 10 -20q3 -6 3 -15zM-231.5 733
q57.5 -9 120.5 -33q-64 118 -206 118q-110 0 -171 -86q53 10 126 10t130.5 -9z" />
    <glyph glyph-name="uni0E38" unicode="&#xe38;" 
d="M-122 -196q-21 -12 -41 -12q-37 0 -60 21.5t-23 58.5t25 59.5t62 22.5t60.5 -21.5t23.5 -55.5v-167h-47v94zM-129 -158q12 12 12 30t-12.5 30.5t-29.5 12.5q-20 0 -32.5 -12t-12.5 -31t12.5 -30.5t32.5 -11.5q18 0 30 12z" />
    <glyph glyph-name="uni0E39" unicode="&#xe39;" 
d="M-240 -301q-11 0 -20 13q-5 7 -5 13q0 10 14 20q17 11 17 38v23q-19 -12 -41 -12q-35 0 -59 21.5t-24 57.5q0 37 24.5 59t62.5 22t60 -22.5t22 -58.5v-87q0 -24 -7 -37h76v200h45v-186q0 -24 -12 -38.5t-35 -14.5h-94l-9 -6q-8 -5 -15 -5zM-241 -157q12 12 12 30
t-12.5 30.5t-29.5 12.5q-20 0 -32.5 -12t-12.5 -31t12.5 -30.5t32.5 -11.5q18 0 30 12z" />
    <glyph glyph-name="uni0E3A" unicode="&#xe3a;" 
d="M-131.5 -120.5q-12.5 12.5 -12.5 30.5q0 19 12.5 31.5t30.5 12.5t30.5 -12.5t12.5 -31.5q0 -18 -12.5 -30.5t-30.5 -12.5t-30.5 12.5z" />
    <glyph glyph-name="uni0E3F" unicode="&#xe3f;" horiz-adv-x="578" 
d="M478.5 305.5q44.5 -46.5 44.5 -114.5q0 -89 -53.5 -140t-149.5 -51h-30v-98h-50v98h-159v631q0 15 -4 22t-12 13q-10 8 -10 17q0 12 11 23.5t25 11.5q6 0 13.5 -5.5t13.5 -12.5h122v99h50v-99h27q91 0 138.5 -50.5t47.5 -125.5q0 -74 -39 -111t-98 -46v-1
q68 -14 112.5 -60.5zM134 387h106v268h-106v-268zM290 655v-268q73 2 115 34.5t42 102.5q0 59 -33 95t-104 36h-20zM240 45v296h-106v-296h106zM430 80.5q37 35.5 37 110.5q0 71 -48 110.5t-129 39.5v-296h27q76 0 113 35.5z" />
    <glyph glyph-name="uni0E40" unicode="&#xe40;" horiz-adv-x="308" 
d="M101.5 16.5q-26.5 26.5 -26.5 66.5v510h52v-437q21 13 45 13q42 0 66.5 -24.5t24.5 -64.5q0 -39 -27 -64.5t-68 -25.5q-40 0 -66.5 26.5zM203 46.5q14 13.5 14 33.5q0 21 -14 34t-35 13q-20 0 -33.5 -13t-13.5 -34q0 -20 13.5 -33.5t33.5 -13.5q21 0 35 13.5z" />
    <glyph glyph-name="uni0E41" unicode="&#xe41;" horiz-adv-x="537" 
d="M101.5 16.5q-26.5 26.5 -26.5 66.5v510h52v-437q21 13 45 13q42 0 66.5 -24.5t24.5 -64.5q0 -39 -27 -64.5t-68 -25.5q-40 0 -66.5 26.5zM330.5 16.5q-26.5 26.5 -26.5 66.5v510h52v-437q21 13 45 13q42 0 66.5 -24.5t24.5 -64.5q0 -39 -27 -64.5t-68 -25.5
q-40 0 -66.5 26.5zM203 46.5q14 13.5 14 33.5q0 21 -14 34t-35 13q-20 0 -33.5 -13t-13.5 -34q0 -20 13.5 -33.5t33.5 -13.5q21 0 35 13.5zM432 46.5q14 13.5 14 33.5q0 21 -14 34t-35 13q-20 0 -33.5 -13t-13.5 -34q0 -20 13.5 -33.5t33.5 -13.5q21 0 35 13.5z" />
    <glyph glyph-name="uni0E42" unicode="&#xe42;" horiz-adv-x="424" 
d="M196.5 16.5q-26.5 26.5 -26.5 66.5v615q0 80 -40 117t-128 37l-9 -9q-7 -7 -13 -7q-8 0 -17 8q-11 8 -11 18q0 9 14 31q44 72 103.5 109t138.5 37q81 0 144 -33t92 -92l-38 -20q-28 53 -75.5 76.5t-122.5 23.5q-60 0 -110.5 -28.5t-76.5 -74.5q100 0 150.5 -53.5
t50.5 -139.5v-542q21 13 45 13q42 0 66.5 -24.5t24.5 -64.5q0 -39 -27 -64.5t-68 -25.5q-40 0 -66.5 26.5zM298 46.5q14 13.5 14 33.5q0 21 -14 34t-35 13q-20 0 -33.5 -13t-13.5 -34q0 -20 13.5 -33.5t33.5 -13.5q21 0 35 13.5z" />
    <glyph glyph-name="uni0E43" unicode="&#xe43;" horiz-adv-x="353" 
d="M155.5 16.5q-26.5 26.5 -26.5 66.5v521q0 89 37.5 147.5t116.5 92.5q0 73 -33 111.5t-109 38.5q-56 0 -91.5 -18t-57.5 -53l1 -2q26 17 56 17q36 0 58.5 -26t22.5 -63q0 -38 -25.5 -64t-69.5 -26q-43 0 -71.5 29.5t-28.5 78.5t27.5 88.5t74.5 61.5t104 22q97 0 144.5 -51
t47.5 -137q0 -25 -5.5 -34t-25.5 -17q-65 -25 -93 -69t-28 -127v-448q21 13 45 13q42 0 66.5 -24.5t24.5 -64.5q0 -39 -27 -64.5t-68 -25.5q-40 0 -66.5 26.5zM71 814.5q13 12.5 13 34.5t-13 34.5t-36 12.5q-20 0 -33.5 -13t-13.5 -34q0 -20 13.5 -33.5t33.5 -13.5
q23 0 36 12.5zM257 46.5q14 13.5 14 33.5q0 21 -14 34t-35 13q-20 0 -33.5 -13t-13.5 -34q0 -20 13.5 -33.5t33.5 -13.5q21 0 35 13.5z" />
    <glyph glyph-name="uni0E44" unicode="&#xe44;" horiz-adv-x="442" 
d="M218.5 16.5q-26.5 26.5 -26.5 66.5v534q0 104 53.5 172t151.5 108q-11 28 -31.5 55.5t-42.5 41.5q-55 -15 -94.5 -48t-75.5 -92q-9 -15 -18 -15q-2 0 -14 4q-13 4 -13 15q0 6 3 13q-19 52 -60 88.5t-101 55.5l28 40q117 -44 162 -140q30 42 73.5 73t92.5 47q11 4 18 4
t12 -4q35 -23 66 -65.5t44 -77.5q6 -15 6 -23q0 -9 -11 -15q-9 -5 -16 -5q-9 0 -15 9q-83 -35 -124.5 -90.5t-41.5 -150.5v-461q21 13 45 13q42 0 66.5 -24.5t24.5 -64.5q0 -39 -27 -64.5t-68 -25.5q-40 0 -66.5 26.5zM320 46.5q14 13.5 14 33.5q0 21 -14 34t-35 13
q-20 0 -33.5 -13t-13.5 -34q0 -20 13.5 -33.5t33.5 -13.5q21 0 35 13.5z" />
    <glyph glyph-name="uni0E45" unicode="&#xe45;" horiz-adv-x="525" 
d="M376 430q0 31 11 46q-24 39 -59 60.5t-86 21.5q-107 0 -164 -100l-43 21q31 59 85 91.5t121 32.5q111 0 174 -86q5 7 13 7q9 0 20 -10q12 -11 12 -22q0 -9 -12 -19q-10 -10 -15 -18.5t-5 -24.5v-789h-52v789z" />
    <glyph glyph-name="uni0E46" unicode="&#xe46;" horiz-adv-x="599" 
d="M383 -364q-7 0 -19 16q-5 8 -5 14q0 9 13 18q27 18 27 46v592q0 50 17 94t51 77l-53 58l-57 -56q5 -13 5 -20q0 -14 -13 -20q-10 -4 -13 -4q-14 0 -23 20q-13 31 -24.5 48.5t-31 28t-51.5 10.5q-43 0 -70 -32t-28 -71q8 13 26.5 21.5t37.5 8.5q41 0 64.5 -24.5
t23.5 -65.5t-26.5 -66.5t-66.5 -25.5q-53 0 -82.5 36t-29.5 90q0 47 18 86.5t52.5 63.5t81.5 24q43 0 76.5 -18.5t53.5 -52.5l59 61q9 10 20 10q9 0 14 -7l66 -74q7 5 13 5q8 0 17 -10q8 -9 8 -18q0 -11 -14 -23q-38 -32 -53.5 -65t-15.5 -89v-592q0 -30 -11 -49.5
t-44 -39.5q-8 -5 -13 -5zM200 360.5q14 14.5 14 34.5t-13.5 33.5t-33.5 13.5t-34.5 -14t-14.5 -33q0 -20 14.5 -34.5t34.5 -14.5q19 0 33 14.5z" />
    <glyph glyph-name="uni0E47" unicode="&#xe47;" 
d="M-287 695.5q-36 21.5 -49 62.5q-19 -6 -31.5 -23.5t-17.5 -43.5q-2 -8 -7.5 -13t-13.5 -5q-9 0 -18 6q-28 18 -46.5 51t-18.5 74q0 57 38 91t106 34h89q56 0 87.5 15.5t45.5 55.5l42 -12q-32 -101 -174 -101h-90q-49 0 -73.5 -22.5t-24.5 -60.5q0 -24 8.5 -45t20.5 -35
q10 26 29 45t43 26v3q0 10 4.5 14t15.5 4t15 -4t4 -13q0 -36 19 -59t50 -28l1 1q-13 16 -13 35q0 31 20 48.5t50 17.5t49.5 -18t19.5 -48q0 -32 -25 -53t-66 -21q-53 0 -89 21.5zM-154 724q9 9 9 22t-9 22t-22 9t-22 -9t-9 -22t9 -22t22 -9t22 9z" />
    <glyph glyph-name="uni0E48" unicode="&#xe48;" 
d="M-127 882h52v-208h-52v208z" />
    <glyph glyph-name="uni0E49" unicode="&#xe49;" 
d="M-365 709q28 5 50 18t35 30v2q-6 -1 -16 -1q-37 0 -61 22t-24 57q0 39 26 63t67 24q40 0 65.5 -24.5t25.5 -62.5q0 -36 -20.5 -68t-54.5 -52q51 1 97 22.5t78.5 64t41.5 102.5l44 -9q-15 -98 -88 -156t-181 -63l-85 -4v35zM-255 804.5q13 12.5 13 32.5q0 19 -13 32
t-33 13t-34 -13t-14 -32q0 -20 13.5 -32.5t34.5 -12.5q20 0 33 12.5z" />
    <glyph glyph-name="uni0E4A" unicode="&#xe4a;" 
d="M-444 706q-25 32 -25 78q0 60 29 96t78 36q55 0 82 -45q12 21 31.5 33t46.5 12q40 0 64 -24.5t24 -68.5q0 -25 -8 -50.5t-25 -45.5q61 26 89.5 68t39.5 128l44 -6q-10 -105 -62.5 -161t-158.5 -79l-6 -1q-11 0 -16 13q-2 6 -2 8q0 5 5 10t12 10q21 16 33 44.5t12 61.5
q0 52 -49 52q-24 0 -38 -11.5t-14 -29.5q0 -7 1 -10l5 -20h-39q-9 36 -25 53.5t-46 17.5q-66 0 -66 -97h1q9 12 24 20t31 8q30 0 47 -17.5t17 -47.5q0 -31 -20.5 -49t-51.5 -18q-39 0 -64 32zM-355.5 718q8.5 8 8.5 23q0 12 -8.5 21t-22.5 9t-22.5 -9t-8.5 -21
q0 -15 8.5 -23t22.5 -9q14 1 22.5 9z" />
    <glyph glyph-name="uni0E4B" unicode="&#xe4b;" 
d="M-126 762h-103v43h103v88h50v-88h102v-43h-102v-88h-50v88z" />
    <glyph glyph-name="uni0E4C" unicode="&#xe4c;" 
d="M-290 699.5q-27 25.5 -27 64.5q0 47 34 74t96 27q56 0 91.5 17t64.5 56l33 -30q-35 -42 -73.5 -60.5t-87.5 -18.5v-3q30 -24 30 -62q0 -39 -27.5 -64.5t-67.5 -25.5q-39 0 -66 25.5zM-189 730.5q14 13.5 14 33.5q0 21 -14 34t-35 13q-20 0 -33.5 -13t-13.5 -34
q0 -20 13.5 -33.5t33.5 -13.5q21 0 35 13.5z" />
    <glyph glyph-name="uni0E4D" unicode="&#xe4d;" 
d="M-178.5 668.5q-26.5 25.5 -26.5 65.5t26.5 65.5t67.5 25.5t67.5 -25.5t26.5 -65.5t-26.5 -65.5t-67.5 -25.5t-67.5 25.5zM-75.5 698.5q13.5 13.5 13.5 35.5t-13.5 35.5t-35.5 13.5t-35.5 -13.5t-13.5 -35.5t13.5 -35.5t35.5 -13.5t35.5 13.5z" />
    <glyph glyph-name="uni0E4E" unicode="&#xe4e;" 
d="M-211 692q-26 19 -26 55q0 40 33 65t87 30q-42 20 -42 58q0 40 29 63t74 23q23 0 47 -6l-9 -31q-16 4 -35 4q-28 0 -45 -12.5t-17 -35.5t18.5 -39.5t46.5 -22.5l-10 -29q-65 0 -97 -15t-32 -49q0 -22 15 -32.5t47 -10.5q13 0 29.5 3.5t23.5 7.5l7 -31q-33 -14 -71 -14
q-47 0 -73 19z" />
    <glyph glyph-name="uni0E4F" unicode="&#xe4f;" horiz-adv-x="620" 
d="M184 28q-59 33 -94 90t-35 127t35 127t94 90t126 33t126 -33t94 -90t35 -127t-35 -127t-94 -90t-126 -33t-126 33zM411.5 67.5q46.5 27.5 74 74.5t27.5 103t-27.5 103t-74 74.5t-101.5 27.5t-101.5 -27.5t-74 -74.5t-27.5 -103t27.5 -103t74 -74.5t101.5 -27.5
t101.5 27.5zM204 139.5q-41 40.5 -41 105.5t41 105.5t106 40.5t106 -40.5t41 -105.5t-41 -105.5t-106 -40.5t-106 40.5zM381 171q26 27 26 74t-26 74t-71 27t-71 -27t-26 -74t26 -74t71 -27t71 27z" />
    <glyph glyph-name="uni0E50" unicode="&#xe50;" horiz-adv-x="638" 
d="M179 22q-60 32 -92 89t-32 131t32 131.5t92 89.5t140 32t140 -32t92 -89.5t32 -131.5t-32 -131t-92 -89t-140 -32t-140 32zM473 91q57 55 57 151q0 98 -57 153t-154 55t-154 -55t-57 -153q0 -96 57 -151t154 -55t154 55z" />
    <glyph glyph-name="uni0E51" unicode="&#xe51;" horiz-adv-x="664" 
d="M387 -53q82 47 126 121.5t44 161.5q0 102 -58.5 161t-162.5 59q-106 0 -167 -62t-61 -165q0 -60 21 -103.5t58 -65.5t83 -20v1q-59 22 -59 83q0 40 27 65.5t68 25.5q42 0 68 -25t26 -66q0 -56 -40.5 -92t-108.5 -36q-55 0 -99.5 30.5t-70.5 83.5t-26 119q0 79 35 140.5
t98.5 96.5t147.5 35t145.5 -33.5t94.5 -93.5t33 -138q0 -99 -51.5 -184.5t-143.5 -139.5zM341.5 82q12.5 13 12.5 36t-12.5 35.5t-35.5 12.5t-36 -12.5t-13 -35.5t13 -36t36 -13t35.5 13z" />
    <glyph glyph-name="uni0E52" unicode="&#xe52;" horiz-adv-x="774" 
d="M127 4.5q-4 4.5 -4 17.5q0 12 5 16t17 4q0 185 -24 312.5t-86 263.5l46 25q67 -146 91.5 -278.5t24.5 -322.5l403 1q19 0 28 10.5t9 27.5v298q0 22 6 29q-18 42 -69 42q-28 0 -47 -18.5t-21 -44.5q10 -36 10 -64h-48q-5 63 -28.5 95t-70.5 32t-70.5 -34.5t-22.5 -89.5
q12 14 30 23.5t40 9.5q39 0 63 -25t24 -64t-27.5 -64.5t-67.5 -25.5q-52 0 -81.5 37.5t-29.5 101.5q0 84 39 130t106 46q71 0 109 -61q13 26 38.5 43.5t57.5 17.5q60 0 94 -51q4 4 10 4q11 0 19 -11q9 -10 9 -19q0 -8 -12 -18q-8 -8 -8 -28v-284q0 -40 -23 -64t-64 -24h-459
q-12 0 -16 4.5zM372.5 236q14.5 13 14.5 34q0 20 -14.5 33t-34.5 13q-22 0 -35 -12.5t-13 -33.5q0 -23 13 -35t35 -12q20 0 34.5 13z" />
    <glyph glyph-name="uni0E53" unicode="&#xe53;" horiz-adv-x="692" 
d="M90.5 60q-35.5 69 -35.5 197q0 75 23.5 129t64 81.5t90.5 27.5q46 0 75 -22t51 -71q17 45 50 69t78 24q34 0 57.5 -12.5t44.5 -37.5q2 2 7 2q11 0 21 -13t10 -19t-6 -12q-10 -9 -10 -32v-371h-52v378q0 22 7 34q-30 38 -83 38q-43 0 -71 -31t-28 -93v-110q0 -18 -25 -18
q-27 0 -27 18v110q0 60 -26 92t-73 32q-59 0 -94 -51.5t-35 -141.5q0 -91 15 -155q22 73 94 73q39 0 63.5 -25t24.5 -67q0 -41 -27.5 -66.5t-71.5 -25.5q-76 0 -111.5 69zM241.5 48q13.5 14 13.5 35q0 23 -13 36t-36 13q-21 0 -35 -13.5t-14 -35.5q0 -21 14 -35t35 -14
q22 0 35.5 14z" />
    <glyph glyph-name="uni0E54" unicode="&#xe54;" horiz-adv-x="774" 
d="M116.5 63.5q-61.5 63.5 -61.5 176.5q0 76 37 133.5t108 89.5t168 32q84 0 141 12t103 44t89 91l38 -34q-49 -64 -101.5 -98.5t-115.5 -47t-154 -12.5q-123 0 -191.5 -53.5t-68.5 -156.5q0 -95 46.5 -146t129.5 -51h113q-49 28 -85 79.5t-36 104.5q0 42 26 69t68 27
q43 0 69 -24t26 -68q0 -40 -28.5 -63.5t-78.5 -19.5q23 -45 72.5 -75t113.5 -30h91q12 0 16.5 -3.5t4.5 -16.5q0 -14 -4.5 -18.5t-15.5 -4.5h-352q-106 0 -167.5 63.5zM405.5 196.5q13.5 13.5 13.5 34.5q0 22 -13.5 35.5t-35.5 13.5q-21 0 -34.5 -13.5t-13.5 -35.5
q0 -21 13.5 -34.5t34.5 -13.5q22 0 35.5 13.5z" />
    <glyph glyph-name="uni0E55" unicode="&#xe55;" horiz-adv-x="774" 
d="M116.5 63.5q-61.5 63.5 -61.5 176.5q0 93 60.5 160t160.5 85q-23 23 -23 55q0 38 24.5 62.5t68.5 24.5q41 0 67 -23.5t26 -63.5q0 -22 -15 -43q91 0 156 34t121 111l38 -34q-49 -64 -101.5 -98.5t-115.5 -47t-154 -12.5q-123 0 -191.5 -53.5t-68.5 -156.5
q0 -95 46.5 -146t129.5 -51h113q-49 28 -85 79.5t-36 104.5q0 42 26 69t68 27q43 0 69 -24t26 -68q0 -40 -28.5 -63.5t-78.5 -19.5q23 -45 72.5 -75t113.5 -30h91q12 0 16.5 -3.5t4.5 -16.5q0 -14 -4.5 -18.5t-15.5 -4.5h-352q-106 0 -167.5 63.5zM379.5 508
q13.5 12 13.5 32t-13 32t-34 12t-34 -12t-13 -32t13.5 -32t33.5 -12t33.5 12zM405.5 196.5q13.5 13.5 13.5 34.5q0 22 -13.5 35.5t-35.5 13.5q-21 0 -34.5 -13.5t-13.5 -35.5q0 -21 13.5 -34.5t34.5 -13.5q22 0 35.5 13.5z" />
    <glyph glyph-name="uni0E56" unicode="&#xe56;" horiz-adv-x="772" 
d="M284 18.5q-48 27.5 -48 82.5q0 41 27 66.5t68 25.5q43 0 68.5 -25t25.5 -66q0 -21 -9.5 -38.5t-23.5 -27.5q134 0 203 57.5t69 158.5q0 93 -49.5 145.5t-142.5 52.5q-68 0 -122 -31.5t-95 -80.5q-9 -11 -18 -11t-22 11q-9 8 -9 17t9 19q-105 104 -180 255l49 24
q27 -64 71.5 -127t99.5 -115q90 84 217 84q116 0 180.5 -64t64.5 -179q0 -81 -39 -139.5t-108.5 -90t-160.5 -31.5q-77 0 -125 27.5zM366.5 65q12.5 13 12.5 36t-12.5 36t-35.5 13t-36 -13t-13 -36t13 -36t36 -13t35.5 13z" />
    <glyph glyph-name="uni0E57" unicode="&#xe57;" horiz-adv-x="885" 
d="M90.5 60q-35.5 69 -35.5 197q0 75 23.5 129t64 81.5t90.5 27.5q46 0 75 -22t51 -71q17 45 50 69t78 24q75 0 111 -54.5t36 -145.5q0 -67 -19 -149h3q73 133 113.5 239.5t70.5 258.5l48 -13q-22 -117 -51 -206t-80.5 -187.5t-141.5 -234.5q-9 -12 -20 -12q-8 0 -15 4
q-13 9 -13 22q0 7 2 10q26 57 41.5 125.5t15.5 129.5q0 76 -25.5 122t-79.5 46q-43 0 -71 -31t-28 -93v-110q0 -18 -25 -18q-27 0 -27 18v110q0 60 -26 92t-73 32q-59 0 -94 -51.5t-35 -141.5q0 -91 15 -155q22 73 94 73q39 0 63.5 -25t24.5 -67q0 -41 -27.5 -66.5
t-71.5 -25.5q-76 0 -111.5 69zM241.5 48q13.5 14 13.5 35q0 23 -13 36t-36 13q-21 0 -35 -13.5t-14 -35.5q0 -21 14 -35t35 -14q22 0 35.5 14z" />
    <glyph glyph-name="uni0E58" unicode="&#xe58;" horiz-adv-x="812" 
d="M399.5 26q-51.5 35 -77.5 93l-51 -96q-12 -23 -30 -23h-97q-11 0 -17 4.5t-7 14.5v5q0 16 13 16q-78 97 -78 210q0 116 92.5 180.5t261.5 64.5q96 0 156.5 16t96.5 49t60 88l45 -19q-45 -98 -129 -138.5t-229 -40.5q-147 0 -224 -51.5t-77 -148.5q0 -60 19.5 -110
t58.5 -97h43l118 223q6 11 18 11t18 -6.5t6 -15.5q0 -8 -2 -11l-35 -71q9 -43 34.5 -74.5t56.5 -47.5t55 -16q-28 27 -28 63t26.5 61.5t67.5 25.5q44 0 69.5 -24t25.5 -68q0 -45 -35 -73.5t-95 -28.5q-78 0 -129.5 35zM600 57q13 13 13 36t-13 36t-36 13q-21 0 -34.5 -13.5
t-13.5 -35.5t13.5 -35.5t34.5 -13.5q23 0 36 13z" />
    <glyph glyph-name="uni0E59" unicode="&#xe59;" horiz-adv-x="833" 
d="M144 26.5q-43 35.5 -66 92.5t-23 119q0 63 24 111.5t72 73.5l122 63q7 4 14.5 6.5t17.5 2.5q15 0 22.5 -7t16.5 -28l41 -94q7 56 46 92.5t91 36.5q51 0 80 -24.5t45 -76.5q42 61 65 125t36 153l50 -11q-15 -95 -48.5 -173.5t-91.5 -153.5q-6 -9 -19 -9t-22.5 8.5
t-5.5 15.5q-9 101 -90 101q-33 0 -58 -22.5t-37.5 -57t-9.5 -68.5l133 -279l-42 -23l-213 447l-116 -61q-38 -20 -54 -56t-16 -92q0 -55 16 -94t48 -76q-3 12 -3 24q0 40 26.5 65.5t66.5 25.5q44 0 69.5 -25t25.5 -66q0 -44 -31 -72.5t-84 -28.5q-55 0 -98 35.5zM297 56
q14 15 14 36q0 20 -14 34t-35 14t-35.5 -14t-14.5 -34q0 -21 14.5 -36t35.5 -15t35 15z" />
    <glyph glyph-name="uni0E5A" unicode="&#xe5a;" horiz-adv-x="742" 
d="M671.5 595q7.5 -7 4.5 -17l-8 -27v-470q0 -62 -53 -87q-7 -4 -17 -4q-13 0 -21 11q-6 9 -6 14q0 8 12 17q18 13 25.5 26t7.5 31v362q-57 -93 -164 -96v-274q0 -61 -53 -87q-7 -4 -17 -4q-13 0 -21 11q-6 9 -6 14q0 8 12 17q18 13 25.5 26t7.5 31v362q-58 -96 -172 -96
q-45 0 -85 19.5t-64 55.5t-24 83q0 38 26.5 64t66.5 26q44 0 69.5 -23.5t25.5 -66.5q0 -35 -25 -59.5t-71 -26.5q14 -14 32 -20.5t49 -6.5q73 0 113.5 44t70.5 142q5 16 21 16q15 0 22.5 -7t4.5 -17l-8 -27v-151q68 2 107.5 46.5t68.5 139.5q5 16 21 16q15 0 22.5 -7z
M115 480q14 -14 33 -14q20 0 34.5 14t14.5 33q0 22 -13 34.5t-36 12.5q-22 0 -34.5 -12t-12.5 -35q0 -19 14 -33z" />
    <glyph glyph-name="uni0E5B" unicode="&#xe5b;" horiz-adv-x="1149" 
d="M173 69.5q-55 32.5 -86.5 93t-31.5 139.5q0 78 29 139t79.5 95t113.5 34q80 0 125.5 -45.5t45.5 -118.5q0 -78 -28.5 -122.5t-82.5 -44.5q-44 0 -69.5 24.5t-25.5 65.5q0 39 26.5 65t62.5 26q42 0 67 -27q2 12 2 20q0 44 -30.5 78t-91.5 34q-47 0 -86 -26.5t-61.5 -76.5
t-22.5 -119q0 -103 51.5 -162t137.5 -59q107 0 163.5 58.5t56.5 159.5q0 67 -9 124h49q29 -50 46 -89t41 -105q19 50 28.5 85.5t18.5 94.5h36q30 -56 65 -167q15 29 26 73.5t13 80.5h32q49 -66 66 -155q10 20 16.5 54.5t6.5 63.5h26q28 -45 45.5 -60t41.5 -15h39v-36h-39
q-26 0 -48.5 13t-38.5 36q-14 -66 -40 -103h-39q-4 42 -15 81t-23 56q-25 -95 -64 -153h-28q-21 92 -49 153q-23 -87 -64 -170h-32q-18 61 -30.5 94.5t-27.5 62.5q0 -94 -36.5 -157t-97.5 -94t-135 -31q-69 0 -124 32.5zM372 295q14 13 14 34t-14 34.5t-35 13.5
q-19 0 -33 -13.5t-14 -34.5t14 -34t33 -13q21 0 35 13z" />
    <glyph glyph-name="uni1E0C" unicode="&#x1e0c;" horiz-adv-x="618" 
d="M80 631q0 13 -4 20.5t-12 16.5q-6 6 -8 10t-1 9q3 10 13 20.5t23 10.5q9 0 25 -18h137q145 0 227.5 -89.5t82.5 -258.5q0 -174 -78.5 -263t-226.5 -89h-178v631zM258 46q249 0 249 306q0 150 -67.5 226t-189.5 76h-116v-608h124zM278 -137q-13 13 -13 31t13 31t32 13
q17 0 30 -13t13 -31t-13 -31t-30 -13q-19 0 -32 13z" />
    <glyph glyph-name="uni1E0D" unicode="&#x1e0d;" horiz-adv-x="564" 
d="M443.5 25.5q-8.5 26.5 -8.5 57.5q-27 -42 -70.5 -67.5t-98.5 -25.5q-103 0 -157 68.5t-54 178.5q0 113 53 185.5t162 72.5q54 0 96 -25.5t68 -67.5v332h52v-614q0 -44 6 -68t17 -43l-47 -19q-10 9 -18.5 35.5zM354 62q38 25 59 66t21 85v58q0 44 -20 84.5t-57 66.5
t-87 26q-86 0 -123.5 -61t-37.5 -150q0 -85 38.5 -142.5t118.5 -57.5q50 0 88 25zM251 -137q-13 13 -13 31t13 31t32 13q17 0 30 -13t13 -31t-13 -31t-30 -13q-19 0 -32 13z" />
    <glyph glyph-name="uni1E0E" unicode="&#x1e0e;" horiz-adv-x="618" 
d="M80 631q0 13 -4 20.5t-12 16.5q-6 6 -8 10t-1 9q3 10 13 20.5t23 10.5q9 0 25 -18h137q145 0 227.5 -89.5t82.5 -258.5q0 -174 -78.5 -263t-226.5 -89h-178v631zM258 46q249 0 249 306q0 150 -67.5 226t-189.5 76h-116v-608h124zM173 -67h272v-43h-272v43z" />
    <glyph glyph-name="uni1E0F" unicode="&#x1e0f;" horiz-adv-x="564" 
d="M443.5 25.5q-8.5 26.5 -8.5 57.5q-27 -42 -70.5 -67.5t-98.5 -25.5q-103 0 -157 68.5t-54 178.5q0 113 53 185.5t162 72.5q54 0 96 -25.5t68 -67.5v332h52v-614q0 -44 6 -68t17 -43l-47 -19q-10 9 -18.5 35.5zM354 62q38 25 59 66t21 85v58q0 44 -20 84.5t-57 66.5
t-87 26q-86 0 -123.5 -61t-37.5 -150q0 -85 38.5 -142.5t118.5 -57.5q50 0 88 25zM146 -67h272v-43h-272v43z" />
    <glyph glyph-name="uni1E20" unicode="&#x1e20;" horiz-adv-x="636" 
d="M192 36q-67 46 -102 127.5t-35 187.5q0 105 36.5 186.5t103 127t155.5 45.5q61 0 106 -17t81 -50l-26 -45q-30 33 -68.5 48t-92.5 15q-73 0 -127.5 -42t-83 -112.5t-28.5 -155.5q0 -88 28 -158.5t83 -112t133 -41.5q50 0 84.5 9.5t64.5 30.5v237h-173v46h192q10 13 22 13
q14 0 25 -12t11 -23q0 -7 -7 -13t-11.5 -12t-4.5 -22v-243q-55 -33 -99.5 -46.5t-105.5 -13.5q-94 0 -161 46zM214 855h272v-43h-272v43z" />
    <glyph glyph-name="uni1E21" unicode="&#x1e21;" horiz-adv-x="560" 
d="M178.5 -210q-37.5 8 -63.5 19l18 45q21 -10 53.5 -17.5t65.5 -7.5q94 0 136 48t42 151v65q-27 -43 -69 -68t-97 -25q-108 0 -158.5 71t-50.5 185q0 104 53.5 171.5t155.5 67.5q59 0 99 -24.5t68 -68.5q0 31 8.5 57.5t18.5 35.5l47 -19q-11 -19 -17 -43t-6 -68v-350
q0 -113 -63.5 -173t-166.5 -60q-36 0 -73.5 8zM351.5 73q37.5 26 58 66.5t20.5 84.5v48q0 44 -20.5 85t-58 66t-87.5 25q-80 0 -117.5 -56t-37.5 -136q0 -90 34.5 -149.5t120.5 -59.5q50 0 87.5 26zM144 640h272v-43h-272v43z" />
    <glyph glyph-name="uni1E24" unicode="&#x1e24;" horiz-adv-x="621" 
d="M80 700h54v-309h353v309h54v-700h-54v345h-353v-345h-54v700zM280 -137q-13 13 -13 31t13 31t32 13q17 0 30 -13t13 -31t-13 -31t-30 -13q-19 0 -32 13z" />
    <glyph glyph-name="uni1E25" unicode="&#x1e25;" horiz-adv-x="533" 
d="M407 92v215q0 71 -30 106t-94 35q-44 0 -78.5 -25t-53.5 -65.5t-19 -84.5v-273h-52v734h52v-329q23 42 65 66t96 24q81 0 123.5 -48.5t42.5 -140.5v-214q0 -23 5.5 -45.5t13.5 -37.5l-47 -19q-24 48 -24 102zM236 -137q-13 13 -13 31t13 31t32 13q17 0 30 -13t13 -31
t-13 -31t-30 -13q-19 0 -32 13z" />
    <glyph glyph-name="uni1E2A" unicode="&#x1e2a;" horiz-adv-x="621" 
d="M80 700h54v-309h353v309h54v-700h-54v345h-353v-345h-54v700zM224 -150.5q-33 33.5 -33 92.5v9h46v-8q0 -89 75 -89t75 89v8h46v-9q0 -59 -33 -92.5t-88 -33.5t-88 33.5z" />
    <glyph glyph-name="uni1E2B" unicode="&#x1e2b;" horiz-adv-x="533" 
d="M407 92v215q0 71 -30 106t-94 35q-44 0 -78.5 -25t-53.5 -65.5t-19 -84.5v-273h-52v734h52v-329q23 42 65 66t96 24q81 0 123.5 -48.5t42.5 -140.5v-214q0 -23 5.5 -45.5t13.5 -37.5l-47 -19q-24 48 -24 102zM180 -150.5q-33 33.5 -33 92.5v9h46v-8q0 -89 75 -89t75 89v8
h46v-9q0 -59 -33 -92.5t-88 -33.5t-88 33.5z" />
    <glyph glyph-name="uni1E36" unicode="&#x1e36;" horiz-adv-x="483" 
d="M65.5 -0.5q-10.5 9.5 -10.5 21.5q0 9 9 18q7 8 10.5 15t3.5 18v628h54v-654h306v-46h-328q-8 -10 -19 -10q-15 0 -25.5 9.5zM209 -137q-13 13 -13 31t13 31t32 13q17 0 30 -13t13 -31t-13 -31t-30 -13q-19 0 -32 13z" />
    <glyph glyph-name="uni1E37" unicode="&#x1e37;" horiz-adv-x="212" 
d="M80 734h52v-734h-52v734zM75 -137q-13 13 -13 31t13 31t32 13q17 0 30 -13t13 -31t-13 -31t-30 -13q-19 0 -32 13z" />
    <glyph glyph-name="uni1E38" unicode="&#x1e38;" horiz-adv-x="483" 
d="M65.5 -0.5q-10.5 9.5 -10.5 21.5q0 9 9 18q7 8 10.5 15t3.5 18v628h54v-654h306v-46h-328q-8 -10 -19 -10q-15 0 -25.5 9.5zM209 -137q-13 13 -13 31t13 31t32 13q17 0 30 -13t13 -31t-13 -31t-30 -13q-19 0 -32 13zM-25 855h272v-43h-272v43z" />
    <glyph glyph-name="uni1E39" unicode="&#x1e39;" horiz-adv-x="212" 
d="M80 734h52v-734h-52v734zM75 -137q-13 13 -13 31t13 31t32 13q17 0 30 -13t13 -31t-13 -31t-30 -13q-19 0 -32 13zM-30 889h272v-43h-272v43z" />
    <glyph glyph-name="uni1E3A" unicode="&#x1e3a;" horiz-adv-x="483" 
d="M65.5 -0.5q-10.5 9.5 -10.5 21.5q0 9 9 18q7 8 10.5 15t3.5 18v628h54v-654h306v-46h-328q-8 -10 -19 -10q-15 0 -25.5 9.5zM104 -67h272v-43h-272v43z" />
    <glyph glyph-name="uni1E3B" unicode="&#x1e3b;" horiz-adv-x="212" 
d="M80 734h52v-734h-52v734zM-30 -67h272v-43h-272v43z" />
    <glyph glyph-name="uni1E42" unicode="&#x1e42;" horiz-adv-x="763" 
d="M360 7l-195 592l-55 -600h-55l67 667l-8 12q-2 3 -2 10q0 11 8 20.5t24 9.5q18 0 28.5 -11t17.5 -31l191 -583l192 583q7 20 17.5 31t28.5 11q16 0 24 -9.5t8 -20.5q0 -7 -2 -10l-8 -12l67 -667h-55l-55 600l-186 -563l3 -10q1 -3 1 -9q0 -11 -9 -19t-23 -8q-18 0 -24 17
zM350 -137q-13 13 -13 31t13 31t32 13q17 0 30 -13t13 -31t-13 -31t-30 -13q-19 0 -32 13z" />
    <glyph glyph-name="uni1E43" unicode="&#x1e43;" horiz-adv-x="789" 
d="M663 92v217q0 73 -22 106t-85 33t-96.5 -43t-33.5 -107v-298h-51v309q0 62 -27.5 100.5t-82.5 38.5q-43 0 -73.5 -24.5t-46.5 -64t-16 -85.5v-274h-52v373q0 39 -5.5 62.5t-16.5 40.5l51 19q1 -3 7.5 -14t11.5 -30t6 -43q20 40 57.5 63.5t81.5 23.5q50 0 84 -26.5
t50 -76.5q18 47 59.5 75t92.5 28q159 0 159 -181v-222q0 -23 5.5 -45.5t13.5 -37.5l-47 -19q-24 48 -24 102zM368 -137q-13 13 -13 31t13 31t32 13q17 0 30 -13t13 -31t-13 -31t-30 -13q-19 0 -32 13z" />
    <glyph glyph-name="uni1E44" unicode="&#x1e44;" horiz-adv-x="617" 
d="M77 634q0 13 -4 20.5t-11 15.5t-7 14q0 10 10.5 22t24.5 12t25 -17l368 -597v596h54v-700h-48l-358 579v-579h-54v634zM277 822q-13 13 -13 31t13 31t32 13q17 0 30 -13t13 -31t-13 -31t-30 -13q-19 0 -32 13z" />
    <glyph glyph-name="uni1E45" unicode="&#x1e45;" horiz-adv-x="530" 
d="M404 92v215q0 72 -28.5 106.5t-93.5 34.5q-45 0 -80 -25t-54 -65t-19 -85v-273h-52v372q0 71 -22 104l47 19q18 -32 25 -93q26 45 69 69t94 24q81 0 123.5 -48.5t42.5 -140.5v-214q0 -23 5.5 -45.5t13.5 -37.5l-47 -19q-24 48 -24 102zM234 607q-13 13 -13 31t13 31
t32 13q17 0 30 -13t13 -31t-13 -31t-30 -13q-19 0 -32 13z" />
    <glyph glyph-name="uni1E46" unicode="&#x1e46;" horiz-adv-x="617" 
d="M77 634q0 13 -4 20.5t-11 15.5t-7 14q0 10 10.5 22t24.5 12t25 -17l368 -597v596h54v-700h-48l-358 579v-579h-54v634zM277 -137q-13 13 -13 31t13 31t32 13q17 0 30 -13t13 -31t-13 -31t-30 -13q-19 0 -32 13z" />
    <glyph glyph-name="uni1E47" unicode="&#x1e47;" horiz-adv-x="530" 
d="M404 92v215q0 72 -28.5 106.5t-93.5 34.5q-45 0 -80 -25t-54 -65t-19 -85v-273h-52v372q0 71 -22 104l47 19q18 -32 25 -93q26 45 69 69t94 24q81 0 123.5 -48.5t42.5 -140.5v-214q0 -23 5.5 -45.5t13.5 -37.5l-47 -19q-24 48 -24 102zM234 -137q-13 13 -13 31t13 31
t32 13q17 0 30 -13t13 -31t-13 -31t-30 -13q-19 0 -32 13z" />
    <glyph glyph-name="uni1E48" unicode="&#x1e48;" horiz-adv-x="617" 
d="M77 634q0 13 -4 20.5t-11 15.5t-7 14q0 10 10.5 22t24.5 12t25 -17l368 -597v596h54v-700h-48l-358 579v-579h-54v634zM172 -67h272v-43h-272v43z" />
    <glyph glyph-name="uni1E49" unicode="&#x1e49;" horiz-adv-x="530" 
d="M404 92v215q0 72 -28.5 106.5t-93.5 34.5q-45 0 -80 -25t-54 -65t-19 -85v-273h-52v372q0 71 -22 104l47 19q18 -32 25 -93q26 45 69 69t94 24q81 0 123.5 -48.5t42.5 -140.5v-214q0 -23 5.5 -45.5t13.5 -37.5l-47 -19q-24 48 -24 102zM129 -67h272v-43h-272v43z" />
    <glyph glyph-name="uni1E5A" unicode="&#x1e5a;" horiz-adv-x="567" 
d="M80 629q0 13 -4 21t-12 17q-4 5 -7 10t-2 10q3 10 12.5 20.5t22.5 10.5q4 0 12 -5.5t14 -12.5h144q252 0 252 -205q0 -96 -58.5 -145t-147.5 -52l192 -298h-63l-191 296h-110v-296h-54v629zM263 341q101 0 147 37.5t46 116.5q0 78 -47 118.5t-148 40.5h-127v-313h129z
M249 -137q-13 13 -13 31t13 31t32 13q17 0 30 -13t13 -31t-13 -31t-30 -13q-19 0 -32 13z" />
    <glyph glyph-name="uni1E5B" unicode="&#x1e5b;" horiz-adv-x="373" 
d="M77 372q0 71 -22 104l47 19q18 -32 25 -93q23 46 56.5 69.5t82.5 23.5q20 0 35.5 -4t36.5 -14l-23 -41q-22 12 -54 12q-42 0 -71.5 -24.5t-45 -65t-15.5 -85.5v-273h-52v372zM73 -137q-13 13 -13 31t13 31t32 13q17 0 30 -13t13 -31t-13 -31t-30 -13q-19 0 -32 13z" />
    <glyph glyph-name="uni1E5C" unicode="&#x1e5c;" horiz-adv-x="567" 
d="M80 629q0 13 -4 21t-12 17q-4 5 -7 10t-2 10q3 10 12.5 20.5t22.5 10.5q4 0 12 -5.5t14 -12.5h144q252 0 252 -205q0 -96 -58.5 -145t-147.5 -52l192 -298h-63l-191 296h-110v-296h-54v629zM263 341q101 0 147 37.5t46 116.5q0 78 -47 118.5t-148 40.5h-127v-313h129z
M249 -137q-13 13 -13 31t13 31t32 13q17 0 30 -13t13 -31t-13 -31t-30 -13q-19 0 -32 13zM124 855h272v-43h-272v43z" />
    <glyph glyph-name="uni1E5D" unicode="&#x1e5d;" horiz-adv-x="373" 
d="M77 372q0 71 -22 104l47 19q18 -32 25 -93q23 46 56.5 69.5t82.5 23.5q20 0 35.5 -4t36.5 -14l-23 -41q-22 12 -54 12q-42 0 -71.5 -24.5t-45 -65t-15.5 -85.5v-273h-52v372zM73 -137q-13 13 -13 31t13 31t32 13q17 0 30 -13t13 -31t-13 -31t-30 -13q-19 0 -32 13z
M51 640h272v-43h-272v43z" />
    <glyph glyph-name="uni1E5E" unicode="&#x1e5e;" horiz-adv-x="567" 
d="M80 629q0 13 -4 21t-12 17q-4 5 -7 10t-2 10q3 10 12.5 20.5t22.5 10.5q4 0 12 -5.5t14 -12.5h144q252 0 252 -205q0 -96 -58.5 -145t-147.5 -52l192 -298h-63l-191 296h-110v-296h-54v629zM263 341q101 0 147 37.5t46 116.5q0 78 -47 118.5t-148 40.5h-127v-313h129z
M144 -67h272v-43h-272v43z" />
    <glyph glyph-name="uni1E5F" unicode="&#x1e5f;" horiz-adv-x="373" 
d="M77 372q0 71 -22 104l47 19q18 -32 25 -93q23 46 56.5 69.5t82.5 23.5q20 0 35.5 -4t36.5 -14l-23 -41q-22 12 -54 12q-42 0 -71.5 -24.5t-45 -65t-15.5 -85.5v-273h-52v372zM-32 -67h272v-43h-272v43z" />
    <glyph glyph-name="uni1E60" unicode="&#x1e60;" horiz-adv-x="568" 
d="M159 16.5q-62 26.5 -104 67.5l36 38q87 -84 208 -84q77 0 117.5 32t40.5 89q0 43 -16 69t-54 47t-116 49q-103 37 -150.5 83t-47.5 121q0 84 54 133t156 49q114 0 200 -63l-30 -42q-73 56 -171 56q-77 0 -115 -32.5t-38 -99.5q0 -44 21 -72.5t58.5 -47.5t104.5 -43
q71 -25 114 -52t64.5 -64t21.5 -91q0 -75 -55.5 -122t-158.5 -47q-78 0 -140 26.5zM253 822q-13 13 -13 31t13 31t32 13q17 0 30 -13t13 -31t-13 -31t-30 -13q-19 0 -32 13z" />
    <glyph glyph-name="uni1E61" unicode="&#x1e61;" horiz-adv-x="477" 
d="M55 58l35 38q26 -28 70 -44t90 -16q119 0 119 75q0 26 -10.5 42.5t-38 31t-86.5 35.5q-60 22 -94.5 40.5t-52.5 44.5t-18 65q0 56 43.5 90.5t124.5 34.5q48 0 87 -13.5t65 -32.5l-23 -43q-29 22 -60 32.5t-70 10.5q-56 0 -85 -21.5t-29 -57.5q0 -25 12.5 -41.5t33 -27.5
t61.5 -27l29 -12q67 -28 99.5 -45.5t48.5 -41.5t16 -63q0 -58 -45 -90t-128 -32q-126 0 -194 68zM208 607q-13 13 -13 31t13 31t32 13q17 0 30 -13t13 -31t-13 -31t-30 -13q-19 0 -32 13z" />
    <glyph glyph-name="uni1E62" unicode="&#x1e62;" horiz-adv-x="568" 
d="M159 16.5q-62 26.5 -104 67.5l36 38q87 -84 208 -84q77 0 117.5 32t40.5 89q0 43 -16 69t-54 47t-116 49q-103 37 -150.5 83t-47.5 121q0 84 54 133t156 49q114 0 200 -63l-30 -42q-73 56 -171 56q-77 0 -115 -32.5t-38 -99.5q0 -44 21 -72.5t58.5 -47.5t104.5 -43
q71 -25 114 -52t64.5 -64t21.5 -91q0 -75 -55.5 -122t-158.5 -47q-78 0 -140 26.5zM253 -137q-13 13 -13 31t13 31t32 13q17 0 30 -13t13 -31t-13 -31t-30 -13q-19 0 -32 13z" />
    <glyph glyph-name="uni1E63" unicode="&#x1e63;" horiz-adv-x="477" 
d="M55 58l35 38q26 -28 70 -44t90 -16q119 0 119 75q0 26 -10.5 42.5t-38 31t-86.5 35.5q-60 22 -94.5 40.5t-52.5 44.5t-18 65q0 56 43.5 90.5t124.5 34.5q48 0 87 -13.5t65 -32.5l-23 -43q-29 22 -60 32.5t-70 10.5q-56 0 -85 -21.5t-29 -57.5q0 -25 12.5 -41.5t33 -27.5
t61.5 -27l29 -12q67 -28 99.5 -45.5t48.5 -41.5t16 -63q0 -58 -45 -90t-128 -32q-126 0 -194 68zM208 -137q-13 13 -13 31t13 31t32 13q17 0 30 -13t13 -31t-13 -31t-30 -13q-19 0 -32 13z" />
    <glyph glyph-name="uni1E6C" unicode="&#x1e6c;" horiz-adv-x="544" 
d="M245 654h-200v46h454v-46h-200v-654h-54v654zM228 -137q-13 13 -13 31t13 31t32 13q17 0 30 -13t13 -31t-13 -31t-30 -13q-19 0 -32 13z" />
    <glyph glyph-name="uni1E6D" unicode="&#x1e6d;" horiz-adv-x="363" 
d="M153 21q-26 31 -26 90v328h-82l12 46h71v137l50 23v-160h121l-11 -46h-109v-327q0 -44 13 -60.5t49 -16.5q37 0 63 13l14 -41q-15 -7 -38.5 -12t-43.5 -5q-57 0 -83 31zM190 -137q-13 13 -13 31t13 31t32 13q17 0 30 -13t13 -31t-13 -31t-30 -13q-19 0 -32 13z" />
    <glyph glyph-name="uni1E6E" unicode="&#x1e6e;" horiz-adv-x="544" 
d="M245 654h-200v46h454v-46h-200v-654h-54v654zM123 -67h272v-43h-272v43z" />
    <glyph glyph-name="uni1E6F" unicode="&#x1e6f;" horiz-adv-x="363" 
d="M153 21q-26 31 -26 90v328h-82l12 46h71v137l50 23v-160h121l-11 -46h-109v-327q0 -44 13 -60.5t49 -16.5q37 0 63 13l14 -41q-15 -7 -38.5 -12t-43.5 -5q-57 0 -83 31zM85 -67h272v-43h-272v43z" />
    <glyph glyph-name="Wgrave" unicode="&#x1e80;" horiz-adv-x="831" 
d="M166 15q0 8 2 12l6 15l-119 658h54l104 -601l180 593q5 18 22 18q21 0 30 -8.5t5 -21.5l-3 -10l171 -571l104 601h54l-121 -658l6 -15q2 -4 2 -12q0 -18 -23 -23q-10 -2 -13 -2q-13 0 -21 10t-15 32l-175 579l-178 -579q-7 -22 -15 -32t-21 -10q-3 0 -13 2q-23 5 -23 23z
M295 948h58l87 -172h-43z" />
    <glyph glyph-name="wgrave" unicode="&#x1e81;" horiz-adv-x="712" 
d="M185.5 -1.5q-8.5 8.5 -5.5 19.5l3 12l-128 455h56l104 -416l123 413q3 13 23 13q16 0 23.5 -7t7.5 -18q0 -5 -1 -8l-4 -19l110 -374l104 416h56l-128 -455l3 -12q3 -11 -5.5 -19.5t-22.5 -8.5t-21.5 5t-11.5 17l-115 391l-115 -391q-4 -12 -11.5 -17t-21.5 -5t-22.5 8.5z
M235 733h58l87 -172h-43z" />
    <glyph glyph-name="Wacute" unicode="&#x1e82;" horiz-adv-x="831" 
d="M166 15q0 8 2 12l6 15l-119 658h54l104 -601l180 593q5 18 22 18q21 0 30 -8.5t5 -21.5l-3 -10l171 -571l104 601h54l-121 -658l6 -15q2 -4 2 -12q0 -18 -23 -23q-10 -2 -13 -2q-13 0 -21 10t-15 32l-175 579l-178 -579q-7 -22 -15 -32t-21 -10q-3 0 -13 2q-23 5 -23 23z
M479 948h58l-102 -172h-43z" />
    <glyph glyph-name="wacute" unicode="&#x1e83;" horiz-adv-x="712" 
d="M185.5 -1.5q-8.5 8.5 -5.5 19.5l3 12l-128 455h56l104 -416l123 413q3 13 23 13q16 0 23.5 -7t7.5 -18q0 -5 -1 -8l-4 -19l110 -374l104 416h56l-128 -455l3 -12q3 -11 -5.5 -19.5t-22.5 -8.5t-21.5 5t-11.5 17l-115 391l-115 -391q-4 -12 -11.5 -17t-21.5 -5t-22.5 8.5z
M419 733h58l-102 -172h-43z" />
    <glyph glyph-name="Wdieresis" unicode="&#x1e84;" horiz-adv-x="831" 
d="M166 15q0 8 2 12l6 15l-119 658h54l104 -601l180 593q5 18 22 18q21 0 30 -8.5t5 -21.5l-3 -10l171 -571l104 601h54l-121 -658l6 -15q2 -4 2 -12q0 -18 -23 -23q-10 -2 -13 -2q-13 0 -21 10t-15 32l-175 579l-178 -579q-7 -22 -15 -32t-21 -10q-3 0 -13 2q-23 5 -23 23z
M291 792q-13 13 -13 31t13 31t32 13q17 0 30 -13t13 -31t-13 -31t-30 -13q-19 0 -32 13zM480 792q-13 13 -13 31t13 31t32 13q17 0 30 -13t13 -31t-13 -31t-30 -13q-19 0 -32 13z" />
    <glyph glyph-name="wdieresis" unicode="&#x1e85;" horiz-adv-x="712" 
d="M185.5 -1.5q-8.5 8.5 -5.5 19.5l3 12l-128 455h56l104 -416l123 413q3 13 23 13q16 0 23.5 -7t7.5 -18q0 -5 -1 -8l-4 -19l110 -374l104 416h56l-128 -455l3 -12q3 -11 -5.5 -19.5t-22.5 -8.5t-21.5 5t-11.5 17l-115 391l-115 -391q-4 -12 -11.5 -17t-21.5 -5t-22.5 8.5z
M231 577q-13 13 -13 31t13 31t32 13q17 0 30 -13t13 -31t-13 -31t-30 -13q-19 0 -32 13zM420 577q-13 13 -13 31t13 31t32 13q17 0 30 -13t13 -31t-13 -31t-30 -13q-19 0 -32 13z" />
    <glyph glyph-name="uni1E8E" unicode="&#x1e8e;" horiz-adv-x="616" 
d="M283 273l-228 427h59l194 -377l194 377h59l-228 -427v-273h-50v273zM277 822q-13 13 -13 31t13 31t32 13q17 0 30 -13t13 -31t-13 -31t-30 -13q-19 0 -32 13z" />
    <glyph glyph-name="uni1E8F" unicode="&#x1e8f;" horiz-adv-x="561" 
d="M98 -185q63 25 104.5 77t55.5 123l-203 470h59l173 -420l160 420h59l-201 -506q-33 -82 -77.5 -131t-113.5 -78zM250 607q-13 13 -13 31t13 31t32 13q17 0 30 -13t13 -31t-13 -31t-30 -13q-19 0 -32 13z" />
    <glyph glyph-name="uni1E92" unicode="&#x1e92;" horiz-adv-x="621" 
d="M86 -10q-13 0 -28 18q-3 3 -3 8q0 7 13 25l420 613h-406v46h427l10 11q7 7 16 7q11 0 19 -8q12 -10 12 -20q0 -8 -12 -27l-423 -617h435v-46h-464l-8 -7q-3 -3 -8 -3zM279 -137q-13 13 -13 31t13 31t32 13q17 0 30 -13t13 -31t-13 -31t-30 -13q-19 0 -32 13z" />
    <glyph glyph-name="uni1E93" unicode="&#x1e93;" horiz-adv-x="524" 
d="M84 -10q-12 0 -27 28q-2 3 -2 9q0 9 16 19q12 8 20 19l302 374h-312v46h326q19 0 25 6q3 3 8 3q9 0 22 -13q7 -7 7 -14q0 -8 -9 -19l-325 -402h330v-46h-343q-19 0 -29 -7q-4 -3 -9 -3zM231 -137q-13 13 -13 31t13 31t32 13q17 0 30 -13t13 -31t-13 -31t-30 -13
q-19 0 -32 13z" />
    <glyph glyph-name="uni1E97" unicode="&#x1e97;" horiz-adv-x="363" 
d="M153 21q-26 31 -26 90v328h-82l12 46h71v137l50 23v-160h121l-11 -46h-109v-327q0 -44 13 -60.5t49 -16.5q37 0 63 13l14 -41q-15 -7 -38.5 -12t-43.5 -5q-57 0 -83 31zM52 737q-13 13 -13 31t13 31t32 13q17 0 30 -13t13 -31t-13 -31t-30 -13q-19 0 -32 13zM241 737
q-13 13 -13 31t13 31t32 13q17 0 30 -13t13 -31t-13 -31t-30 -13q-19 0 -32 13z" />
    <glyph glyph-name="uni1E9E" unicode="&#x1e9e;" horiz-adv-x="597" 
d="M220 10l13 48q25 -11 47 -15t52 -4q73 0 113.5 39.5t40.5 110.5q0 72 -48.5 112t-125.5 40h-51v27l187 161q0 36 -19.5 66.5t-55 48t-82.5 17.5q-80 0 -121.5 -38.5t-41.5 -108.5v-514h-53v514q0 58 27 102.5t76 69t113 24.5q62 0 111 -25t76 -67.5t27 -93.5l-166 -143
q105 -7 154 -59.5t49 -132.5q0 -94 -55.5 -146.5t-154.5 -52.5q-62 0 -112 20z" />
    <glyph glyph-name="uni1EA0" unicode="&#x1ea0;" horiz-adv-x="630" 
d="M280 680q7 21 16.5 29.5t23.5 8.5q19 0 28.5 -8t9.5 -18q0 -7 -6 -17l233 -675h-57l-66 195h-294l-66 -195h-57zM447 241l-131 402l-131 -402h262zM284 -137q-13 13 -13 31t13 31t32 13q17 0 30 -13t13 -31t-13 -31t-30 -13q-19 0 -32 13z" />
    <glyph glyph-name="uni1EA1" unicode="&#x1ea1;" horiz-adv-x="559" 
d="M149 24.5q-47 34.5 -70.5 91.5t-23.5 125t23.5 126t70.5 93t116 35q60 0 99.5 -24.5t65.5 -68.5v83h52v-367q0 -73 22 -109l-44 -19q-20 29 -24 90l-3 1q-63 -91 -168 -91q-69 0 -116 34.5zM388 87.5q44 50.5 44 125.5v58q0 41 -18.5 82t-56.5 68t-92 27
q-75 0 -115.5 -59t-40.5 -148t40 -146.5t116 -57.5q79 0 123 50.5zM248 -137q-13 13 -13 31t13 31t32 13q17 0 30 -13t13 -31t-13 -31t-30 -13q-19 0 -32 13z" />
    <glyph glyph-name="uni1EA2" unicode="&#x1ea2;" horiz-adv-x="630" 
d="M280 680q7 21 16.5 29.5t23.5 8.5q19 0 28.5 -8t9.5 -18q0 -7 -6 -17l233 -675h-57l-66 195h-294l-66 -195h-57zM447 241l-131 402l-131 -402h262zM309.5 818.5q10.5 15.5 31.5 35.5q16 14 24 25t8 25q0 42 -50 42q-40 0 -66 -40l-30 22q17 26 42 40.5t55 14.5
q43 0 67 -21t24 -58q0 -20 -9 -33.5t-26 -29.5q-17 -17 -25.5 -29.5t-8.5 -31.5h-47q0 23 10.5 38.5z" />
    <glyph glyph-name="uni1EA3" unicode="&#x1ea3;" horiz-adv-x="559" 
d="M149 24.5q-47 34.5 -70.5 91.5t-23.5 125t23.5 126t70.5 93t116 35q60 0 99.5 -24.5t65.5 -68.5v83h52v-367q0 -73 22 -109l-44 -19q-20 29 -24 90l-3 1q-63 -91 -168 -91q-69 0 -116 34.5zM388 87.5q44 50.5 44 125.5v58q0 41 -18.5 82t-56.5 68t-92 27
q-75 0 -115.5 -59t-40.5 -148t40 -146.5t116 -57.5q79 0 123 50.5zM268.5 603.5q10.5 15.5 31.5 35.5q16 14 24 25t8 25q0 42 -50 42q-40 0 -66 -40l-30 22q17 26 42 40.5t55 14.5q43 0 67 -21t24 -58q0 -20 -9 -33.5t-26 -29.5q-17 -17 -25.5 -29.5t-8.5 -31.5h-47
q0 23 10.5 38.5z" />
    <glyph glyph-name="uni1EA4" unicode="&#x1ea4;" horiz-adv-x="630" 
d="M280 680q7 21 16.5 29.5t23.5 8.5q19 0 28.5 -8t9.5 -18q0 -7 -6 -17l233 -675h-57l-66 195h-294l-66 -195h-57zM447 241l-131 402l-131 -402h262zM467 1012h58l-91 -137h-43zM297 895q2 2 7 7.5t9 7.5t9 2q15 0 22.5 -8.5t3.5 -15.5l-3 -5l113 -116h-58l-83 91l-79 -91
h-58z" />
    <glyph glyph-name="uni1EA5" unicode="&#x1ea5;" horiz-adv-x="559" 
d="M149 24.5q-47 34.5 -70.5 91.5t-23.5 125t23.5 126t70.5 93t116 35q60 0 99.5 -24.5t65.5 -68.5v83h52v-367q0 -73 22 -109l-44 -19q-20 29 -24 90l-3 1q-63 -91 -168 -91q-69 0 -116 34.5zM388 87.5q44 50.5 44 125.5v58q0 41 -18.5 82t-56.5 68t-92 27
q-75 0 -115.5 -59t-40.5 -148t40 -146.5t116 -57.5q79 0 123 50.5zM426 797h58l-91 -137h-43zM256 680q2 2 7 7.5t9 7.5t9 2q15 0 22.5 -8.5t3.5 -15.5l-3 -5l113 -116h-58l-83 91l-79 -91h-58z" />
    <glyph glyph-name="uni1EA6" unicode="&#x1ea6;" horiz-adv-x="630" 
d="M280 680q7 21 16.5 29.5t23.5 8.5q19 0 28.5 -8t9.5 -18q0 -7 -6 -17l233 -675h-57l-66 195h-294l-66 -195h-57zM447 241l-131 402l-131 -402h262zM341 1012h58l76 -137h-43zM297 895q2 2 7 7.5t9 7.5t9 2q15 0 22.5 -8.5t3.5 -15.5l-3 -5l113 -116h-58l-83 91l-79 -91
h-58z" />
    <glyph glyph-name="uni1EA7" unicode="&#x1ea7;" horiz-adv-x="559" 
d="M149 24.5q-47 34.5 -70.5 91.5t-23.5 125t23.5 126t70.5 93t116 35q60 0 99.5 -24.5t65.5 -68.5v83h52v-367q0 -73 22 -109l-44 -19q-20 29 -24 90l-3 1q-63 -91 -168 -91q-69 0 -116 34.5zM388 87.5q44 50.5 44 125.5v58q0 41 -18.5 82t-56.5 68t-92 27
q-75 0 -115.5 -59t-40.5 -148t40 -146.5t116 -57.5q79 0 123 50.5zM300 797h58l76 -137h-43zM256 680q2 2 7 7.5t9 7.5t9 2q15 0 22.5 -8.5t3.5 -15.5l-3 -5l113 -116h-58l-83 91l-79 -91h-58z" />
    <glyph glyph-name="uni1EA8" unicode="&#x1ea8;" horiz-adv-x="630" 
d="M280 680q7 21 16.5 29.5t23.5 8.5q19 0 28.5 -8t9.5 -18q0 -7 -6 -17l233 -675h-57l-66 195h-294l-66 -195h-57zM447 241l-131 402l-131 -402h262zM411.5 903.5q9.5 13.5 28.5 30.5q14 13 20.5 21.5t6.5 19.5q0 17 -10.5 26.5t-30.5 9.5q-36 0 -61 -37l-28 20
q16 24 39.5 37.5t50.5 13.5q37 0 58 -18.5t21 -51.5q0 -18 -7.5 -29t-23.5 -26q-15 -13 -22.5 -24t-7.5 -28h-43q0 22 9.5 35.5zM297 895q2 2 7 7.5t9 7.5t9 2q15 0 22.5 -8.5t3.5 -15.5l-3 -5l113 -116h-58l-83 91l-79 -91h-58z" />
    <glyph glyph-name="uni1EA9" unicode="&#x1ea9;" horiz-adv-x="559" 
d="M149 24.5q-47 34.5 -70.5 91.5t-23.5 125t23.5 126t70.5 93t116 35q60 0 99.5 -24.5t65.5 -68.5v83h52v-367q0 -73 22 -109l-44 -19q-20 29 -24 90l-3 1q-63 -91 -168 -91q-69 0 -116 34.5zM388 87.5q44 50.5 44 125.5v58q0 41 -18.5 82t-56.5 68t-92 27
q-75 0 -115.5 -59t-40.5 -148t40 -146.5t116 -57.5q79 0 123 50.5zM370.5 688.5q9.5 13.5 28.5 30.5q14 13 20.5 21.5t6.5 19.5q0 17 -10.5 26.5t-30.5 9.5q-36 0 -61 -37l-28 20q16 24 39.5 37.5t50.5 13.5q37 0 58 -18.5t21 -51.5q0 -18 -7.5 -29t-23.5 -26
q-15 -13 -22.5 -24t-7.5 -28h-43q0 22 9.5 35.5zM256 680q2 2 7 7.5t9 7.5t9 2q15 0 22.5 -8.5t3.5 -15.5l-3 -5l113 -116h-58l-83 91l-79 -91h-58z" />
    <glyph glyph-name="uni1EAA" unicode="&#x1eaa;" horiz-adv-x="630" 
d="M280 680q7 21 16.5 29.5t23.5 8.5q19 0 28.5 -8t9.5 -18q0 -7 -6 -17l233 -675h-57l-66 195h-294l-66 -195h-57zM447 241l-131 402l-131 -402h262zM185 968q3 32 25 53.5t53 21.5q23 0 40.5 -8.5t39.5 -24.5q16 -11 25.5 -16t19.5 -5q20 0 31 12.5t16 41.5l34 -18
q-3 -32 -25 -53.5t-53 -21.5q-19 0 -35.5 8t-35.5 22q-19 13 -30 18.5t-24 5.5q-20 0 -31 -12.5t-16 -41.5zM297 895q2 2 7 7.5t9 7.5t9 2q15 0 22.5 -8.5t3.5 -15.5l-3 -5l113 -116h-58l-83 91l-79 -91h-58z" />
    <glyph glyph-name="uni1EAB" unicode="&#x1eab;" horiz-adv-x="559" 
d="M149 24.5q-47 34.5 -70.5 91.5t-23.5 125t23.5 126t70.5 93t116 35q60 0 99.5 -24.5t65.5 -68.5v83h52v-367q0 -73 22 -109l-44 -19q-20 29 -24 90l-3 1q-63 -91 -168 -91q-69 0 -116 34.5zM388 87.5q44 50.5 44 125.5v58q0 41 -18.5 82t-56.5 68t-92 27
q-75 0 -115.5 -59t-40.5 -148t40 -146.5t116 -57.5q79 0 123 50.5zM144 753q3 32 25 53.5t53 21.5q23 0 40.5 -8.5t39.5 -24.5q16 -11 25.5 -16t19.5 -5q20 0 31 12.5t16 41.5l34 -18q-3 -32 -25 -53.5t-53 -21.5q-19 0 -35.5 8t-35.5 22q-19 13 -30 18.5t-24 5.5
q-20 0 -31 -12.5t-16 -41.5zM256 680q2 2 7 7.5t9 7.5t9 2q15 0 22.5 -8.5t3.5 -15.5l-3 -5l113 -116h-58l-83 91l-79 -91h-58z" />
    </font>
</defs>
</svg>
