<?xml version="1.0" standalone="no"?>
<!DOCTYPE svg PUBLIC "-//W3C//DTD SVG 1.1//EN" "http://www.w3.org/Graphics/SVG/1.1/DTD/svg11.dtd" >
<svg xmlns="http://www.w3.org/2000/svg" xmlns:xlink="http://www.w3.org/1999/xlink" version="1.1">
<metadata>
Created by FontForge 20170731 at Fri Sep  7 16:54:18 2018
 By Aleksey,,,
Copyright (c) 2018, Cadson Demak (info@cadsondemak.com)
</metadata>
<defs>
<font id="Niramit-MediumItalic" horiz-adv-x="0" >
  <font-face 
    font-family="Niramit Medium"
    font-weight="500"
    font-style="italic"
    font-stretch="normal"
    units-per-em="1000"
    panose-1="0 0 6 0 0 0 0 0 0 0"
    ascent="800"
    descent="-200"
    x-height="485"
    cap-height="700"
    bbox="-583 -488 1154 1219"
    underline-thickness="50"
    underline-position="-150"
    slope="-10"
    unicode-range="U+000D-FB02"
  />
<missing-glyph horiz-adv-x="620" 
d="M179 747h440l-132 -747h-440zM446 52l114 643h-340l-114 -643h340z" />
    <glyph glyph-name="fi" unicode="fi" horiz-adv-x="549" 
d="M428 0h-100l71 403h-151l-71 -403h-100l71 403h-86l35 82h65l15 83q14 79 69.5 123.5t146.5 44.5q34 0 69 -7.5t58 -17.5l-31 -79q-16 9 -43.5 15t-59.5 6q-53 0 -77.5 -22t-31.5 -63l-15 -83h252z" />
    <glyph glyph-name="fl" unicode="fl" horiz-adv-x="524" 
d="M558 734l-130 -734h-100l71 403h-151l-71 -403h-100l71 403h-86l35 82h65l15 83q14 78 68.5 123t147.5 45q24 0 64 -9l1 7h100zM414 485l28 160q-26 8 -56 8q-53 0 -77.5 -22t-31.5 -63l-15 -83h152z" />
    <glyph glyph-name="uni0E240E45" unicode="&#xe24;&#xe45;" horiz-adv-x="1000" 
d="M501 401q5 29 14 43q-19 38 -53.5 58t-90.5 20q-67 0 -118 -26.5t-82 -71.5l42 -30q33 33 76 46l23 -62q-37 -17 -56.5 -41.5t-26.5 -63.5l-17 -93q19 7 34 7q34 0 53.5 -19.5t19.5 -53.5q0 -53 -37.5 -88.5t-92.5 -35.5q-42 0 -68 23.5t-26 63.5q0 7 2 21l29 161
q7 45 33 72l-92 67q21 54 68 101t111.5 75.5t134.5 28.5q69 0 113.5 -21.5t74.5 -62.5q43 41 93 62.5t103 21.5q122 0 175 -87q10 8 19 8q10 0 22 -13q13 -14 13 -31q0 -12 -4.5 -18.5t-14.5 -14.5q-11 -9 -16 -16t-7 -20l-135 -770h-100l136 771q5 26 15 43
q-18 34 -44.5 50.5t-68.5 16.5q-61 0 -103.5 -37t-51.5 -89l-133 -755h-100zM235.5 63q15.5 15 15.5 36q0 15 -10.5 24.5t-26.5 9.5q-20 0 -35.5 -15t-15.5 -35q0 -15 10.5 -25t25.5 -10q21 0 36.5 15z" />
    <glyph glyph-name="uni0E260E45" unicode="&#xe26;&#xe45;" horiz-adv-x="1003" 
d="M503 401q6 30 15 43q-41 78 -139 78q-65 0 -116.5 -27t-81.5 -70l48 -33q15 15 36 28t40 18l23 -62q-37 -16 -56 -41.5t-26 -64.5l-24 -131q5 -10 5 -29q0 -50 -37.5 -85t-91.5 -35q-44 0 -69 23.5t-25 59.5q0 30 15.5 57t40.5 43t53 16q7 0 19 -4l12 70q10 53 31 74
l-99 69q22 54 69.5 101.5t111.5 75.5t133 28q71 0 113 -21.5t72 -64.5q89 86 193 86q62 0 104 -23t70 -65q10 8 19 8q12 0 23 -12q13 -15 13 -31q0 -12 -4.5 -19t-13.5 -15q-10 -8 -15.5 -15t-7.5 -20l-136 -770h-100l136 771q1 4 4.5 18.5t10.5 24.5q-18 34 -44.5 50.5
t-69.5 16.5q-60 0 -103 -36.5t-52 -89.5l-133 -755h-100zM144 63.5q15 15.5 15 34.5q0 16 -10 25.5t-26 9.5q-21 0 -36 -15t-15 -35q0 -15 10.5 -25t26.5 -10q20 0 35 15.5z" />
    <glyph glyph-name=".notdef" horiz-adv-x="620" 
d="M179 747h440l-132 -747h-440zM446 52l114 643h-340l-114 -643h340z" />
    <glyph glyph-name=".null" horiz-adv-x="497" 
 />
    <glyph glyph-name="nonmarkingreturn" unicode="&#xd;" horiz-adv-x="258" 
 />
    <glyph glyph-name="space" unicode=" " horiz-adv-x="258" 
 />
    <glyph glyph-name="exclam" unicode="!" horiz-adv-x="248" 
d="M154 700h102l-96 -498h-85zM40 15q-16 15 -16 38q0 33 24 56.5t58 23.5q26 0 42 -14.5t16 -38.5q0 -34 -23.5 -57t-57.5 -23q-27 0 -43 15z" />
    <glyph glyph-name="quotedbl" unicode="&#x22;" horiz-adv-x="329" 
d="M123 693h101l-41 -190h-84zM267 693h101l-41 -190h-85z" />
    <glyph glyph-name="numbersign" unicode="#" horiz-adv-x="698" 
d="M581 423l-47 -159h102l-14 -82h-112l-53 -182h-99l53 182h-166l-53 -182h-99l53 182h-113l14 82h123l47 159h-117l15 82h126l54 185h99l-54 -185h166l54 185h99l-54 -185h100l-15 -82h-109zM482 423h-166l-47 -159h166z" />
    <glyph glyph-name="dollar" unicode="$" horiz-adv-x="588" 
d="M494.5 306.5q42.5 -42.5 42.5 -103.5q0 -98 -67.5 -154t-186.5 -59l-16 -88h-50l16 90q-71 6 -126.5 34.5t-88.5 72.5l73 64q58 -76 157 -87l40 230l-3 1q-91 36 -134 82.5t-43 106.5q0 95 68 152.5t183 61.5l16 89h50l-16 -91q56 -4 103 -24t80 -52l-66 -70
q-29 28 -59.5 43t-72.5 19l-41 -235l5 -2q94 -38 136.5 -80.5zM234.5 453.5q21.5 -21.5 71.5 -44.5l38 215q-62 -4 -96.5 -34.5t-34.5 -82.5q0 -32 21.5 -53.5zM396 108q35 30 35 83q0 30 -21 51t-75 45l-38 -213q64 4 99 34z" />
    <glyph glyph-name="percent" unicode="%" horiz-adv-x="770" 
d="M129 400q-36 34 -36 98q0 97 51.5 154.5t136.5 57.5q63 0 98.5 -35t35.5 -96q0 -98 -51.5 -155.5t-136.5 -57.5q-62 0 -98 34zM589 710h103l-471 -720h-103zM295 480q22 34 22 88q0 28 -13 44.5t-34 16.5q-35 0 -57 -34t-22 -89q0 -28 13 -44t34 -16q35 0 57 34zM433 24
q-36 34 -36 98t23.5 112t66 74t97.5 26q63 0 98.5 -35t35.5 -96q0 -98 -51.5 -155.5t-136.5 -57.5q-61 0 -97 34zM598 104.5q22 34.5 22 87.5q0 28 -12.5 44.5t-34.5 16.5q-34 0 -56 -34.5t-22 -88.5q0 -28 12.5 -44t34.5 -16q34 0 56 34.5z" />
    <glyph glyph-name="ampersand" unicode="&#x26;" horiz-adv-x="724" 
d="M86.5 36q-55.5 46 -55.5 121q0 74 50 140t146 118q-25 32 -37.5 60.5t-12.5 61.5q0 50 24 89.5t67 61.5t98 22q65 0 102 -32t37 -85q0 -66 -38.5 -109.5t-100.5 -83.5l119 -168q25 51 33 107h101q-14 -106 -78 -192l101 -147h-120l-52 79q-97 -89 -231 -89
q-97 0 -152.5 46zM403 578q0 22 -13 36t-37 14q-32 0 -53 -24t-21 -60q0 -21 9 -40t29 -42q86 51 86 116zM348.5 93.5q43.5 18.5 74.5 51.5l-146 203q-140 -72 -140 -177q0 -44 32 -70t88 -26q48 0 91.5 18.5z" />
    <glyph glyph-name="quotesingle" unicode="'" horiz-adv-x="187" 
d="M123 693h103l-41 -190h-87z" />
    <glyph glyph-name="parenleft" unicode="(" horiz-adv-x="323" 
d="M60 20q-18 70 -18 148q0 187 71.5 328.5t152.5 233.5h101q-82 -93 -152.5 -235.5t-70.5 -330.5q0 -147 75 -282h-102q-39 68 -57 138z" />
    <glyph glyph-name="parenright" unicode=")" horiz-adv-x="323" 
d="M133.5 117q68.5 140 68.5 327q0 148 -71 286h100q38 -71 56 -142.5t18 -149.5q0 -179 -68 -320t-156 -236h-101q85 95 153.5 235z" />
    <glyph glyph-name="asterisk" unicode="*" horiz-adv-x="431" 
d="M203 357q-12 10 -12 26q0 7 3 16l25 73l-65 -45q-16 -11 -32 -11q-17 0 -29 11t-12 30q0 16 10.5 28.5t28.5 19.5l88 32l-76 32q-24 11 -24 34q0 15 11 30q9 12 21 18.5t24 6.5q18 0 29 -11l49 -45v73q0 22 17.5 37t41.5 15q19 0 31 -10.5t12 -26.5q0 -7 -3 -15l-23 -73
l65 45q14 10 32 10q17 0 28 -10t11 -31q0 -15 -10 -27.5t-28 -19.5l-87 -32l76 -32q25 -11 25 -33q0 -13 -11 -30q-9 -12 -21.5 -19t-24.5 -7q-17 0 -28 11l-49 45l-4 -73q0 -22 -17.5 -37t-40.5 -15q-19 0 -31 10z" />
    <glyph glyph-name="plus" unicode="+" horiz-adv-x="536" 
d="M505 244h-186l-32 -187h-102l32 187h-186l15 82h186l32 187h102l-32 -187h186z" />
    <glyph glyph-name="comma" unicode="," horiz-adv-x="232" 
d="M-11 -63q26 11 48.5 29.5t32.5 37.5q-23 -2 -38 11.5t-15 34.5q0 32 24.5 54.5t58.5 22.5q29 0 44 -15.5t15 -42.5q0 -52 -41.5 -102.5t-109.5 -79.5z" />
    <glyph glyph-name="hyphen" unicode="-" horiz-adv-x="503" 
d="M58 326h420l-15 -82h-420z" />
    <glyph glyph-name="period" unicode="." horiz-adv-x="211" 
d="M25.5 14.5q-15.5 14.5 -15.5 36.5q0 29 23 51t54 22q24 0 38 -14.5t14 -36.5q0 -29 -22.5 -51t-51.5 -22q-24 0 -39.5 14.5z" />
    <glyph glyph-name="slash" unicode="/" horiz-adv-x="457" 
d="M398 710h102l-398 -714h-102z" />
    <glyph glyph-name="zero" unicode="0" horiz-adv-x="635" 
d="M160 22q-49 32 -76 89.5t-27 133.5q0 142 40 246.5t118 161.5t187 57q66 0 115 -31.5t75.5 -89t26.5 -132.5q0 -141 -39 -246t-116 -163t-189 -58q-66 0 -115 32zM408.5 121.5q50.5 46.5 78 131.5t27.5 196q0 176 -127 176q-68 0 -119 -44.5t-78.5 -128.5t-27.5 -199
q0 -90 31.5 -134t96.5 -44q68 0 118.5 46.5z" />
    <glyph glyph-name="one" unicode="1" horiz-adv-x="355" 
d="M243 542l-112 -82l-48 68l227 164q26 18 44 18q20 0 31 -17q11 -16 11 -28q0 -17 -22 -34l-15 -10l-109 -622h-102z" />
    <glyph glyph-name="two" unicode="2" horiz-adv-x="619" 
d="M15 4.5q-10 4.5 -10 18.5q0 10 4 22q8 26 18 33.5t33 8.5q34 49 82.5 86.5t128.5 87.5q75 47 118 80.5t72.5 79t29.5 103.5q0 49 -28 75t-83 26q-77 0 -122 -41.5t-68 -130.5l-96 9q27 117 107.5 182.5t193.5 65.5q96 0 148.5 -46.5t52.5 -128.5q0 -76 -33.5 -132.5
t-82 -95t-127.5 -88.5q-61 -38 -100 -67.5t-67 -63.5h249l37 60l84 -31l-73 -117h-434q-24 0 -34 4.5z" />
    <glyph glyph-name="three" unicode="3" horiz-adv-x="648" 
d="M113 41q-65 51 -79 152l100 31q13 -149 169 -149q92 0 146 50.5t54 137.5q0 47 -25.5 71.5t-72.5 24.5q-32 0 -56 -9l-20 -20q-16 -18 -32 -18q-15 0 -35 16q-12 9 -12 22q0 11 18 34l191 234h-197l-47 -89l-71 50l62 121h401q21 0 31 -4.5t10 -15.5q0 -10 -9 -28
q-11 -22 -22.5 -28t-32.5 -6h-20l-155 -187q21 7 51 7q67 0 107.5 -42.5t40.5 -119.5q0 -85 -39.5 -150t-112 -100.5t-168.5 -35.5q-110 0 -175 51z" />
    <glyph glyph-name="four" unicode="4" horiz-adv-x="618" 
d="M373 149h-311q-18 0 -28.5 9t-10.5 23q0 19 18 38l462 470q20 20 42 20q17 0 29 -12q16 -15 16 -29t-14 -28l-17 -18l-69 -391h92l-15 -82h-92l-26 -149h-102zM393 231l50 285l-280 -285h230z" />
    <glyph glyph-name="five" unicode="5" horiz-adv-x="620" 
d="M119.5 19q-62.5 29 -100.5 85l74 64q37 -51 80 -72t106 -21q59 0 105 28t71.5 77.5t25.5 112.5q0 62 -35.5 93t-94.5 31t-105.5 -26t-88.5 -82l-74 28l91 287q-14 3 -14 17q0 7 5 24q8 23 18 29t30 6h403l-16 -85h-339l-53 -170q74 57 167 57q99 0 155.5 -49t56.5 -142
q0 -92 -41.5 -165t-115 -114.5t-165.5 -41.5q-83 0 -145.5 29z" />
    <glyph glyph-name="six" unicode="6" horiz-adv-x="622" 
d="M112 51q-60 61 -60 178q0 135 46.5 245t129 173t186.5 63q94 0 142.5 -44t51.5 -125l-89 -29q-7 58 -33.5 85.5t-88.5 27.5q-91 0 -154.5 -75.5t-85.5 -197.5h3q41 53 98 82.5t124 29.5q94 0 147.5 -50.5t53.5 -135.5t-37 -150.5t-105 -101.5t-158 -36q-111 0 -171 61z
M390.5 99q40.5 24 63.5 67.5t23 100.5q0 53 -32 82.5t-91 29.5q-53 0 -96 -24.5t-67.5 -67.5t-24.5 -96q0 -54 35 -85t96 -31q53 0 93.5 24z" />
    <glyph glyph-name="seven" unicode="7" horiz-adv-x="599" 
d="M212.5 205.5q40.5 91.5 103.5 173t161 175.5q11 11 17 25t10 36h-302v-56l-97 -38l-1 120q0 26 17 42.5t44 16.5h447q17 0 24 -4t7 -18q0 -60 -43 -60q-7 -34 -17 -55t-36 -48q-99 -99 -154 -170.5t-86.5 -150.5t-51.5 -194h-102q19 114 59.5 205.5z" />
    <glyph glyph-name="eight" unicode="8" horiz-adv-x="621" 
d="M92 33q-61 43 -61 122q0 75 46 130.5t121 78.5q-38 18 -59 51t-21 73q0 63 36 113.5t99 79.5t141 29q97 0 152.5 -42t55.5 -116q0 -68 -39 -116.5t-94 -71.5q50 -18 78 -53.5t28 -84.5q0 -69 -39 -122.5t-109 -83.5t-160 -30q-114 0 -175 43zM452.5 438q44.5 39 44.5 98
q0 44 -31.5 66.5t-87.5 22.5q-70 0 -113 -37t-43 -96q0 -44 31 -68.5t85 -24.5q70 0 114.5 39zM419.5 114q50.5 39 50.5 106q0 48 -37.5 75t-107.5 27q-85 0 -137 -41t-52 -108q0 -47 37.5 -72.5t108.5 -25.5q87 0 137.5 39z" />
    <glyph glyph-name="nine" unicode="9" horiz-adv-x="622" 
d="M120 34q-53 44 -60 120l90 28q8 -53 39.5 -80t93.5 -27q88 0 144 73.5t78 199.5h-4q-85 -112 -210 -112q-97 0 -154 50.5t-57 135.5q0 84 38.5 149.5t108 102t157.5 36.5q110 0 168 -63.5t58 -174.5q0 -138 -42.5 -247.5t-120.5 -172t-180 -62.5q-94 0 -147 44z
M406.5 345.5q41.5 24.5 65 67t23.5 96.5t-32.5 85t-93.5 31q-53 0 -95 -24t-65.5 -67t-23.5 -99q0 -55 32 -84.5t95 -29.5q53 0 94.5 24.5z" />
    <glyph glyph-name="colon" unicode=":" horiz-adv-x="220" 
d="M94 391.5q-16 15.5 -16 39.5q0 31 24.5 55t56.5 24q25 0 40.5 -16t15.5 -39q0 -31 -24.5 -55t-55.5 -24q-25 0 -41 15.5zM28 18.5q-16 15.5 -16 39.5q0 31 24.5 55t56.5 24q25 0 41 -16t16 -40q0 -31 -24.5 -54.5t-56.5 -23.5q-25 0 -41 15.5z" />
    <glyph glyph-name="semicolon" unicode=";" horiz-adv-x="229" 
d="M102 389q-16 16 -16 40q0 31 24.5 55t55.5 24q26 0 41.5 -16t15.5 -40q0 -30 -24.5 -54.5t-55.5 -24.5q-25 0 -41 16zM-11 -64q27 11 49 29.5t32 36.5q-23 -1 -38 12.5t-15 34.5q0 31 24.5 54t58.5 23q28 0 42 -14.5t14 -40.5q0 -55 -40.5 -105t-107.5 -79z" />
    <glyph glyph-name="less" unicode="&#x3c;" horiz-adv-x="611" 
d="M72 220q-14 6 -20 13.5t-6 19.5q0 25 14.5 42t35.5 17q6 0 9 -1l10 -2l503 206l-17 -97l-406 -160l350 -159l-18 -97z" />
    <glyph glyph-name="equal" unicode="=" horiz-adv-x="536" 
d="M90 409h415l-15 -82h-414zM61 243h414l-14 -82h-415z" />
    <glyph glyph-name="greater" unicode="&#x3e;" horiz-adv-x="611" 
d="M18 99l406 159l-350 160l18 97l430 -206l11 2q4 1 11 1q15 0 23.5 -9.5t8.5 -25.5q0 -25 -11.5 -37t-31.5 -20l-532 -218z" />
    <glyph glyph-name="question" unicode="?" horiz-adv-x="518" 
d="M206 242q9 53 38.5 88t81.5 75q50 39 75 69.5t25 76.5q0 35 -22 54.5t-67 19.5q-52 0 -92 -28t-70 -84l-77 41q39 73 108 114.5t149 41.5q84 0 130 -39.5t46 -106.5q0 -47 -16.5 -81.5t-40 -57t-63.5 -53.5q-46 -33 -71 -61.5t-32 -68.5l-7 -40h-102zM173 15
q-16 15 -16 38q0 34 24 57t58 23q27 0 42.5 -14.5t15.5 -38.5q0 -33 -23.5 -56.5t-57.5 -23.5q-27 0 -43 15z" />
    <glyph glyph-name="at" unicode="@" horiz-adv-x="860" 
d="M201 7q-72 35 -110 98.5t-38 148.5q0 134 58.5 242t163.5 170t239 62q159 0 248 -71t89 -198q0 -90 -32.5 -167t-90 -122t-127.5 -45q-35 0 -61.5 20.5t-33.5 57.5h-1q-26 -37 -64.5 -58t-80.5 -21q-59 0 -96 40.5t-37 106.5q0 83 35 154t94 113t127 42q37 0 61 -15.5
t35 -42.5l16 44h78l-101 -287q-6 -18 -6 -32q0 -20 11 -31.5t29 -11.5q37 0 69.5 34.5t52 91.5t19.5 122q0 97 -60 144t-184 47q-99 0 -177.5 -47.5t-123 -134t-44.5 -197.5q0 -100 59 -153.5t170 -53.5q104 0 196 38l-14 -81q-87 -42 -197 -42q-99 0 -171 35zM509 340
q19 56 19 96q0 34 -14 51.5t-40 17.5q-36 0 -70.5 -32t-55.5 -84t-21 -110q0 -39 15.5 -56.5t45.5 -17.5q76 0 121 135z" />
    <glyph glyph-name="A" unicode="A" horiz-adv-x="679" 
d="M358 668q27 50 73 50q26 0 40 -10.5t14 -27.5q0 -9 -8 -23l123 -657h-104l-32 189h-257l-99 -189h-111zM455 271l-50 306l-158 -306h208z" />
    <glyph glyph-name="B" unicode="B" horiz-adv-x="601" 
d="M134 598q1 6 1 15q0 11 -3 17.5t-9 13.5t-6 13t2 10q7 18 25.5 34.5t36.5 16.5q19 0 30 -18h200q86 0 133.5 -40.5t47.5 -108.5q0 -70 -36.5 -117.5t-100.5 -67.5l-1 -3q48 -18 75.5 -50t27.5 -78q0 -67 -34 -120.5t-94.5 -84t-137.5 -30.5h-262zM338 405
q68 0 108.5 36.5t40.5 97.5q0 80 -97 80h-152l-38 -214h138zM301 81q69 0 110.5 40.5t41.5 108.5q0 45 -31.5 69t-89.5 24h-146l-43 -242h158z" />
    <glyph glyph-name="C" unicode="C" horiz-adv-x="632" 
d="M182 23.5q-61 33.5 -93.5 95t-32.5 143.5q0 130 47.5 232t135.5 159t205 57q64 0 115 -22t80 -61l-54 -72q-27 35 -63.5 52.5t-92.5 17.5q-76 0 -137 -44.5t-95.5 -125t-34.5 -183.5q0 -94 46 -145.5t134 -51.5q97 0 170 67l52 -58q-48 -45 -111 -69.5t-128 -24.5
q-82 0 -143 33.5z" />
    <glyph glyph-name="D" unicode="D" horiz-adv-x="642" 
d="M133 598q1 6 1 15q0 17 -9 28t-9 16q0 4 3 10q9 18 27 34.5t35 16.5q15 0 30 -18h137q84 0 147 -31.5t97 -91t34 -140.5q0 -130 -47.5 -229t-135.5 -153.5t-206 -54.5h-209zM245 88q84 0 146.5 42t96.5 118.5t34 178.5q0 94 -43.5 139.5t-144.5 45.5h-96l-93 -524h100z
" />
    <glyph glyph-name="E" unicode="E" horiz-adv-x="533" 
d="M134 598q1 6 1 15q0 11 -3.5 18t-9.5 14.5t-6 12.5t3 9q8 17 26.5 34t35.5 17t30 -18h353l-15 -88h-311l-35 -203h226l-15 -84h-226l-42 -237h320l-16 -88h-421z" />
    <glyph glyph-name="F" unicode="F" horiz-adv-x="524" 
d="M134 598q1 6 1 15q0 11 -3.5 18t-9.5 14.5t-6 12.5t3 9q8 17 26.5 34t35.5 17t30 -18h353l-15 -88h-311l-37 -214h226l-15 -85h-226l-55 -313h-102z" />
    <glyph glyph-name="G" unicode="G" horiz-adv-x="657" 
d="M178.5 23.5q-59.5 33.5 -91 95t-31.5 143.5q0 130 47.5 232t135 159t204.5 57q64 0 115 -22t80 -61l-54 -72q-27 35 -63.5 52.5t-92.5 17.5q-76 0 -136.5 -44.5t-95 -125t-34.5 -183.5q0 -95 43.5 -146t129.5 -51q42 0 71 7t58 24l33 189h-161l15 85h204q17 16 35 16
q17 0 29.5 -16.5t14.5 -34.5q0 -8 -3 -13t-10 -10q-9 -7 -15.5 -16t-9.5 -28l-38 -219q-68 -38 -121.5 -53.5t-118.5 -15.5q-80 0 -139.5 33.5z" />
    <glyph glyph-name="H" unicode="H" horiz-adv-x="619" 
d="M137 700h102l-51 -288h305l51 288h102l-123 -700h-102l57 324h-305l-57 -324h-102z" />
    <glyph glyph-name="I" unicode="I" horiz-adv-x="293" 
d="M176 700h102l-123 -700h-102z" />
    <glyph glyph-name="J" unicode="J" horiz-adv-x="438" 
d="M62.5 2.5q-39.5 12.5 -65.5 34.5l53 73q50 -34 107 -34q97 0 116 103l91 521h102l-91 -518q-16 -90 -76 -141t-157 -51q-40 0 -79.5 12.5z" />
    <glyph glyph-name="K" unicode="K" horiz-adv-x="602" 
d="M137 700h102l-48 -276l295 276h126l-361 -337l268 -363h-126l-223 307l-54 -307h-102z" />
    <glyph glyph-name="L" unicode="L" horiz-adv-x="507" 
d="M20.5 1.5q-13.5 16.5 -13.5 34.5q0 8 3 12.5t10 10.5q9 8 15.5 17.5t9.5 26.5l105 597h102l-107 -612h302l-16 -88h-346q-18 -15 -34 -15q-17 0 -30.5 16.5z" />
    <glyph glyph-name="M" unicode="M" horiz-adv-x="782" 
d="M322.5 -3q-11.5 8 -12.5 21l-72 477l-134 -496h-104l182 646l-4 9q-2 8 -2 11q0 20 16.5 36.5t45.5 16.5q31 0 44 -13t17 -41l76 -508l257 508q14 28 31.5 41t49.5 13q24 0 35 -11t11 -27q0 -15 -8 -26l-7 -9l-46 -646h-102l42 497l-222 -443l1 -10q1 -25 -18.5 -39.5
t-47.5 -14.5q-17 0 -28.5 8z" />
    <glyph glyph-name="N" unicode="N" horiz-adv-x="618" 
d="M131 612q1 3 1 9q0 11 -7.5 22t-7.5 17t4 14q9 19 27.5 31.5t38.5 12.5q29 0 40 -25l226 -508l90 515h102l-123 -700h-87l-222 498l-88 -498h-102z" />
    <glyph glyph-name="O" unicode="O" horiz-adv-x="673" 
d="M117 60.5q-62 70.5 -62 191.5q0 134 45 238t127.5 162t191.5 58q113 0 176 -71t63 -191q0 -134 -45.5 -238t-128.5 -162t-192 -58q-113 0 -175 70.5zM435 122q56 47 87 131t31 190q0 87 -36 134.5t-113 47.5q-71 0 -126.5 -47.5t-86.5 -131t-31 -189.5q0 -182 147 -182
q72 0 128 47z" />
    <glyph glyph-name="P" unicode="P" horiz-adv-x="594" 
d="M132 608q1 4 1 11q0 13 -8 24.5t-8 18.5q0 2 2 10q7 18 25 32t37 14q20 0 36 -18h139q113 0 176.5 -51t63.5 -137q0 -81 -38 -142.5t-108 -94.5t-165 -33h-115l-43 -242h-102zM294 329q92 0 144 46.5t52 127.5q0 109 -147 109h-108l-50 -283h109z" />
    <glyph glyph-name="Q" unicode="Q" horiz-adv-x="673" 
d="M625 242.5q-33 -92.5 -94 -154.5t-144 -85l101 -166h-123l-87 153q-106 4 -164.5 74.5t-58.5 187.5q0 134 45 238t127.5 162t191.5 58q113 0 176 -71t63 -191q0 -113 -33 -205.5zM435 122q56 47 87 131t31 190q0 87 -36 134.5t-113 47.5q-71 0 -126.5 -47.5t-86.5 -131
t-31 -189.5q0 -182 147 -182q72 0 128 47z" />
    <glyph glyph-name="R" unicode="R" horiz-adv-x="592" 
d="M133 608q1 4 1 10q0 13 -8.5 23.5t-8.5 17.5q0 5 3 12q7 18 24.5 32.5t37.5 14.5t36 -18h139q114 0 177 -48t63 -131q0 -102 -63.5 -166t-172.5 -75l133 -280h-116l-130 272h-72l-48 -272h-102zM300 359q191 0 191 156q0 51 -36.5 74t-110.5 23h-108l-45 -253h109z" />
    <glyph glyph-name="S" unicode="S" horiz-adv-x="588" 
d="M120.5 19.5q-65.5 29.5 -102.5 79.5l73 64q35 -46 82 -67.5t109 -21.5q71 0 110 30.5t39 86.5q0 24 -13 42t-44 35t-89 39q-91 36 -134 82.5t-43 106.5q0 65 33 113.5t93 74.5t140 26q67 0 123.5 -21t94.5 -57l-66 -70q-34 33 -71.5 48t-92.5 15q-71 0 -110 -31t-39 -87
q0 -38 32 -63t113 -57q94 -38 136.5 -80.5t42.5 -103.5q0 -100 -71.5 -156.5t-195.5 -56.5q-84 0 -149.5 29.5z" />
    <glyph glyph-name="T" unicode="T" horiz-adv-x="572" 
d="M302 612h-200l15 88h502l-15 -88h-200l-108 -612h-102z" />
    <glyph glyph-name="U" unicode="U" horiz-adv-x="636" 
d="M110.5 47q-62.5 57 -62.5 151q0 22 5 52l79 450h102l-80 -456q-4 -23 -4 -47q0 -122 140 -122q79 0 130 43t66 126l80 456h102l-79 -450q-23 -128 -100.5 -194t-208.5 -66q-107 0 -169.5 57z" />
    <glyph glyph-name="V" unicode="V" horiz-adv-x="674" 
d="M238 27q0 12 11 28l-125 645h101l96 -540l285 540h108l-363 -668q-12 -20 -28.5 -31t-35.5 -11q-14 0 -27 7q-22 12 -22 30z" />
    <glyph glyph-name="W" unicode="W" horiz-adv-x="836" 
d="M124 8q-8 9 -8 20q0 9 7 23l6 10l-5 639h102l-6 -508l231 488q13 30 50 30q27 0 41 -8.5t14 -23.5q0 -8 -4 -16l-5 -10l53 -460l173 508h103l-229 -639l3 -10q1 -3 1 -10q0 -15 -11 -27.5t-33 -18.5q-18 -5 -29 -5q-21 0 -31 13t-13 41l-58 498l-236 -498
q-14 -28 -29 -41t-36 -13q-11 0 -28 5q-15 4 -23 13z" />
    <glyph glyph-name="X" unicode="X" horiz-adv-x="679" 
d="M307 375l-162 325h111l118 -247l206 247h117l-275 -325l174 -375h-110l-132 298l-236 -298h-117z" />
    <glyph glyph-name="Y" unicode="Y" horiz-adv-x="642" 
d="M278 270l-154 430h106l110 -337l228 337h114l-306 -430l-47 -270h-98z" />
    <glyph glyph-name="Z" unicode="Z" horiz-adv-x="625" 
d="M51 -12q-18 0 -40 32q-5 7 -5 12q0 7 5 14t16 19l476 547h-369l15 88h428l9 8q13 11 29 11q17 0 29 -12q16 -16 16 -31q0 -16 -22 -41l-477 -547h396l-15 -88h-465l-12 -7q-7 -5 -14 -5z" />
    <glyph glyph-name="bracketleft" unicode="[" horiz-adv-x="265" 
d="M143 746h187l-14 -82h-85l-126 -716h85l-15 -82h-187z" />
    <glyph glyph-name="backslash" unicode="\" horiz-adv-x="460" 
d="M126 710h101l148 -721h-102z" />
    <glyph glyph-name="bracketright" unicode="]" horiz-adv-x="265" 
d="M-26 -52h85l127 716h-85l14 82h187l-155 -880h-187z" />
    <glyph glyph-name="asciicircum" unicode="^" horiz-adv-x="461" 
d="M270 699q10 14 21 19.5t29 5.5q19 0 31 -8.5t12 -21.5q0 -10 -7 -20l-3 -5l102 -234h-103l-58 171l-110 -171h-107z" />
    <glyph glyph-name="underscore" unicode="_" horiz-adv-x="573" 
d="M-9 -50h490l-14 -82h-490z" />
    <glyph glyph-name="grave" unicode="`" horiz-adv-x="284" 
d="M127 724h113l53 -182h-83z" />
    <glyph glyph-name="a" unicode="a" horiz-adv-x="573" 
d="M84.5 41.5q-47.5 51.5 -47.5 135.5q0 88 36 161t98.5 115t138.5 42q91 0 134 -74l11 64h97l-63 -356q-5 -25 -5 -52q0 -33 10 -54l-87 -33q-17 23 -17 61q0 13 1 20l-3 1q-36 -40 -81 -61t-95 -21q-80 0 -127.5 51.5zM353.5 115q43.5 43 54.5 110l6 34q3 17 3 33
q0 52 -28 86.5t-83 34.5q-47 0 -85 -29.5t-60 -81t-22 -114.5q0 -55 26.5 -85.5t77.5 -30.5q67 0 110.5 43z" />
    <glyph glyph-name="b" unicode="b" horiz-adv-x="577" 
d="M4 22q17 22 27 46t17 61l106 605h100l-55 -311q33 32 77 52t91 20q85 0 130 -49.5t45 -136.5q0 -89 -35 -162t-96.5 -115t-135.5 -42q-51 0 -89 21.5t-59 60.5q-5 -25 -17 -47t-28 -36zM359.5 101.5q37.5 29.5 59 81t21.5 115.5q0 115 -107 115q-42 0 -77 -22
t-57.5 -57.5t-29.5 -74.5l-6 -34q-3 -16 -3 -33q0 -53 29.5 -86.5t86.5 -33.5q46 0 83.5 29.5z" />
    <glyph glyph-name="c" unicode="c" horiz-adv-x="521" 
d="M95.5 42.5q-57.5 52.5 -57.5 143.5q0 89 38 159.5t106.5 110t155.5 39.5q51 0 94.5 -16.5t67.5 -45.5l-48 -69q-20 22 -52.5 35t-71.5 13q-55 0 -97.5 -27t-66 -76t-23.5 -112q0 -61 34 -92.5t99 -31.5q34 0 68.5 12t62.5 36l45 -58q-37 -34 -89.5 -53.5t-105.5 -19.5
q-102 0 -159.5 52.5z" />
    <glyph glyph-name="d" unicode="d" horiz-adv-x="577" 
d="M392 53q0 12 1 19q-74 -82 -176 -82q-84 0 -131.5 51t-47.5 137q0 92 36 164t98.5 112.5t139.5 40.5q88 0 133 -72l54 311h100l-106 -605q-5 -35 -5 -54q0 -30 10 -53l-89 -33q-17 23 -17 64zM355.5 115.5q44.5 43.5 55.5 109.5l5 34q3 17 3 33q0 52 -28 86.5t-82 34.5
q-48 0 -86.5 -29.5t-60.5 -81t-22 -115.5q0 -54 25.5 -84.5t79.5 -30.5q66 0 110.5 43.5z" />
    <glyph glyph-name="e" unicode="e" horiz-adv-x="549" 
d="M95 42q-56 52 -56 140q0 92 35 163t98.5 110.5t145.5 39.5q65 0 109.5 -26.5t66 -70t21.5 -93.5q0 -62 -21 -83.5t-58 -21.5h-298q-2 -9 -2 -26q0 -46 32.5 -73.5t90.5 -27.5q87 0 148 51l42 -56q-39 -37 -91 -57.5t-112 -20.5q-95 0 -151 52zM415 280q2 9 2 28
q0 47 -29 76t-82 29q-61 0 -102.5 -39.5t-51.5 -93.5h263z" />
    <glyph glyph-name="f" unicode="f" horiz-adv-x="406" 
d="M147 403h-85l35 82h65l17 97q13 72 63.5 113t126.5 41q23 0 48 -6t42 -16l-31 -75q-13 6 -31 10t-34 4q-72 0 -85 -72l-16 -96h142l-36 -82h-121l-71 -403h-100z" />
    <glyph glyph-name="g" unicode="g" horiz-adv-x="575" 
d="M24 -181l43 75q53 -29 125 -29q86 0 126.5 43t54.5 122l7 42q-31 -34 -72.5 -53t-88.5 -19q-84 0 -132 50.5t-48 136.5q0 89 33.5 159t93.5 110t136 40q100 0 149 -82q6 26 18.5 47.5t27.5 35.5l77 -32q-17 -23 -26.5 -47.5t-16.5 -61.5l-58 -324q-22 -124 -96.5 -187
t-199.5 -63q-84 0 -153 37zM354.5 128q43.5 46 55.5 108l5 25q3 18 3 36q0 52 -29.5 85t-84.5 33q-47 0 -84.5 -28t-58.5 -78t-21 -113q0 -114 108 -114q63 0 106.5 46z" />
    <glyph glyph-name="h" unicode="h" horiz-adv-x="544" 
d="M354 67q0 18 5 48l32 180q4 28 4 38q0 79 -83 79q-56 0 -99 -44.5t-55 -108.5l-46 -259h-100l129 734h100l-55 -313q33 35 76 54.5t89 19.5q73 0 109 -37t36 -106q0 -32 -5 -58l-32 -178q-3 -18 -3 -36q0 -32 9 -55l-96 -35q-15 40 -15 77z" />
    <glyph glyph-name="i" unicode="i" horiz-adv-x="256" 
d="M143.5 589q-16.5 16 -16.5 41q0 32 25 56t59 24q27 0 44 -15.5t17 -40.5q0 -32 -25.5 -56.5t-59.5 -24.5q-27 0 -43.5 16zM122 485h100l-86 -485h-100z" />
    <glyph glyph-name="j" unicode="j" horiz-adv-x="430" 
d="M317.5 589q-16.5 16 -16.5 41q0 32 25 56t59 24q27 0 44 -15.5t17 -40.5q0 -32 -25.5 -56.5t-59.5 -24.5q-27 0 -43.5 16zM19 -205.5q-38 13.5 -59 34.5l50 68q42 -34 96 -34q42 0 65 24t33 81l91 517h100l-91 -513q-17 -98 -67 -144.5t-140 -46.5q-40 0 -78 13.5z" />
    <glyph glyph-name="k" unicode="k" horiz-adv-x="496" 
d="M143 734h100l-71 -409l194 160h126l-279 -229l222 -256h-130l-158 190l-33 -190h-100z" />
    <glyph glyph-name="l" unicode="l" horiz-adv-x="210" 
d="M143 734h100l-129 -734h-100z" />
    <glyph glyph-name="m" unicode="m" horiz-adv-x="796" 
d="M606 68q0 24 4 47l33 182q5 28 5 46q0 34 -16 51.5t-52 17.5q-48 0 -79.5 -33t-40.5 -87l-52 -292h-98l52 297q4 21 4 42q0 73 -66 73q-52 0 -85 -39t-45 -104l-47 -269h-100l63 358q5 32 5 50q0 28 -9 53l92 35q15 -43 12 -82q26 39 66 60t81 21q46 0 73 -22.5t36 -62.5
q70 85 170 85q68 0 103.5 -35.5t35.5 -97.5q0 -24 -4 -44l-36 -202q-3 -18 -3 -36q0 -32 9 -55l-97 -35q-14 39 -14 78z" />
    <glyph glyph-name="n" unicode="n" horiz-adv-x="554" 
d="M364 67q0 20 5 48l32 180q4 20 4 41q0 39 -20.5 57.5t-61.5 18.5q-57 0 -100 -44.5t-54 -108.5l-46 -259h-100l63 358q5 28 5 48q0 28 -9 55l95 34q11 -29 11 -66q0 -11 -1 -17q34 38 81.5 60.5t95.5 22.5q71 0 107 -36.5t36 -104.5q0 -28 -6 -60l-32 -178q-3 -18 -3 -35
q0 -35 10 -56l-97 -35q-15 38 -15 77z" />
    <glyph glyph-name="o" unicode="o" horiz-adv-x="555" 
d="M92 43q-53 53 -53 140q0 91 35.5 162t100 110.5t149.5 39.5q89 0 142 -53t53 -141q0 -91 -35 -161.5t-99.5 -110t-149.5 -39.5q-90 0 -143 53zM336 100.5q38 27.5 59 77.5t21 115q0 57 -28.5 88t-78.5 31q-49 0 -87 -27.5t-59 -77.5t-21 -115q0 -59 28 -89t79 -30
q49 0 87 27.5z" />
    <glyph glyph-name="p" unicode="p" horiz-adv-x="577" 
d="M88 356q6 32 6 53q0 29 -12 56l89 32q18 -23 18 -62q0 -14 -1 -21q36 39 81.5 60.5t96.5 21.5q80 0 128 -50.5t48 -136.5q0 -91 -34 -163.5t-95.5 -113.5t-141.5 -41q-47 0 -81.5 19.5t-53.5 52.5l-50 -282h-100zM358.5 101q38.5 28 60 78.5t21.5 115.5q0 56 -25 88
t-79 32q-65 0 -110.5 -44t-56.5 -110l-6 -34q-2 -10 -2 -31q0 -53 27.5 -88t82.5 -35q49 0 87.5 28z" />
    <glyph glyph-name="q" unicode="q" horiz-adv-x="578" 
d="M347 -151q0 19 5 46l30 168q-33 -34 -74 -53t-87 -19q-85 0 -134 50.5t-49 137.5q0 89 34.5 161.5t95 114t135.5 41.5q51 0 89 -21.5t60 -60.5q14 54 46 83l77 -32q-16 -22 -25 -46t-16 -63l-82 -461q-4 -26 -4 -36q0 -31 12 -56l-95 -35q-18 37 -18 81zM326.5 95
q34.5 22 56.5 57t29 75l5 34q3 18 3 34q0 53 -29.5 86.5t-85.5 33.5q-47 0 -84.5 -29t-59 -80t-21.5 -115q0 -55 26.5 -86.5t82.5 -31.5q43 0 77.5 22z" />
    <glyph glyph-name="r" unicode="r" horiz-adv-x="403" 
d="M86 358q5 28 5 48q0 28 -9 55l95 34q11 -29 11 -66q0 -11 -1 -17q33 41 67.5 62t76.5 21q25 0 44.5 -6.5t39.5 -21.5l-51 -71q-25 16 -56 16q-56 0 -91 -40t-48 -108l-46 -264h-100z" />
    <glyph glyph-name="s" unicode="s" horiz-adv-x="493" 
d="M102 12.5q-54 22.5 -88 63.5l70 63q24 -33 65 -50.5t88 -17.5q46 0 70.5 16.5t24.5 48.5q0 19 -20.5 33.5t-80.5 35.5q-78 27 -113.5 59t-35.5 78q0 72 56.5 112.5t153.5 40.5q51 0 93.5 -15t72.5 -40l-48 -68q-33 23 -64 32.5t-68 9.5q-44 0 -69.5 -16.5t-25.5 -45.5
q0 -21 21 -33.5t82 -35.5q80 -29 113.5 -59t33.5 -76q0 -74 -56 -116t-153 -42q-68 0 -122 22.5z" />
    <glyph glyph-name="t" unicode="t" horiz-adv-x="379" 
d="M125.5 17.5q-28.5 26.5 -28.5 76.5q0 17 3 36l48 273h-86l35 82h67l20 116l105 44l-29 -160h127l-34 -82h-105l-48 -275q-2 -16 -2 -22q0 -19 9.5 -26.5t30.5 -7.5q31 0 55 11l11 -73q-16 -8 -44 -13.5t-53 -5.5q-53 0 -81.5 26.5z" />
    <glyph glyph-name="u" unicode="u" horiz-adv-x="540" 
d="M79.5 32.5q-41.5 42.5 -41.5 112.5q0 24 4 44l53 296h100l-52 -295q-4 -19 -4 -37q0 -40 22 -60t69 -20q56 0 94.5 41t48.5 102l48 269h100l-64 -358q-5 -30 -5 -48q0 -28 9 -55l-95 -34q-13 37 -10 83q-31 -40 -73 -61.5t-92 -21.5q-70 0 -111.5 42.5z" />
    <glyph glyph-name="v" unicode="v" horiz-adv-x="552" 
d="M192 -1.5q-12 8.5 -12 22.5q0 11 5 18l3 7l-102 439h103l68 -350l191 350h106l-270 -465q-9 -16 -22.5 -23t-37.5 -7q-20 0 -32 8.5z" />
    <glyph glyph-name="w" unicode="w" horiz-adv-x="715" 
d="M138.5 -1.5q-10.5 8.5 -10.5 23.5q0 8 3 17l4 9l-49 437h104l19 -338l153 324q5 12 16.5 18t33.5 6q45 0 45 -27q0 -9 -5 -21l-8 -22l32 -278l138 338h104l-199 -437v-9q0 -22 -15 -35.5t-41 -13.5q-25 0 -36 8.5t-13 26.5l-36 315l-146 -315q-9 -18 -22.5 -26.5
t-38.5 -8.5q-22 0 -32.5 8.5z" />
    <glyph glyph-name="x" unicode="x" horiz-adv-x="525" 
d="M201 251l-114 234h110l77 -173l139 173h115l-198 -234l112 -251h-113l-72 186l-140 -186h-116z" />
    <glyph glyph-name="y" unicode="y" horiz-adv-x="575" 
d="M11 -148q71 24 118.5 67t75.5 113l-119 453h113l75 -347l187 347h116l-285 -494q-51 -88 -111.5 -139t-154.5 -82z" />
    <glyph glyph-name="z" unicode="z" horiz-adv-x="534" 
d="M51 -10q-12 0 -23 9.5t-18 29.5q-2 8 -2 11q0 18 24 33q11 6 20 15l329 315h-284l14 82h331q21 0 29 6q8 4 15 4q22 0 36 -22q8 -13 8 -22q0 -15 -18 -33l-353 -336h303l-14 -82h-351q-19 0 -32 -7q-6 -3 -14 -3z" />
    <glyph glyph-name="braceleft" unicode="{" horiz-adv-x="348" 
d="M87 -113q-23 21 -23 57q0 7 2 21l44 251q2 12 2 17q0 32 -31 32h-34l15 82h33q39 0 47 49l44 251q8 44 41 71.5t81 27.5h89l-15 -82h-64q-28 0 -32 -31l-40 -227q-7 -38 -20.5 -61t-45.5 -39q35 -22 35 -64q0 -10 -4 -36l-40 -227q-1 -4 -1 -10q0 -21 22 -21h64l-14 -82
h-89q-43 0 -66 21z" />
    <glyph glyph-name="bar" unicode="|" horiz-adv-x="209" 
d="M153 800h102l-166 -940h-102z" />
    <glyph glyph-name="braceright" unicode="}" horiz-adv-x="348" 
d="M-9 -52h65q28 0 32 31l40 227q7 38 20.5 61t45.5 39q-19 12 -27 27.5t-8 35.5q0 11 4 37l40 227q1 4 1 10q0 21 -22 21h-65l15 82h89q42 0 65.5 -21.5t23.5 -57.5q0 -6 -2 -20l-45 -251q-2 -12 -2 -15q0 -34 32 -34h34l-15 -82h-34q-37 0 -46 -49l-45 -251
q-8 -45 -40.5 -72t-80.5 -27h-89z" />
    <glyph glyph-name="asciitilde" unicode="~" horiz-adv-x="594" 
d="M42 236q32 46 74.5 70t89.5 24q25 0 47 -7.5t57 -23.5q31 -14 52.5 -21.5t43.5 -7.5q35 0 60 15.5t45 46.5l49 -54q-30 -47 -71.5 -71.5t-89.5 -24.5q-25 0 -48.5 8t-58.5 23q-34 14 -55 21t-42 7q-59 0 -103 -65z" />
    <glyph glyph-name="uni00A0" unicode="&#xa0;" horiz-adv-x="258" 
 />
    <glyph glyph-name="exclamdown" unicode="&#xa1;" horiz-adv-x="248" 
d="M99 345.5q-16 14.5 -16 38.5q0 33 23.5 56.5t57.5 23.5q27 0 43 -15t16 -38q0 -33 -24 -56.5t-58 -23.5q-26 0 -42 14.5zM86 262h85l-80 -498h-102z" />
    <glyph glyph-name="cent" unicode="&#xa2;" horiz-adv-x="521" 
d="M407.5 395.5q-26.5 12.5 -58.5 15.5l-60 -337q69 5 116 47l45 -58q-33 -31 -80 -50t-95 -22l-16 -89h-52l16 89q-88 9 -136.5 60.5t-48.5 134.5q0 85 34.5 152.5t96.5 108.5t142 47l17 94h52l-17 -94q43 -4 79.5 -20t57.5 -41l-48 -69q-18 19 -44.5 31.5zM166 115
q25 -31 72 -39l59 334q-71 -11 -113.5 -69t-42.5 -144q0 -51 25 -82z" />
    <glyph glyph-name="sterling" unicode="&#xa3;" horiz-adv-x="574" 
d="M18 73q48 14 90.5 52t68 88t26.5 97h-148l34 82h101q-19 41 -19 89q0 64 32.5 116.5t91.5 82.5t134 30q57 0 103 -21t70 -57l-50 -69q-22 29 -56.5 45.5t-81.5 16.5q-66 0 -102.5 -38.5t-36.5 -107.5q0 -46 21 -87h171l-36 -82h-126q-5 -61 -39 -122t-92 -106h328
l-14 -82h-483z" />
    <glyph glyph-name="currency" unicode="&#xa4;" horiz-adv-x="613" 
d="M20 121l100 87q-29 37 -29 93q0 42 17.5 84t47.5 72l-67 86l74 62l71 -92q62 30 126 30t115 -30l103 92l54 -62l-99 -86q24 -36 24 -83q0 -46 -20 -90.5t-55 -75.5l69 -87l-75 -62l-74 96q-58 -25 -115 -25q-58 0 -106 25l-108 -96zM416 254.5q44 42.5 44 110.5
q0 46 -29.5 71t-84.5 25q-71 0 -115.5 -42t-44.5 -110q0 -46 30.5 -71.5t85.5 -25.5q70 0 114 42.5z" />
    <glyph glyph-name="yen" unicode="&#xa5;" horiz-adv-x="642" 
d="M376 270h160l-8 -46h-160l-12 -67h160l-8 -46h-160l-19 -111h-98l19 111h-155l8 46h155l12 67h-155l8 46h155l-154 430h106l110 -337l228 337h114z" />
    <glyph glyph-name="brokenbar" unicode="&#xa6;" horiz-adv-x="209" 
d="M153 800h102l-70 -394h-102zM56 254h102l-69 -394h-102z" />
    <glyph glyph-name="section" unicode="&#xa7;" horiz-adv-x="499" 
d="M89.5 -38q-51.5 21 -82.5 58l65 63q24 -28 61.5 -44t84.5 -16t76 23t29 60q0 25 -23 43t-86 41q-77 29 -111.5 60.5t-34.5 77.5q0 43 23.5 81.5t62.5 64.5q-16 14 -24.5 34.5t-8.5 44.5q0 77 58.5 123t155.5 46q52 0 94.5 -14t72.5 -40l-48 -67q-62 40 -134 40
q-44 0 -71 -21t-27 -55q0 -25 22.5 -39.5t85.5 -36.5q77 -27 111 -57.5t34 -76.5q0 -45 -22.5 -84.5t-60.5 -68.5q15 -14 23.5 -36.5t8.5 -47.5q0 -80 -59.5 -128.5t-160.5 -48.5q-63 0 -114.5 21zM361.5 286q12.5 24 12.5 45t-16 38t-53 32l-25 10q-31 12 -56 24
q-26 -16 -41 -39t-15 -49q0 -20 14.5 -35t50.5 -31l45 -19l49 -21q22 21 34.5 45z" />
    <glyph glyph-name="dieresis" unicode="&#xa8;" horiz-adv-x="402" 
d="M117.5 575.5q-14.5 14.5 -14.5 36.5q0 29 22.5 51t52.5 22q24 0 38.5 -14.5t14.5 -36.5q0 -29 -22.5 -51t-52.5 -22q-24 0 -38.5 14.5zM321 575.5q-15 14.5 -15 36.5q0 29 23 51t53 22q24 0 38 -14t14 -36q0 -30 -22.5 -52t-51.5 -22q-24 0 -39 14.5z" />
    <glyph glyph-name="copyright" unicode="&#xa9;" horiz-adv-x="847" 
d="M210 25.5q-73 36.5 -113 103t-40 154.5q0 120 59.5 217.5t162.5 153.5t228 56q96 0 169.5 -37t113.5 -103.5t40 -154.5q0 -119 -59 -216.5t-162 -153.5t-229 -56q-97 0 -170 36.5zM568 117.5q77 43.5 121 120t44 171.5q0 104 -64 160t-177 56q-96 0 -173 -44t-121 -120.5
t-44 -171.5q0 -104 64.5 -159.5t176.5 -55.5q96 0 173 43.5zM274 175.5q-53 48.5 -53 128.5q0 76 34.5 136.5t95.5 95t137 34.5q46 0 88 -16.5t68 -47.5l-52 -63q-19 22 -50 34.5t-65 12.5q-45 0 -80.5 -23t-55.5 -63.5t-20 -90.5q0 -52 29.5 -79t86.5 -27q67 0 119 45
l45 -55q-41 -34 -90 -52t-97 -18q-87 0 -140 48.5z" />
    <glyph glyph-name="ordfeminine" unicode="&#xaa;" horiz-adv-x="424" 
d="M126.5 418.5q-32.5 34.5 -32.5 92.5q0 59 23.5 106t65.5 74t96 27q31 0 53.5 -12t34.5 -33l7 39h78l-43 -240q-3 -21 -3 -36q0 -18 6 -32l-72 -20q-10 19 -9 51h-1q-22 -25 -52 -38t-63 -13q-56 0 -88.5 34.5zM308.5 470q28.5 24 35.5 69l4 23q2 14 2 22q0 32 -17.5 51.5
t-52.5 19.5q-45 0 -74.5 -39.5t-29.5 -99.5q0 -70 65 -70q39 0 67.5 24z" />
    <glyph glyph-name="guillemotleft" unicode="&#xab;" horiz-adv-x="477" 
d="M49 238q-3 6 -3 14q0 17 11 30l163 194h99l-177 -216l101 -217h-100zM207 238q-3 6 -3 14q0 17 11 30l163 194h99l-177 -216l101 -217h-100z" />
    <glyph glyph-name="logicalnot" unicode="&#xac;" horiz-adv-x="471" 
d="M329 244h-286l15 82h387l-37 -215h-102z" />
    <glyph glyph-name="uni00AD" unicode="&#xad;" horiz-adv-x="503" 
d="M58 326h420l-15 -82h-420z" />
    <glyph glyph-name="registered" unicode="&#xae;" horiz-adv-x="847" 
d="M210 25.5q-73 36.5 -113 103t-40 154.5q0 120 59.5 217.5t162.5 153.5t228 56q96 0 169.5 -37t113.5 -103.5t40 -154.5q0 -119 -59 -216.5t-162 -153.5t-229 -56q-97 0 -170 36.5zM568 117.5q77 43.5 121 120t44 171.5q0 104 -64 160t-177 56q-96 0 -173 -44t-121 -120.5
t-44 -171.5q0 -104 64.5 -159.5t176.5 -55.5q96 0 173 43.5zM320 493q2 10 -5 20t-7 16t4 13q18 35 52 35q8 0 15 -4t10 -10h108q67 0 105.5 -29.5t38.5 -80.5q0 -62 -36.5 -103.5t-108.5 -54.5l79 -154h-97l-68 144h-41l-25 -144h-86zM449 352q50 0 77 23t27 67
q0 29 -19.5 41t-55.5 12h-72l-25 -143h68z" />
    <glyph glyph-name="macron" unicode="&#xaf;" horiz-adv-x="406" 
d="M112 634h320l-14 -78h-320z" />
    <glyph glyph-name="degree" unicode="&#xb0;" horiz-adv-x="346" 
d="M130.5 507q-32.5 28 -32.5 74q0 42 21 76t58 53.5t83 19.5q53 0 85.5 -28.5t32.5 -74.5q0 -64 -45.5 -106t-116.5 -42q-53 0 -85.5 28zM277.5 566.5q19.5 19.5 19.5 50.5q0 20 -13.5 33t-35.5 13q-30 0 -49.5 -20t-19.5 -51q0 -20 13.5 -32.5t35.5 -12.5q30 0 49.5 19.5z
" />
    <glyph glyph-name="plusminus" unicode="&#xb1;" horiz-adv-x="536" 
d="M501 351l-15 -82h-163l-26 -147h-102l26 147h-163l15 82h163l26 146h102l-26 -146h163zM25 82h428l-14 -82h-428z" />
    <glyph glyph-name="uni00B2" unicode="&#xb2;" horiz-adv-x="486" 
d="M87 417q-9 4 -9 18q0 8 3 20q6 24 15 31t26 8q26 36 61 61.5t92 58.5q49 28 76 47t45 46t18 63q0 62 -66 62q-49 0 -78 -25.5t-45 -88.5l-90 9q18 84 79 133.5t146 49.5q73 0 112 -34t39 -94q0 -52 -22.5 -89.5t-54 -61t-85.5 -55.5q-41 -23 -66.5 -41t-42.5 -39h147
l29 45l77 -29l-60 -99h-316q-21 0 -30 4z" />
    <glyph glyph-name="uni00B3" unicode="&#xb3;" horiz-adv-x="505" 
d="M156 440q-49 37 -59 110l92 29q8 -98 112 -98q59 0 93 30t34 82q0 29 -16.5 44t-46.5 15q-18 0 -30 -4l-11 -12q-14 -16 -29 -16t-34 15q-11 9 -11 18q0 12 16 31l116 140h-112l-31 -60l-65 46l46 90h294q18 0 27 -3.5t9 -14.5t-8 -26q-9 -19 -19.5 -25.5t-29.5 -6.5h-14
l-89 -104q11 4 36 4q44 0 72 -29.5t28 -83.5q0 -61 -30 -108.5t-84 -73.5t-124 -26q-83 0 -132 37z" />
    <glyph glyph-name="acute" unicode="&#xb4;" horiz-adv-x="284" 
d="M213 724h113l-148 -182h-82z" />
    <glyph glyph-name="paragraph" unicode="&#xb6;" horiz-adv-x="655" 
d="M294 298q-103 1 -156 41.5t-53 115.5q0 71 34.5 127t96.5 87t140 31h339l-15 -82h-52l-141 -798h-102l141 798h-74l-140 -798h-102z" />
    <glyph glyph-name="periodcentered" unicode="&#xb7;" horiz-adv-x="211" 
d="M74.5 292.5q-15.5 14.5 -15.5 36.5q0 29 23.5 51t53.5 22q24 0 38 -14.5t14 -36.5q0 -29 -22 -51t-52 -22q-24 0 -39.5 14.5z" />
    <glyph glyph-name="cedilla" unicode="&#xb8;" horiz-adv-x="316" 
d="M-33 -185l35 51q30 -24 65 -24q21 0 33 11.5t12 30.5q0 26 -35 26q-5 0 -21 -2l-17 24l59 74h76l-45 -55q64 -10 64 -63q0 -48 -36 -78t-93 -30q-54 0 -97 35z" />
    <glyph glyph-name="uni00B9" unicode="&#xb9;" horiz-adv-x="305" 
d="M244 760l-68 -50l-43 63l167 120q25 19 42 19t26 -18q8 -16 8 -24q0 -9 -12 -19l-11 -9l-75 -430h-96z" />
    <glyph glyph-name="ordmasculine" unicode="&#xba;" horiz-adv-x="415" 
d="M133.5 420.5q-38.5 36.5 -38.5 95.5q0 92 54 147t144 55q62 0 100.5 -36.5t38.5 -95.5q0 -91 -54.5 -146.5t-143.5 -55.5q-62 0 -100.5 36.5zM320.5 484q28.5 37 28.5 100q0 33 -18 52t-49 19q-48 0 -76.5 -37.5t-28.5 -98.5q0 -33 18.5 -52.5t49.5 -19.5q47 0 75.5 37z
" />
    <glyph glyph-name="guillemotright" unicode="&#xbb;" horiz-adv-x="477" 
d="M185 260l-101 216h100l94 -194q3 -7 3 -15q0 -15 -11 -29l-163 -195h-99zM344 260l-101 216h100l94 -194q3 -7 3 -15q0 -14 -11 -29l-163 -195h-99z" />
    <glyph glyph-name="onequarter" unicode="&#xbc;" horiz-adv-x="853" 
d="M217 586l-68 -50l-43 62l166 120q27 19 43 19q15 0 26 -18q7 -13 7 -22q0 -12 -12 -21l-10 -9l-76 -429h-95zM605 710h103l-471 -720h-103zM629 98h-207q-17 0 -27 8.5t-10 21.5q0 17 17 34l322 316q20 18 39 18q13 0 24 -9q16 -15 16 -29q0 -13 -11 -24l-10 -11
l-44 -249h62l-13 -76h-62l-18 -98h-95zM647 174l28 157l-159 -157h131z" />
    <glyph glyph-name="onehalf" unicode="&#xbd;" horiz-adv-x="933" 
d="M217 586l-68 -50l-43 62l166 120q27 19 43 19q15 0 26 -18q7 -13 7 -22q0 -12 -12 -21l-10 -9l-76 -429h-95zM605 710h103l-471 -720h-103zM460.5 4.5q-9.5 4.5 -9.5 16.5q0 5 4 21q6 24 15 31t26 7q26 37 62 63t91 57q48 28 75 47.5t45 46.5t18 63q0 62 -66 62
q-49 0 -77.5 -25.5t-43.5 -88.5l-90 8q18 84 78.5 134t145.5 50q73 0 112 -34t39 -94q0 -52 -22.5 -89.5t-54 -61.5t-84.5 -55q-45 -27 -68.5 -43t-40.5 -38h146l28 45l78 -28l-60 -99h-316q-21 0 -30.5 4.5z" />
    <glyph glyph-name="threequarters" unicode="&#xbe;" horiz-adv-x="1009" 
d="M761 710h103l-471 -720h-103zM122.5 248q-49.5 37 -59.5 110l93 29q8 -98 112 -98q59 0 93 30t34 82q0 29 -17 44t-47 15q-17 0 -29 -4l-12 -12q-14 -16 -29 -16q-14 0 -34 15q-11 9 -11 18q0 12 16 31l116 140h-111l-32 -60l-65 46l46 90h295q18 0 26.5 -4t8.5 -15
q0 -10 -7 -25q-9 -19 -20 -25.5t-30 -6.5h-14l-88 -104q10 4 36 4q44 0 71.5 -29.5t27.5 -83.5q0 -61 -30 -108.5t-84 -73.5t-124 -26q-82 0 -131.5 37zM785 98h-207q-17 0 -27 8.5t-10 21.5q0 17 17 34l321 316q20 18 39 18q12 0 24 -9q18 -16 18 -29q0 -11 -13 -24
l-10 -11l-43 -249h62l-13 -76h-63l-17 -98h-96zM803 174l28 157l-159 -157h131z" />
    <glyph glyph-name="questiondown" unicode="&#xbf;" horiz-adv-x="518" 
d="M235 341.5q-16 14.5 -16 38.5q0 34 24 57t58 23q27 0 43 -15t16 -38q0 -34 -24 -57t-59 -23q-26 0 -42 14.5zM32 -210.5q-46 39.5 -46 106.5q0 47 16.5 81.5t40.5 58t63 52.5q47 36 71.5 63t31.5 67l8 40h102l-8 -40q-9 -52 -39 -87t-81 -75q-34 -27 -54 -46t-33 -44
t-13 -57q0 -35 22 -54.5t67 -19.5q52 0 91.5 28t69.5 84l77 -41q-39 -74 -107.5 -115t-148.5 -41q-84 0 -130 39.5z" />
    <glyph glyph-name="Agrave" unicode="&#xc0;" horiz-adv-x="679" 
d="M358 668q27 50 73 50q26 0 40 -10.5t14 -27.5q0 -9 -8 -23l123 -657h-104l-32 189h-257l-99 -189h-111zM455 271l-50 306l-158 -306h208zM316 954h113l52 -182h-82z" />
    <glyph glyph-name="Aacute" unicode="&#xc1;" horiz-adv-x="679" 
d="M358 668q27 50 73 50q26 0 40 -10.5t14 -27.5q0 -9 -8 -23l123 -657h-104l-32 189h-257l-99 -189h-111zM455 271l-50 306l-158 -306h208zM514 954h112l-148 -182h-82z" />
    <glyph glyph-name="Acircumflex" unicode="&#xc2;" horiz-adv-x="679" 
d="M358 668q27 50 73 50q26 0 40 -10.5t14 -27.5q0 -9 -8 -23l123 -657h-104l-32 189h-257l-99 -189h-111zM455 271l-50 306l-158 -306h208zM425 929q16 16 26.5 22t26.5 6q20 0 31 -8t11 -20q0 -5 -4 -11l-3 -6l102 -136h-105l-55 92l-83 -92h-103z" />
    <glyph glyph-name="Atilde" unicode="&#xc3;" horiz-adv-x="679" 
d="M358 668q27 50 73 50q26 0 40 -10.5t14 -27.5q0 -9 -8 -23l123 -657h-104l-32 189h-257l-99 -189h-111zM455 271l-50 306l-158 -306h208zM282 813q13 39 45 65t66 26q25 0 43.5 -8.5t38.5 -23.5q14 -10 22.5 -14.5t17.5 -4.5q37 0 53 49l50 -26q-9 -43 -37.5 -68.5
t-66.5 -25.5q-21 0 -36.5 7t-39.5 22q-15 11 -25.5 16t-21.5 5q-38 0 -56 -50z" />
    <glyph glyph-name="Adieresis" unicode="&#xc4;" horiz-adv-x="679" 
d="M358 668q27 50 73 50q26 0 40 -10.5t14 -27.5q0 -9 -8 -23l123 -657h-104l-32 189h-257l-99 -189h-111zM455 271l-50 306l-158 -306h208zM298 793.5q-15 14.5 -15 36.5q0 29 23 51t53 22q24 0 38.5 -14.5t14.5 -36.5q0 -29 -22.5 -51t-52.5 -22q-24 0 -39 14.5z
M508.5 793.5q-15.5 14.5 -15.5 37.5q0 28 23.5 50t54.5 22q23 0 37.5 -14.5t14.5 -36.5q0 -29 -22.5 -51t-51.5 -22q-25 0 -40.5 14.5z" />
    <glyph glyph-name="Aring" unicode="&#xc5;" horiz-adv-x="679" 
d="M358 668q27 50 73 50q26 0 40 -10.5t14 -27.5q0 -9 -8 -23l123 -657h-104l-32 189h-257l-99 -189h-111zM455 271l-50 306l-158 -306h208zM367.5 771q-28.5 22 -28.5 61q0 33 18 61t48.5 44.5t66.5 16.5q40 0 68.5 -21.5t28.5 -61.5q0 -33 -18 -61t-48.5 -44.5
t-66.5 -16.5q-40 0 -68.5 22zM486.5 822q16.5 16 16.5 40q0 17 -11.5 26.5t-29.5 9.5q-24 0 -40.5 -16.5t-16.5 -39.5q0 -17 11.5 -26.5t29.5 -9.5q24 0 40.5 16z" />
    <glyph glyph-name="AE" unicode="&#xc6;" horiz-adv-x="819" 
d="M407 700h443l-15 -88h-290l-36 -203h206l-15 -84h-206l-42 -237h299l-15 -88h-396l33 189h-154l-108 -189h-110zM387 271l58 323l-185 -323h127z" />
    <glyph glyph-name="Ccedilla" unicode="&#xc7;" horiz-adv-x="632" 
d="M559 688q51 -22 80 -61l-54 -72q-27 35 -63.5 52.5t-92.5 17.5q-76 0 -137 -44.5t-95.5 -125t-34.5 -183.5q0 -94 46 -145.5t134 -51.5q97 0 170 67l52 -58q-42 -40 -97 -64t-114 -29l-33 -40q64 -10 64 -63q0 -48 -36 -78t-93 -30q-26 0 -52.5 9t-47.5 26l37 52
q30 -24 65 -24q21 0 33 11t12 29q0 27 -36 27q-6 0 -20 -2l-18 24l49 61q-103 14 -162 86t-59 183q0 130 47.5 232t135.5 159t205 57q64 0 115 -22z" />
    <glyph glyph-name="Egrave" unicode="&#xc8;" horiz-adv-x="533" 
d="M134 598q1 6 1 15q0 11 -3.5 18t-9.5 14.5t-6 12.5t3 9q8 17 26.5 34t35.5 17t30 -18h353l-15 -88h-311l-35 -203h226l-15 -84h-226l-42 -237h320l-16 -88h-421zM249 954h113l52 -182h-82z" />
    <glyph glyph-name="Eacute" unicode="&#xc9;" horiz-adv-x="533" 
d="M134 598q1 6 1 15q0 11 -3.5 18t-9.5 14.5t-6 12.5t3 9q8 17 26.5 34t35.5 17t30 -18h353l-15 -88h-311l-35 -203h226l-15 -84h-226l-42 -237h320l-16 -88h-421zM447 954h112l-148 -182h-82z" />
    <glyph glyph-name="Ecircumflex" unicode="&#xca;" horiz-adv-x="533" 
d="M134 598q1 6 1 15q0 11 -3.5 18t-9.5 14.5t-6 12.5t3 9q8 17 26.5 34t35.5 17t30 -18h353l-15 -88h-311l-35 -203h226l-15 -84h-226l-42 -237h320l-16 -88h-421zM358 929q16 16 26.5 22t26.5 6q20 0 31 -8t11 -20q0 -5 -4 -11l-3 -6l102 -136h-105l-55 92l-83 -92h-103z
" />
    <glyph glyph-name="Edieresis" unicode="&#xcb;" horiz-adv-x="533" 
d="M134 598q1 6 1 15q0 11 -3.5 18t-9.5 14.5t-6 12.5t3 9q8 17 26.5 34t35.5 17t30 -18h353l-15 -88h-311l-35 -203h226l-15 -84h-226l-42 -237h320l-16 -88h-421zM231 793.5q-15 14.5 -15 36.5q0 29 23 51t53 22q24 0 38.5 -14.5t14.5 -36.5q0 -29 -22.5 -51t-52.5 -22
q-24 0 -39 14.5zM441.5 793.5q-15.5 14.5 -15.5 37.5q0 28 23.5 50t54.5 22q23 0 37.5 -14.5t14.5 -36.5q0 -29 -22.5 -51t-51.5 -22q-25 0 -40.5 14.5z" />
    <glyph glyph-name="Igrave" unicode="&#xcc;" horiz-adv-x="293" 
d="M176 700h102l-123 -700h-102zM116 954h113l52 -182h-82z" />
    <glyph glyph-name="Iacute" unicode="&#xcd;" horiz-adv-x="293" 
d="M176 700h102l-123 -700h-102zM314 954h112l-148 -182h-82z" />
    <glyph glyph-name="Icircumflex" unicode="&#xce;" horiz-adv-x="293" 
d="M176 700h102l-123 -700h-102zM225 929q16 16 26.5 22t26.5 6q20 0 31 -8t11 -20q0 -5 -4 -11l-3 -6l102 -136h-105l-55 92l-83 -92h-103z" />
    <glyph glyph-name="Idieresis" unicode="&#xcf;" horiz-adv-x="293" 
d="M176 700h102l-123 -700h-102zM98 793.5q-15 14.5 -15 36.5q0 29 23 51t53 22q24 0 38.5 -14.5t14.5 -36.5q0 -29 -22.5 -51t-52.5 -22q-24 0 -39 14.5zM308.5 793.5q-15.5 14.5 -15.5 37.5q0 28 23.5 50t54.5 22q23 0 37.5 -14.5t14.5 -36.5q0 -29 -22.5 -51t-51.5 -22
q-25 0 -40.5 14.5z" />
    <glyph glyph-name="Eth" unicode="&#xd0;" horiz-adv-x="675" 
d="M528 668.5q63 -31.5 97 -91t34 -140.5q0 -130 -47.5 -229t-135.5 -153.5t-206 -54.5h-209l55 311h-61l14 76h60l37 211q1 6 1 15q0 17 -9 28t-9 16q0 4 3 10q9 18 26.5 34.5t35.5 16.5q16 0 29 -18h138q84 0 147 -31.5zM424 130q63 42 97 118.5t34 178.5q0 94 -44 139.5
t-145 45.5h-96l-40 -225h159l-13 -76h-159l-39 -223h100q83 0 146 42z" />
    <glyph glyph-name="Ntilde" unicode="&#xd1;" horiz-adv-x="618" 
d="M131 612q1 3 1 9q0 11 -7.5 22t-7.5 17t4 14q9 19 27.5 31.5t38.5 12.5q29 0 40 -25l226 -508l90 515h102l-123 -700h-87l-222 498l-88 -498h-102zM256 813q13 39 45 65t66 26q25 0 43.5 -8.5t38.5 -23.5q14 -10 22.5 -14.5t17.5 -4.5q37 0 53 49l50 -26
q-9 -43 -37.5 -68.5t-66.5 -25.5q-21 0 -36.5 7t-39.5 22q-15 11 -25.5 16t-21.5 5q-38 0 -56 -50z" />
    <glyph glyph-name="Ograve" unicode="&#xd2;" horiz-adv-x="673" 
d="M117 60.5q-62 70.5 -62 191.5q0 134 45 238t127.5 162t191.5 58q113 0 176 -71t63 -191q0 -134 -45.5 -238t-128.5 -162t-192 -58q-113 0 -175 70.5zM435 122q56 47 87 131t31 190q0 87 -36 134.5t-113 47.5q-71 0 -126.5 -47.5t-86.5 -131t-31 -189.5q0 -182 147 -182
q72 0 128 47zM306 954h113l52 -182h-82z" />
    <glyph glyph-name="Oacute" unicode="&#xd3;" horiz-adv-x="673" 
d="M117 60.5q-62 70.5 -62 191.5q0 134 45 238t127.5 162t191.5 58q113 0 176 -71t63 -191q0 -134 -45.5 -238t-128.5 -162t-192 -58q-113 0 -175 70.5zM435 122q56 47 87 131t31 190q0 87 -36 134.5t-113 47.5q-71 0 -126.5 -47.5t-86.5 -131t-31 -189.5q0 -182 147 -182
q72 0 128 47zM504 954h112l-148 -182h-82z" />
    <glyph glyph-name="Ocircumflex" unicode="&#xd4;" horiz-adv-x="673" 
d="M117 60.5q-62 70.5 -62 191.5q0 134 45 238t127.5 162t191.5 58q113 0 176 -71t63 -191q0 -134 -45.5 -238t-128.5 -162t-192 -58q-113 0 -175 70.5zM435 122q56 47 87 131t31 190q0 87 -36 134.5t-113 47.5q-71 0 -126.5 -47.5t-86.5 -131t-31 -189.5q0 -182 147 -182
q72 0 128 47zM415 929q16 16 26.5 22t26.5 6q20 0 31 -8t11 -20q0 -5 -4 -11l-3 -6l102 -136h-105l-55 92l-83 -92h-103z" />
    <glyph glyph-name="Otilde" unicode="&#xd5;" horiz-adv-x="673" 
d="M117 60.5q-62 70.5 -62 191.5q0 134 45 238t127.5 162t191.5 58q113 0 176 -71t63 -191q0 -134 -45.5 -238t-128.5 -162t-192 -58q-113 0 -175 70.5zM435 122q56 47 87 131t31 190q0 87 -36 134.5t-113 47.5q-71 0 -126.5 -47.5t-86.5 -131t-31 -189.5q0 -182 147 -182
q72 0 128 47zM272 813q13 39 45 65t66 26q25 0 43.5 -8.5t38.5 -23.5q14 -10 22.5 -14.5t17.5 -4.5q37 0 53 49l50 -26q-9 -43 -37.5 -68.5t-66.5 -25.5q-21 0 -36.5 7t-39.5 22q-15 11 -25.5 16t-21.5 5q-38 0 -56 -50z" />
    <glyph glyph-name="Odieresis" unicode="&#xd6;" horiz-adv-x="673" 
d="M117 60.5q-62 70.5 -62 191.5q0 134 45 238t127.5 162t191.5 58q113 0 176 -71t63 -191q0 -134 -45.5 -238t-128.5 -162t-192 -58q-113 0 -175 70.5zM435 122q56 47 87 131t31 190q0 87 -36 134.5t-113 47.5q-71 0 -126.5 -47.5t-86.5 -131t-31 -189.5q0 -182 147 -182
q72 0 128 47zM288 793.5q-15 14.5 -15 36.5q0 29 23 51t53 22q24 0 38.5 -14.5t14.5 -36.5q0 -29 -22.5 -51t-52.5 -22q-24 0 -39 14.5zM498.5 793.5q-15.5 14.5 -15.5 37.5q0 28 23.5 50t54.5 22q23 0 37.5 -14.5t14.5 -36.5q0 -29 -22.5 -51t-51.5 -22q-25 0 -40.5 14.5z
" />
    <glyph glyph-name="multiply" unicode="&#xd7;" horiz-adv-x="536" 
d="M48 145l165 138l-116 140l74 62l116 -139l163 139l52 -62l-164 -140l115 -139l-74 -62l-114 139l-165 -138z" />
    <glyph glyph-name="Oslash" unicode="&#xd8;" horiz-adv-x="673" 
d="M592 642q32 -35 49 -84t17 -110q0 -134 -45.5 -238t-128.5 -162t-192 -58q-87 0 -145 43l-76 -104l-41 25l82 112q-57 71 -57 186q0 134 45 238t127.5 162t191.5 58q81 0 136 -37l72 98l41 -25zM177 155l322 441q-35 29 -95 29q-71 0 -126.5 -47.5t-86.5 -131t-31 -189.5
q0 -62 17 -102zM530 557l-325 -445q35 -37 102 -37q72 0 128 47t87 131t31 190q0 71 -23 114z" />
    <glyph glyph-name="Ugrave" unicode="&#xd9;" horiz-adv-x="636" 
d="M110.5 47q-62.5 57 -62.5 151q0 22 5 52l79 450h102l-80 -456q-4 -23 -4 -47q0 -122 140 -122q79 0 130 43t66 126l80 456h102l-79 -450q-23 -128 -100.5 -194t-208.5 -66q-107 0 -169.5 57zM289 954h113l52 -182h-82z" />
    <glyph glyph-name="Uacute" unicode="&#xda;" horiz-adv-x="636" 
d="M110.5 47q-62.5 57 -62.5 151q0 22 5 52l79 450h102l-80 -456q-4 -23 -4 -47q0 -122 140 -122q79 0 130 43t66 126l80 456h102l-79 -450q-23 -128 -100.5 -194t-208.5 -66q-107 0 -169.5 57zM487 954h112l-148 -182h-82z" />
    <glyph glyph-name="Ucircumflex" unicode="&#xdb;" horiz-adv-x="636" 
d="M110.5 47q-62.5 57 -62.5 151q0 22 5 52l79 450h102l-80 -456q-4 -23 -4 -47q0 -122 140 -122q79 0 130 43t66 126l80 456h102l-79 -450q-23 -128 -100.5 -194t-208.5 -66q-107 0 -169.5 57zM398 929q16 16 26.5 22t26.5 6q20 0 31 -8t11 -20q0 -5 -4 -11l-3 -6l102 -136
h-105l-55 92l-83 -92h-103z" />
    <glyph glyph-name="Udieresis" unicode="&#xdc;" horiz-adv-x="636" 
d="M110.5 47q-62.5 57 -62.5 151q0 22 5 52l79 450h102l-80 -456q-4 -23 -4 -47q0 -122 140 -122q79 0 130 43t66 126l80 456h102l-79 -450q-23 -128 -100.5 -194t-208.5 -66q-107 0 -169.5 57zM271 793.5q-15 14.5 -15 36.5q0 29 23 51t53 22q24 0 38.5 -14.5t14.5 -36.5
q0 -29 -22.5 -51t-52.5 -22q-24 0 -39 14.5zM481.5 793.5q-15.5 14.5 -15.5 37.5q0 28 23.5 50t54.5 22q23 0 37.5 -14.5t14.5 -36.5q0 -29 -22.5 -51t-51.5 -22q-25 0 -40.5 14.5z" />
    <glyph glyph-name="Yacute" unicode="&#xdd;" horiz-adv-x="642" 
d="M278 270l-154 430h106l110 -337l228 337h114l-306 -430l-47 -270h-98zM490 954h112l-148 -182h-82z" />
    <glyph glyph-name="Thorn" unicode="&#xde;" horiz-adv-x="584" 
d="M145 700h102l-22 -130h111q104 0 166 -49.5t62 -132.5q0 -121 -80.5 -189.5t-223.5 -68.5h-113l-23 -130h-102zM271 218q88 0 138 42.5t50 118.5q0 51 -35.5 77t-105.5 26h-109l-46 -264h108z" />
    <glyph glyph-name="germandbls" unicode="&#xdf;" horiz-adv-x="600" 
d="M99 504q18 98 86 154t180 56q62 0 109.5 -20t73.5 -55t26 -81q0 -68 -40.5 -118.5t-108.5 -66.5v-1q61 -13 93.5 -54.5t32.5 -97.5q0 -67 -31 -119.5t-87.5 -81.5t-131.5 -29q-36 0 -73.5 6.5t-64.5 17.5l40 77q43 -20 105 -20q61 0 100 38t39 103q0 59 -40.5 90.5
t-112.5 31.5h-39l14 80h39q76 0 118.5 36t42.5 99q0 40 -29 62t-84 22q-64 0 -104 -33t-51 -94l-136 -756h-101z" />
    <glyph glyph-name="agrave" unicode="&#xe0;" horiz-adv-x="573" 
d="M84.5 41.5q-47.5 51.5 -47.5 135.5q0 88 36 161t98.5 115t138.5 42q91 0 134 -74l11 64h97l-63 -356q-5 -25 -5 -52q0 -33 10 -54l-87 -33q-17 23 -17 61q0 13 1 20l-3 1q-36 -40 -81 -61t-95 -21q-80 0 -127.5 51.5zM353.5 115q43.5 43 54.5 110l6 34q3 17 3 33
q0 52 -28 86.5t-83 34.5q-47 0 -85 -29.5t-60 -81t-22 -114.5q0 -55 26.5 -85.5t77.5 -30.5q67 0 110.5 43zM211 739h113l52 -182h-82z" />
    <glyph glyph-name="aacute" unicode="&#xe1;" horiz-adv-x="573" 
d="M84.5 41.5q-47.5 51.5 -47.5 135.5q0 88 36 161t98.5 115t138.5 42q91 0 134 -74l11 64h97l-63 -356q-5 -25 -5 -52q0 -33 10 -54l-87 -33q-17 23 -17 61q0 13 1 20l-3 1q-36 -40 -81 -61t-95 -21q-80 0 -127.5 51.5zM353.5 115q43.5 43 54.5 110l6 34q3 17 3 33
q0 52 -28 86.5t-83 34.5q-47 0 -85 -29.5t-60 -81t-22 -114.5q0 -55 26.5 -85.5t77.5 -30.5q67 0 110.5 43zM409 739h112l-148 -182h-82z" />
    <glyph glyph-name="acircumflex" unicode="&#xe2;" horiz-adv-x="573" 
d="M84.5 41.5q-47.5 51.5 -47.5 135.5q0 88 36 161t98.5 115t138.5 42q91 0 134 -74l11 64h97l-63 -356q-5 -25 -5 -52q0 -33 10 -54l-87 -33q-17 23 -17 61q0 13 1 20l-3 1q-36 -40 -81 -61t-95 -21q-80 0 -127.5 51.5zM353.5 115q43.5 43 54.5 110l6 34q3 17 3 33
q0 52 -28 86.5t-83 34.5q-47 0 -85 -29.5t-60 -81t-22 -114.5q0 -55 26.5 -85.5t77.5 -30.5q67 0 110.5 43zM320 714q16 16 26.5 22t26.5 6q20 0 31 -8t11 -20q0 -5 -4 -11l-3 -6l102 -136h-105l-55 92l-83 -92h-103z" />
    <glyph glyph-name="atilde" unicode="&#xe3;" horiz-adv-x="573" 
d="M84.5 41.5q-47.5 51.5 -47.5 135.5q0 88 36 161t98.5 115t138.5 42q91 0 134 -74l11 64h97l-63 -356q-5 -25 -5 -52q0 -33 10 -54l-87 -33q-17 23 -17 61q0 13 1 20l-3 1q-36 -40 -81 -61t-95 -21q-80 0 -127.5 51.5zM353.5 115q43.5 43 54.5 110l6 34q3 17 3 33
q0 52 -28 86.5t-83 34.5q-47 0 -85 -29.5t-60 -81t-22 -114.5q0 -55 26.5 -85.5t77.5 -30.5q67 0 110.5 43zM177 598q13 39 45 65t66 26q25 0 43.5 -8.5t38.5 -23.5q14 -10 22.5 -14.5t17.5 -4.5q37 0 53 49l50 -26q-9 -43 -37.5 -68.5t-66.5 -25.5q-21 0 -36.5 7t-39.5 22
q-15 11 -25.5 16t-21.5 5q-38 0 -56 -50z" />
    <glyph glyph-name="adieresis" unicode="&#xe4;" horiz-adv-x="573" 
d="M84.5 41.5q-47.5 51.5 -47.5 135.5q0 88 36 161t98.5 115t138.5 42q91 0 134 -74l11 64h97l-63 -356q-5 -25 -5 -52q0 -33 10 -54l-87 -33q-17 23 -17 61q0 13 1 20l-3 1q-36 -40 -81 -61t-95 -21q-80 0 -127.5 51.5zM353.5 115q43.5 43 54.5 110l6 34q3 17 3 33
q0 52 -28 86.5t-83 34.5q-47 0 -85 -29.5t-60 -81t-22 -114.5q0 -55 26.5 -85.5t77.5 -30.5q67 0 110.5 43zM193 578.5q-15 14.5 -15 36.5q0 29 23 51t53 22q24 0 38.5 -14.5t14.5 -36.5q0 -29 -22.5 -51t-52.5 -22q-24 0 -39 14.5zM403.5 578.5q-15.5 14.5 -15.5 37.5
q0 28 23.5 50t54.5 22q23 0 37.5 -14.5t14.5 -36.5q0 -29 -22.5 -51t-51.5 -22q-25 0 -40.5 14.5z" />
    <glyph glyph-name="aring" unicode="&#xe5;" horiz-adv-x="573" 
d="M84.5 41.5q-47.5 51.5 -47.5 135.5q0 88 36 161t98.5 115t138.5 42q91 0 134 -74l11 64h97l-63 -356q-5 -25 -5 -52q0 -33 10 -54l-87 -33q-17 23 -17 61q0 13 1 20l-3 1q-36 -40 -81 -61t-95 -21q-80 0 -127.5 51.5zM353.5 115q43.5 43 54.5 110l6 34q3 17 3 33
q0 52 -28 86.5t-83 34.5q-47 0 -85 -29.5t-60 -81t-22 -114.5q0 -55 26.5 -85.5t77.5 -30.5q67 0 110.5 43zM262.5 556q-28.5 22 -28.5 61q0 33 18 61t48.5 44.5t66.5 16.5q40 0 68.5 -21.5t28.5 -61.5q0 -33 -18 -61t-48.5 -44.5t-66.5 -16.5q-40 0 -68.5 22zM381.5 607
q16.5 16 16.5 40q0 17 -11.5 26.5t-29.5 9.5q-24 0 -40.5 -16.5t-16.5 -39.5q0 -17 11.5 -26.5t29.5 -9.5q24 0 40.5 16z" />
    <glyph glyph-name="ae" unicode="&#xe6;" horiz-adv-x="894" 
d="M67.5 25.5q-43.5 35.5 -43.5 94.5q0 53 28.5 94t80 63.5t117.5 22.5h145l2 11q1 5 1 14q0 37 -28 62.5t-76 25.5q-44 0 -82.5 -13.5t-75.5 -40.5l-41 58q43 36 99.5 57t115.5 21q113 0 151 -92h1q34 42 86 67t118 25q99 0 147.5 -50.5t48.5 -129.5q0 -50 -12 -74t-28 -30
t-40 -6h-303l-2 -12q-2 -16 -2 -22q0 -43 33 -70.5t92 -27.5q87 0 154 55l41 -60q-94 -78 -207 -78q-67 0 -114.5 30.5t-60.5 76.5h-1q-38 -49 -96 -78t-130 -29q-75 0 -118.5 35.5zM761 284q3 17 3 31q0 46 -29 72t-84 26q-41 0 -75.5 -17t-55.5 -43.5t-24 -54.5l-2 -14
h267zM290 89.5q36 16.5 58 43.5t28 57l5 31h-149q-50 0 -78 -24t-28 -66q0 -58 84 -58q44 0 80 16.5z" />
    <glyph glyph-name="ccedilla" unicode="&#xe7;" horiz-adv-x="521" 
d="M230.5 385q-42.5 -27 -66 -76t-23.5 -112q0 -61 34 -92.5t99 -31.5q34 0 68.5 12t62.5 36l45 -58q-31 -29 -75.5 -48t-91.5 -24l-33 -40q64 -10 64 -63q0 -48 -36 -78t-93 -30q-26 0 -52.5 9t-47.5 26l37 52q30 -24 65 -24q21 0 33 11t12 29q0 27 -36 27q-6 0 -20 -2
l-18 24l49 61q-80 12 -124.5 62.5t-44.5 130.5q0 89 38 159.5t106.5 110t155.5 39.5q51 0 94.5 -16.5t67.5 -45.5l-48 -69q-20 22 -52.5 35t-71.5 13q-55 0 -97.5 -27z" />
    <glyph glyph-name="egrave" unicode="&#xe8;" horiz-adv-x="549" 
d="M95 42q-56 52 -56 140q0 92 35 163t98.5 110.5t145.5 39.5q65 0 109.5 -26.5t66 -70t21.5 -93.5q0 -62 -21 -83.5t-58 -21.5h-298q-2 -9 -2 -26q0 -46 32.5 -73.5t90.5 -27.5q87 0 148 51l42 -56q-39 -37 -91 -57.5t-112 -20.5q-95 0 -151 52zM415 280q2 9 2 28
q0 47 -29 76t-82 29q-61 0 -102.5 -39.5t-51.5 -93.5h263zM214 739h113l52 -182h-82z" />
    <glyph glyph-name="eacute" unicode="&#xe9;" horiz-adv-x="549" 
d="M95 42q-56 52 -56 140q0 92 35 163t98.5 110.5t145.5 39.5q65 0 109.5 -26.5t66 -70t21.5 -93.5q0 -62 -21 -83.5t-58 -21.5h-298q-2 -9 -2 -26q0 -46 32.5 -73.5t90.5 -27.5q87 0 148 51l42 -56q-39 -37 -91 -57.5t-112 -20.5q-95 0 -151 52zM415 280q2 9 2 28
q0 47 -29 76t-82 29q-61 0 -102.5 -39.5t-51.5 -93.5h263zM412 739h112l-148 -182h-82z" />
    <glyph glyph-name="ecircumflex" unicode="&#xea;" horiz-adv-x="549" 
d="M95 42q-56 52 -56 140q0 92 35 163t98.5 110.5t145.5 39.5q65 0 109.5 -26.5t66 -70t21.5 -93.5q0 -62 -21 -83.5t-58 -21.5h-298q-2 -9 -2 -26q0 -46 32.5 -73.5t90.5 -27.5q87 0 148 51l42 -56q-39 -37 -91 -57.5t-112 -20.5q-95 0 -151 52zM415 280q2 9 2 28
q0 47 -29 76t-82 29q-61 0 -102.5 -39.5t-51.5 -93.5h263zM323 714q16 16 26.5 22t26.5 6q20 0 31 -8t11 -20q0 -5 -4 -11l-3 -6l102 -136h-105l-55 92l-83 -92h-103z" />
    <glyph glyph-name="edieresis" unicode="&#xeb;" horiz-adv-x="549" 
d="M95 42q-56 52 -56 140q0 92 35 163t98.5 110.5t145.5 39.5q65 0 109.5 -26.5t66 -70t21.5 -93.5q0 -62 -21 -83.5t-58 -21.5h-298q-2 -9 -2 -26q0 -46 32.5 -73.5t90.5 -27.5q87 0 148 51l42 -56q-39 -37 -91 -57.5t-112 -20.5q-95 0 -151 52zM415 280q2 9 2 28
q0 47 -29 76t-82 29q-61 0 -102.5 -39.5t-51.5 -93.5h263zM196 578.5q-15 14.5 -15 36.5q0 29 23 51t53 22q24 0 38.5 -14.5t14.5 -36.5q0 -29 -22.5 -51t-52.5 -22q-24 0 -39 14.5zM406.5 578.5q-15.5 14.5 -15.5 37.5q0 28 23.5 50t54.5 22q23 0 37.5 -14.5t14.5 -36.5
q0 -29 -22.5 -51t-51.5 -22q-25 0 -40.5 14.5z" />
    <glyph glyph-name="igrave" unicode="&#xec;" horiz-adv-x="256" 
d="M122 485h99l-86 -485h-99zM60 739h113l52 -182h-82z" />
    <glyph glyph-name="iacute" unicode="&#xed;" horiz-adv-x="256" 
d="M122 485h99l-86 -485h-99zM258 739h112l-148 -182h-82z" />
    <glyph glyph-name="icircumflex" unicode="&#xee;" horiz-adv-x="256" 
d="M122 485h99l-86 -485h-99zM169 714q16 16 26.5 22t26.5 6q20 0 31 -8t11 -20q0 -5 -4 -11l-3 -6l102 -136h-105l-55 92l-83 -92h-103z" />
    <glyph glyph-name="idieresis" unicode="&#xef;" horiz-adv-x="256" 
d="M122 485h99l-86 -485h-99zM42 578.5q-15 14.5 -15 36.5q0 29 23 51t53 22q24 0 38.5 -14.5t14.5 -36.5q0 -29 -22.5 -51t-52.5 -22q-24 0 -39 14.5zM252.5 578.5q-15.5 14.5 -15.5 37.5q0 28 23.5 50t54.5 22q23 0 37.5 -14.5t14.5 -36.5q0 -29 -22.5 -51t-51.5 -22
q-25 0 -40.5 14.5z" />
    <glyph glyph-name="eth" unicode="&#xf0;" horiz-adv-x="637" 
d="M150 17q-54 27 -83.5 74t-29.5 107q0 89 40.5 159.5t114 110.5t169.5 40q66 0 111 -34l4 3q-16 38 -37.5 67.5t-54.5 54.5l-160 -68l-21 74l111 46q-43 29 -100 49l49 73q50 -18 84.5 -35.5t68.5 -42.5l161 70l22 -74l-118 -50q62 -60 95.5 -137.5t33.5 -163.5
q0 -108 -44.5 -187.5t-121 -121t-171.5 -41.5q-69 0 -123 27zM396.5 102.5q48.5 27.5 76 77.5t27.5 113q0 62 -40 96t-109 34q-62 0 -109.5 -27.5t-73 -76t-25.5 -109.5q0 -63 38 -99t107 -36q60 0 108.5 27.5z" />
    <glyph glyph-name="ntilde" unicode="&#xf1;" horiz-adv-x="554" 
d="M364 67q0 20 5 48l32 180q4 20 4 41q0 39 -20.5 57.5t-61.5 18.5q-57 0 -100 -44.5t-54 -108.5l-46 -259h-100l63 358q5 28 5 48q0 28 -9 55l95 34q11 -29 11 -66q0 -11 -1 -17q34 38 81.5 60.5t95.5 22.5q71 0 107 -36.5t36 -104.5q0 -28 -6 -60l-32 -178q-3 -18 -3 -35
q0 -35 10 -56l-97 -35q-15 38 -15 77zM180 598q13 39 45 65t66 26q25 0 43.5 -8.5t38.5 -23.5q14 -10 22.5 -14.5t17.5 -4.5q37 0 53 49l50 -26q-9 -43 -37.5 -68.5t-66.5 -25.5q-21 0 -36.5 7t-39.5 22q-15 11 -25.5 16t-21.5 5q-38 0 -56 -50z" />
    <glyph glyph-name="ograve" unicode="&#xf2;" horiz-adv-x="555" 
d="M92 43q-53 53 -53 140q0 91 35.5 162t100 110.5t149.5 39.5q89 0 142 -53t53 -141q0 -91 -35 -161.5t-99.5 -110t-149.5 -39.5q-90 0 -143 53zM336 100.5q38 27.5 59 77.5t21 115q0 57 -28.5 88t-78.5 31q-49 0 -87 -27.5t-59 -77.5t-21 -115q0 -59 28 -89t79 -30
q49 0 87 27.5zM211 739h113l52 -182h-82z" />
    <glyph glyph-name="oacute" unicode="&#xf3;" horiz-adv-x="555" 
d="M92 43q-53 53 -53 140q0 91 35.5 162t100 110.5t149.5 39.5q89 0 142 -53t53 -141q0 -91 -35 -161.5t-99.5 -110t-149.5 -39.5q-90 0 -143 53zM336 100.5q38 27.5 59 77.5t21 115q0 57 -28.5 88t-78.5 31q-49 0 -87 -27.5t-59 -77.5t-21 -115q0 -59 28 -89t79 -30
q49 0 87 27.5zM409 739h112l-148 -182h-82z" />
    <glyph glyph-name="ocircumflex" unicode="&#xf4;" horiz-adv-x="555" 
d="M92 43q-53 53 -53 140q0 91 35.5 162t100 110.5t149.5 39.5q89 0 142 -53t53 -141q0 -91 -35 -161.5t-99.5 -110t-149.5 -39.5q-90 0 -143 53zM336 100.5q38 27.5 59 77.5t21 115q0 57 -28.5 88t-78.5 31q-49 0 -87 -27.5t-59 -77.5t-21 -115q0 -59 28 -89t79 -30
q49 0 87 27.5zM320 714q16 16 26.5 22t26.5 6q20 0 31 -8t11 -20q0 -5 -4 -11l-3 -6l102 -136h-105l-55 92l-83 -92h-103z" />
    <glyph glyph-name="otilde" unicode="&#xf5;" horiz-adv-x="555" 
d="M92 43q-53 53 -53 140q0 91 35.5 162t100 110.5t149.5 39.5q89 0 142 -53t53 -141q0 -91 -35 -161.5t-99.5 -110t-149.5 -39.5q-90 0 -143 53zM336 100.5q38 27.5 59 77.5t21 115q0 57 -28.5 88t-78.5 31q-49 0 -87 -27.5t-59 -77.5t-21 -115q0 -59 28 -89t79 -30
q49 0 87 27.5zM177 598q13 39 45 65t66 26q25 0 43.5 -8.5t38.5 -23.5q14 -10 22.5 -14.5t17.5 -4.5q37 0 53 49l50 -26q-9 -43 -37.5 -68.5t-66.5 -25.5q-21 0 -36.5 7t-39.5 22q-15 11 -25.5 16t-21.5 5q-38 0 -56 -50z" />
    <glyph glyph-name="odieresis" unicode="&#xf6;" horiz-adv-x="555" 
d="M92 43q-53 53 -53 140q0 91 35.5 162t100 110.5t149.5 39.5q89 0 142 -53t53 -141q0 -91 -35 -161.5t-99.5 -110t-149.5 -39.5q-90 0 -143 53zM336 100.5q38 27.5 59 77.5t21 115q0 57 -28.5 88t-78.5 31q-49 0 -87 -27.5t-59 -77.5t-21 -115q0 -59 28 -89t79 -30
q49 0 87 27.5zM193 578.5q-15 14.5 -15 36.5q0 29 23 51t53 22q24 0 38.5 -14.5t14.5 -36.5q0 -29 -22.5 -51t-52.5 -22q-24 0 -39 14.5zM403.5 578.5q-15.5 14.5 -15.5 37.5q0 28 23.5 50t54.5 22q23 0 37.5 -14.5t14.5 -36.5q0 -29 -22.5 -51t-51.5 -22q-25 0 -40.5 14.5z
" />
    <glyph glyph-name="divide" unicode="&#xf7;" horiz-adv-x="536" 
d="M257 399.5q-14 13.5 -14 35.5q0 29 19.5 47.5t50.5 18.5q22 0 36 -13t14 -34q0 -30 -19.5 -49t-49.5 -19q-23 0 -37 13.5zM65 326h436l-15 -82h-436zM200.5 75.5q-13.5 13.5 -13.5 33.5q0 30 19 49t50 19q23 0 37 -13t14 -35q0 -29 -20 -48t-51 -19q-22 0 -35.5 13.5z
" />
    <glyph glyph-name="oslash" unicode="&#xf8;" horiz-adv-x="555" 
d="M503 386q16 -38 16 -85q0 -91 -35 -161.5t-99.5 -110t-149.5 -39.5q-56 0 -98 21l-60 -82l-41 25l61 84q-28 26 -43 63t-15 82q0 91 35.5 162t100 110.5t149.5 39.5q52 0 93 -19l59 80l41 -25l-59 -81q29 -26 45 -64zM158 120l204 280q-23 12 -53 12q-49 0 -87 -27.5
t-59 -77.5t-21 -115q0 -44 16 -72zM336 100.5q38 27.5 59 77.5t21 115q0 47 -18 75l-206 -282q23 -13 57 -13q49 0 87 27.5z" />
    <glyph glyph-name="ugrave" unicode="&#xf9;" horiz-adv-x="540" 
d="M79.5 32.5q-41.5 42.5 -41.5 112.5q0 24 4 44l53 296h100l-52 -295q-4 -19 -4 -37q0 -40 22 -60t69 -20q56 0 94.5 41t48.5 102l48 269h100l-64 -358q-5 -30 -5 -48q0 -28 9 -55l-95 -34q-13 37 -10 83q-31 -40 -73 -61.5t-92 -21.5q-70 0 -111.5 42.5zM205 739h113
l52 -182h-82z" />
    <glyph glyph-name="uacute" unicode="&#xfa;" horiz-adv-x="540" 
d="M79.5 32.5q-41.5 42.5 -41.5 112.5q0 24 4 44l53 296h100l-52 -295q-4 -19 -4 -37q0 -40 22 -60t69 -20q56 0 94.5 41t48.5 102l48 269h100l-64 -358q-5 -30 -5 -48q0 -28 9 -55l-95 -34q-13 37 -10 83q-31 -40 -73 -61.5t-92 -21.5q-70 0 -111.5 42.5zM403 739h112
l-148 -182h-82z" />
    <glyph glyph-name="ucircumflex" unicode="&#xfb;" horiz-adv-x="540" 
d="M79.5 32.5q-41.5 42.5 -41.5 112.5q0 24 4 44l53 296h100l-52 -295q-4 -19 -4 -37q0 -40 22 -60t69 -20q56 0 94.5 41t48.5 102l48 269h100l-64 -358q-5 -30 -5 -48q0 -28 9 -55l-95 -34q-13 37 -10 83q-31 -40 -73 -61.5t-92 -21.5q-70 0 -111.5 42.5zM314 714
q16 16 26.5 22t26.5 6q20 0 31 -8t11 -20q0 -5 -4 -11l-3 -6l102 -136h-105l-55 92l-83 -92h-103z" />
    <glyph glyph-name="udieresis" unicode="&#xfc;" horiz-adv-x="540" 
d="M79.5 32.5q-41.5 42.5 -41.5 112.5q0 24 4 44l53 296h100l-52 -295q-4 -19 -4 -37q0 -40 22 -60t69 -20q56 0 94.5 41t48.5 102l48 269h100l-64 -358q-5 -30 -5 -48q0 -28 9 -55l-95 -34q-13 37 -10 83q-31 -40 -73 -61.5t-92 -21.5q-70 0 -111.5 42.5zM187 578.5
q-15 14.5 -15 36.5q0 29 23 51t53 22q24 0 38.5 -14.5t14.5 -36.5q0 -29 -22.5 -51t-52.5 -22q-24 0 -39 14.5zM397.5 578.5q-15.5 14.5 -15.5 37.5q0 28 23.5 50t54.5 22q23 0 37.5 -14.5t14.5 -36.5q0 -29 -22.5 -51t-51.5 -22q-25 0 -40.5 14.5z" />
    <glyph glyph-name="yacute" unicode="&#xfd;" horiz-adv-x="575" 
d="M11 -148q71 24 118.5 67t75.5 113l-119 453h113l75 -347l187 347h116l-285 -494q-51 -88 -111.5 -139t-154.5 -82zM420 739h112l-148 -182h-82z" />
    <glyph glyph-name="thorn" unicode="&#xfe;" horiz-adv-x="565" 
d="M136 704h100l-49 -280q31 33 73.5 52.5t91.5 19.5q82 0 129 -52t47 -139q0 -92 -33.5 -163.5t-94.5 -111t-142 -39.5q-47 1 -81.5 20t-53.5 52l-50 -282h-100zM346 101q38 28 59 78.5t21 115.5q0 120 -103 120q-65 0 -110.5 -44t-56.5 -110l-5 -34q-3 -16 -3 -33
q0 -52 28.5 -86.5t82.5 -34.5q49 0 87 28z" />
    <glyph glyph-name="ydieresis" unicode="&#xff;" horiz-adv-x="575" 
d="M11 -148q71 24 118.5 67t75.5 113l-119 453h113l75 -347l187 347h116l-285 -494q-51 -88 -111.5 -139t-154.5 -82zM204 578.5q-15 14.5 -15 36.5q0 29 23 51t53 22q24 0 38.5 -14.5t14.5 -36.5q0 -29 -22.5 -51t-52.5 -22q-24 0 -39 14.5zM414.5 578.5
q-15.5 14.5 -15.5 37.5q0 28 23.5 50t54.5 22q23 0 37.5 -14.5t14.5 -36.5q0 -29 -22.5 -51t-51.5 -22q-25 0 -40.5 14.5z" />
    <glyph glyph-name="Amacron" unicode="&#x100;" horiz-adv-x="679" 
d="M358 668q27 50 73 50q26 0 40 -10.5t14 -27.5q0 -9 -8 -23l123 -657h-104l-32 189h-257l-99 -189h-111zM455 271l-50 306l-158 -306h208zM296 864h320l-14 -78h-320z" />
    <glyph glyph-name="amacron" unicode="&#x101;" horiz-adv-x="573" 
d="M84.5 41.5q-47.5 51.5 -47.5 135.5q0 88 36 161t98.5 115t138.5 42q91 0 134 -74l11 64h97l-63 -356q-5 -25 -5 -52q0 -33 10 -54l-87 -33q-17 23 -17 61q0 13 1 20l-3 1q-36 -40 -81 -61t-95 -21q-80 0 -127.5 51.5zM353.5 115q43.5 43 54.5 110l6 34q3 17 3 33
q0 52 -28 86.5t-83 34.5q-47 0 -85 -29.5t-60 -81t-22 -114.5q0 -55 26.5 -85.5t77.5 -30.5q67 0 110.5 43zM191 649h320l-14 -78h-320z" />
    <glyph glyph-name="Abreve" unicode="&#x102;" horiz-adv-x="679" 
d="M358 668q27 50 73 50q26 0 40 -10.5t14 -27.5q0 -9 -8 -23l123 -657h-104l-32 189h-257l-99 -189h-111zM455 271l-50 306l-158 -306h208zM348 794.5q-35 28.5 -35 81.5q0 18 4 35l2 9h87l-2 -10q-3 -13 -3 -25q0 -24 13 -37t37 -13q29 0 47.5 19.5t25.5 55.5l2 10h87
l-2 -9q-15 -70 -62 -107.5t-111 -37.5q-55 0 -90 28.5z" />
    <glyph glyph-name="abreve" unicode="&#x103;" horiz-adv-x="573" 
d="M84.5 41.5q-47.5 51.5 -47.5 135.5q0 88 36 161t98.5 115t138.5 42q91 0 134 -74l11 64h97l-63 -356q-5 -25 -5 -52q0 -33 10 -54l-87 -33q-17 23 -17 61q0 13 1 20l-3 1q-36 -40 -81 -61t-95 -21q-80 0 -127.5 51.5zM353.5 115q43.5 43 54.5 110l6 34q3 17 3 33
q0 52 -28 86.5t-83 34.5q-47 0 -85 -29.5t-60 -81t-22 -114.5q0 -55 26.5 -85.5t77.5 -30.5q67 0 110.5 43zM243 579.5q-35 28.5 -35 81.5q0 18 4 35l2 9h87l-2 -10q-3 -13 -3 -25q0 -24 13 -37t37 -13q29 0 47.5 19.5t25.5 55.5l2 10h87l-2 -9q-15 -70 -62 -107.5
t-111 -37.5q-55 0 -90 28.5z" />
    <glyph glyph-name="Aogonek" unicode="&#x104;" horiz-adv-x="679" 
d="M358 668q27 50 73 50q26 0 40 -10.5t14 -27.5q0 -9 -8 -23l123 -657h-104l-32 189h-257l-99 -189h-111zM455 271l-50 306l-158 -306h208zM428.5 -204q-25.5 21 -25.5 58q0 45 31.5 84.5t83.5 61.5h82q-112 -62 -112 -123q0 -14 10.5 -22t29.5 -8q23 0 53 16l10 -59
q-44 -29 -96 -29q-41 0 -66.5 21z" />
    <glyph glyph-name="aogonek" unicode="&#x105;" horiz-adv-x="573" 
d="M382 -100q0 -31 40 -31q23 0 52 16l10 -59q-45 -28 -95 -28q-42 0 -67.5 21t-25.5 58q0 40 27 77.5t72 60.5q-5 17 -5 36q0 13 1 20l-3 1q-36 -40 -81 -61t-95 -21q-80 0 -127.5 51.5t-47.5 135.5q0 88 36 161t98.5 115t138.5 42q91 0 134 -74l11 64h97l-63 -356
q-5 -25 -5 -52q0 -33 10 -54q-112 -63 -112 -123zM353.5 115q43.5 43 54.5 110l6 34q3 17 3 33q0 52 -28 86.5t-83 34.5q-47 0 -85 -29.5t-60 -81t-22 -114.5q0 -55 26.5 -85.5t77.5 -30.5q67 0 110.5 43z" />
    <glyph glyph-name="Cacute" unicode="&#x106;" horiz-adv-x="632" 
d="M182 23.5q-61 33.5 -93.5 95t-32.5 143.5q0 130 47.5 232t135.5 159t205 57q64 0 115 -22t80 -61l-54 -72q-27 35 -63.5 52.5t-92.5 17.5q-76 0 -137 -44.5t-95.5 -125t-34.5 -183.5q0 -94 46 -145.5t134 -51.5q97 0 170 67l52 -58q-48 -45 -111 -69.5t-128 -24.5
q-82 0 -143 33.5zM515 954h112l-148 -182h-82z" />
    <glyph glyph-name="cacute" unicode="&#x107;" horiz-adv-x="521" 
d="M95.5 42.5q-57.5 52.5 -57.5 143.5q0 89 38 159.5t106.5 110t155.5 39.5q51 0 94.5 -16.5t67.5 -45.5l-48 -69q-20 22 -52.5 35t-71.5 13q-55 0 -97.5 -27t-66 -76t-23.5 -112q0 -61 34 -92.5t99 -31.5q34 0 68.5 12t62.5 36l45 -58q-37 -34 -89.5 -53.5t-105.5 -19.5
q-102 0 -159.5 52.5zM417 739h112l-148 -182h-82z" />
    <glyph glyph-name="Ccircumflex" unicode="&#x108;" horiz-adv-x="632" 
d="M182 23.5q-61 33.5 -93.5 95t-32.5 143.5q0 130 47.5 232t135.5 159t205 57q64 0 115 -22t80 -61l-54 -72q-27 35 -63.5 52.5t-92.5 17.5q-76 0 -137 -44.5t-95.5 -125t-34.5 -183.5q0 -94 46 -145.5t134 -51.5q97 0 170 67l52 -58q-48 -45 -111 -69.5t-128 -24.5
q-82 0 -143 33.5zM426 929q16 16 26.5 22t26.5 6q20 0 31 -8t11 -20q0 -5 -4 -11l-3 -6l102 -136h-105l-55 92l-83 -92h-103z" />
    <glyph glyph-name="ccircumflex" unicode="&#x109;" horiz-adv-x="521" 
d="M95.5 42.5q-57.5 52.5 -57.5 143.5q0 89 38 159.5t106.5 110t155.5 39.5q51 0 94.5 -16.5t67.5 -45.5l-48 -69q-20 22 -52.5 35t-71.5 13q-55 0 -97.5 -27t-66 -76t-23.5 -112q0 -61 34 -92.5t99 -31.5q34 0 68.5 12t62.5 36l45 -58q-37 -34 -89.5 -53.5t-105.5 -19.5
q-102 0 -159.5 52.5zM328 714q16 16 26.5 22t26.5 6q20 0 31 -8t11 -20q0 -5 -4 -11l-3 -6l102 -136h-105l-55 92l-83 -92h-103z" />
    <glyph glyph-name="Cdotaccent" unicode="&#x10a;" horiz-adv-x="632" 
d="M182 23.5q-61 33.5 -93.5 95t-32.5 143.5q0 130 47.5 232t135.5 159t205 57q64 0 115 -22t80 -61l-54 -72q-27 35 -63.5 52.5t-92.5 17.5q-76 0 -137 -44.5t-95.5 -125t-34.5 -183.5q0 -94 46 -145.5t134 -51.5q97 0 170 67l52 -58q-48 -45 -111 -69.5t-128 -24.5
q-82 0 -143 33.5zM406.5 805.5q-14.5 14.5 -14.5 36.5q0 29 22.5 51t52.5 22q24 0 38 -14t14 -36q0 -30 -22.5 -52t-51.5 -22q-24 0 -38.5 14.5z" />
    <glyph glyph-name="cdotaccent" unicode="&#x10b;" horiz-adv-x="521" 
d="M95.5 42.5q-57.5 52.5 -57.5 143.5q0 89 38 159.5t106.5 110t155.5 39.5q51 0 94.5 -16.5t67.5 -45.5l-48 -69q-20 22 -52.5 35t-71.5 13q-55 0 -97.5 -27t-66 -76t-23.5 -112q0 -61 34 -92.5t99 -31.5q34 0 68.5 12t62.5 36l45 -58q-37 -34 -89.5 -53.5t-105.5 -19.5
q-102 0 -159.5 52.5zM308.5 590.5q-14.5 14.5 -14.5 36.5q0 29 22.5 51t52.5 22q24 0 38 -14t14 -36q0 -30 -22.5 -52t-51.5 -22q-24 0 -38.5 14.5z" />
    <glyph glyph-name="Ccaron" unicode="&#x10c;" horiz-adv-x="632" 
d="M182 23.5q-61 33.5 -93.5 95t-32.5 143.5q0 130 47.5 232t135.5 159t205 57q64 0 115 -22t80 -61l-54 -72q-27 35 -63.5 52.5t-92.5 17.5q-76 0 -137 -44.5t-95.5 -125t-34.5 -183.5q0 -94 46 -145.5t134 -51.5q97 0 170 67l52 -58q-48 -45 -111 -69.5t-128 -24.5
q-82 0 -143 33.5zM406.5 784q-10.5 8 -10.5 19q0 6 3 12l3 5l-102 137h105l55 -93l83 93h103l-156 -155q-14 -14 -25.5 -20t-27.5 -6q-20 0 -30.5 8z" />
    <glyph glyph-name="ccaron" unicode="&#x10d;" horiz-adv-x="521" 
d="M95.5 42.5q-57.5 52.5 -57.5 143.5q0 89 38 159.5t106.5 110t155.5 39.5q51 0 94.5 -16.5t67.5 -45.5l-48 -69q-20 22 -52.5 35t-71.5 13q-55 0 -97.5 -27t-66 -76t-23.5 -112q0 -61 34 -92.5t99 -31.5q34 0 68.5 12t62.5 36l45 -58q-37 -34 -89.5 -53.5t-105.5 -19.5
q-102 0 -159.5 52.5zM308.5 569q-10.5 8 -10.5 19q0 6 3 12l3 5l-102 137h105l55 -93l83 93h103l-156 -155q-14 -14 -25.5 -20t-27.5 -6q-20 0 -30.5 8z" />
    <glyph glyph-name="Dcaron" unicode="&#x10e;" horiz-adv-x="642" 
d="M133 598q1 6 1 15q0 17 -9 28t-9 16q0 4 3 10q9 18 27 34.5t35 16.5q15 0 30 -18h137q84 0 147 -31.5t97 -91t34 -140.5q0 -130 -47.5 -229t-135.5 -153.5t-206 -54.5h-209zM245 88q84 0 146.5 42t96.5 118.5t34 178.5q0 94 -43.5 139.5t-144.5 45.5h-96l-93 -524h100z
M370.5 784q-10.5 8 -10.5 19q0 6 3 12l3 5l-102 137h105l55 -93l83 93h103l-156 -155q-14 -14 -25.5 -20t-27.5 -6q-20 0 -30.5 8z" />
    <glyph glyph-name="dcaron" unicode="&#x10f;" horiz-adv-x="751" 
d="M616 553q27 11 47 27t28 32q-19 0 -33 13.5t-14 32.5q0 31 24.5 54t57.5 23q29 0 44.5 -15.5t15.5 -42.5q0 -49 -43.5 -97t-106.5 -74zM392 53q0 12 1 19q-74 -82 -176 -82q-84 0 -131.5 51t-47.5 137q0 92 36 164t98.5 112.5t139.5 40.5q88 0 133 -72l54 311h100
l-106 -605q-5 -35 -5 -54q0 -30 10 -53l-89 -33q-17 23 -17 64zM355.5 115.5q44.5 43.5 55.5 109.5l5 34q3 17 3 33q0 52 -28 86.5t-82 34.5q-48 0 -86.5 -29.5t-60.5 -81t-22 -115.5q0 -54 25.5 -84.5t79.5 -30.5q66 0 110.5 43.5z" />
    <glyph glyph-name="Dcroat" unicode="&#x110;" horiz-adv-x="675" 
d="M528 668.5q63 -31.5 97 -91t34 -140.5q0 -130 -47.5 -229t-135.5 -153.5t-206 -54.5h-209l55 311h-61l14 76h60l37 211q1 6 1 15q0 17 -9 28t-9 16q0 4 3 10q9 18 26.5 34.5t35.5 16.5q16 0 29 -18h138q84 0 147 -31.5zM424 130q63 42 97 118.5t34 178.5q0 94 -44 139.5
t-145 45.5h-96l-40 -225h159l-13 -76h-159l-39 -223h100q83 0 146 42z" />
    <glyph glyph-name="dcroat" unicode="&#x111;" horiz-adv-x="610" 
d="M493 129q-5 -35 -5 -54q0 -30 10 -53l-89 -33q-17 23 -17 64q0 12 1 19q-74 -82 -176 -82q-84 0 -131.5 51t-47.5 137q0 92 36 164t98.5 112.5t139.5 40.5q88 0 133 -72l25 146h-105l13 76h106l15 89h100l-16 -89h58l-14 -76h-57zM419 292q0 52 -28 86.5t-82 34.5
q-48 0 -86.5 -29.5t-60.5 -81t-22 -115.5q0 -54 25.5 -84.5t79.5 -30.5q66 0 110.5 43.5t55.5 109.5l5 34q3 17 3 33z" />
    <glyph glyph-name="Emacron" unicode="&#x112;" horiz-adv-x="533" 
d="M134 598q1 6 1 15q0 11 -3.5 18t-9.5 14.5t-6 12.5t3 9q8 17 26.5 34t35.5 17t30 -18h353l-15 -88h-311l-35 -203h226l-15 -84h-226l-42 -237h320l-16 -88h-421zM229 864h320l-14 -78h-320z" />
    <glyph glyph-name="emacron" unicode="&#x113;" horiz-adv-x="549" 
d="M95 42q-56 52 -56 140q0 92 35 163t98.5 110.5t145.5 39.5q65 0 109.5 -26.5t66 -70t21.5 -93.5q0 -62 -21 -83.5t-58 -21.5h-298q-2 -9 -2 -26q0 -46 32.5 -73.5t90.5 -27.5q87 0 148 51l42 -56q-39 -37 -91 -57.5t-112 -20.5q-95 0 -151 52zM415 280q2 9 2 28
q0 47 -29 76t-82 29q-61 0 -102.5 -39.5t-51.5 -93.5h263zM194 649h320l-14 -78h-320z" />
    <glyph glyph-name="Ebreve" unicode="&#x114;" horiz-adv-x="533" 
d="M134 598q1 6 1 15q0 11 -3.5 18t-9.5 14.5t-6 12.5t3 9q8 17 26.5 34t35.5 17t30 -18h353l-15 -88h-311l-35 -203h226l-15 -84h-226l-42 -237h320l-16 -88h-421zM281 794.5q-35 28.5 -35 81.5q0 18 4 35l2 9h87l-2 -10q-3 -13 -3 -25q0 -24 13 -37t37 -13q29 0 47.5 19.5
t25.5 55.5l2 10h87l-2 -9q-15 -70 -62 -107.5t-111 -37.5q-55 0 -90 28.5z" />
    <glyph glyph-name="ebreve" unicode="&#x115;" horiz-adv-x="549" 
d="M95 42q-56 52 -56 140q0 92 35 163t98.5 110.5t145.5 39.5q65 0 109.5 -26.5t66 -70t21.5 -93.5q0 -62 -21 -83.5t-58 -21.5h-298q-2 -9 -2 -26q0 -46 32.5 -73.5t90.5 -27.5q87 0 148 51l42 -56q-39 -37 -91 -57.5t-112 -20.5q-95 0 -151 52zM415 280q2 9 2 28
q0 47 -29 76t-82 29q-61 0 -102.5 -39.5t-51.5 -93.5h263zM246 579.5q-35 28.5 -35 81.5q0 18 4 35l2 9h87l-2 -10q-3 -13 -3 -25q0 -24 13 -37t37 -13q29 0 47.5 19.5t25.5 55.5l2 10h87l-2 -9q-15 -70 -62 -107.5t-111 -37.5q-55 0 -90 28.5z" />
    <glyph glyph-name="Edotaccent" unicode="&#x116;" horiz-adv-x="533" 
d="M134 598q1 6 1 15q0 11 -3.5 18t-9.5 14.5t-6 12.5t3 9q8 17 26.5 34t35.5 17t30 -18h353l-15 -88h-311l-35 -203h226l-15 -84h-226l-42 -237h320l-16 -88h-421zM338.5 805.5q-14.5 14.5 -14.5 36.5q0 29 22.5 51t52.5 22q24 0 38 -14t14 -36q0 -30 -22.5 -52t-51.5 -22
q-24 0 -38.5 14.5z" />
    <glyph glyph-name="edotaccent" unicode="&#x117;" horiz-adv-x="549" 
d="M95 42q-56 52 -56 140q0 92 35 163t98.5 110.5t145.5 39.5q65 0 109.5 -26.5t66 -70t21.5 -93.5q0 -62 -21 -83.5t-58 -21.5h-298q-2 -9 -2 -26q0 -46 32.5 -73.5t90.5 -27.5q87 0 148 51l42 -56q-39 -37 -91 -57.5t-112 -20.5q-95 0 -151 52zM415 280q2 9 2 28
q0 47 -29 76t-82 29q-61 0 -102.5 -39.5t-51.5 -93.5h263zM303.5 590.5q-14.5 14.5 -14.5 36.5q0 29 22.5 51t52.5 22q24 0 38 -14t14 -36q0 -30 -22.5 -52t-51.5 -22q-24 0 -38.5 14.5z" />
    <glyph glyph-name="Eogonek" unicode="&#x118;" horiz-adv-x="533" 
d="M238 612l-35 -203h226l-15 -84h-226l-42 -237h320l-16 -88h-18q-101 -59 -101 -117q0 -30 40 -30q23 0 52 16l10 -59q-44 -29 -95 -29q-42 0 -67.5 21t-25.5 58q0 42 28 79.5t75 60.5h-319l105 598q1 6 1 15q0 11 -3.5 18t-9.5 14.5t-6 12.5t3 9q8 17 26.5 34t35.5 17
t30 -18h353l-15 -88h-311z" />
    <glyph glyph-name="eogonek" unicode="&#x119;" horiz-adv-x="549" 
d="M138 200q-2 -9 -2 -26q0 -46 32.5 -73.5t90.5 -27.5q87 0 148 51l42 -56q-69 -64 -165 -76q-88 -54 -88 -109q0 -14 10.5 -22t29.5 -8q23 0 53 16l10 -59q-44 -29 -96 -29q-41 0 -66.5 21t-25.5 58q0 39 24 74.5t66 58.5q-76 12 -119 62.5t-43 126.5q0 92 35 163
t98.5 110.5t145.5 39.5q65 0 109.5 -26.5t66 -70t21.5 -93.5q0 -62 -21 -83.5t-58 -21.5h-298zM203.5 373.5q-41.5 -39.5 -51.5 -93.5h263q2 9 2 28q0 47 -29 76t-82 29q-61 0 -102.5 -39.5z" />
    <glyph glyph-name="Ecaron" unicode="&#x11a;" horiz-adv-x="533" 
d="M134 598q1 6 1 15q0 11 -3.5 18t-9.5 14.5t-6 12.5t3 9q8 17 26.5 34t35.5 17t30 -18h353l-15 -88h-311l-35 -203h226l-15 -84h-226l-42 -237h320l-16 -88h-421zM338.5 784q-10.5 8 -10.5 19q0 6 3 12l3 5l-102 137h105l55 -93l83 93h103l-156 -155q-14 -14 -25.5 -20
t-27.5 -6q-20 0 -30.5 8z" />
    <glyph glyph-name="ecaron" unicode="&#x11b;" horiz-adv-x="549" 
d="M95 42q-56 52 -56 140q0 92 35 163t98.5 110.5t145.5 39.5q65 0 109.5 -26.5t66 -70t21.5 -93.5q0 -62 -21 -83.5t-58 -21.5h-298q-2 -9 -2 -26q0 -46 32.5 -73.5t90.5 -27.5q87 0 148 51l42 -56q-39 -37 -91 -57.5t-112 -20.5q-95 0 -151 52zM415 280q2 9 2 28
q0 47 -29 76t-82 29q-61 0 -102.5 -39.5t-51.5 -93.5h263zM303.5 569q-10.5 8 -10.5 19q0 6 3 12l3 5l-102 137h105l55 -93l83 93h103l-156 -155q-14 -14 -25.5 -20t-27.5 -6q-20 0 -30.5 8z" />
    <glyph glyph-name="Gcircumflex" unicode="&#x11c;" horiz-adv-x="657" 
d="M178.5 23.5q-59.5 33.5 -91 95t-31.5 143.5q0 130 47.5 232t135 159t204.5 57q64 0 115 -22t80 -61l-54 -72q-27 35 -63.5 52.5t-92.5 17.5q-76 0 -136.5 -44.5t-95 -125t-34.5 -183.5q0 -95 43.5 -146t129.5 -51q42 0 71 7t58 24l33 189h-161l15 85h204q17 16 35 16
q17 0 29.5 -16.5t14.5 -34.5q0 -8 -3 -13t-10 -10q-9 -7 -15.5 -16t-9.5 -28l-38 -219q-68 -38 -121.5 -53.5t-118.5 -15.5q-80 0 -139.5 33.5zM436 929q16 16 26.5 22t26.5 6q20 0 31 -8t11 -20q0 -5 -4 -11l-3 -6l102 -136h-105l-55 92l-83 -92h-103z" />
    <glyph glyph-name="gcircumflex" unicode="&#x11d;" horiz-adv-x="575" 
d="M24 -181l43 75q53 -29 125 -29q86 0 126.5 43t54.5 122l7 42q-31 -34 -72.5 -53t-88.5 -19q-84 0 -132 50.5t-48 136.5q0 89 33.5 159t93.5 110t136 40q100 0 149 -82q6 26 18.5 47.5t27.5 35.5l77 -32q-17 -23 -26.5 -47.5t-16.5 -61.5l-58 -324q-22 -124 -96.5 -187
t-199.5 -63q-84 0 -153 37zM354.5 128q43.5 46 55.5 108l5 25q3 18 3 36q0 52 -29.5 85t-84.5 33q-47 0 -84.5 -28t-58.5 -78t-21 -113q0 -114 108 -114q63 0 106.5 46zM336 714q16 16 26.5 22t26.5 6q20 0 31 -8t11 -20q0 -5 -4 -11l-3 -6l102 -136h-105l-55 92l-83 -92
h-103z" />
    <glyph glyph-name="Gbreve" unicode="&#x11e;" horiz-adv-x="657" 
d="M178.5 23.5q-59.5 33.5 -91 95t-31.5 143.5q0 130 47.5 232t135 159t204.5 57q64 0 115 -22t80 -61l-54 -72q-27 35 -63.5 52.5t-92.5 17.5q-76 0 -136.5 -44.5t-95 -125t-34.5 -183.5q0 -95 43.5 -146t129.5 -51q42 0 71 7t58 24l33 189h-161l15 85h204q17 16 35 16
q17 0 29.5 -16.5t14.5 -34.5q0 -8 -3 -13t-10 -10q-9 -7 -15.5 -16t-9.5 -28l-38 -219q-68 -38 -121.5 -53.5t-118.5 -15.5q-80 0 -139.5 33.5zM359 794.5q-35 28.5 -35 81.5q0 18 4 35l2 9h87l-2 -10q-3 -13 -3 -25q0 -24 13 -37t37 -13q29 0 47.5 19.5t25.5 55.5l2 10h87
l-2 -9q-15 -70 -62 -107.5t-111 -37.5q-55 0 -90 28.5z" />
    <glyph glyph-name="gbreve" unicode="&#x11f;" horiz-adv-x="575" 
d="M24 -181l43 75q53 -29 125 -29q86 0 126.5 43t54.5 122l7 42q-31 -34 -72.5 -53t-88.5 -19q-84 0 -132 50.5t-48 136.5q0 89 33.5 159t93.5 110t136 40q100 0 149 -82q6 26 18.5 47.5t27.5 35.5l77 -32q-17 -23 -26.5 -47.5t-16.5 -61.5l-58 -324q-22 -124 -96.5 -187
t-199.5 -63q-84 0 -153 37zM354.5 128q43.5 46 55.5 108l5 25q3 18 3 36q0 52 -29.5 85t-84.5 33q-47 0 -84.5 -28t-58.5 -78t-21 -113q0 -114 108 -114q63 0 106.5 46zM259 579.5q-35 28.5 -35 81.5q0 18 4 35l2 9h87l-2 -10q-3 -13 -3 -25q0 -24 13 -37t37 -13
q29 0 47.5 19.5t25.5 55.5l2 10h87l-2 -9q-15 -70 -62 -107.5t-111 -37.5q-55 0 -90 28.5z" />
    <glyph glyph-name="Gdotaccent" unicode="&#x120;" horiz-adv-x="657" 
d="M178.5 23.5q-59.5 33.5 -91 95t-31.5 143.5q0 130 47.5 232t135 159t204.5 57q64 0 115 -22t80 -61l-54 -72q-27 35 -63.5 52.5t-92.5 17.5q-76 0 -136.5 -44.5t-95 -125t-34.5 -183.5q0 -95 43.5 -146t129.5 -51q42 0 71 7t58 24l33 189h-161l15 85h204q17 16 35 16
q17 0 29.5 -16.5t14.5 -34.5q0 -8 -3 -13t-10 -10q-9 -7 -15.5 -16t-9.5 -28l-38 -219q-68 -38 -121.5 -53.5t-118.5 -15.5q-80 0 -139.5 33.5zM416.5 805.5q-14.5 14.5 -14.5 36.5q0 29 22.5 51t52.5 22q24 0 38 -14t14 -36q0 -30 -22.5 -52t-51.5 -22q-24 0 -38.5 14.5z
" />
    <glyph glyph-name="gdotaccent" unicode="&#x121;" horiz-adv-x="575" 
d="M24 -181l43 75q53 -29 125 -29q86 0 126.5 43t54.5 122l7 42q-31 -34 -72.5 -53t-88.5 -19q-84 0 -132 50.5t-48 136.5q0 89 33.5 159t93.5 110t136 40q100 0 149 -82q6 26 18.5 47.5t27.5 35.5l77 -32q-17 -23 -26.5 -47.5t-16.5 -61.5l-58 -324q-22 -124 -96.5 -187
t-199.5 -63q-84 0 -153 37zM354.5 128q43.5 46 55.5 108l5 25q3 18 3 36q0 52 -29.5 85t-84.5 33q-47 0 -84.5 -28t-58.5 -78t-21 -113q0 -114 108 -114q63 0 106.5 46zM316.5 590.5q-14.5 14.5 -14.5 36.5q0 29 22.5 51t52.5 22q24 0 38 -14t14 -36q0 -30 -22.5 -52
t-51.5 -22q-24 0 -38.5 14.5z" />
    <glyph glyph-name="uni0122" unicode="&#x122;" horiz-adv-x="657" 
d="M178.5 23.5q-59.5 33.5 -91 95t-31.5 143.5q0 130 47.5 232t135 159t204.5 57q64 0 115 -22t80 -61l-54 -72q-27 35 -63.5 52.5t-92.5 17.5q-76 0 -136.5 -44.5t-95 -125t-34.5 -183.5q0 -95 43.5 -146t129.5 -51q42 0 71 7t58 24l33 189h-161l15 85h204q17 16 35 16
q17 0 29.5 -16.5t14.5 -34.5q0 -8 -3 -13t-10 -10q-9 -7 -15.5 -16t-9.5 -28l-38 -219q-68 -38 -121.5 -53.5t-118.5 -15.5q-80 0 -139.5 33.5zM211 -232q49 21 74 60l-10 -1q-20 0 -33 13t-13 32q0 31 23.5 53.5t55.5 22.5q28 0 43 -15t15 -42q0 -49 -39 -93t-97 -68z" />
    <glyph glyph-name="uni0123" unicode="&#x123;" horiz-adv-x="575" 
d="M24 -181l43 75q53 -29 125 -29q86 0 126.5 43t54.5 122l7 42q-31 -34 -72.5 -53t-88.5 -19q-84 0 -132 50.5t-48 136.5q0 89 33.5 159t93.5 110t136 40q100 0 149 -82q6 26 18.5 47.5t27.5 35.5l77 -32q-17 -23 -26.5 -47.5t-16.5 -61.5l-58 -324q-22 -124 -96.5 -187
t-199.5 -63q-84 0 -153 37zM354.5 128q43.5 46 55.5 108l5 25q3 18 3 36q0 52 -29.5 85t-84.5 33q-47 0 -84.5 -28t-58.5 -78t-21 -113q0 -114 108 -114q63 0 106.5 46zM309 559.5q-16 15.5 -16 42.5q0 49 43.5 97t105.5 75l20 -47q-25 -12 -45 -28t-29 -31q20 0 33.5 -13.5
t13.5 -32.5q0 -31 -24.5 -54.5t-57.5 -23.5q-28 0 -44 15.5z" />
    <glyph glyph-name="Hcircumflex" unicode="&#x124;" horiz-adv-x="619" 
d="M137 700h102l-51 -288h305l51 288h102l-123 -700h-102l57 324h-305l-57 -324h-102zM390 929q16 16 26.5 22t26.5 6q20 0 31 -8t11 -20q0 -5 -4 -11l-3 -6l102 -136h-105l-55 92l-83 -92h-103z" />
    <glyph glyph-name="hcircumflex" unicode="&#x125;" horiz-adv-x="544" 
d="M354 67q0 18 5 48l32 180q4 28 4 38q0 79 -83 79q-56 0 -99 -44.5t-55 -108.5l-46 -259h-100l129 734h100l-55 -313q33 35 76 54.5t89 19.5q73 0 109 -37t36 -106q0 -32 -5 -58l-32 -178q-3 -18 -3 -36q0 -32 9 -55l-96 -35q-15 40 -15 77zM308 963q16 16 26.5 22t26.5 6
q20 0 31 -8t11 -20q0 -5 -4 -11l-3 -6l102 -136h-105l-55 92l-83 -92h-103z" />
    <glyph glyph-name="Hbar" unicode="&#x126;" horiz-adv-x="696" 
d="M709 514h-58l-90 -514h-102l57 324h-305l-57 -324h-102l90 514h-59l14 76h59l19 110h102l-19 -110h305l19 110h102l-19 -110h58zM549 514h-305l-18 -102h305z" />
    <glyph glyph-name="hbar" unicode="&#x127;" horiz-adv-x="589" 
d="M504 116q-3 -18 -3 -36q0 -32 9 -55l-97 -35q-14 39 -14 78q0 24 4 47l33 180q4 28 4 38q0 79 -83 79q-56 0 -99 -44.5t-55 -108.5l-46 -259h-100l100 570h-56l12 70h56l17 94h100l-17 -94h121l-13 -70h-120l-26 -149q33 35 76 54.5t89 19.5q73 0 109 -37t36 -106
q0 -32 -5 -58z" />
    <glyph glyph-name="Itilde" unicode="&#x128;" horiz-adv-x="293" 
d="M176 700h102l-123 -700h-102zM82 813q13 39 45 65t66 26q25 0 43.5 -8.5t38.5 -23.5q14 -10 22.5 -14.5t17.5 -4.5q37 0 53 49l50 -26q-9 -43 -37.5 -68.5t-66.5 -25.5q-21 0 -36.5 7t-39.5 22q-15 11 -25.5 16t-21.5 5q-38 0 -56 -50z" />
    <glyph glyph-name="itilde" unicode="&#x129;" horiz-adv-x="256" 
d="M122 485h99l-86 -485h-99zM26 598q13 39 45 65t66 26q25 0 43.5 -8.5t38.5 -23.5q14 -10 22.5 -14.5t17.5 -4.5q37 0 53 49l50 -26q-9 -43 -37.5 -68.5t-66.5 -25.5q-21 0 -36.5 7t-39.5 22q-15 11 -25.5 16t-21.5 5q-38 0 -56 -50z" />
    <glyph glyph-name="Imacron" unicode="&#x12a;" horiz-adv-x="293" 
d="M176 700h102l-123 -700h-102zM96 864h320l-14 -78h-320z" />
    <glyph glyph-name="imacron" unicode="&#x12b;" horiz-adv-x="256" 
d="M122 485h99l-86 -485h-99zM40 649h320l-14 -78h-320z" />
    <glyph glyph-name="Ibreve" unicode="&#x12c;" horiz-adv-x="293" 
d="M176 700h102l-123 -700h-102zM148 794.5q-35 28.5 -35 81.5q0 18 4 35l2 9h87l-2 -10q-3 -13 -3 -25q0 -24 13 -37t37 -13q29 0 47.5 19.5t25.5 55.5l2 10h87l-2 -9q-15 -70 -62 -107.5t-111 -37.5q-55 0 -90 28.5z" />
    <glyph glyph-name="ibreve" unicode="&#x12d;" horiz-adv-x="256" 
d="M122 485h99l-86 -485h-99zM92 579.5q-35 28.5 -35 81.5q0 18 4 35l2 9h87l-2 -10q-3 -13 -3 -25q0 -24 13 -37t37 -13q29 0 47.5 19.5t25.5 55.5l2 10h87l-2 -9q-15 -70 -62 -107.5t-111 -37.5q-55 0 -90 28.5z" />
    <glyph glyph-name="Iogonek" unicode="&#x12e;" horiz-adv-x="293" 
d="M37 -117q0 -30 39 -30q24 0 53 16l10 -59q-44 -29 -95 -29q-42 0 -67.5 21t-25.5 58q0 42 28 79.5t75 60.5h-1l123 700h102l-123 -700h-17q-101 -58 -101 -117z" />
    <glyph glyph-name="iogonek" unicode="&#x12f;" horiz-adv-x="256" 
d="M143.5 589q-16.5 16 -16.5 41q0 32 25 56t59 24q27 0 44 -15.5t17 -40.5q0 -32 -25.5 -56.5t-59.5 -24.5q-27 0 -43.5 16zM122 485h100l-86 -485h-100zM-36.5 -204q-25.5 21 -25.5 58q0 45 31.5 84.5t83.5 61.5h82q-112 -62 -112 -123q0 -14 10.5 -22t29.5 -8q23 0 53 16
l10 -59q-44 -29 -96 -29q-41 0 -66.5 21z" />
    <glyph glyph-name="Idotaccent" unicode="&#x130;" horiz-adv-x="293" 
d="M176 700h102l-123 -700h-102zM205.5 805.5q-14.5 14.5 -14.5 36.5q0 29 22.5 51t52.5 22q24 0 38 -14t14 -36q0 -30 -22.5 -52t-51.5 -22q-24 0 -38.5 14.5z" />
    <glyph glyph-name="dotlessi" unicode="&#x131;" horiz-adv-x="256" 
d="M122 485h99l-86 -485h-99z" />
    <glyph glyph-name="IJ" unicode="&#x132;" horiz-adv-x="731" 
d="M176 700h102l-123 -700h-102zM355.5 2.5q-39.5 12.5 -65.5 34.5l53 73q50 -34 107 -34q97 0 116 103l91 521h102l-91 -518q-16 -90 -76 -141t-157 -51q-40 0 -79.5 12.5z" />
    <glyph glyph-name="ij" unicode="&#x133;" horiz-adv-x="599" 
d="M146 599q-17 16 -17 41q0 32 25.5 56t59.5 24q26 0 43 -15.5t17 -40.5q0 -32 -25 -56.5t-59 -24.5q-27 0 -44 16zM488 599q-17 16 -17 41q0 32 25.5 56t59.5 24q26 0 43 -15.5t17 -40.5q0 -32 -25 -56.5t-59 -24.5q-27 0 -44 16zM122 485h100l-86 -485h-100zM188 -205.5
q-38 13.5 -59 34.5l50 68q42 -34 95 -34q43 0 66 24t33 81l91 517h100l-91 -513q-17 -98 -66.5 -144.5t-141.5 -46.5q-39 0 -77 13.5z" />
    <glyph glyph-name="Jcircumflex" unicode="&#x134;" horiz-adv-x="438" 
d="M62.5 2.5q-39.5 12.5 -65.5 34.5l53 73q50 -34 107 -34q97 0 116 103l91 521h102l-91 -518q-16 -90 -76 -141t-157 -51q-40 0 -79.5 12.5zM414 929q16 16 26.5 22t26.5 6q20 0 31 -8t11 -20q0 -5 -4 -11l-3 -6l102 -136h-105l-55 92l-83 -92h-103z" />
    <glyph glyph-name="jcircumflex" unicode="&#x135;" horiz-adv-x="430" 
d="M19 -205.5q-38 13.5 -59 34.5l50 68q42 -34 96 -34q43 0 65.5 24t32.5 81l92 517h100l-91 -513q-17 -98 -67 -144.5t-141 -46.5q-40 0 -78 13.5zM345 714q16 16 26.5 22t26.5 6q20 0 31 -8t11 -20q0 -5 -4 -11l-3 -6l102 -136h-105l-55 92l-83 -92h-103z" />
    <glyph glyph-name="uni0136" unicode="&#x136;" horiz-adv-x="602" 
d="M137 700h102l-48 -276l295 276h126l-361 -337l268 -363h-126l-223 307l-54 -307h-102zM144 -232q49 21 74 60l-10 -1q-20 0 -33 13t-13 32q0 31 23.5 53.5t55.5 22.5q28 0 43 -15t15 -42q0 -49 -39 -93t-97 -68z" />
    <glyph glyph-name="uni0137" unicode="&#x137;" horiz-adv-x="496" 
d="M143 734h100l-71 -409l194 160h126l-279 -229l222 -256h-130l-158 190l-33 -190h-100zM90 -232q49 21 74 60l-10 -1q-20 0 -33 13t-13 32q0 31 23.5 53.5t55.5 22.5q28 0 43 -15t15 -42q0 -49 -39 -93t-97 -68z" />
    <glyph glyph-name="kgreenlandic" unicode="&#x138;" horiz-adv-x="517" 
d="M101 490h100l-33 -184l199 183h125l-281 -247l224 -242h-130l-159 180l-32 -180h-100z" />
    <glyph glyph-name="Lacute" unicode="&#x139;" horiz-adv-x="507" 
d="M20.5 1.5q-13.5 16.5 -13.5 34.5q0 8 3 12.5t10 10.5q9 8 15.5 17.5t9.5 26.5l105 597h102l-107 -612h302l-16 -88h-346q-18 -15 -34 -15q-17 0 -30.5 16.5zM291 954h112l-148 -182h-82z" />
    <glyph glyph-name="lacute" unicode="&#x13a;" horiz-adv-x="210" 
d="M143 734h100l-129 -734h-100zM280 988h112l-148 -182h-82z" />
    <glyph glyph-name="uni013B" unicode="&#x13b;" horiz-adv-x="507" 
d="M20.5 1.5q-13.5 16.5 -13.5 34.5q0 8 3 12.5t10 10.5q9 8 15.5 17.5t9.5 26.5l105 597h102l-107 -612h302l-16 -88h-346q-18 -15 -34 -15q-17 0 -30.5 16.5zM111 -232q49 21 74 60l-10 -1q-20 0 -33 13t-13 32q0 31 23.5 53.5t55.5 22.5q28 0 43 -15t15 -42
q0 -49 -39 -93t-97 -68z" />
    <glyph glyph-name="uni013C" unicode="&#x13c;" horiz-adv-x="210" 
d="M143 734h100l-129 -734h-100zM-40 -232q49 21 74 60l-10 -1q-20 0 -33 13t-13 32q0 31 23.5 53.5t55.5 22.5q28 0 43 -15t15 -42q0 -49 -39 -93t-97 -68z" />
    <glyph glyph-name="Lcaron" unicode="&#x13d;" horiz-adv-x="507" 
d="M20.5 1.5q-13.5 16.5 -13.5 34.5q0 8 3 12.5t10 10.5q9 8 15.5 17.5t9.5 26.5l105 597h102l-107 -612h302l-16 -88h-346q-18 -15 -34 -15q-17 0 -30.5 16.5zM381 551q26 12 46 27.5t28 31.5q-19 0 -33 13.5t-14 32.5q0 32 24.5 55t58.5 23q28 0 43.5 -16t15.5 -43
q0 -49 -43.5 -97t-105.5 -74z" />
    <glyph glyph-name="lcaron" unicode="&#x13e;" horiz-adv-x="212" 
d="M143 734h100l-129 -734h-100zM287 552q26 12 46 27.5t28 31.5q-19 0 -33 13.5t-14 32.5q0 32 24.5 55t58.5 23q28 0 43.5 -16t15.5 -43q0 -49 -43.5 -97t-105.5 -74z" />
    <glyph glyph-name="Ldot" unicode="&#x13f;" horiz-adv-x="507" 
d="M20.5 1.5q-13.5 16.5 -13.5 34.5q0 8 3 12.5t10 10.5q9 8 15.5 17.5t9.5 26.5l105 597h102l-107 -612h302l-16 -88h-346q-18 -15 -34 -15q-17 0 -30.5 16.5zM314.5 292.5q-15.5 14.5 -15.5 36.5q0 29 23.5 51t53.5 22q24 0 38 -14.5t14 -36.5q0 -29 -22 -51t-52 -22
q-24 0 -39.5 14.5z" />
    <glyph glyph-name="ldot" unicode="&#x140;" horiz-adv-x="338" 
d="M143 734h100l-129 -734h-100zM234.5 318.5q-15.5 14.5 -15.5 36.5q0 29 23.5 51t53.5 22q24 0 38 -14.5t14 -36.5q0 -29 -22 -51t-52 -22q-24 0 -39.5 14.5z" />
    <glyph glyph-name="Lslash" unicode="&#x141;" horiz-adv-x="551" 
d="M491 88l-16 -88h-346q-18 -15 -34 -15q-17 0 -30.5 16.5t-13.5 34.5q0 8 3 12.5t10 10.5q9 8 15.5 17.5t9.5 26.5l31 175l-80 -34l15 86l80 34l59 336h102l-50 -289l174 75l-16 -86l-173 -74l-42 -238h302z" />
    <glyph glyph-name="lslash" unicode="&#x142;" horiz-adv-x="263" 
d="M270 350l-77 -34l-56 -316h-100l47 269l-72 -31l15 86l72 31l67 379h100l-58 -332l77 34z" />
    <glyph glyph-name="Nacute" unicode="&#x143;" horiz-adv-x="618" 
d="M131 612q1 3 1 9q0 11 -7.5 22t-7.5 17t4 14q9 19 27.5 31.5t38.5 12.5q29 0 40 -25l226 -508l90 515h102l-123 -700h-87l-222 498l-88 -498h-102zM488 954h112l-148 -182h-82z" />
    <glyph glyph-name="nacute" unicode="&#x144;" horiz-adv-x="554" 
d="M364 67q0 20 5 48l32 180q4 20 4 41q0 39 -20.5 57.5t-61.5 18.5q-57 0 -100 -44.5t-54 -108.5l-46 -259h-100l63 358q5 28 5 48q0 28 -9 55l95 34q11 -29 11 -66q0 -11 -1 -17q34 38 81.5 60.5t95.5 22.5q71 0 107 -36.5t36 -104.5q0 -28 -6 -60l-32 -178q-3 -18 -3 -35
q0 -35 10 -56l-97 -35q-15 38 -15 77zM412 739h112l-148 -182h-82z" />
    <glyph glyph-name="uni0145" unicode="&#x145;" horiz-adv-x="618" 
d="M131 612q1 3 1 9q0 11 -7.5 22t-7.5 17t4 14q9 19 27.5 31.5t38.5 12.5q29 0 40 -25l226 -508l90 515h102l-123 -700h-87l-222 498l-88 -498h-102zM174 -232q49 21 74 60l-10 -1q-20 0 -33 13t-13 32q0 31 23.5 53.5t55.5 22.5q28 0 43 -15t15 -42q0 -49 -39 -93t-97 -68
z" />
    <glyph glyph-name="uni0146" unicode="&#x146;" horiz-adv-x="554" 
d="M364 67q0 20 5 48l32 180q4 20 4 41q0 39 -20.5 57.5t-61.5 18.5q-57 0 -100 -44.5t-54 -108.5l-46 -259h-100l63 358q5 28 5 48q0 28 -9 55l95 34q11 -29 11 -66q0 -11 -1 -17q34 38 81.5 60.5t95.5 22.5q71 0 107 -36.5t36 -104.5q0 -28 -6 -60l-32 -178q-3 -18 -3 -35
q0 -35 10 -56l-97 -35q-15 38 -15 77zM135 -232q49 21 74 60l-10 -1q-20 0 -33 13t-13 32q0 31 23.5 53.5t55.5 22.5q28 0 43 -15t15 -42q0 -49 -39 -93t-97 -68z" />
    <glyph glyph-name="Ncaron" unicode="&#x147;" horiz-adv-x="618" 
d="M131 612q1 3 1 9q0 11 -7.5 22t-7.5 17t4 14q9 19 27.5 31.5t38.5 12.5q29 0 40 -25l226 -508l90 515h102l-123 -700h-87l-222 498l-88 -498h-102zM379.5 784q-10.5 8 -10.5 19q0 6 3 12l3 5l-102 137h105l55 -93l83 93h103l-156 -155q-14 -14 -25.5 -20t-27.5 -6
q-20 0 -30.5 8z" />
    <glyph glyph-name="ncaron" unicode="&#x148;" horiz-adv-x="554" 
d="M364 67q0 20 5 48l32 180q4 20 4 41q0 39 -20.5 57.5t-61.5 18.5q-57 0 -100 -44.5t-54 -108.5l-46 -259h-100l63 358q5 28 5 48q0 28 -9 55l95 34q11 -29 11 -66q0 -11 -1 -17q34 38 81.5 60.5t95.5 22.5q71 0 107 -36.5t36 -104.5q0 -28 -6 -60l-32 -178q-3 -18 -3 -35
q0 -35 10 -56l-97 -35q-15 38 -15 77zM303.5 569q-10.5 8 -10.5 19q0 6 3 12l3 5l-102 137h105l55 -93l83 93h103l-156 -155q-14 -14 -25.5 -20t-27.5 -6q-20 0 -30.5 8z" />
    <glyph glyph-name="napostrophe" unicode="&#x149;" horiz-adv-x="554" 
d="M364 67q0 20 5 48l32 180q4 20 4 41q0 39 -20.5 57.5t-61.5 18.5q-57 0 -100 -44.5t-54 -108.5l-46 -259h-100l63 358q5 28 5 48q0 28 -9 55l95 34q11 -29 11 -66q0 -11 -1 -17q34 38 81.5 60.5t95.5 22.5q71 0 107 -36.5t36 -104.5q0 -28 -6 -60l-32 -178q-3 -18 -3 -35
q0 -35 10 -56l-97 -35q-15 38 -15 77zM-30 493q26 12 46 27.5t28 31.5q-19 0 -33 13.5t-14 32.5q0 32 24.5 55t58.5 23q28 0 43.5 -16t15.5 -43q0 -49 -43.5 -97t-105.5 -74z" />
    <glyph glyph-name="Eng" unicode="&#x14a;" horiz-adv-x="618" 
d="M200 -253q-38 13 -63 35l53 72q45 -34 103 -34q49 0 76.5 25.5t36.5 77.5l18 101l-210 474l-88 -498h-102l107 612q1 3 1 9q0 11 -7.5 22t-7.5 17t4 13q9 20 27.5 32.5t39.5 12.5q13 0 24 -6.5t16 -18.5l225 -508l90 515h102l-136 -774q-16 -92 -74.5 -142t-155.5 -50
q-41 0 -79 13z" />
    <glyph glyph-name="eng" unicode="&#x14b;" horiz-adv-x="569" 
d="M159 -205.5q-38 13.5 -59 34.5l50 68q42 -34 96 -34q43 0 65.5 23.5t32.5 81.5l58 327q4 20 4 40q0 40 -20 58.5t-63 18.5q-57 0 -100 -44.5t-54 -108.5l-46 -259h-100l63 358q5 28 5 48q0 28 -9 55l95 34q11 -29 11 -66q0 -11 -1 -17q34 39 81 61t95 22q70 0 107 -39
t37 -108q0 -22 -5 -54l-58 -322q-17 -97 -67.5 -144t-139.5 -47q-40 0 -78 13.5z" />
    <glyph glyph-name="Omacron" unicode="&#x14c;" horiz-adv-x="673" 
d="M117 60.5q-62 70.5 -62 191.5q0 134 45 238t127.5 162t191.5 58q113 0 176 -71t63 -191q0 -134 -45.5 -238t-128.5 -162t-192 -58q-113 0 -175 70.5zM435 122q56 47 87 131t31 190q0 87 -36 134.5t-113 47.5q-71 0 -126.5 -47.5t-86.5 -131t-31 -189.5q0 -182 147 -182
q72 0 128 47zM286 864h320l-14 -78h-320z" />
    <glyph glyph-name="omacron" unicode="&#x14d;" horiz-adv-x="555" 
d="M92 43q-53 53 -53 140q0 91 35.5 162t100 110.5t149.5 39.5q89 0 142 -53t53 -141q0 -91 -35 -161.5t-99.5 -110t-149.5 -39.5q-90 0 -143 53zM336 100.5q38 27.5 59 77.5t21 115q0 57 -28.5 88t-78.5 31q-49 0 -87 -27.5t-59 -77.5t-21 -115q0 -59 28 -89t79 -30
q49 0 87 27.5zM191 649h320l-14 -78h-320z" />
    <glyph glyph-name="Obreve" unicode="&#x14e;" horiz-adv-x="673" 
d="M117 60.5q-62 70.5 -62 191.5q0 134 45 238t127.5 162t191.5 58q113 0 176 -71t63 -191q0 -134 -45.5 -238t-128.5 -162t-192 -58q-113 0 -175 70.5zM435 122q56 47 87 131t31 190q0 87 -36 134.5t-113 47.5q-71 0 -126.5 -47.5t-86.5 -131t-31 -189.5q0 -182 147 -182
q72 0 128 47zM338 794.5q-35 28.5 -35 81.5q0 18 4 35l2 9h87l-2 -10q-3 -13 -3 -25q0 -24 13 -37t37 -13q29 0 47.5 19.5t25.5 55.5l2 10h87l-2 -9q-15 -70 -62 -107.5t-111 -37.5q-55 0 -90 28.5z" />
    <glyph glyph-name="obreve" unicode="&#x14f;" horiz-adv-x="555" 
d="M92 43q-53 53 -53 140q0 91 35.5 162t100 110.5t149.5 39.5q89 0 142 -53t53 -141q0 -91 -35 -161.5t-99.5 -110t-149.5 -39.5q-90 0 -143 53zM336 100.5q38 27.5 59 77.5t21 115q0 57 -28.5 88t-78.5 31q-49 0 -87 -27.5t-59 -77.5t-21 -115q0 -59 28 -89t79 -30
q49 0 87 27.5zM243 579.5q-35 28.5 -35 81.5q0 18 4 35l2 9h87l-2 -10q-3 -13 -3 -25q0 -24 13 -37t37 -13q29 0 47.5 19.5t25.5 55.5l2 10h87l-2 -9q-15 -70 -62 -107.5t-111 -37.5q-55 0 -90 28.5z" />
    <glyph glyph-name="Ohungarumlaut" unicode="&#x150;" horiz-adv-x="673" 
d="M117 60.5q-62 70.5 -62 191.5q0 134 45 238t127.5 162t191.5 58q113 0 176 -71t63 -191q0 -134 -45.5 -238t-128.5 -162t-192 -58q-113 0 -175 70.5zM435 122q56 47 87 131t31 190q0 87 -36 134.5t-113 47.5q-71 0 -126.5 -47.5t-86.5 -131t-31 -189.5q0 -182 147 -182
q72 0 128 47zM424 954h104l-156 -182h-80zM601 954h106l-181 -182h-81z" />
    <glyph glyph-name="ohungarumlaut" unicode="&#x151;" horiz-adv-x="555" 
d="M92 43q-53 53 -53 140q0 91 35.5 162t100 110.5t149.5 39.5q89 0 142 -53t53 -141q0 -91 -35 -161.5t-99.5 -110t-149.5 -39.5q-90 0 -143 53zM336 100.5q38 27.5 59 77.5t21 115q0 57 -28.5 88t-78.5 31q-49 0 -87 -27.5t-59 -77.5t-21 -115q0 -59 28 -89t79 -30
q49 0 87 27.5zM329 739h104l-156 -182h-80zM506 739h106l-181 -182h-81z" />
    <glyph glyph-name="OE" unicode="&#x152;" horiz-adv-x="973" 
d="M118 62q-63 72 -63 191q0 134 45 238t126.5 161.5t186.5 57.5q62 0 109 -24t71 -70l16 84h396l-15 -88h-298l-36 -203h214l-15 -84h-213l-43 -237h307l-16 -88h-405l15 84q-85 -94 -205 -94q-114 0 -177 72zM435 123q57 48 89.5 131.5t32.5 187.5q0 86 -38 134.5
t-115 48.5q-71 0 -126.5 -47.5t-86.5 -131.5t-31 -190q0 -86 35.5 -133.5t111.5 -47.5q71 0 128 48z" />
    <glyph glyph-name="oe" unicode="&#x153;" horiz-adv-x="908" 
d="M91 44q-52 54 -52 142t35.5 158.5t100.5 110.5t149 40q59 0 97.5 -23t61.5 -65q73 88 196 88q99 0 147 -54.5t48 -135.5q0 -62 -21 -83.5t-58 -21.5h-299q-2 -9 -2 -27q0 -47 32 -73.5t89 -26.5q88 0 149 51l42 -56q-40 -37 -93 -57.5t-112 -20.5q-123 0 -168 90
q-39 -42 -89.5 -66t-108.5 -24q-92 0 -144 54zM774 280q3 17 3 33q0 46 -28 73t-84 27q-62 0 -103.5 -38t-51.5 -95h264zM335.5 101.5q38.5 28.5 60 78.5t21.5 113q0 56 -27.5 87.5t-80.5 31.5q-48 0 -86 -28.5t-59.5 -78.5t-21.5 -113q0 -56 27 -87.5t81 -31.5
q47 0 85.5 28.5z" />
    <glyph glyph-name="Racute" unicode="&#x154;" horiz-adv-x="592" 
d="M133 608q1 4 1 10q0 13 -8.5 23.5t-8.5 17.5q0 5 3 12q7 18 24.5 32.5t37.5 14.5t36 -18h139q114 0 177 -48t63 -131q0 -102 -63.5 -166t-172.5 -75l133 -280h-116l-130 272h-72l-48 -272h-102zM300 359q191 0 191 156q0 51 -36.5 74t-110.5 23h-108l-45 -253h109z
M440 954h112l-148 -182h-82z" />
    <glyph glyph-name="racute" unicode="&#x155;" horiz-adv-x="403" 
d="M86 358q5 28 5 48q0 28 -9 55l95 34q11 -29 11 -66q0 -11 -1 -17q33 41 67.5 62t76.5 21q25 0 44.5 -6.5t39.5 -21.5l-51 -71q-25 16 -56 16q-56 0 -91 -40t-48 -108l-46 -264h-100zM318 739h112l-148 -182h-82z" />
    <glyph glyph-name="uni0156" unicode="&#x156;" horiz-adv-x="592" 
d="M133 608q1 4 1 10q0 13 -8.5 23.5t-8.5 17.5q0 5 3 12q7 18 24.5 32.5t37.5 14.5t36 -18h139q114 0 177 -48t63 -131q0 -102 -63.5 -166t-172.5 -75l133 -280h-116l-130 272h-72l-48 -272h-102zM300 359q191 0 191 156q0 51 -36.5 74t-110.5 23h-108l-45 -253h109z
M146 -232q49 21 74 60l-10 -1q-20 0 -33 13t-13 32q0 31 23.5 53.5t55.5 22.5q28 0 43 -15t15 -42q0 -49 -39 -93t-97 -68z" />
    <glyph glyph-name="uni0157" unicode="&#x157;" horiz-adv-x="403" 
d="M86 358q5 28 5 48q0 28 -9 55l95 34q11 -29 11 -66q0 -11 -1 -17q33 41 67.5 62t76.5 21q25 0 44.5 -6.5t39.5 -21.5l-51 -71q-25 16 -56 16q-56 0 -91 -40t-48 -108l-46 -264h-100zM-30 -232q49 21 74 60l-10 -1q-20 0 -33 13t-13 32q0 31 23.5 53.5t55.5 22.5
q28 0 43 -15t15 -42q0 -49 -39 -93t-97 -68z" />
    <glyph glyph-name="Rcaron" unicode="&#x158;" horiz-adv-x="592" 
d="M133 608q1 4 1 10q0 13 -8.5 23.5t-8.5 17.5q0 5 3 12q7 18 24.5 32.5t37.5 14.5t36 -18h139q114 0 177 -48t63 -131q0 -102 -63.5 -166t-172.5 -75l133 -280h-116l-130 272h-72l-48 -272h-102zM300 359q191 0 191 156q0 51 -36.5 74t-110.5 23h-108l-45 -253h109z
M331.5 784q-10.5 8 -10.5 19q0 6 3 12l3 5l-102 137h105l55 -93l83 93h103l-156 -155q-14 -14 -25.5 -20t-27.5 -6q-20 0 -30.5 8z" />
    <glyph glyph-name="rcaron" unicode="&#x159;" horiz-adv-x="403" 
d="M86 358q5 28 5 48q0 28 -9 55l95 34q11 -29 11 -66q0 -11 -1 -17q33 41 67.5 62t76.5 21q25 0 44.5 -6.5t39.5 -21.5l-51 -71q-25 16 -56 16q-56 0 -91 -40t-48 -108l-46 -264h-100zM209.5 569q-10.5 8 -10.5 19q0 6 3 12l3 5l-102 137h105l55 -93l83 93h103l-156 -155
q-14 -14 -25.5 -20t-27.5 -6q-20 0 -30.5 8z" />
    <glyph glyph-name="Sacute" unicode="&#x15a;" horiz-adv-x="588" 
d="M120.5 19.5q-65.5 29.5 -102.5 79.5l73 64q35 -46 82 -67.5t109 -21.5q71 0 110 30.5t39 86.5q0 24 -13 42t-44 35t-89 39q-91 36 -134 82.5t-43 106.5q0 65 33 113.5t93 74.5t140 26q67 0 123.5 -21t94.5 -57l-66 -70q-34 33 -71.5 48t-92.5 15q-71 0 -110 -31t-39 -87
q0 -38 32 -63t113 -57q94 -38 136.5 -80.5t42.5 -103.5q0 -100 -71.5 -156.5t-195.5 -56.5q-84 0 -149.5 29.5zM464 954h112l-148 -182h-82z" />
    <glyph glyph-name="sacute" unicode="&#x15b;" horiz-adv-x="493" 
d="M102 12.5q-54 22.5 -88 63.5l70 63q24 -33 65 -50.5t88 -17.5q46 0 70.5 16.5t24.5 48.5q0 19 -20.5 33.5t-80.5 35.5q-78 27 -113.5 59t-35.5 78q0 72 56.5 112.5t153.5 40.5q51 0 93.5 -15t72.5 -40l-48 -68q-33 23 -64 32.5t-68 9.5q-44 0 -69.5 -16.5t-25.5 -45.5
q0 -21 21 -33.5t82 -35.5q80 -29 113.5 -59t33.5 -76q0 -74 -56 -116t-153 -42q-68 0 -122 22.5zM381 739h112l-148 -182h-82z" />
    <glyph glyph-name="Scircumflex" unicode="&#x15c;" horiz-adv-x="588" 
d="M120.5 19.5q-65.5 29.5 -102.5 79.5l73 64q35 -46 82 -67.5t109 -21.5q71 0 110 30.5t39 86.5q0 24 -13 42t-44 35t-89 39q-91 36 -134 82.5t-43 106.5q0 65 33 113.5t93 74.5t140 26q67 0 123.5 -21t94.5 -57l-66 -70q-34 33 -71.5 48t-92.5 15q-71 0 -110 -31t-39 -87
q0 -38 32 -63t113 -57q94 -38 136.5 -80.5t42.5 -103.5q0 -100 -71.5 -156.5t-195.5 -56.5q-84 0 -149.5 29.5zM375 929q16 16 26.5 22t26.5 6q20 0 31 -8t11 -20q0 -5 -4 -11l-3 -6l102 -136h-105l-55 92l-83 -92h-103z" />
    <glyph glyph-name="scircumflex" unicode="&#x15d;" horiz-adv-x="493" 
d="M102 12.5q-54 22.5 -88 63.5l70 63q24 -33 65 -50.5t88 -17.5q46 0 70.5 16.5t24.5 48.5q0 19 -20.5 33.5t-80.5 35.5q-78 27 -113.5 59t-35.5 78q0 72 56.5 112.5t153.5 40.5q51 0 93.5 -15t72.5 -40l-48 -68q-33 23 -64 32.5t-68 9.5q-44 0 -69.5 -16.5t-25.5 -45.5
q0 -21 21 -33.5t82 -35.5q80 -29 113.5 -59t33.5 -76q0 -74 -56 -116t-153 -42q-68 0 -122 22.5zM292 714q16 16 26.5 22t26.5 6q20 0 31 -8t11 -20q0 -5 -4 -11l-3 -6l102 -136h-105l-55 92l-83 -92h-103z" />
    <glyph glyph-name="Scedilla" unicode="&#x15e;" horiz-adv-x="588" 
d="M494.5 306.5q42.5 -42.5 42.5 -103.5q0 -92 -61.5 -148t-170.5 -64l-33 -40q64 -10 64 -63q0 -48 -36 -78t-93 -30q-26 0 -52.5 9t-47.5 26l37 52q30 -24 65 -24q21 0 33 11t12 29q0 27 -36 27q-6 0 -20 -2l-18 24l48 60q-70 7 -124 35.5t-86 71.5l73 64q35 -46 82 -67.5
t109 -21.5q71 0 110 30.5t39 86.5q0 24 -13 42t-44 35t-89 39q-91 36 -134 82.5t-43 106.5q0 65 33 113.5t93 74.5t140 26q67 0 123.5 -21t94.5 -57l-66 -70q-34 33 -71.5 48t-92.5 15q-71 0 -110 -31t-39 -87q0 -38 32 -63t113 -57q94 -38 136.5 -80.5z" />
    <glyph glyph-name="scedilla" unicode="&#x15f;" horiz-adv-x="493" 
d="M399.5 224q33.5 -30 33.5 -76q0 -70 -50 -111t-138 -46l-32 -40q64 -10 64 -63q0 -48 -36 -78t-92 -30q-26 0 -52.5 9t-47.5 26l36 52q30 -24 66 -24q20 0 32.5 11t12.5 29q0 27 -37 27q-6 0 -20 -2l-17 24l49 62q-103 15 -157 82l70 63q24 -33 65 -50.5t88 -17.5
q46 0 70.5 16.5t24.5 48.5q0 19 -20.5 33.5t-80.5 35.5q-78 27 -113.5 59t-35.5 78q0 72 56.5 112.5t153.5 40.5q51 0 93.5 -15t72.5 -40l-48 -68q-33 23 -64 32.5t-68 9.5q-44 0 -69.5 -16.5t-25.5 -45.5q0 -21 21 -33.5t82 -35.5q80 -29 113.5 -59z" />
    <glyph glyph-name="Scaron" unicode="&#x160;" horiz-adv-x="588" 
d="M120.5 19.5q-65.5 29.5 -102.5 79.5l73 64q35 -46 82 -67.5t109 -21.5q71 0 110 30.5t39 86.5q0 24 -13 42t-44 35t-89 39q-91 36 -134 82.5t-43 106.5q0 65 33 113.5t93 74.5t140 26q67 0 123.5 -21t94.5 -57l-66 -70q-34 33 -71.5 48t-92.5 15q-71 0 -110 -31t-39 -87
q0 -38 32 -63t113 -57q94 -38 136.5 -80.5t42.5 -103.5q0 -100 -71.5 -156.5t-195.5 -56.5q-84 0 -149.5 29.5zM355.5 784q-10.5 8 -10.5 19q0 6 3 12l3 5l-102 137h105l55 -93l83 93h103l-156 -155q-14 -14 -25.5 -20t-27.5 -6q-20 0 -30.5 8z" />
    <glyph glyph-name="scaron" unicode="&#x161;" horiz-adv-x="493" 
d="M102 12.5q-54 22.5 -88 63.5l70 63q24 -33 65 -50.5t88 -17.5q46 0 70.5 16.5t24.5 48.5q0 19 -20.5 33.5t-80.5 35.5q-78 27 -113.5 59t-35.5 78q0 72 56.5 112.5t153.5 40.5q51 0 93.5 -15t72.5 -40l-48 -68q-33 23 -64 32.5t-68 9.5q-44 0 -69.5 -16.5t-25.5 -45.5
q0 -21 21 -33.5t82 -35.5q80 -29 113.5 -59t33.5 -76q0 -74 -56 -116t-153 -42q-68 0 -122 22.5zM272.5 569q-10.5 8 -10.5 19q0 6 3 12l3 5l-102 137h105l55 -93l83 93h103l-156 -155q-14 -14 -25.5 -20t-27.5 -6q-20 0 -30.5 8z" />
    <glyph glyph-name="uni0162" unicode="&#x162;" horiz-adv-x="572" 
d="M619 700l-15 -88h-200l-108 -612h-11l-40 -49q64 -10 64 -63q0 -48 -36 -78t-93 -30q-26 0 -52.5 9t-47.5 26l37 52q30 -24 65 -24q21 0 33 11t12 29q0 27 -36 27q-6 0 -20 -2l-18 24l54 68h-13l108 612h-200l15 88h502z" />
    <glyph glyph-name="uni0163" unicode="&#x163;" horiz-adv-x="379" 
d="M200 128q-2 -16 -2 -22q0 -19 9.5 -26.5t30.5 -7.5q31 0 55 11l11 -73q-28 -12 -70 -17l-34 -42q64 -10 64 -63q0 -48 -36 -78t-92 -30q-26 0 -52.5 9t-47.5 26l36 52q30 -24 66 -24q20 0 32.5 11t12.5 29q0 27 -37 27q-6 0 -20 -2l-18 24l53 65q-32 10 -48.5 34.5
t-16.5 61.5q0 11 4 37l48 273h-86l35 82h67l20 116l105 44l-29 -160h127l-34 -82h-105z" />
    <glyph glyph-name="Tcaron" unicode="&#x164;" horiz-adv-x="572" 
d="M302 612h-200l15 88h502l-15 -88h-200l-108 -612h-102zM346.5 784q-10.5 8 -10.5 19q0 6 3 12l3 5l-102 137h105l55 -93l83 93h103l-156 -155q-14 -14 -25.5 -20t-27.5 -6q-20 0 -30.5 8z" />
    <glyph glyph-name="tcaron" unicode="&#x165;" horiz-adv-x="453" 
d="M125.5 17.5q-28.5 26.5 -28.5 76.5q0 17 3 36l48 273h-86l35 82h67l20 116l105 44l-29 -160h127l-34 -82h-105l-48 -275q-2 -16 -2 -22q0 -19 9.5 -26.5t30.5 -7.5q31 0 55 11l11 -73q-16 -8 -44 -13.5t-53 -5.5q-53 0 -81.5 26.5zM414 576q26 12 46 27.5t28 31.5
q-19 0 -33 13.5t-14 32.5q0 32 24.5 55t58.5 23q28 0 43.5 -16t15.5 -43q0 -49 -43.5 -97t-105.5 -74z" />
    <glyph glyph-name="Tbar" unicode="&#x166;" horiz-adv-x="572" 
d="M404 612l-35 -201h106l-15 -88h-107l-57 -323h-102l57 323h-106l16 88h106l35 201h-200l15 88h502l-15 -88h-200z" />
    <glyph glyph-name="tbar" unicode="&#x167;" horiz-adv-x="379" 
d="M248 403l-19 -109h106l-13 -73h-106l-16 -93q-2 -9 -2 -22q0 -19 9.5 -26.5t30.5 -7.5q30 0 55 11l11 -73q-16 -8 -44 -13.5t-54 -5.5q-53 0 -81.5 26.5t-28.5 75.5q0 11 4 37l16 91h-79l13 73h79l19 109h-87l36 82h66l21 116l105 44l-29 -160h127l-35 -82h-104z" />
    <glyph glyph-name="Utilde" unicode="&#x168;" horiz-adv-x="636" 
d="M110.5 47q-62.5 57 -62.5 151q0 22 5 52l79 450h102l-80 -456q-4 -23 -4 -47q0 -122 140 -122q79 0 130 43t66 126l80 456h102l-79 -450q-23 -128 -100.5 -194t-208.5 -66q-107 0 -169.5 57zM255 813q13 39 45 65t66 26q25 0 43.5 -8.5t38.5 -23.5q14 -10 22.5 -14.5
t17.5 -4.5q37 0 53 49l50 -26q-9 -43 -37.5 -68.5t-66.5 -25.5q-21 0 -36.5 7t-39.5 22q-15 11 -25.5 16t-21.5 5q-38 0 -56 -50z" />
    <glyph glyph-name="utilde" unicode="&#x169;" horiz-adv-x="540" 
d="M79.5 32.5q-41.5 42.5 -41.5 112.5q0 24 4 44l53 296h100l-52 -295q-4 -19 -4 -37q0 -40 22 -60t69 -20q56 0 94.5 41t48.5 102l48 269h100l-64 -358q-5 -30 -5 -48q0 -28 9 -55l-95 -34q-13 37 -10 83q-31 -40 -73 -61.5t-92 -21.5q-70 0 -111.5 42.5zM171 598
q13 39 45 65t66 26q25 0 43.5 -8.5t38.5 -23.5q14 -10 22.5 -14.5t17.5 -4.5q37 0 53 49l50 -26q-9 -43 -37.5 -68.5t-66.5 -25.5q-21 0 -36.5 7t-39.5 22q-15 11 -25.5 16t-21.5 5q-38 0 -56 -50z" />
    <glyph glyph-name="Umacron" unicode="&#x16a;" horiz-adv-x="636" 
d="M110.5 47q-62.5 57 -62.5 151q0 22 5 52l79 450h102l-80 -456q-4 -23 -4 -47q0 -122 140 -122q79 0 130 43t66 126l80 456h102l-79 -450q-23 -128 -100.5 -194t-208.5 -66q-107 0 -169.5 57zM269 864h320l-14 -78h-320z" />
    <glyph glyph-name="umacron" unicode="&#x16b;" horiz-adv-x="540" 
d="M79.5 32.5q-41.5 42.5 -41.5 112.5q0 24 4 44l53 296h100l-52 -295q-4 -19 -4 -37q0 -40 22 -60t69 -20q56 0 94.5 41t48.5 102l48 269h100l-64 -358q-5 -30 -5 -48q0 -28 9 -55l-95 -34q-13 37 -10 83q-31 -40 -73 -61.5t-92 -21.5q-70 0 -111.5 42.5zM185 649h320
l-14 -78h-320z" />
    <glyph glyph-name="Ubreve" unicode="&#x16c;" horiz-adv-x="636" 
d="M110.5 47q-62.5 57 -62.5 151q0 22 5 52l79 450h102l-80 -456q-4 -23 -4 -47q0 -122 140 -122q79 0 130 43t66 126l80 456h102l-79 -450q-23 -128 -100.5 -194t-208.5 -66q-107 0 -169.5 57zM321 794.5q-35 28.5 -35 81.5q0 18 4 35l2 9h87l-2 -10q-3 -13 -3 -25
q0 -24 13 -37t37 -13q29 0 47.5 19.5t25.5 55.5l2 10h87l-2 -9q-15 -70 -62 -107.5t-111 -37.5q-55 0 -90 28.5z" />
    <glyph glyph-name="ubreve" unicode="&#x16d;" horiz-adv-x="540" 
d="M79.5 32.5q-41.5 42.5 -41.5 112.5q0 24 4 44l53 296h100l-52 -295q-4 -19 -4 -37q0 -40 22 -60t69 -20q56 0 94.5 41t48.5 102l48 269h100l-64 -358q-5 -30 -5 -48q0 -28 9 -55l-95 -34q-13 37 -10 83q-31 -40 -73 -61.5t-92 -21.5q-70 0 -111.5 42.5zM237 579.5
q-35 28.5 -35 81.5q0 18 4 35l2 9h87l-2 -10q-3 -13 -3 -25q0 -24 13 -37t37 -13q29 0 47.5 19.5t25.5 55.5l2 10h87l-2 -9q-15 -70 -62 -107.5t-111 -37.5q-55 0 -90 28.5z" />
    <glyph glyph-name="Uring" unicode="&#x16e;" horiz-adv-x="636" 
d="M110.5 47q-62.5 57 -62.5 151q0 22 5 52l79 450h102l-80 -456q-4 -23 -4 -47q0 -122 140 -122q79 0 130 43t66 126l80 456h102l-79 -450q-23 -128 -100.5 -194t-208.5 -66q-107 0 -169.5 57zM340.5 771q-28.5 22 -28.5 61q0 33 18 61t48.5 44.5t66.5 16.5
q40 0 68.5 -21.5t28.5 -61.5q0 -33 -18 -61t-48.5 -44.5t-66.5 -16.5q-40 0 -68.5 22zM459.5 822q16.5 16 16.5 40q0 17 -11.5 26.5t-29.5 9.5q-24 0 -40.5 -16.5t-16.5 -39.5q0 -17 11.5 -26.5t29.5 -9.5q24 0 40.5 16z" />
    <glyph glyph-name="uring" unicode="&#x16f;" horiz-adv-x="540" 
d="M79.5 32.5q-41.5 42.5 -41.5 112.5q0 24 4 44l53 296h100l-52 -295q-4 -19 -4 -37q0 -40 22 -60t69 -20q56 0 94.5 41t48.5 102l48 269h100l-64 -358q-5 -30 -5 -48q0 -28 9 -55l-95 -34q-13 37 -10 83q-31 -40 -73 -61.5t-92 -21.5q-70 0 -111.5 42.5zM256.5 556
q-28.5 22 -28.5 61q0 33 18 61t48.5 44.5t66.5 16.5q40 0 68.5 -21.5t28.5 -61.5q0 -33 -18 -61t-48.5 -44.5t-66.5 -16.5q-40 0 -68.5 22zM375.5 607q16.5 16 16.5 40q0 17 -11.5 26.5t-29.5 9.5q-24 0 -40.5 -16.5t-16.5 -39.5q0 -17 11.5 -26.5t29.5 -9.5q24 0 40.5 16z
" />
    <glyph glyph-name="Uhungarumlaut" unicode="&#x170;" horiz-adv-x="636" 
d="M110.5 47q-62.5 57 -62.5 151q0 22 5 52l79 450h102l-80 -456q-4 -23 -4 -47q0 -122 140 -122q79 0 130 43t66 126l80 456h102l-79 -450q-23 -128 -100.5 -194t-208.5 -66q-107 0 -169.5 57zM407 954h104l-156 -182h-80zM584 954h106l-181 -182h-81z" />
    <glyph glyph-name="uhungarumlaut" unicode="&#x171;" horiz-adv-x="540" 
d="M79.5 32.5q-41.5 42.5 -41.5 112.5q0 24 4 44l53 296h100l-52 -295q-4 -19 -4 -37q0 -40 22 -60t69 -20q56 0 94.5 41t48.5 102l48 269h100l-64 -358q-5 -30 -5 -48q0 -28 9 -55l-95 -34q-13 37 -10 83q-31 -40 -73 -61.5t-92 -21.5q-70 0 -111.5 42.5zM323 739h104
l-156 -182h-80zM500 739h106l-181 -182h-81z" />
    <glyph glyph-name="Uogonek" unicode="&#x172;" horiz-adv-x="636" 
d="M668 700l-79 -450q-20 -117 -87 -182.5t-179 -75.5q-88 -55 -88 -109q0 -30 39 -30q24 0 53 16l10 -59q-44 -29 -95 -29q-42 0 -67.5 21t-25.5 58q0 39 23.5 74t65.5 59q-88 11 -139 66t-51 139q0 22 5 52l79 450h102l-80 -456q-4 -23 -4 -47q0 -122 140 -122
q79 0 130 43t66 126l80 456h102z" />
    <glyph glyph-name="uogonek" unicode="&#x173;" horiz-adv-x="540" 
d="M349 -99q0 -14 10.5 -22t29.5 -8q23 0 53 16l10 -59q-44 -29 -96 -29q-41 0 -66.5 21.5t-25.5 58.5q0 40 26 77t70 59q-6 24 -4 58q-31 -40 -73 -61.5t-92 -21.5q-70 0 -111.5 42.5t-41.5 112.5q0 24 4 44l53 296h100l-52 -295q-4 -19 -4 -37q0 -40 22 -60t69 -20
q56 0 94.5 41t48.5 102l48 269h100l-64 -358q-5 -30 -5 -48q0 -28 9 -55q-112 -62 -112 -123z" />
    <glyph glyph-name="Wcircumflex" unicode="&#x174;" horiz-adv-x="836" 
d="M124 8q-8 9 -8 20q0 9 7 23l6 10l-5 639h102l-6 -508l231 488q13 30 50 30q27 0 41 -8.5t14 -23.5q0 -8 -4 -16l-5 -10l53 -460l173 508h103l-229 -639l3 -10q1 -3 1 -10q0 -15 -11 -27.5t-33 -18.5q-18 -5 -29 -5q-21 0 -31 13t-13 41l-58 498l-236 -498
q-14 -28 -29 -41t-36 -13q-11 0 -28 5q-15 4 -23 13zM501 929q16 16 26.5 22t26.5 6q20 0 31 -8t11 -20q0 -5 -4 -11l-3 -6l102 -136h-105l-55 92l-83 -92h-103z" />
    <glyph glyph-name="wcircumflex" unicode="&#x175;" horiz-adv-x="715" 
d="M138.5 -1.5q-10.5 8.5 -10.5 23.5q0 8 3 17l4 9l-49 437h104l19 -338l153 324q5 12 16.5 18t33.5 6q45 0 45 -27q0 -9 -5 -21l-8 -22l32 -278l138 338h104l-199 -437v-9q0 -22 -15 -35.5t-41 -13.5q-25 0 -36 8.5t-13 26.5l-36 315l-146 -315q-9 -18 -22.5 -26.5
t-38.5 -8.5q-22 0 -32.5 8.5zM399 714q16 16 26.5 22t26.5 6q20 0 31 -8t11 -20q0 -5 -4 -11l-3 -6l102 -136h-105l-55 92l-83 -92h-103z" />
    <glyph glyph-name="Ycircumflex" unicode="&#x176;" horiz-adv-x="642" 
d="M278 270l-154 430h106l110 -337l228 337h114l-306 -430l-47 -270h-98zM401 929q16 16 26.5 22t26.5 6q20 0 31 -8t11 -20q0 -5 -4 -11l-3 -6l102 -136h-105l-55 92l-83 -92h-103z" />
    <glyph glyph-name="ycircumflex" unicode="&#x177;" horiz-adv-x="575" 
d="M11 -148q71 24 118.5 67t75.5 113l-119 453h113l75 -347l187 347h116l-285 -494q-51 -88 -111.5 -139t-154.5 -82zM331 714q16 16 26.5 22t26.5 6q20 0 31 -8t11 -20q0 -5 -4 -11l-3 -6l102 -136h-105l-55 92l-83 -92h-103z" />
    <glyph glyph-name="Ydieresis" unicode="&#x178;" horiz-adv-x="642" 
d="M278 270l-154 430h106l110 -337l228 337h114l-306 -430l-47 -270h-98zM274 793.5q-15 14.5 -15 36.5q0 29 23 51t53 22q24 0 38.5 -14.5t14.5 -36.5q0 -29 -22.5 -51t-52.5 -22q-24 0 -39 14.5zM484.5 793.5q-15.5 14.5 -15.5 37.5q0 28 23.5 50t54.5 22q23 0 37.5 -14.5
t14.5 -36.5q0 -29 -22.5 -51t-51.5 -22q-25 0 -40.5 14.5z" />
    <glyph glyph-name="Zacute" unicode="&#x179;" horiz-adv-x="625" 
d="M51 -12q-18 0 -40 32q-5 7 -5 12q0 7 5 14t16 19l476 547h-369l15 88h428l9 8q13 11 29 11q17 0 29 -12q16 -16 16 -31q0 -16 -22 -41l-477 -547h396l-15 -88h-465l-12 -7q-7 -5 -14 -5zM485 954h112l-148 -182h-82z" />
    <glyph glyph-name="zacute" unicode="&#x17a;" horiz-adv-x="534" 
d="M51 -10q-12 0 -23 9.5t-18 29.5q-2 8 -2 11q0 18 24 33q11 6 20 15l329 315h-284l14 82h331q21 0 29 6q8 4 15 4q22 0 36 -22q8 -13 8 -22q0 -15 -18 -33l-353 -336h303l-14 -82h-351q-19 0 -32 -7q-6 -3 -14 -3zM404 739h112l-148 -182h-82z" />
    <glyph glyph-name="Zdotaccent" unicode="&#x17b;" horiz-adv-x="625" 
d="M51 -12q-18 0 -40 32q-5 7 -5 12q0 7 5 14t16 19l476 547h-369l15 88h428l9 8q13 11 29 11q17 0 29 -12q16 -16 16 -31q0 -16 -22 -41l-477 -547h396l-15 -88h-465l-12 -7q-7 -5 -14 -5zM376.5 805.5q-14.5 14.5 -14.5 36.5q0 29 22.5 51t52.5 22q24 0 38 -14t14 -36
q0 -30 -22.5 -52t-51.5 -22q-24 0 -38.5 14.5z" />
    <glyph glyph-name="zdotaccent" unicode="&#x17c;" horiz-adv-x="534" 
d="M51 -10q-12 0 -23 9.5t-18 29.5q-2 8 -2 11q0 18 24 33q11 6 20 15l329 315h-284l14 82h331q21 0 29 6q8 4 15 4q22 0 36 -22q8 -13 8 -22q0 -15 -18 -33l-353 -336h303l-14 -82h-351q-19 0 -32 -7q-6 -3 -14 -3zM295.5 590.5q-14.5 14.5 -14.5 36.5q0 29 22.5 51
t52.5 22q24 0 38 -14t14 -36q0 -30 -22.5 -52t-51.5 -22q-24 0 -38.5 14.5z" />
    <glyph glyph-name="Zcaron" unicode="&#x17d;" horiz-adv-x="625" 
d="M51 -12q-18 0 -40 32q-5 7 -5 12q0 7 5 14t16 19l476 547h-369l15 88h428l9 8q13 11 29 11q17 0 29 -12q16 -16 16 -31q0 -16 -22 -41l-477 -547h396l-15 -88h-465l-12 -7q-7 -5 -14 -5zM376.5 784q-10.5 8 -10.5 19q0 6 3 12l3 5l-102 137h105l55 -93l83 93h103
l-156 -155q-14 -14 -25.5 -20t-27.5 -6q-20 0 -30.5 8z" />
    <glyph glyph-name="zcaron" unicode="&#x17e;" horiz-adv-x="534" 
d="M51 -10q-12 0 -23 9.5t-18 29.5q-2 8 -2 11q0 18 24 33q11 6 20 15l329 315h-284l14 82h331q21 0 29 6q8 4 15 4q22 0 36 -22q8 -13 8 -22q0 -15 -18 -33l-353 -336h303l-14 -82h-351q-19 0 -32 -7q-6 -3 -14 -3zM295.5 569q-10.5 8 -10.5 19q0 6 3 12l3 5l-102 137h105
l55 -93l83 93h103l-156 -155q-14 -14 -25.5 -20t-27.5 -6q-20 0 -30.5 8z" />
    <glyph glyph-name="uni018F" unicode="&#x18f;" horiz-adv-x="680" 
d="M114.5 58.5q-64.5 68.5 -64.5 185.5q0 61 12 92t29.5 40t41.5 9h428q8 48 8 82q0 80 -39.5 120t-126.5 40q-101 0 -219 -70l-42 66q62 41 135 64t140 23q124 0 187 -68t63 -191q0 -130 -47.5 -235t-132.5 -165.5t-194 -60.5q-114 0 -178.5 68.5zM465.5 134
q62.5 61 82.5 169h-394q-6 -36 -6 -68q0 -78 40 -120t120 -42q95 0 157.5 61z" />
    <glyph glyph-name="florin" unicode="&#x192;" horiz-adv-x="612" 
d="M27 -126q-26 7 -46 17l44 75q35 -16 65 -16q29 0 46.5 15t32.5 56l113 322h-105l50 82h84l56 163q52 148 195 148q21 0 46 -5.5t47 -15.5l-47 -77q-27 15 -58 15q-33 0 -52 -16.5t-33 -54.5l-53 -157h147l-50 -82h-126l-117 -328q-27 -75 -72 -111.5t-115 -36.5
q-26 0 -52 7z" />
    <glyph glyph-name="Ohorn" unicode="&#x1a0;" horiz-adv-x="673" 
d="M772 789l-3 -21q-11 -67 -49.5 -107.5t-99.5 -55.5q38 -65 38 -157q0 -134 -45.5 -238t-128.5 -162t-192 -58q-113 0 -175 70.5t-62 191.5q0 134 45 238t127.5 162t191.5 58q84 0 141 -40q56 1 82 25t33 69l4 25h93zM435 122q56 47 87 131t31 190q0 87 -36 134.5
t-113 47.5q-71 0 -126.5 -47.5t-86.5 -131t-31 -189.5q0 -182 147 -182q72 0 128 47z" />
    <glyph glyph-name="ohorn" unicode="&#x1a1;" horiz-adv-x="555" 
d="M656 575l-4 -21q-11 -68 -50 -108.5t-101 -55.5q18 -39 18 -89q0 -91 -35 -161.5t-99.5 -110t-149.5 -39.5q-90 0 -143 53t-53 140q0 91 35.5 162t100 110.5t149.5 39.5q75 0 126 -39q52 2 76.5 26.5t31.5 67.5l5 25h93zM336 100.5q38 27.5 59 77.5t21 115q0 57 -28.5 88
t-78.5 31q-49 0 -87 -27.5t-59 -77.5t-21 -115q0 -59 28 -89t79 -30q49 0 87 27.5z" />
    <glyph glyph-name="Uhorn" unicode="&#x1af;" horiz-adv-x="700" 
d="M849 763l-4 -21q-13 -80 -66 -123t-134 -48l-56 -321q-23 -128 -100.5 -194t-208.5 -66q-107 0 -169.5 57t-62.5 151q0 22 5 52l79 450h102l-80 -456q-4 -23 -4 -47q0 -122 140 -122q79 0 130 43t66 126l80 456h102l-10 -55q44 6 65 29.5t28 63.5l5 25h93z" />
    <glyph glyph-name="uhorn" unicode="&#x1b0;" horiz-adv-x="540" 
d="M705 574l-4 -21q-13 -80 -65.5 -123t-132.5 -48l-46 -255q-5 -30 -5 -48q0 -28 9 -55l-95 -34q-13 37 -10 83q-31 -40 -73 -61.5t-92 -21.5q-70 0 -111.5 42.5t-41.5 112.5q0 24 4 44l53 296h100l-52 -295q-4 -19 -4 -37q0 -40 22 -60t69 -20q56 0 94.5 41t48.5 102
l48 269h100l-5 -28q43 5 63.5 28.5t27.5 63.5l5 25h93z" />
    <glyph glyph-name="uni01CD" unicode="&#x1cd;" horiz-adv-x="679" 
d="M358 668q27 50 73 50q26 0 40 -10.5t14 -27.5q0 -9 -8 -23l123 -657h-104l-32 189h-257l-99 -189h-111zM455 271l-50 306l-158 -306h208zM405.5 784q-10.5 8 -10.5 19q0 6 3 12l3 5l-102 137h105l55 -93l83 93h103l-156 -155q-14 -14 -25.5 -20t-27.5 -6q-20 0 -30.5 8z
" />
    <glyph glyph-name="uni01CE" unicode="&#x1ce;" horiz-adv-x="573" 
d="M84.5 41.5q-47.5 51.5 -47.5 135.5q0 88 36 161t98.5 115t138.5 42q91 0 134 -74l11 64h97l-63 -356q-5 -25 -5 -52q0 -33 10 -54l-87 -33q-17 23 -17 61q0 13 1 20l-3 1q-36 -40 -81 -61t-95 -21q-80 0 -127.5 51.5zM353.5 115q43.5 43 54.5 110l6 34q3 17 3 33
q0 52 -28 86.5t-83 34.5q-47 0 -85 -29.5t-60 -81t-22 -114.5q0 -55 26.5 -85.5t77.5 -30.5q67 0 110.5 43zM300.5 569q-10.5 8 -10.5 19q0 6 3 12l3 5l-102 137h105l55 -93l83 93h103l-156 -155q-14 -14 -25.5 -20t-27.5 -6q-20 0 -30.5 8z" />
    <glyph glyph-name="uni01CF" unicode="&#x1cf;" horiz-adv-x="293" 
d="M176 700h102l-123 -700h-102zM205.5 784q-10.5 8 -10.5 19q0 6 3 12l3 5l-102 137h105l55 -93l83 93h103l-156 -155q-14 -14 -25.5 -20t-27.5 -6q-20 0 -30.5 8z" />
    <glyph glyph-name="uni01D0" unicode="&#x1d0;" horiz-adv-x="256" 
d="M122 485h99l-86 -485h-99zM149.5 569q-10.5 8 -10.5 19q0 6 3 12l3 5l-102 137h105l55 -93l83 93h103l-156 -155q-14 -14 -25.5 -20t-27.5 -6q-20 0 -30.5 8z" />
    <glyph glyph-name="uni01D1" unicode="&#x1d1;" horiz-adv-x="673" 
d="M117 60.5q-62 70.5 -62 191.5q0 134 45 238t127.5 162t191.5 58q113 0 176 -71t63 -191q0 -134 -45.5 -238t-128.5 -162t-192 -58q-113 0 -175 70.5zM435 122q56 47 87 131t31 190q0 87 -36 134.5t-113 47.5q-71 0 -126.5 -47.5t-86.5 -131t-31 -189.5q0 -182 147 -182
q72 0 128 47zM395.5 784q-10.5 8 -10.5 19q0 6 3 12l3 5l-102 137h105l55 -93l83 93h103l-156 -155q-14 -14 -25.5 -20t-27.5 -6q-20 0 -30.5 8z" />
    <glyph glyph-name="uni01D2" unicode="&#x1d2;" horiz-adv-x="555" 
d="M92 43q-53 53 -53 140q0 91 35.5 162t100 110.5t149.5 39.5q89 0 142 -53t53 -141q0 -91 -35 -161.5t-99.5 -110t-149.5 -39.5q-90 0 -143 53zM336 100.5q38 27.5 59 77.5t21 115q0 57 -28.5 88t-78.5 31q-49 0 -87 -27.5t-59 -77.5t-21 -115q0 -59 28 -89t79 -30
q49 0 87 27.5zM300.5 569q-10.5 8 -10.5 19q0 6 3 12l3 5l-102 137h105l55 -93l83 93h103l-156 -155q-14 -14 -25.5 -20t-27.5 -6q-20 0 -30.5 8z" />
    <glyph glyph-name="uni01D3" unicode="&#x1d3;" horiz-adv-x="636" 
d="M110.5 47q-62.5 57 -62.5 151q0 22 5 52l79 450h102l-80 -456q-4 -23 -4 -47q0 -122 140 -122q79 0 130 43t66 126l80 456h102l-79 -450q-23 -128 -100.5 -194t-208.5 -66q-107 0 -169.5 57zM378.5 784q-10.5 8 -10.5 19q0 6 3 12l3 5l-102 137h105l55 -93l83 93h103
l-156 -155q-14 -14 -25.5 -20t-27.5 -6q-20 0 -30.5 8z" />
    <glyph glyph-name="uni01D4" unicode="&#x1d4;" horiz-adv-x="540" 
d="M79.5 32.5q-41.5 42.5 -41.5 112.5q0 24 4 44l53 296h100l-52 -295q-4 -19 -4 -37q0 -40 22 -60t69 -20q56 0 94.5 41t48.5 102l48 269h100l-64 -358q-5 -30 -5 -48q0 -28 9 -55l-95 -34q-13 37 -10 83q-31 -40 -73 -61.5t-92 -21.5q-70 0 -111.5 42.5zM294.5 569
q-10.5 8 -10.5 19q0 6 3 12l3 5l-102 137h105l55 -93l83 93h103l-156 -155q-14 -14 -25.5 -20t-27.5 -6q-20 0 -30.5 8z" />
    <glyph glyph-name="uni01D5" unicode="&#x1d5;" horiz-adv-x="636" 
d="M110.5 47q-62.5 57 -62.5 151q0 22 5 52l79 450h102l-80 -456q-4 -23 -4 -47q0 -122 140 -122q79 0 130 43t66 126l80 456h102l-79 -450q-23 -128 -100.5 -194t-208.5 -66q-107 0 -169.5 57zM271 793.5q-15 14.5 -15 36.5q0 29 23 51t53 22q24 0 38.5 -14.5t14.5 -36.5
q0 -29 -22.5 -51t-52.5 -22q-24 0 -39 14.5zM481.5 793.5q-15.5 14.5 -15.5 37.5q0 28 23.5 50t54.5 22q23 0 37.5 -14.5t14.5 -36.5q0 -29 -22.5 -51t-51.5 -22q-25 0 -40.5 14.5zM301 1048h320l-14 -78h-320z" />
    <glyph glyph-name="uni01D6" unicode="&#x1d6;" horiz-adv-x="540" 
d="M79.5 32.5q-41.5 42.5 -41.5 112.5q0 24 4 44l53 296h100l-52 -295q-4 -19 -4 -37q0 -40 22 -60t69 -20q56 0 94.5 41t48.5 102l48 269h100l-64 -358q-5 -30 -5 -48q0 -28 9 -55l-95 -34q-13 37 -10 83q-31 -40 -73 -61.5t-92 -21.5q-70 0 -111.5 42.5zM187 578.5
q-15 14.5 -15 36.5q0 29 23 51t53 22q24 0 38.5 -14.5t14.5 -36.5q0 -29 -22.5 -51t-52.5 -22q-24 0 -39 14.5zM397.5 578.5q-15.5 14.5 -15.5 37.5q0 28 23.5 50t54.5 22q23 0 37.5 -14.5t14.5 -36.5q0 -29 -22.5 -51t-51.5 -22q-25 0 -40.5 14.5zM217 833h320l-14 -78
h-320z" />
    <glyph glyph-name="uni01D7" unicode="&#x1d7;" horiz-adv-x="636" 
d="M110.5 47q-62.5 57 -62.5 151q0 22 5 52l79 450h102l-80 -456q-4 -23 -4 -47q0 -122 140 -122q79 0 130 43t66 126l80 456h102l-79 -450q-23 -128 -100.5 -194t-208.5 -66q-107 0 -169.5 57zM496 1061h100l-127 -150h-73zM279 793.5q-14 13.5 -14 34.5q0 27 21.5 47.5
t49.5 20.5q21 0 35 -13.5t14 -34.5q0 -26 -21 -47t-48 -21q-23 0 -37 13.5zM477.5 794q-14.5 14 -14.5 34q0 27 21.5 47.5t49.5 20.5q22 0 35.5 -13.5t13.5 -34.5q0 -26 -21 -47t-48 -21q-22 0 -36.5 14z" />
    <glyph glyph-name="uni01D8" unicode="&#x1d8;" horiz-adv-x="540" 
d="M79.5 32.5q-41.5 42.5 -41.5 112.5q0 24 4 44l53 296h100l-52 -295q-4 -19 -4 -37q0 -40 22 -60t69 -20q56 0 94.5 41t48.5 102l48 269h100l-64 -358q-5 -30 -5 -48q0 -28 9 -55l-95 -34q-13 37 -10 83q-31 -40 -73 -61.5t-92 -21.5q-70 0 -111.5 42.5zM412 846h100
l-127 -150h-73zM195 578.5q-14 13.5 -14 34.5q0 27 21.5 47.5t49.5 20.5q21 0 35 -13.5t14 -34.5q0 -26 -21 -47t-48 -21q-23 0 -37 13.5zM393.5 579q-14.5 14 -14.5 34q0 27 21.5 47.5t49.5 20.5q22 0 35.5 -13.5t13.5 -34.5q0 -26 -21 -47t-48 -21q-22 0 -36.5 14z" />
    <glyph glyph-name="uni01D9" unicode="&#x1d9;" horiz-adv-x="636" 
d="M110.5 47q-62.5 57 -62.5 151q0 22 5 52l79 450h102l-80 -456q-4 -23 -4 -47q0 -122 140 -122q79 0 130 43t66 126l80 456h102l-79 -450q-23 -128 -100.5 -194t-208.5 -66q-107 0 -169.5 57zM398.5 909q-9.5 8 -9.5 18q0 7 2 10l3 5l-94 122h97l52 -81l76 81h95
l-143 -138q-14 -14 -24.5 -19.5t-25.5 -5.5q-19 0 -28.5 8zM279 793.5q-14 13.5 -14 34.5q0 27 21.5 47.5t49.5 20.5q21 0 35 -13.5t14 -34.5q0 -26 -21 -47t-48 -21q-23 0 -37 13.5zM477.5 794q-14.5 14 -14.5 34q0 27 21.5 47.5t49.5 20.5q22 0 35.5 -13.5t13.5 -34.5
q0 -26 -21 -47t-48 -21q-22 0 -36.5 14z" />
    <glyph glyph-name="uni01DA" unicode="&#x1da;" horiz-adv-x="540" 
d="M79.5 32.5q-41.5 42.5 -41.5 112.5q0 24 4 44l53 296h100l-52 -295q-4 -19 -4 -37q0 -40 22 -60t69 -20q56 0 94.5 41t48.5 102l48 269h100l-64 -358q-5 -30 -5 -48q0 -28 9 -55l-95 -34q-13 37 -10 83q-31 -40 -73 -61.5t-92 -21.5q-70 0 -111.5 42.5zM314.5 694
q-9.5 8 -9.5 18q0 7 2 10l3 5l-94 122h97l52 -81l76 81h95l-143 -138q-14 -14 -24.5 -19.5t-25.5 -5.5q-19 0 -28.5 8zM195 578.5q-14 13.5 -14 34.5q0 27 21.5 47.5t49.5 20.5q21 0 35 -13.5t14 -34.5q0 -26 -21 -47t-48 -21q-23 0 -37 13.5zM393.5 579q-14.5 14 -14.5 34
q0 27 21.5 47.5t49.5 20.5q22 0 35.5 -13.5t13.5 -34.5q0 -26 -21 -47t-48 -21q-22 0 -36.5 14z" />
    <glyph glyph-name="uni01DB" unicode="&#x1db;" horiz-adv-x="636" 
d="M110.5 47q-62.5 57 -62.5 151q0 22 5 52l79 450h102l-80 -456q-4 -23 -4 -47q0 -122 140 -122q79 0 130 43t66 126l80 456h102l-79 -450q-23 -128 -100.5 -194t-208.5 -66q-107 0 -169.5 57zM326 1061h101l47 -150h-73zM278.5 793.5q-13.5 13.5 -13.5 34.5q0 27 21 47.5
t49 20.5q22 0 36 -14t14 -34q0 -27 -21.5 -47.5t-49.5 -20.5q-22 0 -35.5 13.5zM476.5 794q-13.5 14 -13.5 34q0 27 21.5 47.5t49.5 20.5q21 0 35 -13.5t14 -33.5q0 -27 -21 -48t-49 -21q-23 0 -36.5 14z" />
    <glyph glyph-name="uni01DC" unicode="&#x1dc;" horiz-adv-x="540" 
d="M79.5 32.5q-41.5 42.5 -41.5 112.5q0 24 4 44l53 296h100l-52 -295q-4 -19 -4 -37q0 -40 22 -60t69 -20q56 0 94.5 41t48.5 102l48 269h100l-64 -358q-5 -30 -5 -48q0 -28 9 -55l-95 -34q-13 37 -10 83q-31 -40 -73 -61.5t-92 -21.5q-70 0 -111.5 42.5zM242 846h101
l47 -150h-73zM194.5 578.5q-13.5 13.5 -13.5 34.5q0 27 21 47.5t49 20.5q22 0 36 -14t14 -34q0 -27 -21.5 -47.5t-49.5 -20.5q-22 0 -35.5 13.5zM392.5 579q-13.5 14 -13.5 34q0 27 21.5 47.5t49.5 20.5q21 0 35 -13.5t14 -33.5q0 -27 -21 -48t-49 -21q-23 0 -36.5 14z" />
    <glyph glyph-name="Gcaron" unicode="&#x1e6;" horiz-adv-x="657" 
d="M178.5 23.5q-59.5 33.5 -91 95t-31.5 143.5q0 130 47.5 232t135 159t204.5 57q64 0 115 -22t80 -61l-54 -72q-27 35 -63.5 52.5t-92.5 17.5q-76 0 -136.5 -44.5t-95 -125t-34.5 -183.5q0 -95 43.5 -146t129.5 -51q42 0 71 7t58 24l33 189h-161l15 85h204q17 16 35 16
q17 0 29.5 -16.5t14.5 -34.5q0 -8 -3 -13t-10 -10q-9 -7 -15.5 -16t-9.5 -28l-38 -219q-68 -38 -121.5 -53.5t-118.5 -15.5q-80 0 -139.5 33.5zM416.5 784q-10.5 8 -10.5 19q0 6 3 12l3 5l-102 137h105l55 -93l83 93h103l-156 -155q-14 -14 -25.5 -20t-27.5 -6
q-20 0 -30.5 8z" />
    <glyph glyph-name="gcaron" unicode="&#x1e7;" horiz-adv-x="575" 
d="M24 -181l43 75q53 -29 125 -29q86 0 126.5 43t54.5 122l7 42q-31 -34 -72.5 -53t-88.5 -19q-84 0 -132 50.5t-48 136.5q0 89 33.5 159t93.5 110t136 40q100 0 149 -82q6 26 18.5 47.5t27.5 35.5l77 -32q-17 -23 -26.5 -47.5t-16.5 -61.5l-58 -324q-22 -124 -96.5 -187
t-199.5 -63q-84 0 -153 37zM354.5 128q43.5 46 55.5 108l5 25q3 18 3 36q0 52 -29.5 85t-84.5 33q-47 0 -84.5 -28t-58.5 -78t-21 -113q0 -114 108 -114q63 0 106.5 46zM316.5 569q-10.5 8 -10.5 19q0 6 3 12l3 5l-102 137h105l55 -93l83 93h103l-156 -155
q-14 -14 -25.5 -20t-27.5 -6q-20 0 -30.5 8z" />
    <glyph glyph-name="Aringacute" unicode="&#x1fa;" horiz-adv-x="679" 
d="M358 668q27 50 73 50q26 0 40 -10.5t14 -27.5q0 -9 -8 -23l123 -657h-104l-32 189h-257l-99 -189h-111zM455 271l-50 306l-158 -306h208zM367.5 771q-28.5 22 -28.5 61q0 33 18 61t48.5 44.5t66.5 16.5q40 0 68.5 -21.5t28.5 -61.5q0 -33 -18 -61t-48.5 -44.5
t-66.5 -16.5q-40 0 -68.5 22zM486.5 822q16.5 16 16.5 40q0 17 -11.5 26.5t-29.5 9.5q-24 0 -40.5 -16.5t-16.5 -39.5q0 -17 11.5 -26.5t29.5 -9.5q24 0 40.5 16zM552 1172h112l-148 -182h-82z" />
    <glyph glyph-name="aringacute" unicode="&#x1fb;" horiz-adv-x="573" 
d="M84.5 41.5q-47.5 51.5 -47.5 135.5q0 88 36 161t98.5 115t138.5 42q91 0 134 -74l11 64h97l-63 -356q-5 -25 -5 -52q0 -33 10 -54l-87 -33q-17 23 -17 61q0 13 1 20l-3 1q-36 -40 -81 -61t-95 -21q-80 0 -127.5 51.5zM353.5 115q43.5 43 54.5 110l6 34q3 17 3 33
q0 52 -28 86.5t-83 34.5q-47 0 -85 -29.5t-60 -81t-22 -114.5q0 -55 26.5 -85.5t77.5 -30.5q67 0 110.5 43zM262.5 556q-28.5 22 -28.5 61q0 33 18 61t48.5 44.5t66.5 16.5q40 0 68.5 -21.5t28.5 -61.5q0 -33 -18 -61t-48.5 -44.5t-66.5 -16.5q-40 0 -68.5 22zM381.5 607
q16.5 16 16.5 40q0 17 -11.5 26.5t-29.5 9.5q-24 0 -40.5 -16.5t-16.5 -39.5q0 -17 11.5 -26.5t29.5 -9.5q24 0 40.5 16zM447 957h112l-148 -182h-82z" />
    <glyph glyph-name="AEacute" unicode="&#x1fc;" horiz-adv-x="819" 
d="M407 700h443l-15 -88h-290l-36 -203h206l-15 -84h-206l-42 -237h299l-15 -88h-396l33 189h-154l-108 -189h-110zM387 271l58 323l-185 -323h127zM646 954h112l-148 -182h-82z" />
    <glyph glyph-name="aeacute" unicode="&#x1fd;" horiz-adv-x="894" 
d="M67.5 25.5q-43.5 35.5 -43.5 94.5q0 53 28.5 94t80 63.5t117.5 22.5h145l2 11q1 5 1 14q0 37 -28 62.5t-76 25.5q-44 0 -82.5 -13.5t-75.5 -40.5l-41 58q43 36 99.5 57t115.5 21q113 0 151 -92h1q34 42 86 67t118 25q99 0 147.5 -50.5t48.5 -129.5q0 -50 -12 -74t-28 -30
t-40 -6h-303l-2 -12q-2 -16 -2 -22q0 -43 33 -70.5t92 -27.5q87 0 154 55l41 -60q-94 -78 -207 -78q-67 0 -114.5 30.5t-60.5 76.5h-1q-38 -49 -96 -78t-130 -29q-75 0 -118.5 35.5zM761 284q3 17 3 31q0 46 -29 72t-84 26q-41 0 -75.5 -17t-55.5 -43.5t-24 -54.5l-2 -14
h267zM290 89.5q36 16.5 58 43.5t28 57l5 31h-149q-50 0 -78 -24t-28 -66q0 -58 84 -58q44 0 80 16.5zM555 739h112l-148 -182h-82z" />
    <glyph glyph-name="Oslashacute" unicode="&#x1fe;" horiz-adv-x="673" 
d="M592 642q32 -35 49 -84t17 -110q0 -134 -45.5 -238t-128.5 -162t-192 -58q-87 0 -145 43l-76 -104l-41 25l82 112q-57 71 -57 186q0 134 45 238t127.5 162t191.5 58q81 0 136 -37l72 98l41 -25zM177 155l322 441q-35 29 -95 29q-71 0 -126.5 -47.5t-86.5 -131t-31 -189.5
q0 -62 17 -102zM530 557l-325 -445q35 -37 102 -37q72 0 128 47t87 131t31 190q0 71 -23 114zM496 954h112l-148 -182h-82z" />
    <glyph glyph-name="oslashacute" unicode="&#x1ff;" horiz-adv-x="555" 
d="M503 386q16 -38 16 -85q0 -91 -35 -161.5t-99.5 -110t-149.5 -39.5q-56 0 -98 21l-60 -82l-41 25l61 84q-28 26 -43 63t-15 82q0 91 35.5 162t100 110.5t149.5 39.5q52 0 93 -19l59 80l41 -25l-59 -81q29 -26 45 -64zM158 120l204 280q-23 12 -53 12q-49 0 -87 -27.5
t-59 -77.5t-21 -115q0 -44 16 -72zM336 100.5q38 27.5 59 77.5t21 115q0 47 -18 75l-206 -282q23 -13 57 -13q49 0 87 27.5zM409 739h112l-148 -182h-82z" />
    <glyph glyph-name="uni0218" unicode="&#x218;" horiz-adv-x="588" 
d="M120.5 19.5q-65.5 29.5 -102.5 79.5l73 64q35 -46 82 -67.5t109 -21.5q71 0 110 30.5t39 86.5q0 24 -13 42t-44 35t-89 39q-91 36 -134 82.5t-43 106.5q0 65 33 113.5t93 74.5t140 26q67 0 123.5 -21t94.5 -57l-66 -70q-34 33 -71.5 48t-92.5 15q-71 0 -110 -31t-39 -87
q0 -38 32 -63t113 -57q94 -38 136.5 -80.5t42.5 -103.5q0 -100 -71.5 -156.5t-195.5 -56.5q-84 0 -149.5 29.5zM163 -232q49 21 74 60l-10 -1q-20 0 -33 13t-13 32q0 31 23.5 53.5t55.5 22.5q28 0 43 -15t15 -42q0 -49 -39 -93t-97 -68z" />
    <glyph glyph-name="uni0219" unicode="&#x219;" horiz-adv-x="493" 
d="M102 12.5q-54 22.5 -88 63.5l70 63q24 -33 65 -50.5t88 -17.5q46 0 70.5 16.5t24.5 48.5q0 19 -20.5 33.5t-80.5 35.5q-78 27 -113.5 59t-35.5 78q0 72 56.5 112.5t153.5 40.5q51 0 93.5 -15t72.5 -40l-48 -68q-33 23 -64 32.5t-68 9.5q-44 0 -69.5 -16.5t-25.5 -45.5
q0 -21 21 -33.5t82 -35.5q80 -29 113.5 -59t33.5 -76q0 -74 -56 -116t-153 -42q-68 0 -122 22.5zM104 -232q49 21 74 60l-10 -1q-20 0 -33 13t-13 32q0 31 23.5 53.5t55.5 22.5q28 0 43 -15t15 -42q0 -49 -39 -93t-97 -68z" />
    <glyph glyph-name="uni021A" unicode="&#x21a;" horiz-adv-x="572" 
d="M302 612h-200l15 88h502l-15 -88h-200l-108 -612h-102zM136 -232q49 21 74 60l-10 -1q-20 0 -33 13t-13 32q0 31 23.5 53.5t55.5 22.5q28 0 43 -15t15 -42q0 -49 -39 -93t-97 -68z" />
    <glyph glyph-name="uni021B" unicode="&#x21b;" horiz-adv-x="379" 
d="M125.5 17.5q-28.5 26.5 -28.5 76.5q0 17 3 36l48 273h-86l35 82h67l20 116l105 44l-29 -160h127l-34 -82h-105l-48 -275q-2 -16 -2 -22q0 -19 9.5 -26.5t30.5 -7.5q31 0 55 11l11 -73q-16 -8 -44 -13.5t-53 -5.5q-53 0 -81.5 26.5zM91 -232q49 21 74 60l-10 -1
q-20 0 -33 13t-13 32q0 31 23.5 53.5t55.5 22.5q28 0 43 -15t15 -42q0 -49 -39 -93t-97 -68z" />
    <glyph glyph-name="uni0237" unicode="&#x237;" horiz-adv-x="430" 
d="M19 -205.5q-38 13.5 -59 34.5l50 68q42 -34 96 -34q43 0 65.5 24t32.5 81l92 517h100l-91 -513q-17 -98 -67 -144.5t-141 -46.5q-40 0 -78 13.5z" />
    <glyph glyph-name="uni0251" unicode="&#x251;" horiz-adv-x="573" 
d="M85.5 42q-47.5 52 -47.5 137q0 90 37.5 162t103.5 113t148 41q94 0 143 -51t49 -128q0 -23 -4 -43l-26 -144q-5 -35 -5 -53q0 -32 10 -53l-87 -33q-17 26 -17 60q0 13 1 21l-2 1q-76 -82 -176 -82q-80 0 -127.5 52zM353.5 115q43.5 43 55.5 110l5 34q4 23 4 48
q0 52 -26 79t-84 27q-47 0 -85.5 -29t-60.5 -80t-22 -116q0 -116 103 -116q67 0 110.5 43z" />
    <glyph glyph-name="uni0259" unicode="&#x259;" horiz-adv-x="549" 
d="M124.5 16.5q-44.5 26.5 -66.5 70t-22 93.5q0 62 21 83.5t58 21.5h298q3 17 3 31q0 45 -29.5 70.5t-91.5 25.5q-87 0 -149 -49l-43 56q38 35 91.5 55.5t114.5 20.5q97 0 150.5 -51.5t53.5 -140.5t-34.5 -160t-98 -112t-146.5 -41q-65 0 -109.5 26.5zM348 111.5
q42 39.5 51 93.5h-263q-3 -15 -3 -28q0 -47 29 -76t83 -29q61 0 103 39.5z" />
    <glyph glyph-name="uni02BB" unicode="&#x2bb;" horiz-adv-x="235" 
d="M121 544.5q-16 15.5 -16 42.5q0 49 43.5 97t105.5 75l20 -47q-25 -12 -45 -28t-29 -31q20 0 33.5 -13.5t13.5 -32.5q0 -31 -24.5 -54.5t-57.5 -23.5q-28 0 -44 15.5z" />
    <glyph glyph-name="uni02BC" unicode="&#x2bc;" horiz-adv-x="240" 
d="M104 576q26 12 46 27.5t28 31.5q-19 0 -33 13.5t-14 32.5q0 32 24.5 55t58.5 23q28 0 43.5 -16t15.5 -43q0 -49 -43.5 -97t-105.5 -74z" />
    <glyph glyph-name="uni02BE" unicode="&#x2be;" 
d="M-12 584h11q23 0 38.5 14t15.5 36q0 15 -10.5 24t-29.5 9h-11l11 66h12q49 0 77 -23.5t28 -63.5q0 -55 -40.5 -91t-101.5 -36h-12z" />
    <glyph glyph-name="uni02BF" unicode="&#x2bf;" 
d="M14 542q-28 23 -28 62q0 55 40.5 92t101.5 37h12l-12 -66h-11q-23 0 -38.5 -14t-15.5 -36q0 -15 10.5 -24t29.5 -9h11l-11 -65h-12q-49 0 -77 23z" />
    <glyph glyph-name="circumflex" unicode="&#x2c6;" horiz-adv-x="425" 
d="M249 699q16 16 26.5 22t26.5 6q20 0 31 -8.5t11 -19.5q0 -6 -3 -11l-4 -6l102 -136h-105l-55 92l-83 -92h-103z" />
    <glyph glyph-name="caron" unicode="&#x2c7;" horiz-adv-x="425" 
d="M231.5 554q-10.5 8 -10.5 19q0 6 3 12l3 5l-102 137h105l55 -93l83 93h103l-156 -155q-14 -14 -25.5 -20t-27.5 -6q-20 0 -30.5 8z" />
    <glyph glyph-name="uni02C8" unicode="&#x2c8;" 
d="M43 748h92l-33 -188h-92z" />
    <glyph glyph-name="uni02C9" unicode="&#x2c9;" horiz-adv-x="436" 
d="M114 643h350l-14 -79h-350z" />
    <glyph glyph-name="uni02CA" unicode="&#x2ca;" 
d="M-37 589l176 150l53 -65l-183 -141z" />
    <glyph glyph-name="uni02CB" unicode="&#x2cb;" 
d="M-24 674l77 65l122 -150l-65 -56z" />
    <glyph glyph-name="uni02CC" unicode="&#x2cc;" 
d="M-93 -20h92l-33 -188h-92z" />
    <glyph glyph-name="breve" unicode="&#x2d8;" horiz-adv-x="379" 
d="M151 564.5q-35 28.5 -35 80.5q0 19 4 36l2 9h86l-2 -10q-3 -13 -3 -24q0 -25 13 -38t37 -13q59 0 75 75l2 10h85l-2 -9q-15 -70 -61.5 -107.5t-110.5 -37.5q-55 0 -90 28.5z" />
    <glyph glyph-name="dotaccent" unicode="&#x2d9;" horiz-adv-x="211" 
d="M123.5 575.5q-14.5 14.5 -14.5 36.5q0 29 22.5 51t52.5 22q24 0 38.5 -14.5t14.5 -36.5q0 -29 -22.5 -51t-52.5 -22q-24 0 -38.5 14.5z" />
    <glyph glyph-name="ring" unicode="&#x2da;" horiz-adv-x="311" 
d="M135.5 541q-28.5 22 -28.5 61q0 33 18 61t48.5 44.5t66.5 16.5q41 0 69.5 -21.5t28.5 -61.5q0 -33 -18 -61t-49 -44.5t-67 -16.5q-40 0 -68.5 22zM254.5 592q16.5 16 16.5 40q0 17 -11.5 26.5t-29.5 9.5q-23 0 -39.5 -16t-16.5 -40q0 -17 11 -26.5t29 -9.5q24 0 40.5 16z
" />
    <glyph glyph-name="ogonek" unicode="&#x2db;" horiz-adv-x="284" 
d="M2.5 -197.5q-25.5 21.5 -25.5 58.5q0 44 31.5 83.5t84.5 61.5h82q-112 -61 -112 -123q0 -30 39 -30q24 0 53 16l9 -59q-44 -29 -94 -29q-42 0 -67.5 21.5z" />
    <glyph glyph-name="tilde" unicode="&#x2dc;" horiz-adv-x="410" 
d="M103 583q13 40 45 65.5t67 25.5q25 0 42 -8.5t38 -23.5q11 -7 21.5 -13t19.5 -6q19 0 31.5 11.5t21.5 37.5l50 -26q-9 -42 -38 -68t-66 -26q-21 0 -38 7.5t-38 21.5q-15 11 -26 16t-22 5q-37 0 -55 -50z" />
    <glyph glyph-name="hungarumlaut" unicode="&#x2dd;" horiz-adv-x="469" 
d="M228 724h103l-156 -182h-79zM404 724h107l-181 -182h-81z" />
    <glyph glyph-name="gravecomb" unicode="&#x300;" 
d="M-5 724h113l52 -182h-82z" />
    <glyph glyph-name="acutecomb" unicode="&#x301;" 
d="M96 724h112l-148 -182h-82z" />
    <glyph glyph-name="uni0302" unicode="&#x302;" 
d="M37 699q16 16 26.5 22t26.5 6q20 0 31 -8t11 -20q0 -5 -4 -11l-3 -6l102 -136h-105l-55 92l-83 -92h-103z" />
    <glyph glyph-name="tildecomb" unicode="&#x303;" 
d="M-105 583q13 39 45 65t66 26q25 0 43.5 -8.5t38.5 -23.5q14 -10 22.5 -14.5t17.5 -4.5q37 0 53 49l50 -26q-9 -43 -37.5 -68.5t-66.5 -25.5q-21 0 -36.5 7t-39.5 22q-15 11 -25.5 16t-21.5 5q-38 0 -56 -50z" />
    <glyph glyph-name="uni0304" unicode="&#x304;" 
d="M-91 634h320l-14 -78h-320z" />
    <glyph glyph-name="uni0306" unicode="&#x306;" 
d="M-39 564.5q-35 28.5 -35 81.5q0 18 4 35l2 9h87l-2 -10q-3 -13 -3 -25q0 -24 13 -37t37 -13q29 0 47.5 19.5t25.5 55.5l2 10h87l-2 -9q-15 -70 -62 -107.5t-111 -37.5q-55 0 -90 28.5z" />
    <glyph glyph-name="uni0307" unicode="&#x307;" 
d="M17.5 575.5q-14.5 14.5 -14.5 36.5q0 29 22.5 51t52.5 22q24 0 38 -14t14 -36q0 -30 -22.5 -52t-51.5 -22q-24 0 -38.5 14.5z" />
    <glyph glyph-name="uni0308" unicode="&#x308;" 
d="M-89 563.5q-15 14.5 -15 36.5q0 29 23 51t53 22q24 0 38.5 -14.5t14.5 -36.5q0 -29 -22.5 -51t-52.5 -22q-24 0 -39 14.5zM121.5 563.5q-15.5 14.5 -15.5 37.5q0 28 23.5 50t54.5 22q23 0 37.5 -14.5t14.5 -36.5q0 -29 -22.5 -51t-51.5 -22q-25 0 -40.5 14.5z" />
    <glyph glyph-name="hookabovecomb" unicode="&#x309;" 
d="M-176 581.5q12 15.5 33 34.5q19 15 28 27t9 28q0 10 -7 15.5t-20 5.5q-32 0 -62 -33l-46 40q58 66 136 66q43 0 67.5 -19t24.5 -52q0 -30 -11.5 -47.5t-34.5 -37.5q-19 -17 -29.5 -30.5t-13.5 -34.5h-90q4 22 16 37.5z" />
    <glyph glyph-name="uni030A" unicode="&#x30a;" 
d="M-19.5 541q-28.5 22 -28.5 61q0 33 18 61t48.5 44.5t66.5 16.5q40 0 68.5 -21.5t28.5 -61.5q0 -33 -18 -61t-48.5 -44.5t-66.5 -16.5q-40 0 -68.5 22zM99.5 592q16.5 16 16.5 40q0 17 -11.5 26.5t-29.5 9.5q-24 0 -40.5 -16.5t-16.5 -39.5q0 -17 11.5 -26.5t29.5 -9.5
q24 0 40.5 16z" />
    <glyph glyph-name="uni030B" unicode="&#x30b;" 
d="M47 724h104l-156 -182h-80zM224 724h106l-181 -182h-81z" />
    <glyph glyph-name="uni030C" unicode="&#x30c;" 
d="M17.5 554q-10.5 8 -10.5 19q0 6 3 12l3 5l-102 137h105l55 -93l83 93h103l-156 -155q-14 -14 -25.5 -20t-27.5 -6q-20 0 -30.5 8z" />
    <glyph glyph-name="uni031B" unicode="&#x31b;" 
d="M-66 421q57 0 83.5 24.5t33.5 69.5l5 25h93l-4 -21q-14 -87 -73.5 -129.5t-150.5 -42.5z" />
    <glyph glyph-name="dotbelowcomb" unicode="&#x323;" 
d="M-109 -140q-15 14 -15 36q0 30 22.5 52t53.5 22q23 0 37 -14t14 -36q0 -30 -22 -52t-51 -22q-24 0 -39 14z" />
    <glyph glyph-name="uni0324" unicode="&#x324;" 
d="M-210 -142.5q-15 14.5 -15 36.5q0 29 22.5 51t53.5 22q24 0 38 -14.5t14 -36.5q0 -29 -22.5 -51t-51.5 -22q-24 0 -39 14.5zM-7 -142.5q-15 14.5 -15 36.5q0 29 23 51t53 22q24 0 38 -14.5t14 -35.5q0 -30 -22 -52t-52 -22q-24 0 -39 14.5z" />
    <glyph glyph-name="uni0326" unicode="&#x326;" 
d="M-261 -232q49 21 74 60l-10 -1q-20 0 -33 13t-13 32q0 31 23.5 53.5t55.5 22.5q28 0 43 -15t15 -42q0 -49 -39 -93t-97 -68z" />
    <glyph glyph-name="uni0327" unicode="&#x327;" 
d="M-147.5 -211q-26.5 9 -47.5 26l36 52q30 -24 66 -24q20 0 32.5 11t12.5 29q0 27 -37 27q-6 0 -20 -2l-18 24l60 74h77l-45 -55q64 -10 64 -63q0 -48 -36 -78t-92 -30q-26 0 -52.5 9z" />
    <glyph glyph-name="uni0328" unicode="&#x328;" 
d="M-156.5 -198q-25.5 21 -25.5 58q0 45 31.5 84.5t83.5 61.5h82q-112 -62 -112 -123q0 -14 10.5 -22t29.5 -8q23 0 53 16l10 -59q-44 -29 -96 -29q-41 0 -66.5 21z" />
    <glyph glyph-name="uni032E" unicode="&#x32e;" 
d="M-168.5 -168q-34.5 28 -34.5 81q0 10 4 34l2 10h86l-2 -11q-3 -14 -3 -23q0 -49 50 -49q60 0 74 72l2 11h86l-2 -10q-14 -69 -61 -106t-111 -37q-56 0 -90.5 28z" />
    <glyph glyph-name="uni0331" unicode="&#x331;" 
d="M-213 -58h320l-14 -78h-320z" />
    <glyph glyph-name="uni0394" unicode="&#x394;" horiz-adv-x="685" 
d="M362 668q14 25 30.5 37.5t42.5 12.5q27 0 40.5 -10t13.5 -26q0 -17 -9 -26l122 -656h-601zM487 90l-82 464l-247 -464h329z" />
    <glyph glyph-name="uni03A9" unicode="&#x3a9;" horiz-adv-x="715" 
d="M57 88h149l13 72q-71 24 -109.5 75.5t-38.5 128.5q0 102 44 180t127.5 122t197.5 44q80 0 141.5 -28t95.5 -80t34 -122q0 -78 -30 -144.5t-84.5 -112.5t-125.5 -63l-13 -72h149l-15 -88h-251l39 223q107 10 166.5 74t59.5 170q0 75 -47.5 116.5t-131.5 41.5
q-74 0 -131 -31t-88.5 -88.5t-31.5 -135.5q0 -66 37.5 -102.5t118.5 -44.5l-39 -223h-251z" />
    <glyph glyph-name="uni03BC" unicode="&#x3bc;" horiz-adv-x="548" 
d="M103 485h100l-53 -295q-3 -19 -3 -36q0 -40 21.5 -60.5t69.5 -20.5q56 0 95 41t49 102l48 269h100l-64 -358q-5 -32 -5 -50q0 -27 9 -53l-95 -34q-12 29 -12 66q0 11 1 17q-64 -83 -157 -83q-27 0 -50 8.5t-36 23.5l-48 -272h-100z" />
    <glyph glyph-name="pi" unicode="&#x3c0;" horiz-adv-x="642" 
d="M398.5 18q-27.5 27 -27.5 76q0 17 3 36l46 258h-159l-69 -388h-102l69 388h-100l14 82h572l-14 -82h-111l-46 -260q-2 -16 -2 -22q0 -18 8.5 -26t27.5 -8q30 0 51 10l12 -74q-19 -7 -45.5 -12t-50.5 -5q-49 0 -76.5 27z" />
    <glyph glyph-name="uni0E01" unicode="&#xe01;" horiz-adv-x="646" 
d="M126 259q7 45 33 72l-92 67q21 54 68 101t111.5 75.5t133.5 28.5q74 0 122.5 -25t78.5 -74q10 8 19 8q13 0 25 -12q13 -16 13 -32q0 -12 -4.5 -19t-13.5 -14q-10 -9 -15 -16t-7 -20l-70 -399h-100l71 401q3 25 15 44q-19 38 -52.5 57.5t-91.5 19.5q-67 0 -117.5 -26.5
t-81.5 -71.5l42 -30q33 33 76 46l23 -62q-38 -17 -57.5 -42t-25.5 -63l-49 -273h-100z" />
    <glyph glyph-name="uni0E02" unicode="&#xe02;" horiz-adv-x="593" 
d="M126 -10q-24 0 -36 28q-4 9 -4 19t6 18.5t19 16.5q11 7 17 18.5t10 31.5l8 48q7 39 28.5 67t59.5 63q31 28 49.5 49t31.5 50.5t13 67.5q0 33 -18 50.5t-49 17.5q-26 0 -51 -10v-4q36 -2 55.5 -21t19.5 -48q0 -31 -16.5 -57.5t-45 -42t-61.5 -15.5q-40 0 -64 23t-24 63
q0 48 28 89.5t74.5 66t101.5 24.5q67 0 104.5 -33.5t37.5 -92.5q0 -46 -14.5 -81t-34.5 -60t-53 -57q-33 -33 -50.5 -56t-22.5 -51l-9 -53q-4 -25 -20 -41h192l90 515h100l-92 -522q-6 -32 -29 -51.5t-56 -19.5h-244q-17 0 -33 -6q-7 -4 -18 -4zM208 408q16 15 16 35
q0 15 -10.5 25t-26.5 10q-21 0 -36.5 -15.5t-15.5 -35.5q0 -16 10 -25t27 -9q20 0 36 15z" />
    <glyph glyph-name="uni0E03" unicode="&#xe03;" horiz-adv-x="633" 
d="M167 -10q-24 0 -35 28q-5 13 -5 20q0 17 26 34q10 7 16 18.5t9 31.5l9 51q9 51 39 92.5t80 92.5q44 45 64.5 73.5t20.5 59.5q0 23 -14 35l-30 -19q3 -10 3 -19q0 -18 -20 -27q-9 -4 -17 -4q-13 0 -17 14q-9 32 -23.5 48t-41.5 16q-48 0 -72 -62h1q11 7 25.5 11.5
t25.5 4.5q32 0 50.5 -20.5t18.5 -50.5q0 -47 -35.5 -80.5t-84.5 -33.5q-42 0 -65.5 25.5t-23.5 70.5q0 54 23.5 100.5t63 74.5t85.5 28q33 0 53 -10.5t36 -31.5l37 27q23 15 37 15q17 0 30 -11q20 -19 30 -39.5t10 -47.5q0 -48 -23.5 -87t-70.5 -89q-43 -49 -66 -83.5
t-30 -76.5l-9 -50q-5 -24 -20 -41h191l91 515h99l-92 -522q-6 -32 -29 -51.5t-56 -19.5h-243q-17 0 -33 -6q-7 -4 -18 -4zM205.5 374q15.5 15 15.5 35q0 15 -10 24.5t-26 9.5q-21 0 -36.5 -14.5t-15.5 -34.5q0 -16 10.5 -25.5t26.5 -9.5q20 0 35.5 15z" />
    <glyph glyph-name="uni0E04" unicode="&#xe04;" horiz-adv-x="637" 
d="M491 401q4 24 15 44q-39 78 -144 78q-80 0 -132 -41t-66 -122q-9 -51 -9 -107q0 -6 -1 -33t-6 -58h2q19 33 29.5 60t20.5 59q2 7 10 29.5t19 42.5q38 68 113 68q44 0 68 -21.5t24 -59.5q0 -51 -34.5 -85t-88.5 -34q-15 0 -29.5 4.5t-24.5 12.5q-28 -70 -55 -117.5
t-78 -103.5q-21 -24 -42 -24q-14 0 -29 12q-19 15 -19 26q0 12 17 31q16 19 16 60q0 15 -4 63q-6 58 -6 96q0 108 42 180.5t112 107t155 34.5q75 0 128.5 -26.5t82.5 -72.5q10 8 18 8q11 0 21 -12q13 -15 13 -31q0 -12 -4.5 -19.5t-13.5 -14.5q-9 -9 -14 -16.5t-7 -19.5
l-71 -399h-99zM352.5 291q15.5 15 15.5 35q0 15 -10 25t-26 10q-20 0 -35.5 -15.5t-15.5 -35.5q0 -15 10 -24.5t26 -9.5q20 0 35.5 15z" />
    <glyph glyph-name="uni0E05" unicode="&#xe05;" horiz-adv-x="637" 
d="M494 421q5 25 15 44q-2 29 -14 43.5t-38 14.5q-34 0 -61 -24q2 -8 -5 -17t-22 -15q-13 -6 -24 -6q-16 0 -25 20q-10 21 -21 31.5t-31 10.5q-38 0 -62.5 -38.5t-39.5 -124.5q-8 -45 -10 -107q0 -6 -1 -33t-6 -58h3q18 32 27.5 55.5t22.5 63.5q16 50 28 72q38 68 114 68
q43 0 67.5 -21.5t24.5 -59.5q0 -51 -35 -85t-89 -34q-32 0 -54 17q-26 -68 -53.5 -116.5t-78.5 -104.5q-21 -24 -42 -24q-15 0 -30 12q-18 14 -18 26t17 31q15 18 15 60q0 15 -4 63q-5 73 -5 96q0 94 26 167t74.5 114t113.5 41t95 -54q23 25 52.5 39.5t60.5 14.5
q84 0 99 -79q10 8 17 8q10 0 22 -12q13 -15 13 -31q0 -12 -4.5 -19t-13.5 -15q-10 -9 -15 -16t-7 -20l-73 -419h-99zM354.5 291q15.5 15 15.5 35q0 15 -10 25t-26 10q-21 0 -36 -15.5t-15 -35.5q0 -15 10 -24.5t25 -9.5q21 0 36.5 15z" />
    <glyph glyph-name="uni0E06" unicode="&#xe06;" horiz-adv-x="674" 
d="M91 14.5q-26 24.5 -26 66.5q0 67 47.5 115.5t121.5 57.5l1 10q4 25 23 48.5t54 56.5q40 38 61 66t21 58q0 12 -3.5 18.5t-11.5 14.5l-30 -19q4 -9 4 -19q0 -18 -21 -27q-8 -4 -17 -4q-13 0 -17 13q-9 33 -23.5 49t-41.5 16q-25 0 -45 -16t-29 -42h2q9 7 22.5 11t26.5 4
q32 0 51 -20.5t19 -50.5t-15.5 -56t-42.5 -41.5t-59 -15.5q-43 0 -67 27t-24 71q0 54 23.5 99t63.5 71.5t87 26.5q32 0 52 -10.5t36 -31.5l37 27q22 15 38 15q18 0 29 -11q21 -20 30.5 -39t9.5 -45q0 -46 -21.5 -77.5t-63.5 -71.5q-31 -28 -47.5 -49t-19.5 -46l-1 -10
q51 -6 99.5 -28t80.5 -59l75 426h98l-104 -593h-98l11 62q-50 96 -183 118l-15 -84q-8 -48 -42.5 -77t-85.5 -29q-44 0 -70 24.5zM205.5 378.5q15.5 15.5 15.5 34.5q0 15 -10.5 25t-25.5 10q-21 0 -36.5 -15.5t-15.5 -35.5q0 -15 10.5 -24.5t26.5 -9.5q20 0 35.5 15.5z
M197.5 61.5q10.5 9.5 14.5 28.5l17 100q-41 -7 -65.5 -35t-24.5 -68q0 -35 33 -35q15 0 25.5 9.5z" />
    <glyph glyph-name="uni0E07" unicode="&#xe07;" horiz-adv-x="514" 
d="M324 -11q-19 0 -35 16q-13 13 -13 23q0 8 8 18l-242 283l73 62l219 -255q7 16 9 27l43 244q-20 -6 -32 -6q-34 0 -57 22.5t-23 58.5q0 52 36.5 86.5t92.5 34.5q45 0 73 -24.5t28 -62.5q0 -7 -2 -19l-65 -363q-7 -40 -24 -69.5t-54 -60.5q-16 -15 -35 -15zM417.5 472
q14.5 15 14.5 35q0 15 -10 25t-26 10q-22 0 -37 -14t-15 -37q0 -15 10.5 -24.5t26.5 -9.5q22 0 36.5 15z" />
    <glyph glyph-name="uni0E08" unicode="&#xe08;" horiz-adv-x="620" 
d="M354 -9q-22 0 -32 16q-8 13 -8 22q0 17 24 36l-10 166q-9 -9 -27 -14t-35 -5q-37 0 -61.5 23t-24.5 59q0 49 36 83.5t90 34.5q45 0 69 -24.5t26 -68.5l6 -177l88 279q7 20 17 30q-23 34 -61.5 52.5t-97.5 18.5q-131 0 -197 -118l-80 27q40 76 116.5 124t175.5 48
q73 0 120.5 -25.5t80.5 -70.5q7 4 14 4q13 0 27 -19q9 -12 9 -23q0 -14 -22 -31q-18 -15 -25 -35l-112 -327q-12 -36 -70 -74q-17 -11 -36 -11zM319 283q15 15 15 35q0 14 -10 24t-26 10q-20 0 -35 -15t-15 -35q0 -15 10 -24.5t26 -9.5q20 0 35 15z" />
    <glyph glyph-name="uni0E09" unicode="&#xe09;" horiz-adv-x="647" 
d="M371.5 14.5q-27.5 24.5 -27.5 59.5q0 30 17.5 58t47.5 44v3q-50 0 -99 -42.5t-106 -126.5q-6 -9 -15.5 -14t-19.5 -5q-18 0 -32 11q-19 16 -19 31q0 9 10 22q24 25 29 56l11 61q-11 -5 -29 -5q-35 0 -58 22t-23 57q0 52 37.5 87t93.5 35q45 0 71.5 -23t26.5 -59
q0 -13 -4 -27.5t-9 -22.5l-11 -66q81 78 177 78q10 0 28 -2l27 156q5 31 18 46q-39 74 -151 74q-65 0 -118.5 -28t-86.5 -82l-80 27q40 73 116 118.5t178 45.5q76 0 129 -25t80 -71q9 7 18 7q15 0 28 -19q10 -16 10 -26q0 -11 -7 -18q-4 -5 -12.5 -14t-14.5 -19t-8 -23
l-37 -208q26 -24 26 -65q0 -36 -17.5 -66t-48.5 -48t-71 -18q-47 0 -74.5 24.5zM200.5 237q15.5 15 15.5 35q0 15 -10.5 25t-25.5 10q-21 0 -36.5 -15t-15.5 -35q0 -16 10 -25.5t27 -9.5q20 0 35.5 15zM495 69.5q16 16.5 16 38.5q0 16 -10.5 26.5t-28.5 10.5
q-22 0 -39 -16.5t-17 -38.5q0 -17 11 -27t29 -10q23 0 39 16.5z" />
    <glyph glyph-name="uni0E0A" unicode="&#xe0a;" horiz-adv-x="661" 
d="M147 -10q-24 0 -36 28q-4 9 -4 19t6 18.5t20 16.5q11 7 17 18.5t9 31.5l9 52q7 39 26.5 67.5t52.5 62.5q40 40 60.5 75t20.5 89q0 32 -18 49.5t-49 17.5q-26 0 -51 -10v-4q36 -2 55.5 -21t19.5 -48q0 -48 -35.5 -81.5t-87.5 -33.5q-40 0 -64 23.5t-24 63.5q0 50 27 91
t73.5 64.5t101.5 23.5q67 0 105.5 -33.5t38.5 -91.5q0 -61 -21.5 -101t-62.5 -85q-30 -34 -46.5 -59t-22.5 -57l-10 -57q-5 -24 -20 -41h194l50 284q3 17 3 27q0 14 -5.5 21t-19.5 11q-18 6 -18 25q0 16 11 30q81 110 192 170l45 -69q-43 -22 -85.5 -55t-67.5 -64
q25 -9 36 -24t11 -38q0 -9 -4 -37l-51 -288q-6 -32 -29 -51.5t-56 -19.5h-244q-18 0 -34 -6q-7 -4 -18 -4zM208 408q16 15 16 35q0 15 -10.5 25t-26.5 10q-21 0 -36.5 -15.5t-15.5 -35.5q0 -16 10 -25t27 -9q20 0 36 15z" />
    <glyph glyph-name="uni0E0B" unicode="&#xe0b;" horiz-adv-x="694" 
d="M182 -10q-24 0 -36 28q-4 11 -4 20q0 18 26 34q11 8 16.5 19.5t8.5 30.5l9 51q9 51 35.5 91.5t70.5 89.5q39 43 58 73t19 64q0 22 -13 35l-29 -20q4 -9 4 -19q0 -16 -21 -26q-12 -5 -18 -5q-11 0 -16 15q-8 33 -22 48.5t-41 15.5q-45 0 -70 -62h1q10 7 24.5 11t26.5 4
q32 0 50.5 -20.5t18.5 -50.5t-16 -56.5t-44 -42t-60 -15.5q-42 0 -65.5 25.5t-23.5 70.5q0 54 23 101t62 74.5t85 27.5q33 0 52.5 -10t35.5 -31l35 25q23 16 38 16q18 0 28 -10q20 -19 29 -40t9 -48q0 -50 -20.5 -88t-61.5 -89q-37 -48 -57.5 -81.5t-27.5 -76.5l-9 -50
q-5 -25 -21 -41h194l50 284q3 20 3 31q0 13 -4 19.5t-14 8.5q-19 6 -19 26q0 15 10 28q84 115 187 171l45 -69q-44 -23 -82.5 -54.5t-64.5 -64.5q22 -9 31 -23t9 -36q0 -20 -4 -40l-50 -288q-6 -32 -29 -51.5t-56 -19.5h-243q-19 0 -35 -6q-7 -4 -17 -4zM205.5 373.5
q15.5 15.5 15.5 34.5q0 15 -10 24.5t-26 9.5q-21 0 -36.5 -14.5t-15.5 -34.5q0 -16 10 -25.5t27 -9.5q20 0 35.5 15.5z" />
    <glyph glyph-name="uni0E0C" unicode="&#xe0c;" horiz-adv-x="919" 
d="M125.5 14.5q-26.5 24.5 -26.5 63.5q0 6 2 20l28 161q7 45 33 72l-92 67q21 54 68.5 101t112.5 75.5t134 28.5q132 0 193 -99q10 8 18 8q9 0 21 -12q14 -15 14 -31q0 -12 -4.5 -19t-13.5 -15q-10 -9 -15 -16t-7 -20l-25 -144q120 -14 185 -88l75 426h98l-105 -593h-98
l12 63q-27 52 -67 79t-93 36q6 -18 6 -41q0 -65 -34.5 -106t-92.5 -41q-42 0 -66.5 24.5t-24.5 66.5q0 52 28.5 96t76.5 69l28 156q6 31 14 43q-19 38 -50.5 57.5t-85.5 19.5q-67 0 -117 -26.5t-81 -71.5l42 -30q14 14 34.5 27t42.5 19l22 -62q-37 -17 -56.5 -41.5
t-26.5 -63.5l-17 -93q19 7 35 7q32 0 52 -21.5t20 -55.5q0 -52 -35.5 -86t-91.5 -34q-43 0 -69.5 24.5zM496.5 73q14.5 25 14.5 65q0 30 -13 53q-31 -12 -49.5 -41t-18.5 -64q0 -18 7.5 -28t21.5 -10q23 0 37.5 25zM239.5 63q14.5 15 14.5 36q0 15 -10 24.5t-26 9.5
q-20 0 -35.5 -15t-15.5 -35q0 -15 10 -25t26 -10q22 0 36.5 15z" />
    <glyph glyph-name="uni0E0D" unicode="&#xe0d;" horiz-adv-x="909" 
d="M441 -133.5q-38 25.5 -38 69.5q0 32 17 59t46 43.5t65 16.5q43 0 67.5 -21t24.5 -54q0 -18 -7 -33.5t-20 -26.5l-1 -1q55 6 92 50.5t49 120.5h-241q-20 0 -34 -7q-7 -4 -17 -4q-24 0 -36 28q-5 13 -5 20q0 10 6 18.5t20 16.5q12 7 17.5 18t9.5 32l33 189q3 25 14 43
q-19 38 -51.5 58t-86.5 20q-126 0 -194 -98l42 -30q33 33 76 46l23 -62q-37 -17 -56.5 -41.5t-26.5 -63.5l-17 -93q19 7 34 7q34 0 53.5 -19.5t19.5 -53.5q0 -53 -37 -88.5t-92 -35.5q-43 0 -69 23.5t-26 63.5q0 7 2 21l29 161q7 45 33 72l-92 67q21 55 67 102t109 75
t132 28q76 0 122 -25t76 -74q10 8 18 8q10 0 22 -12q14 -15 14 -31q0 -12 -4.5 -19t-13.5 -15q-10 -9 -15 -16t-7 -20l-34 -195q-7 -26 -18 -35h210l75 424h100l-87 -496q-13 -73 -52.5 -131t-101 -91.5t-138.5 -33.5q-62 0 -100 25.5zM235.5 63q15.5 15 15.5 36
q0 15 -10.5 24.5t-26.5 9.5q-20 0 -35.5 -15t-15.5 -35q0 -15 10.5 -25t25.5 -10q21 0 36.5 15zM543 -74.5q15 14.5 15 33.5q0 15 -10.5 24.5t-25.5 9.5q-19 0 -34 -15t-15 -34q0 -14 10 -23.5t25 -9.5q20 0 35 14.5z" />
    <glyph glyph-name="uni0E0E" unicode="&#xe0e;" horiz-adv-x="650" 
d="M-0.5 -334q-27.5 25 -27.5 66q0 66 52.5 102.5t132.5 31.5l9 48h83l-9 -54q43 -13 73 -41t41 -67q38 25 50 89l99 560q5 28 15 43q-39 78 -138 78q-65 0 -117 -26.5t-82 -70.5l48 -33q38 36 76 46l23 -62q-38 -17 -56.5 -42t-24.5 -64l-24 -131q5 -13 5 -29
q0 -50 -35 -85t-92 -35q-44 0 -69.5 24.5t-25.5 64.5q0 46 31 78t75 32q9 0 21 -4l12 70q11 55 30 74l-99 69q22 55 70.5 102t113.5 75t133 28q74 0 120 -25t75 -74q10 8 19 8q10 0 22 -12q14 -16 14 -31q0 -12 -4.5 -19t-13.5 -15t-14.5 -15.5t-7.5 -20.5l-99 -559
q-22 -125 -160 -189q-22 -10 -38 -10q-22 0 -32 19q-5 12 -5 19q0 18 22 32q-13 60 -65 77l-2 -13q-10 -57 -49.5 -95.5t-101.5 -38.5q-46 0 -73.5 25zM145 63q15 15 15 35q0 15 -10.5 25t-25.5 10q-21 0 -36 -14t-15 -36q0 -16 10 -25.5t26 -9.5q21 0 36 15zM144 -225l5 25
q-7 1 -19 1q-35 0 -55.5 -16t-20.5 -43q0 -14 8.5 -22.5t24.5 -8.5q46 0 57 64z" />
    <glyph glyph-name="uni0E0F" unicode="&#xe0f;" horiz-adv-x="660" 
d="M-35.5 -338q-21.5 21 -21.5 56q0 39 21 70.5t57 47.5t79 13l8 46h78l-10 -53q32 -9 52 -29t25 -49q16 17 28.5 25.5t26.5 8.5q13 0 21 -5.5t16 -18.5l16 -25q5 -8 8.5 -11.5t9.5 -3.5q16 0 21 23l114 644q4 27 14 43q-39 78 -138 78q-65 0 -116.5 -27t-81.5 -70l48 -33
q15 15 35.5 28t39.5 18l23 -62q-37 -16 -56 -41t-26 -65l-23 -131q5 -13 5 -29q0 -50 -37.5 -85t-91.5 -35q-44 0 -69 23.5t-25 59.5q0 30 15.5 56.5t40.5 43t52 16.5q8 0 20 -4l12 70q5 26 12 44t19 30l-100 69q22 54 70 101t113 75.5t134 28.5q73 0 119.5 -25t76.5 -74
q10 7 20 7q12 0 20 -11q14 -15 14 -31q0 -12 -4.5 -19.5t-13.5 -14.5q-9 -9 -14 -16.5t-7 -19.5l-116 -655q-9 -49 -35 -76t-69 -27q-41 0 -62 31l-20 29q-6 9 -10 12.5t-10 3.5q-9 0 -21 -15l-37 -45q-11 -16 -28 -16q-11 0 -23 9q-12 8 -12 19q0 10 10 25l13 19
q1 24 -6.5 38t-25.5 22l-1 -9q-8 -54 -42 -88.5t-92 -34.5q-41 0 -62.5 21zM154.5 63q15.5 15 15.5 35q0 15 -10.5 25t-25.5 10q-21 0 -36 -15t-15 -35q0 -15 10 -25t26 -10q20 0 35.5 15zM72.5 -287q11.5 12 17.5 43l5 30l-15 1q-32 0 -50.5 -15t-18.5 -42q0 -14 8 -21.5
t20 -7.5q22 0 33.5 12z" />
    <glyph glyph-name="uni0E10" unicode="&#xe10;" horiz-adv-x="626" 
d="M343 -9q-24 0 -34 16q-8 13 -8 21q0 9 6.5 17.5t19.5 19.5l-15 127q-10 -9 -27.5 -14t-35.5 -5q-36 0 -61 23.5t-25 59.5q0 49 36 81.5t89 32.5q45 0 68.5 -23.5t25.5 -67.5l7 -149l62 193q1 2 6 16.5t13 23.5q-28 19 -82 30t-112 11t-103 -12l-9 -16q-9 -13 -30 -13
q-14 0 -24 5q-21 9 -21 26q0 9 8 25q46 88 117.5 136t167.5 48q34 0 65 -5.5t75 -15.5q6 -1 43.5 -9t76.5 -11l-37 -78q-33 4 -99 19q-43 10 -74.5 15.5t-69.5 5.5q-51 0 -86 -15.5t-55 -49.5q36 6 76 6q63 0 122 -13t91 -36q9 7 17 7q15 0 26 -15q12 -15 12 -26
q0 -14 -17 -28q-12 -11 -23 -43l-77 -235q-12 -35 -69 -74q-17 -11 -36 -11zM302.5 243q15.5 15 15.5 35q0 15 -10 24.5t-26 9.5q-23 0 -37.5 -14.5t-14.5 -34.5q0 -16 10.5 -25.5t26.5 -9.5q20 0 35.5 15zM-29.5 -338.5q-21.5 20.5 -21.5 55.5q0 54 40.5 91t98.5 37
q11 0 17 -1l10 58h76l-12 -68q36 -12 57 -37t26 -61q33 21 68 21q30 0 57 -16l10 54q-7 -4 -17.5 -6t-18.5 -2q-32 0 -52 19.5t-20 51.5q0 46 33.5 77t82.5 31q41 0 63 -20t22 -55q0 -7 -2 -23l-25 -144q4 -5 4 -13q0 -17 -23 -37q-19 -17 -35 -17q-17 0 -40 20
q-17 16 -47 16q-20 0 -40 -9t-35 -27q-12 -14 -29 -14q-11 0 -21 6q-16 12 -16 23q0 8 9 22l12 19q-2 22 -10 34.5t-25 20.5q-9 -59 -45 -93t-88 -34q-42 0 -63.5 20.5zM420.5 -155q14.5 14 14.5 34q0 14 -9.5 23.5t-25.5 9.5q-20 0 -34.5 -14t-14.5 -34q0 -15 9.5 -24
t26.5 -9q19 0 33.5 14zM94 -246l6 29q-7 2 -21 2q-27 0 -45 -15.5t-18 -40.5q0 -28 31 -28q37 0 47 53z" />
    <glyph glyph-name="uni0E11" unicode="&#xe11;" horiz-adv-x="762" 
d="M212.5 13.5q-7.5 9.5 -7.5 19.5q0 11 9 20q15 19 19 40l31 179q8 44 27 76t51 70q23 28 33 44t10 34q0 15 -15 32l-32 -21q3 -7 3 -14q0 -15 -21 -26q-10 -6 -18 -6q-11 0 -16 15q-9 30 -23.5 44.5t-37.5 14.5q-49 0 -68 -69h2q9 7 24 11.5t27 4.5q32 0 50.5 -20.5
t18.5 -50.5q0 -46 -35 -79.5t-84 -33.5q-42 0 -66 27t-24 73q0 55 22.5 102t60.5 75t82 28q32 0 51.5 -9.5t34.5 -30.5l36 23q25 17 40 17q18 0 32 -12q38 -38 38 -78q0 -26 -11.5 -47t-35.5 -51q-27 -33 -42.5 -59.5t-22.5 -63.5l-16 -92l236 398q46 0 75 -11.5t53 -36.5
q11 9 23 9q13 0 22 -10q7 -6 11 -15t4 -16q0 -11 -4.5 -18t-12.5 -15q-9 -9 -14.5 -17.5t-8.5 -23.5l-79 -444h-97l78 444q7 33 18 49q-6 9 -18 15.5t-23 6.5l-294 -494q-16 -30 -45 -30q-13 0 -31 8q-12 5 -19.5 14.5zM204.5 367q15.5 15 15.5 35q0 15 -10 25t-26 10
q-21 0 -36.5 -15t-15.5 -35q0 -15 10.5 -25t26.5 -10q20 0 35.5 15z" />
    <glyph glyph-name="uni0E12" unicode="&#xe12;" horiz-adv-x="919" 
d="M386.5 14q-24.5 24 -24.5 66q0 52 28.5 97t75.5 69l31 172q4 27 15 43q-2 31 -14 46.5t-41 15.5q-31 0 -60 -24q2 -8 -4.5 -17t-22.5 -15q-15 -6 -25 -6q-17 0 -24 19q-9 21 -21 32t-32 11q-49 0 -78.5 -70t-29.5 -185l1 -67q0 -24 -3 -51h2q31 36 53.5 57.5t48.5 36.5
q-21 7 -34 26.5t-13 44.5q0 49 37 83t90 34q43 0 69 -23t26 -60q0 -71 -88 -122q-58 -34 -108 -83.5t-108 -126.5q-19 -24 -42 -24q-17 0 -32 12q-18 14 -18 27q0 12 15 29q6 6 12 24.5t6 53.5q0 24 -6 74q-6 56 -6 89q0 137 55.5 219t156.5 82q65 0 96 -54q22 24 51.5 39
t60.5 15q44 0 68.5 -22.5t31.5 -58.5q9 6 17 6q11 0 22 -11q14 -17 14 -31q0 -12 -4 -18t-14 -16q-10 -8 -15.5 -15.5t-7.5 -20.5l-29 -161q122 -14 185 -88l75 426h98l-104 -593h-98l11 63q-27 52 -66.5 79t-92.5 36q7 -23 7 -42q0 -64 -35 -105t-92 -41q-42 0 -66.5 24z
M354 301q15 15 15 35q0 15 -10 24.5t-26 9.5q-20 0 -35.5 -15t-15.5 -35q0 -16 10 -25t26 -9q21 0 36 15zM498 73.5q15 25.5 15 64.5q0 29 -15 53q-30 -12 -49 -41.5t-19 -63.5q0 -17 8 -27.5t22 -10.5q23 0 38 25.5z" />
    <glyph glyph-name="uni0E13" unicode="&#xe13;" horiz-adv-x="943" 
d="M121 13.5q-26 23.5 -26 63.5q0 7 2 21l29 161q7 45 33 72l-92 67q21 54 67.5 101.5t110.5 75.5t134 28q75 0 119 -24.5t75 -74.5q10 8 18 8q10 0 22 -12q13 -16 13 -31q0 -12 -4.5 -19t-13.5 -15q-10 -9 -15 -16t-7 -20l-40 -230q93 80 204 80l21 -1l61 345h100l-74 -420
q21 -21 21 -54q0 -35 -18.5 -65t-50.5 -47t-69 -17q-47 0 -74 24t-27 60q0 30 17.5 57.5t46.5 43.5v2q-56 -3 -109 -45t-108 -121q-14 -20 -37 -20q-17 0 -31 11q-19 16 -19 31q0 11 10 21q9 9 17 24t11 32l51 291q4 26 14 43q-19 38 -51.5 58t-86.5 20q-126 0 -194 -98
l42 -30q33 33 76 46l23 -62q-37 -17 -56.5 -41.5t-26.5 -63.5l-17 -93q19 7 34 7q34 0 53.5 -19.5t19.5 -53.5q0 -53 -37.5 -88.5t-92.5 -35.5q-42 0 -68 23.5zM791 69.5q16 16.5 16 38.5q0 16 -10.5 26.5t-28.5 10.5q-22 0 -39 -16.5t-17 -38.5q0 -17 10.5 -27t29.5 -10
q23 0 39 16.5zM235.5 63q15.5 15 15.5 36q0 15 -10.5 24.5t-26.5 9.5q-20 0 -35.5 -15t-15.5 -35q0 -15 10.5 -25t25.5 -10q21 0 36.5 15z" />
    <glyph glyph-name="uni0E14" unicode="&#xe14;" horiz-adv-x="646" 
d="M500 401q8 33 16 44q-37 78 -151 78q-100 0 -153.5 -63.5t-53.5 -181.5q0 -16 2 -44q2 -26 2 -38q0 -22 -4 -45h3q29 34 52.5 55.5t51.5 37.5q-21 7 -34.5 27t-13.5 45q0 50 38.5 83t91.5 33q42 0 67.5 -23t25.5 -60q0 -71 -88 -122q-61 -36 -111 -85t-109 -124
q-19 -25 -42 -25q-15 0 -32 12q-17 13 -17 26q0 10 16 31q6 6 11 20.5t5 40.5t-7 70q-8 60 -8 98q0 94 37.5 164.5t108.5 109t168 38.5q76 0 131 -26.5t82 -72.5q11 7 19 7q10 0 21 -11q13 -15 13 -31q0 -12 -4.5 -19.5t-13.5 -14.5q-9 -9 -14 -16.5t-7 -19.5l-71 -399h-99z
M357 301q15 15 15 35q0 15 -10 24.5t-26 9.5q-20 0 -36 -15t-16 -35q0 -16 10.5 -25t27.5 -9q20 0 35 15z" />
    <glyph glyph-name="uni0E15" unicode="&#xe15;" horiz-adv-x="646" 
d="M503 423q5 30 16 43q-5 30 -17.5 43.5t-39.5 13.5q-31 0 -60 -24q2 -7 -4.5 -16.5t-22.5 -15.5q-14 -6 -24 -6q-17 0 -26 19q-17 43 -53 43q-51 0 -81.5 -70t-30.5 -185l1 -67q0 -24 -3 -51h2q30 34 54.5 56.5t51.5 37.5q-21 7 -34.5 26.5t-13.5 44.5q0 49 37.5 83
t91.5 34q42 0 68 -23t26 -60q0 -70 -89 -122q-60 -36 -111 -86t-108 -124q-19 -24 -42 -24q-17 0 -32 12q-18 14 -18 27q0 12 15 29q6 6 12 24.5t6 53.5q0 24 -6 74q-6 56 -6 89q0 88 26.5 156.5t75.5 106.5t114 38t96 -54q23 24 53 39t61 15q42 0 68 -22t35 -58q8 5 15 5
q11 0 21 -11q14 -17 14 -30q0 -12 -4.5 -19t-13.5 -16q-9 -8 -14.5 -15.5t-7.5 -20.5l-73 -416h-100zM357.5 301q15.5 15 15.5 35q0 15 -10 24.5t-26 9.5q-20 0 -36 -15t-16 -35q0 -15 10.5 -24.5t26.5 -9.5q20 0 35.5 15z" />
    <glyph glyph-name="uni0E16" unicode="&#xe16;" horiz-adv-x="646" 
d="M122.5 15q-27.5 25 -27.5 64q0 5 2 19l29 161q7 45 33 72l-92 67q21 54 68 101t111.5 75.5t133.5 28.5q74 0 122.5 -25t78.5 -74q10 8 19 8q13 0 25 -12q13 -16 13 -32q0 -12 -4.5 -19t-13.5 -14q-10 -9 -15 -16t-7 -20l-70 -399h-100l71 401q3 25 15 44
q-19 38 -52.5 57.5t-91.5 19.5q-67 0 -117.5 -26.5t-81.5 -71.5l42 -30q33 33 76 46l23 -62q-37 -17 -56.5 -41.5t-26.5 -63.5l-17 -93q19 7 35 7q31 0 51.5 -21.5t20.5 -55.5q0 -52 -35 -86t-91 -34q-43 0 -70.5 25zM236 63q15 15 15 36q0 15 -10.5 24.5t-26.5 9.5
q-20 0 -35.5 -15t-15.5 -35q0 -15 10.5 -25t25.5 -10q22 0 37 15z" />
    <glyph glyph-name="uni0E17" unicode="&#xe17;" horiz-adv-x="662" 
d="M105 30q0 12 10 23q6 7 12 19t8 24l54 311q-18 -6 -31 -6q-34 0 -57.5 22.5t-23.5 58.5q0 52 37 86.5t93 34.5q44 0 70 -24t26 -62q0 -6 -2 -20l-46 -259l210 365q88 0 137 -47q13 9 24 9q12 0 22 -10q16 -17 16 -32q0 -11 -4 -17.5t-13 -15.5t-14.5 -17.5t-8.5 -22.5
l-79 -450h-99l79 447q5 27 17 49q-4 10 -16.5 16.5t-24.5 6.5l-294 -498q-18 -31 -45 -31q-12 0 -30 8q-27 13 -27 32zM221 472q15 15 15 35q0 14 -10.5 24.5t-25.5 10.5q-22 0 -37 -14t-15 -37q0 -15 10.5 -24.5t26.5 -9.5q21 0 36 15z" />
    <glyph glyph-name="uni0E18" unicode="&#xe18;" horiz-adv-x="625" 
d="M196 437q27 3 61 3q76 0 152.5 -12.5t109.5 -33.5q9 7 17 7q11 0 26 -16q12 -15 12 -27q0 -13 -17 -28q-17 -14 -22 -42l-38 -217q-5 -32 -28.5 -51.5t-56.5 -19.5h-243q-17 0 -33 -6q-7 -4 -17 -4q-24 0 -36 28q-5 13 -5 20q0 10 6 17.5t20 16.5q24 15 30 50l43 247
q-19 -2 -29 -4l-9 -11q-10 -15 -30 -15q-10 0 -23 5q-20 9 -20 26q0 9 8 27q45 95 120 150.5t177 55.5q33 0 63 -5t76 -15q82 -18 131 -21l-36 -79q-46 6 -107 19q-43 10 -75.5 15t-70.5 5q-109 0 -156 -85zM456 338q-22 15 -72.5 23.5t-110.5 10.5l-45 -257q-6 -25 -19 -36
h192l39 220q7 27 16 39z" />
    <glyph glyph-name="uni0E19" unicode="&#xe19;" horiz-adv-x="658" 
d="M381.5 14.5q-26.5 24.5 -26.5 60.5q0 31 17 57.5t46 43.5l1 3q-54 0 -114.5 -44.5t-118.5 -124.5q-14 -19 -37 -19q-17 0 -31 11q-18 14 -18 30q0 13 10 23q20 22 27 55l52 297q-18 -6 -31 -6q-34 0 -57.5 22.5t-23.5 58.5q0 52 37 86.5t93 34.5q45 0 73 -24.5t28 -62.5
q0 -7 -2 -19l-59 -328q46 37 103 58.5t115 21.5l21 -1l60 345h100l-73 -417q21 -21 21 -55q0 -36 -18.5 -66t-50.5 -47.5t-70 -17.5q-47 0 -73.5 24.5zM221 472q15 15 15 35q0 14 -10.5 24.5t-25.5 10.5q-22 0 -37 -14t-15 -37q0 -15 10.5 -24.5t26.5 -9.5q21 0 36 15z
M505 69q16 16 16 39q0 16 -10.5 26.5t-28.5 10.5q-22 0 -39 -16.5t-17 -38.5q0 -16 11.5 -26.5t28.5 -10.5q23 0 39 16z" />
    <glyph glyph-name="uni0E1A" unicode="&#xe1a;" horiz-adv-x="672" 
d="M127 -11q-22 0 -36 30q-4 9 -4 18q0 10 6 18.5t20 16.5q11 7 17 19t10 31l49 285q-18 -6 -31 -6q-34 0 -57.5 22.5t-23.5 58.5q0 52 37 86.5t93 34.5q45 0 73 -24.5t28 -62.5q0 -7 -2 -19l-68 -381q-4 -24 -18 -37h266l90 514h100l-92 -522q-5 -32 -28 -51.5t-56 -19.5
h-321q-18 0 -34 -6q-8 -5 -18 -5zM221 472q15 15 15 35q0 14 -10.5 24.5t-25.5 10.5q-22 0 -37 -14t-15 -37q0 -15 10.5 -24.5t26.5 -9.5q21 0 36 15z" />
    <glyph glyph-name="uni0E1B" unicode="&#xe1b;" horiz-adv-x="674" 
d="M127 -11q-22 0 -36 30q-4 9 -4 18q0 10 6 18.5t20 16.5q11 7 17 19t10 31l49 285q-18 -6 -31 -6q-34 0 -57.5 22.5t-23.5 58.5q0 52 37 86.5t93 34.5q45 0 73 -24.5t28 -62.5q0 -7 -2 -19l-68 -381q-4 -24 -18 -37h268l129 735h100l-131 -743q-5 -32 -28 -51.5t-56 -19.5
h-323q-18 0 -34 -6q-8 -5 -18 -5zM221 472q15 15 15 35q0 14 -10.5 24.5t-25.5 10.5q-22 0 -37 -14t-15 -37q0 -15 10.5 -24.5t26.5 -9.5q21 0 36 15z" />
    <glyph glyph-name="uni0E1C" unicode="&#xe1c;" horiz-adv-x="623" 
d="M471 -9q-12 0 -20 6t-13 19l-107 259l-223 -262q-21 -24 -44 -24q-18 0 -33 15q-18 18 -18 31q0 10 11 21q19 17 23 45l70 396q9 50 44.5 78t87.5 28q45 0 71 -24t26 -60q0 -48 -34.5 -83t-81.5 -35q-13 0 -29 6l-41 -233l133 158q22 27 51 27q17 0 25 -7t15 -20l70 -155
l73 416h100l-97 -551q-4 -23 -11 -32.5t-27 -15.5q-12 -3 -21 -3zM259.5 472q15.5 15 15.5 35q0 15 -10.5 25t-26.5 10q-20 0 -35.5 -15t-15.5 -35q0 -16 10 -25.5t27 -9.5q20 0 35.5 15z" />
    <glyph glyph-name="uni0E1D" unicode="&#xe1d;" horiz-adv-x="625" 
d="M473 -9q-12 0 -19.5 6t-13.5 19l-108 259l-224 -262q-21 -24 -44 -24q-18 0 -33 15q-18 18 -18 31q0 10 11 21q19 17 23 45l70 396q8 48 44.5 77t87.5 29q45 0 71 -24t26 -60q0 -48 -34.5 -83t-81.5 -35q-13 0 -29 6l-41 -233l134 158q22 27 51 27q17 0 25 -7t15 -20
l71 -155l112 637h100l-136 -772q-4 -23 -11 -32.5t-27 -15.5q-12 -3 -21 -3zM259.5 472q15.5 15 15.5 35q0 15 -10.5 25t-26.5 10q-20 0 -35.5 -15t-15.5 -35q0 -16 10 -25.5t27 -9.5q20 0 35.5 15z" />
    <glyph glyph-name="uni0E1E" unicode="&#xe1e;" horiz-adv-x="711" 
d="M525 -2q-9 8 -12 28l-63 426l-225 -420q-21 -41 -59 -41q-16 0 -27 5q-14 5 -21.5 14t-7.5 20q0 14 12 30q10 14 14 38l55 309q-20 -6 -33 -6q-34 0 -57.5 22.5t-23.5 58.5q0 52 37 86.5t93 34.5q45 0 72 -24t27 -63q0 -5 -2 -19l-46 -260l167 316q16 31 50 31
q32 0 35 -31l48 -306l60 346h97l-97 -551q-4 -25 -19 -38.5t-40 -13.5t-34 8zM221 472q15 15 15 35q0 14 -10.5 24.5t-25.5 10.5q-22 0 -37 -14t-15 -37q0 -15 10.5 -24.5t26.5 -9.5q21 0 36 15z" />
    <glyph glyph-name="uni0E1F" unicode="&#xe1f;" horiz-adv-x="713" 
d="M529.5 -2.5q-9.5 7.5 -12.5 28.5l-65 426l-225 -420q-21 -41 -59 -41q-16 0 -27 5q-30 13 -30 36q0 14 11 28q10 14 14 38l55 309q-20 -6 -33 -6q-34 0 -57.5 22.5t-23.5 58.5q0 52 37 86.5t93 34.5q45 0 72 -24t27 -63q0 -5 -2 -19l-46 -260l167 316q16 31 50 31
q18 0 25.5 -8.5t10.5 -22.5l49 -306l99 567h97l-136 -772q-4 -25 -18.5 -38.5t-38.5 -13.5t-33.5 7.5zM221 472q15 15 15 35q0 14 -10.5 24.5t-25.5 10.5q-22 0 -37 -14t-15 -37q0 -15 10.5 -24.5t26.5 -9.5q21 0 36 15z" />
    <glyph glyph-name="uni0E20" unicode="&#xe20;" horiz-adv-x="648" 
d="M32 15.5q-26 25.5 -26 64.5q0 47 31 78t75 31q9 0 21 -4l12 70q10 53 30 74l-99 69q22 54 69 101.5t111 75.5t133 28q71 0 117.5 -25t76.5 -74q10 8 20 8q13 0 24 -12q13 -14 13 -32q0 -12 -4 -18.5t-13 -14.5q-10 -9 -15 -16t-7 -20l-71 -399h-100l71 401q5 29 16 44
q-19 38 -51.5 57.5t-86.5 19.5q-65 0 -116.5 -27t-81.5 -70l48 -33q16 16 36.5 28.5t39.5 17.5l23 -62q-37 -16 -55.5 -41.5t-25.5 -64.5l-24 -131q5 -10 5 -29q0 -50 -35 -85t-91 -35q-44 0 -70 25.5zM145.5 63q14.5 15 14.5 35q0 16 -10 25.5t-26 9.5q-21 0 -35.5 -14
t-14.5 -36q0 -16 9.5 -25.5t26.5 -9.5q21 0 35.5 15z" />
    <glyph glyph-name="uni0E21" unicode="&#xe21;" horiz-adv-x="630" 
d="M46.5 14.5q-25.5 24.5 -25.5 65.5q0 63 44 114.5t108 65.5l26 147q-18 -6 -31 -6q-34 0 -57.5 22.5t-23.5 58.5q0 52 37 86.5t93 34.5q45 0 73 -24.5t28 -62.5q0 -7 -2 -19l-43 -237q56 -8 106.5 -32t81.5 -61l75 426h98l-104 -593h-98l11 62q-27 52 -74.5 82.5
t-108.5 39.5l-15 -88q-9 -49 -43 -77.5t-86 -28.5q-44 0 -69.5 24.5zM231 472q15 15 15 35q0 14 -10.5 24.5t-25.5 10.5q-22 0 -37 -14t-15 -37q0 -15 10 -24.5t27 -9.5q21 0 36 15zM153.5 61.5q10.5 9.5 14.5 28.5l18 104q-40 -6 -66 -36t-26 -71q0 -35 33 -35
q16 0 26.5 9.5z" />
    <glyph glyph-name="uni0E22" unicode="&#xe22;" horiz-adv-x="609" 
d="M76 -10q-24 0 -34 28q-5 13 -5 20q0 10 6.5 17.5t21.5 16.5q18 11 25 47l23 132q-46 41 -46 108q0 64 31 120t82.5 90t110.5 34q47 0 73.5 -23t26.5 -60q0 -52 -35 -85.5t-92 -33.5q-29 0 -50.5 15t-28.5 40h-2q-11 -14 -18 -37.5t-7 -43.5q0 -40 27 -61.5t76 -21.5
q51 0 112 25l13 -67q-31 -14 -69 -23.5t-64 -9.5q-14 0 -46 5l-19 -109q-6 -23 -18 -34h253l90 514h100l-92 -522q-5 -32 -28.5 -51.5t-55.5 -19.5h-307q-18 0 -34 -6q-12 -4 -20 -4zM304.5 472q15.5 15 15.5 35q0 15 -10.5 25t-25.5 10q-21 0 -36.5 -15.5t-15.5 -35.5
q0 -15 10.5 -24.5t26.5 -9.5q20 0 35.5 15z" />
    <glyph glyph-name="uni0E23" unicode="&#xe23;" horiz-adv-x="570" 
d="M214.5 14q-25.5 24 -25.5 60q0 30 15 56t40 41.5t54 15.5q15 0 29 -7l23 132q8 29 17 38q-27 17 -64 26t-78 9q-40 0 -74 -7l-9 -11q-9 -15 -31 -15q-10 0 -23 5q-20 9 -20 25q0 10 8 28q40 90 107 141.5t158 51.5q32 0 59 -5t64 -14q67 -19 122 -22l-37 -79
q-48 5 -107 21q-42 10 -64.5 14t-54.5 4q-46 0 -74.5 -18.5t-50.5 -55.5q27 4 59 4q52 0 97 -12t78 -35q8 8 19 8q13 0 24 -15q12 -15 12 -27q0 -16 -17 -28q-17 -15 -22 -42l-35 -203q-9 -50 -42 -79t-87 -29q-44 0 -69.5 24zM329.5 63q15.5 15 15.5 35q0 15 -10.5 25
t-25.5 10q-22 0 -37.5 -15t-15.5 -35q0 -15 11 -25t27 -10q20 0 35.5 15z" />
    <glyph glyph-name="uni0E24" unicode="&#xe24;" horiz-adv-x="648" 
d="M501 401q5 29 15 44q-19 38 -53 57.5t-92 19.5q-67 0 -118 -26.5t-82 -71.5l42 -30q33 33 76 46l23 -62q-37 -17 -56.5 -41.5t-26.5 -63.5l-17 -93q19 7 35 7q31 0 51.5 -21.5t20.5 -55.5q0 -52 -35 -86t-91 -34q-43 0 -70.5 25t-27.5 64q0 5 2 19l29 161q7 45 33 72
l-92 67q21 54 68 101t111.5 75.5t134.5 28.5q74 0 123 -25.5t79 -73.5q10 8 19 8q13 0 25 -12q13 -16 13 -32q0 -12 -4.5 -19t-13.5 -14q-10 -9 -15 -16t-7 -20l-133 -758h-100zM236 63q15 15 15 36q0 15 -10.5 24.5t-26.5 9.5q-20 0 -35.5 -15t-15.5 -35q0 -15 10.5 -25
t25.5 -10q22 0 37 15z" />
    <glyph glyph-name="uni0E25" unicode="&#xe25;" horiz-adv-x="629" 
d="M86.5 15q-26.5 25 -26.5 66q0 74 53.5 152.5t136.5 125.5q-3 3 -3 9q0 17 23 35q18 14 33 14q11 0 22 -8q41 -31 77.5 -75.5t52.5 -88.5l30 167q6 29 17 40q-45 70 -148 70q-130 0 -198 -118l-80 27q41 78 113.5 125t172.5 47q72 0 124 -24t82 -70q8 5 15 5q15 0 27 -20
q10 -17 10 -29q0 -13 -13 -23q-21 -16 -27 -45l-70 -397h-98l5 28q4 28 4 43q0 70 -32.5 139t-81.5 102q-44 -19 -80.5 -55t-55.5 -80q16 10 38 10q33 0 53.5 -21t20.5 -55q0 -53 -35.5 -87t-91.5 -34q-43 0 -69.5 25zM200.5 63.5q15.5 15.5 15.5 35.5q0 15 -10.5 24.5
t-26.5 9.5q-20 0 -35.5 -15t-15.5 -35q0 -14 10.5 -24.5t25.5 -10.5q21 0 36.5 15.5z" />
    <glyph glyph-name="uni0E26" unicode="&#xe26;" horiz-adv-x="650" 
d="M503 401q5 29 16 44q-20 38 -52.5 57.5t-87.5 19.5q-65 0 -116.5 -27t-81.5 -70l48 -33q16 16 36.5 28.5t39.5 17.5l23 -62q-37 -16 -55.5 -41.5t-25.5 -64.5l-24 -131q5 -10 5 -29q0 -50 -35 -85t-91 -35q-44 0 -70 25.5t-26 64.5q0 47 31 78t75 31q9 0 21 -4l12 70
q10 53 30 74l-99 69q22 54 70 101t113 75.5t134 28.5q71 0 116.5 -25t75.5 -74q10 8 20 8q12 0 24 -12q13 -16 13 -32q0 -12 -4 -18.5t-13 -14.5t-14.5 -15.5t-7.5 -20.5l-134 -758h-100zM145.5 63q14.5 15 14.5 35q0 16 -10 25.5t-26 9.5q-21 0 -35.5 -14t-14.5 -36
q0 -16 9.5 -25.5t26.5 -9.5q21 0 35.5 15z" />
    <glyph glyph-name="uni0E27" unicode="&#xe27;" horiz-adv-x="566" 
d="M267 13q-26 23 -26 59q0 31 15.5 57.5t41 42t53.5 15.5q15 0 29 -7l40 230q4 17 7.5 28t10.5 18q-19 33 -46 49.5t-72 16.5q-106 0 -172 -114l-81 27q40 76 109 122t154 46q67 0 108 -21.5t69 -66.5q8 6 16 6q14 0 26 -18q11 -15 11 -27q0 -10 -8 -18q-4 -5 -12 -13.5
t-13.5 -18.5t-7.5 -24l-54 -304q-8 -48 -43 -78t-85 -30q-44 0 -70 23zM382.5 63q15.5 15 15.5 35q0 16 -10.5 25.5t-26.5 9.5q-21 0 -36 -15t-15 -35q0 -15 10 -25t27 -10q20 0 35.5 15z" />
    <glyph glyph-name="uni0E28" unicode="&#xe28;" horiz-adv-x="638" 
d="M595 512q11 0 21 -12q13 -15 13 -31q0 -12 -4.5 -19.5t-13.5 -14.5q-9 -9 -14 -16.5t-7 -19.5l-71 -399h-99l71 401q4 24 15 44q-39 78 -144 78q-79 0 -131 -41t-67 -122q-9 -51 -9 -107q0 -6 -1 -33t-6 -58h2q19 33 29.5 60t20.5 59q2 7 10 29.5t19 42.5q38 68 113 68
q44 0 68 -21.5t24 -59.5q0 -51 -34.5 -85t-88.5 -34q-15 0 -29.5 4.5t-24.5 12.5q-27 -68 -54.5 -116t-78.5 -105q-21 -24 -42 -24q-14 0 -29 12q-19 15 -19 26q0 12 17 31q16 19 16 60q0 15 -4 63q-6 58 -6 96q0 108 42.5 180.5t113.5 107t157 34.5q87 0 146 -38
q58 60 118 90l35 -63q-59 -31 -103 -72l11 -16q10 8 18 8zM296.5 345.5q-15.5 -15.5 -15.5 -35.5q0 -15 10 -24.5t26 -9.5q20 0 35.5 15t15.5 35q0 15 -10 25t-26 10q-20 0 -35.5 -15.5z" />
    <glyph glyph-name="uni0E29" unicode="&#xe29;" horiz-adv-x="672" 
d="M128 -10q-24 0 -36 29q-4 9 -4 19q0 18 26 34q11 7 17 19t9 31l49 285q-18 -6 -31 -6q-34 0 -57.5 22.5t-23.5 58.5q0 52 37 86.5t93 34.5q45 0 72 -24t27 -63q0 -5 -2 -19l-68 -381q-4 -24 -18 -37h271l26 147q-19 -19 -45.5 -30t-55.5 -11q-49 0 -79 26.5t-30 69.5
q0 60 40 97.5t97 37.5q38 0 38 -25q0 -22 -12.5 -34t-29.5 -12q-21 1 -35 -14t-14 -37q0 -34 49 -34q41 0 66.5 25.5t33.5 72.5l41 235h98l-92 -522q-6 -32 -28.5 -51.5t-55.5 -19.5h-322q-17 0 -33 -6q-7 -4 -18 -4zM221 472q15 15 15 35q0 14 -10.5 24.5t-25.5 10.5
q-22 0 -37 -14t-15 -37q0 -15 10.5 -24.5t26.5 -9.5q21 0 36 15z" />
    <glyph glyph-name="uni0E2A" unicode="&#xe2a;" horiz-adv-x="633" 
d="M583 514q15 0 27 -20q10 -17 10 -29q0 -13 -13 -23q-21 -16 -27 -45l-70 -397h-98l5 28q4 28 4 43q0 70 -32.5 139t-81.5 102q-44 -19 -80.5 -55t-55.5 -80q16 10 38 10q33 0 53.5 -21t20.5 -55q0 -53 -35.5 -87t-91.5 -34q-43 0 -69.5 25t-26.5 66q0 74 53.5 152.5
t136.5 125.5q-3 3 -3 9q0 17 23 35q18 14 33 14q11 0 22 -8q41 -31 77.5 -75.5t52.5 -88.5l30 167q6 29 17 40q-45 70 -148 70q-130 0 -198 -118l-80 27q41 78 113.5 125t172.5 47q91 0 150 -38q62 60 128 89l31 -63q-64 -30 -110 -71l7 -11q8 5 15 5zM143.5 118
q-15.5 -15 -15.5 -35q0 -14 10.5 -24.5t25.5 -10.5q21 0 36.5 15.5t15.5 35.5q0 15 -10.5 24.5t-26.5 9.5q-20 0 -35.5 -15z" />
    <glyph glyph-name="uni0E2B" unicode="&#xe2b;" horiz-adv-x="648" 
d="M96 29q0 15 13 29q23 25 30 63l50 286q-18 -6 -31 -6q-34 0 -57.5 22.5t-23.5 58.5q0 52 37 86.5t93 34.5q45 0 73 -24.5t28 -62.5q0 -7 -2 -19l-55 -310l194 231q-14 12 -22 29t-8 36q0 51 38 85.5t94 34.5q44 0 71 -23.5t27 -61.5q0 -34 -18.5 -61t-49.5 -41
q24 -15 24 -49q0 -14 -3 -31l-59 -336h-99l59 335q1 3 1 8q0 20 -17 20l-303 -355q-7 -9 -17.5 -14t-21.5 -5q-15 0 -27 9q-18 15 -18 31zM221 472q15 15 15 35q0 14 -10.5 24.5t-25.5 10.5q-22 0 -37 -14t-15 -37q0 -15 10.5 -24.5t26.5 -9.5q21 0 36 15zM558.5 472
q15.5 15 15.5 35q0 14 -10.5 24.5t-25.5 10.5q-21 0 -37 -15.5t-16 -35.5q0 -15 10.5 -24.5t27.5 -9.5q20 0 35.5 15z" />
    <glyph glyph-name="uni0E2C" unicode="&#xe2c;" horiz-adv-x="783" 
d="M530 -2.5q-9 7.5 -14 28.5l-74 367l-217 -361q-24 -41 -59 -41q-15 0 -26 5q-29 12 -29 35q0 15 11 29q10 14 14 38l55 309q-20 -6 -33 -6q-34 0 -57.5 22.5t-23.5 58.5q0 52 37 86.5t93 34.5q45 0 72 -24t27 -63q0 -5 -2 -19l-49 -277l160 268q10 15 21.5 23t27.5 8
q17 0 25 -7.5t11 -23.5l58 -257l68 388q-8 -3 -19.5 -6t-19.5 -3q-38 0 -63.5 22.5t-25.5 59.5q0 53 38 87.5t94 34.5q34 0 57.5 -15t29.5 -41l67 62l61 -53l-114 -105l-110 -620q-5 -25 -20 -38.5t-39 -13.5q-23 0 -32 7.5zM642.5 683q15.5 15 15.5 36q0 15 -10 24.5
t-26 9.5q-22 0 -37 -15t-15 -37q0 -15 10 -24t26 -9q21 0 36.5 15zM221 472q15 15 15 35q0 14 -10.5 24.5t-25.5 10.5q-22 0 -37 -14t-15 -37q0 -15 10.5 -24.5t26.5 -9.5q21 0 36 15z" />
    <glyph glyph-name="uni0E2D" unicode="&#xe2d;" horiz-adv-x="620" 
d="M80 -10q-24 0 -36 29q-4 9 -4 19q0 18 25 34q11 7 17 18.5t9 31.5l26 145q9 51 44.5 79t87.5 28q46 0 71.5 -24t25.5 -61q0 -49 -33 -83t-83 -34q-14 0 -30 6l-11 -64q-6 -25 -18 -36h248l57 324q6 34 17 46q-19 38 -51.5 56t-88.5 18q-64 0 -112 -28t-84 -85l-80 26
q42 76 114.5 122t169.5 46q145 0 199 -96q9 7 16 7q13 0 26 -19q11 -15 11 -27q0 -9 -8 -17q-4 -5 -12 -13.5t-13.5 -18t-7.5 -24.5l-57 -324q-5 -32 -28.5 -51.5t-56.5 -19.5h-299q-20 0 -34 -6q-7 -4 -17 -4zM260.5 243q15.5 15 15.5 35q0 15 -10.5 25t-26.5 10
q-21 0 -36.5 -15t-15.5 -35q0 -16 10.5 -25.5t26.5 -9.5q21 0 36.5 15z" />
    <glyph glyph-name="uni0E2E" unicode="&#xe2e;" horiz-adv-x="597" 
d="M48 -10q-23 0 -35 29q-5 12 -5 19q0 17 26 34q11 7 17 18.5t9 31.5l25 145q10 51 45.5 79t87.5 28q46 0 71.5 -24t25.5 -61q0 -49 -33 -83t-83 -34q-14 0 -30 6l-11 -64q-7 -26 -19 -36h247l55 308q7 35 20 52l-21 20q-45 -28 -89.5 -40t-104.5 -12q-72 0 -114 23t-42 66
q0 59 53 92.5t147 33.5q52 0 98 -17.5t76 -44.5q64 64 137 102l31 -63q-74 -37 -125 -91l14 -11q11 7 21 7q15 0 26 -15q11 -14 11 -28q0 -10 -6 -16q-4 -5 -12.5 -14t-14 -19t-7.5 -24l-56 -316q-5 -32 -28.5 -51.5t-56.5 -19.5h-298q-18 0 -34 -6q-8 -4 -18 -4zM389 513
q-42 36 -112 36q-95 0 -95 -42q0 -30 78 -30q77 0 129 36zM228.5 243q15.5 15 15.5 35q0 15 -10 25t-26 10q-21 0 -36.5 -15t-15.5 -35q0 -16 10 -25.5t27 -9.5q20 0 35.5 15z" />
    <glyph glyph-name="uni0E2F" unicode="&#xe2f;" horiz-adv-x="539" 
d="M352 -10q-27 0 -37 19q-6 11 -6 20q0 17 25 34q16 11 23.5 20t9.5 24l48 275q-64 -63 -156 -63q-48 0 -88 19.5t-63 53.5t-23 75q0 60 39 98t98 38q47 0 75.5 -24.5t28.5 -63.5q0 -47 -28.5 -77.5t-78.5 -37.5q18 -15 53 -15q123 0 201 188q13 30 40 30q4 0 16 -2
q28 -6 28 -28q0 -10 -4 -19l-11 -23l-77 -432q-11 -67 -82 -102q-13 -7 -31 -7zM235.5 459.5q17.5 15.5 17.5 41.5q0 17 -10.5 26t-29.5 9q-24 0 -39.5 -15.5t-15.5 -39.5q0 -16 10.5 -26.5t27.5 -10.5q22 0 39.5 15.5z" />
    <glyph glyph-name="uni0E30" unicode="&#xe30;" horiz-adv-x="535" 
d="M119.5 349.5q-42.5 28.5 -42.5 77.5q0 33 18.5 61.5t49.5 45.5t67 17q43 0 70 -23t27 -61q0 -23 -10 -41.5t-26 -29.5l-1 -2q59 7 108 45.5t83 103.5l78 -39q-47 -87 -129.5 -135t-180.5 -48q-69 0 -111.5 28.5zM223 418.5q15 14.5 15 35.5q0 15 -10 24.5t-27 9.5
q-21 0 -36 -14.5t-15 -36.5q0 -15 10 -24t27 -9q21 0 36 14.5zM64 32q-43 29 -43 78q0 33 18.5 61.5t49.5 45.5t67 17q42 0 69 -23t27 -61q0 -25 -10 -43t-25 -27l-1 -4q60 8 108.5 46.5t82.5 103.5l78 -39q-46 -86 -129 -135t-181 -49q-68 0 -111 29zM166 101q15 15 15 36
q0 15 -9.5 24.5t-26.5 9.5q-21 0 -36 -15t-15 -36q0 -15 10 -24.5t27 -9.5q20 0 35 15z" />
    <glyph glyph-name="uni0E31" unicode="&#xe31;" 
d="M-264 683.5q-44 29.5 -44 78.5q0 51 35.5 84.5t91.5 33.5q43 0 68 -22t25 -58q0 -26 -13 -49.5t-32 -35.5v-2q79 0 146 43t114 125l68 -40q-55 -92 -138.5 -139.5t-200.5 -47.5q-76 0 -120 29.5zM-168 749q16 15 16 38q0 16 -11 26t-28 10q-21 0 -37.5 -15.5t-16.5 -36.5
q0 -16 10.5 -26.5t27.5 -10.5q23 0 39 15z" />
    <glyph glyph-name="uni0E32" unicode="&#xe32;" horiz-adv-x="533" 
d="M386 412q6 30 16 43q-16 34 -40.5 50.5t-66.5 16.5q-95 0 -158 -85l-66 41q44 61 102.5 93t124.5 32q62 0 107 -23.5t69 -63.5q8 7 18 7q12 0 22 -12q14 -15 14 -31q0 -12 -4.5 -18.5t-14.5 -14.5q-11 -9 -16 -16t-7 -20l-72 -411h-100z" />
    <glyph glyph-name="uni0E33" unicode="&#xe33;" horiz-adv-x="534" 
d="M-106.5 668q-28.5 25 -28.5 65q0 55 40 91t102 36q46 0 74.5 -24.5t28.5 -64.5q0 -56 -40 -92t-102 -36q-46 0 -74.5 25zM16.5 723q14.5 14 14.5 36q0 16 -9.5 26t-25.5 10q-23 0 -37.5 -14.5t-14.5 -37.5q0 -16 9.5 -25t26.5 -9q22 0 36.5 14zM387 412q0 2 3.5 16.5
t12.5 26.5q-17 34 -41 50.5t-66 16.5q-95 0 -158 -85l-66 41q44 61 102.5 93t124.5 32q61 0 106 -23.5t69 -63.5q11 7 19 7q11 0 21 -11q14 -15 14 -32q0 -12 -4.5 -18.5t-13.5 -14.5q-10 -8 -15.5 -15.5t-7.5 -20.5l-73 -411h-100z" />
    <glyph glyph-name="uni0E34" unicode="&#xe34;" 
d="M-293 696q-111 0 -162 -17q-8 -3 -16 -3q-22 0 -32 26q-3 8 -3 14q0 22 35 36q49 64 116.5 101t141.5 37q96 0 158 -44.5t85 -127.5q3 -9 3 -18q0 -25 -28 -44q-11 -7 -24 -7q-10 0 -25 5q-106 42 -249 42zM-226 819q-45 0 -84 -16.5t-68 -46.5q36 7 93 7q69 0 123 -7.5
t105 -25.5q-46 89 -169 89z" />
    <glyph glyph-name="uni0E35" unicode="&#xe35;" 
d="M30 713q3 -7 3 -15q0 -21 -30 -42q-13 -8 -25 -8q-11 0 -23 6q-102 42 -249 42q-107 0 -162 -17q-9 -3 -17 -3q-21 0 -31 26q-3 8 -3 14q0 22 35 36q49 64 116 101t141 37q98 0 167 -62l15 85h93l-33 -192zM-163 755.5q54 -7.5 105 -25.5q-23 44 -65.5 66.5t-103.5 22.5
q-45 0 -84 -16.5t-68 -46.5q36 7 92 7q70 0 124 -7.5z" />
    <glyph glyph-name="uni0E36" unicode="&#xe36;" 
d="M-293 696q-108 0 -162 -17q-9 -3 -17 -3q-22 0 -32 26q-2 5 -2 14q0 12 8.5 20t25.5 16q50 64 117 101t141 37q29 0 58 -7.5t50 -20.5q12 26 39 43t62 17q37 0 58.5 -19t21.5 -51q0 -31 -17 -56t-46 -37q12 -21 18 -45q2 -10 2 -14q0 -26 -28 -44q-13 -8 -25 -8
q-11 0 -24 6q-100 42 -248 42zM4 809q14 14 14 32q0 13 -9 22t-22 9q-18 0 -32.5 -14t-14.5 -31q0 -13 9.5 -22.5t23.5 -9.5q17 0 31 14zM-123 796.5q-43 22.5 -104 22.5q-45 0 -83.5 -16.5t-68.5 -46.5q36 7 93 7q69 0 123 -7.5t106 -25.5q-23 44 -66 66.5z" />
    <glyph glyph-name="uni0E37" unicode="&#xe37;" 
d="M30 713q3 -7 3 -15q0 -21 -30 -42q-13 -8 -25 -8q-11 0 -23 6q-102 42 -249 42q-107 0 -162 -17q-9 -3 -17 -3q-21 0 -31 26q-3 8 -3 14q0 22 35 36q49 64 116 100.5t141 37.5q41 0 80 -14l6 37h78l-14 -76q16 -12 30 -27l18 103h77l-34 -192zM-163 755.5
q54 -7.5 105 -25.5q-23 44 -65.5 66.5t-103.5 22.5q-45 0 -84 -16.5t-68 -46.5q36 7 92 7q70 0 124 -7.5z" />
    <glyph glyph-name="uni0E38" unicode="&#xe38;" 
d="M-234 -230q-15 -6 -30 -6q-38 0 -60.5 20.5t-22.5 55.5q0 50 37.5 84.5t92.5 34.5q42 0 68 -21.5t26 -55.5q0 -4 -2 -16l-32 -178h-92zM-207 -166.5q15 14.5 15 34.5q0 15 -10 24.5t-25 9.5q-21 0 -37 -15t-16 -35q0 -14 10.5 -23.5t27.5 -9.5q20 0 35 14.5z" />
    <glyph glyph-name="uni0E39" unicode="&#xe39;" 
d="M-367 -331q-18 0 -28 21q-5 12 -5 16q0 7 5.5 12.5t19.5 15.5q6 4 8.5 9.5t4.5 14.5l3 14q-14 -6 -29 -6q-37 0 -59 20t-22 55q0 49 37 83.5t90 34.5q41 0 64 -20t23 -55q0 -5 -2 -19l-16 -93q-4 -20 -13 -29h57l37 208h82l-36 -202q-5 -31 -26 -47t-55 -16h-96l-13 -7
q-17 -10 -31 -10zM-332 -165.5q15 14.5 15 34.5q0 15 -10 24.5t-25 9.5q-21 0 -36.5 -15t-15.5 -35q0 -14 10.5 -23.5t26.5 -9.5q20 0 35 14.5z" />
    <glyph glyph-name="uni0E3A" unicode="&#xe3a;" 
d="M-219 -150q-15 14 -15 36q0 29 22.5 51t53.5 22q24 0 38 -14t14 -36q0 -29 -22 -51t-52 -22q-24 0 -39 14z" />
    <glyph glyph-name="uni0E3F" unicode="&#xe3f;" horiz-adv-x="601" 
d="M529.5 313q27.5 -32 27.5 -78q0 -67 -34 -120.5t-94.5 -84t-137.5 -30.5h-22l-17 -98h-50l17 98h-190l105 598q1 6 1 15q0 11 -3 17.5t-9 13.5t-6 13t2 10q7 18 25.5 34.5t36.5 16.5q19 0 30 -18h132l17 99h50l-17 -99h18q86 0 133.5 -40.5t47.5 -108.5
q0 -70 -36.5 -117.5t-100.5 -67.5l-1 -3q48 -18 75.5 -50zM200 405h91l37 214h-90zM378 619l-37 -214q67 1 106.5 37.5t39.5 96.5q0 80 -97 80h-12zM234 81l42 242h-90l-43 -242h91zM411.5 121.5q41.5 40.5 41.5 108.5q0 45 -31.5 69t-89.5 24h-6l-42 -242h17
q69 0 110.5 40.5z" />
    <glyph glyph-name="uni0E40" unicode="&#xe40;" horiz-adv-x="311" 
d="M58 13.5q-26 23.5 -26 63.5q0 7 2 21l88 495h100l-73 -413q19 7 34 7q33 0 52.5 -20.5t19.5 -54.5q0 -53 -35.5 -87.5t-92.5 -34.5q-43 0 -69 23.5zM172 63.5q15 15.5 15 35.5q0 15 -10 24.5t-26 9.5q-20 0 -35.5 -15t-15.5 -35q0 -15 10.5 -25t25.5 -10q21 0 36 15.5z
" />
    <glyph glyph-name="uni0E41" unicode="&#xe41;" horiz-adv-x="567" 
d="M58 13.5q-26 23.5 -26 63.5q0 7 2 21l88 495h100l-73 -413q19 7 34 7q33 0 52.5 -20.5t19.5 -54.5q0 -53 -35.5 -87.5t-92.5 -34.5q-43 0 -69 23.5zM314 13.5q-26 23.5 -26 63.5q0 7 2 21l88 495h100l-73 -413q19 7 34 7q33 0 52.5 -20.5t19.5 -54.5q0 -53 -35.5 -87.5
t-92.5 -34.5q-43 0 -69 23.5zM172 63.5q15 15.5 15 35.5q0 15 -10 24.5t-26 9.5q-20 0 -35.5 -15t-15.5 -35q0 -15 10.5 -25t25.5 -10q21 0 36 15.5zM428 63.5q15 15.5 15 35.5q0 15 -10 24.5t-26 9.5q-20 0 -35.5 -15t-15.5 -35q0 -15 10.5 -25t25.5 -10q21 0 36 15.5z" />
    <glyph glyph-name="uni0E42" unicode="&#xe42;" horiz-adv-x="424" 
d="M152 13.5q-26 23.5 -26 63.5q0 7 2 21l106 600q4 21 4 44q0 46 -28 69.5t-93 25.5l-11 -9q-13 -10 -25 -10q-13 0 -28 11q-14 11 -14 23q0 15 23 46q57 75 132 117t159 42q89 0 147 -37.5t82 -103.5l-77 -38q-22 52 -61 75t-105 23q-47 0 -90.5 -19t-73.5 -51
q85 -12 125 -52t40 -106q0 -22 -5 -50l-92 -518q19 7 34 7q33 0 52.5 -20.5t19.5 -54.5q0 -53 -35.5 -87.5t-91.5 -34.5q-44 0 -70 23.5zM266 63q15 15 15 36q0 15 -9.5 24.5t-25.5 9.5q-21 0 -36.5 -15t-15.5 -35q0 -15 10.5 -25t25.5 -10q21 0 36 15z" />
    <glyph glyph-name="uni0E43" unicode="&#xe43;" horiz-adv-x="353" 
d="M106 13.5q-26 23.5 -26 62.5q0 6 2 22l77 442q19 111 73 188t148 125q2 20 2 27q0 48 -28.5 72.5t-83.5 24.5q-94 0 -151 -57l-1 -2q29 11 50 11q34 0 54.5 -21t20.5 -53q0 -52 -38 -86t-94 -34q-45 0 -72.5 27t-27.5 72q0 57 38 108.5t101 83t134 31.5q88 0 139 -45
t51 -120q0 -36 -8 -57t-20.5 -31.5t-33.5 -20.5q-64 -29 -99.5 -85t-53.5 -158l-63 -360q19 7 34 7q34 0 53 -20t19 -55q0 -53 -35.5 -87.5t-91.5 -34.5q-43 0 -69 23.5zM161 808q15 15 15 36q0 16 -10.5 25t-27.5 9q-20 0 -35 -15t-15 -35q0 -15 10 -25t26 -10q22 0 37 15z
M219.5 63.5q15.5 15.5 15.5 35.5q0 15 -10 24.5t-26 9.5q-21 0 -36.5 -15t-15.5 -35q0 -15 10.5 -25t25.5 -10q21 0 36.5 15.5z" />
    <glyph glyph-name="uni0E44" unicode="&#xe44;" horiz-adv-x="442" 
d="M169 13.5q-26 23.5 -26 62.5q0 6 2 22l86 489q19 105 87.5 181.5t175.5 120.5q-16 53 -45 80q-101 -35 -182 -137q-10 -12 -18.5 -18.5t-18.5 -6.5q-9 0 -19 6q-17 9 -17 23q0 10 6 20q-23 93 -142 130l57 69q58 -21 93.5 -54.5t54.5 -82.5q36 38 82 68.5t94 47.5
q18 6 31 6q14 0 24 -8q32 -32 54.5 -76t29.5 -83q2 -14 2 -20q0 -23 -23 -35q-14 -7 -24 -7q-12 0 -20 11q-80 -34 -122.5 -88t-59.5 -147l-72 -407q19 7 34 7q34 0 53.5 -20t19.5 -55q0 -53 -35.5 -87.5t-92.5 -34.5q-43 0 -69 23.5zM283 63.5q15 15.5 15 35.5
q0 15 -10 24.5t-26 9.5q-21 0 -36.5 -15t-15.5 -35q0 -15 10.5 -25t26.5 -10q21 0 36 15.5z" />
    <glyph glyph-name="uni0E45" unicode="&#xe45;" horiz-adv-x="533" 
d="M386 412q6 30 16 43q-17 34 -41.5 50.5t-65.5 16.5q-95 0 -158 -85l-66 41q44 61 102.5 93t124.5 32q61 0 106.5 -23.5t69.5 -63.5q8 7 18 7q12 0 22 -12q14 -15 14 -31q0 -12 -4.5 -18.5t-14.5 -14.5q-11 -9 -16 -16t-7 -20l-135 -770h-100z" />
    <glyph glyph-name="uni0E46" unicode="&#xe46;" horiz-adv-x="612" 
d="M290 -363q-25 0 -40 35q-2 8 -2 10q0 19 30 36q18 11 23 34l97 552q9 52 32 94t64 77l-28 40l-42 -35q1 -3 1 -10q0 -21 -32 -36q-14 -7 -25 -7q-19 0 -29 27q-12 37 -27 52.5t-49 15.5q-36 0 -61.5 -27t-33.5 -68q14 10 32.5 16t35.5 6q35 0 58.5 -22.5t23.5 -60.5
q0 -55 -39 -91t-98 -36q-53 0 -83.5 33t-30.5 86q0 66 28 122t77.5 89.5t110.5 33.5q42 0 72 -16t46 -45l55 48q14 13 36 13q18 0 26 -12l50 -69q4 2 11 2q16 0 26 -16q8 -14 8 -26q0 -23 -26 -39q-41 -28 -60.5 -57.5t-28.5 -81.5l-98 -555q-7 -36 -24 -58.5t-58 -44.5
q-15 -9 -28 -9zM227.5 315q16.5 17 16.5 38q0 16 -10.5 27t-27.5 11q-22 0 -39 -16.5t-17 -37.5q0 -17 11 -28t28 -11q22 0 38.5 17z" />
    <glyph glyph-name="uni0E47" unicode="&#xe47;" 
d="M-200 676.5q-33 20.5 -41 57.5q-28 -12 -49 -53q-6 -11 -16.5 -17.5t-22.5 -6.5q-13 0 -25 9q-51 43 -51 104q0 49 23 88t64.5 60.5t94.5 21.5h102q58 0 89 16t51 59l68 -22q-25 -64 -81.5 -94.5t-138.5 -30.5h-103q-42 0 -67 -23t-25 -65q0 -24 10 -44q33 47 73 58
q6 31 39 31q29 0 29 -19q0 -42 2 -58t8.5 -22t25.5 -11l1 1q-8 12 -8 28q0 35 29 60.5t70 25.5q31 0 50 -17.5t19 -46.5q0 -47 -38.5 -78.5t-96.5 -31.5q-52 0 -85 20.5zM-41.5 727q12.5 12 12.5 28q0 12 -8.5 20t-20.5 8q-17 0 -29.5 -12t-12.5 -28q0 -13 8.5 -20.5
t21.5 -7.5q16 0 28.5 12z" />
    <glyph glyph-name="uni0E48" unicode="&#xe48;" 
d="M-46 882h100l-39 -224h-100z" />
    <glyph glyph-name="uni0E49" unicode="&#xe49;" 
d="M-306 715q58 7 94 43v2q-37 -3 -60 16t-23 53q0 51 36.5 84.5t90.5 33.5q42 0 66.5 -22.5t24.5 -58.5q0 -35 -22.5 -74t-65.5 -66q78 6 137 64.5t83 138.5l78 -17q-30 -111 -113.5 -176.5t-214.5 -72.5l-121 -7zM-157.5 819q14.5 12 15.5 32q2 17 -8 28t-27 11
q-20 0 -35.5 -13t-16.5 -32q-2 -17 8 -27.5t30 -10.5q19 0 33.5 12z" />
    <glyph glyph-name="uni0E4A" unicode="&#xe4a;" 
d="M-375.5 683q-24.5 27 -24.5 71q0 49 20 90t54 65.5t73 24.5q53 0 75 -43q40 43 95 43q37 0 59.5 -19.5t22.5 -56.5q0 -29 -13 -59.5t-32 -53.5q50 28 78.5 71t49.5 127l78 -11q-29 -119 -94.5 -183.5t-180.5 -85.5q-4 -1 -12 -1q-11 0 -18.5 5t-11.5 17q-2 8 -2 10
q0 10 5.5 17.5t17.5 17.5q24 20 40 50.5t16 55.5q0 14 -8.5 22t-23.5 8q-18 0 -29 -10.5t-11 -25.5v-15h-66q-2 26 -12.5 38.5t-30.5 12.5q-51 0 -65 -77h1q24 21 62 21q26 0 42 -15.5t16 -41.5q0 -43 -29 -69.5t-75 -26.5q-42 0 -66.5 27zM-269 713q12 12 12 28
q0 12 -8 19.5t-20 7.5q-17 0 -29.5 -12t-12.5 -28q0 -12 8.5 -19.5t20.5 -7.5q17 0 29 12z" />
    <glyph glyph-name="uni0E4B" unicode="&#xe4b;" 
d="M-65 749h-106l14 79h106l16 92h96l-16 -92h106l-14 -79h-106l-16 -91h-96z" />
    <glyph glyph-name="uni0E4C" unicode="&#xe4c;" 
d="M-224.5 674q-26.5 24 -26.5 61q0 38 22 70t59.5 50t82.5 18q104 0 171 78l48 -53q-42 -43 -83.5 -62t-94.5 -19l-1 -2q10 -9 15.5 -22.5t5.5 -26.5q0 -30 -18.5 -57t-48.5 -43t-63 -16q-42 0 -68.5 24zM-108.5 727q15.5 15 15.5 35q0 15 -10.5 25t-25.5 10q-22 0 -38 -15
t-16 -36q0 -15 10.5 -24.5t28.5 -9.5q20 0 35.5 15z" />
    <glyph glyph-name="uni0E4D" unicode="&#xe4d;" 
d="M-124 668.5q-27 24.5 -27 63.5q0 35 18.5 65t50 47.5t68.5 17.5q45 0 72 -24t27 -64q0 -35 -18.5 -65t-50 -47.5t-68.5 -17.5q-45 0 -72 24.5zM-3 724.5q16 15.5 16 37.5q0 16 -10.5 26t-27.5 10q-23 0 -39 -15.5t-16 -37.5q0 -16 10.5 -26t28.5 -10q22 0 38 15.5z" />
    <glyph glyph-name="uni0E4E" unicode="&#xe4e;" 
d="M-193.5 676q-28.5 20 -28.5 56q0 44 36 78.5t91 43.5q-20 18 -20 45q0 46 41.5 76.5t99.5 30.5q40 0 74 -14l-31 -64q-22 9 -42 9q-23 0 -37 -11.5t-14 -30.5q0 -34 60 -37l-30 -52q-66 1 -97.5 -12t-31.5 -42q0 -26 41 -26q12 0 26.5 3t22.5 7l2 -64q-17 -7 -40.5 -11.5
t-42.5 -4.5q-51 0 -79.5 20z" />
    <glyph glyph-name="uni0E4F" unicode="&#xe4f;" horiz-adv-x="598" 
d="M147.5 21q-49.5 26 -78.5 73.5t-29 107.5q0 82 41 149t111 105.5t154 38.5q63 0 112 -26t76 -73t27 -108q0 -83 -39.5 -150t-108.5 -105t-155 -38q-61 0 -110.5 26zM420.5 127.5q55.5 56.5 55.5 149.5q0 66 -37 104t-107 38q-59 0 -106.5 -26.5t-74 -73.5t-26.5 -106
q0 -65 38.5 -103.5t107.5 -38.5q94 0 149.5 56.5zM198 143.5q-32 29.5 -32 77.5q0 67 45 111t114 44q48 0 79.5 -29.5t31.5 -76.5q0 -44 -20 -80t-56 -56t-81 -20q-49 0 -81 29.5zM348.5 199.5q22.5 23.5 22.5 61.5q0 25 -15.5 39t-41.5 14q-36 0 -59 -24t-23 -61
q0 -25 16 -39t42 -14q36 0 58.5 23.5z" />
    <glyph glyph-name="uni0E50" unicode="&#xe50;" horiz-adv-x="639" 
d="M150.5 15.5q-53.5 25.5 -82.5 72t-29 106.5q0 88 41.5 156.5t115.5 106.5t169 38q71 0 124.5 -25.5t82.5 -72t29 -107.5q0 -87 -41.5 -155.5t-115.5 -106.5t-168 -38q-72 0 -125.5 25.5zM399.5 98.5q47.5 26.5 73.5 74t26 108.5t-39.5 97t-109.5 36q-61 0 -108.5 -26.5
t-74 -74t-26.5 -109.5q0 -61 39 -96.5t110 -35.5q62 0 109.5 26.5z" />
    <glyph glyph-name="uni0E51" unicode="&#xe51;" horiz-adv-x="673" 
d="M318 -38q100 46 158 129.5t58 180.5q0 67 -40 104.5t-121 37.5q-70 0 -123.5 -29.5t-83.5 -83.5t-30 -125q0 -58 24 -86t75 -32l1 2q-45 22 -45 70q0 51 35.5 83t90.5 32q45 0 70.5 -22t25.5 -59q0 -46 -27.5 -86t-73 -64t-98.5 -24q-79 0 -128.5 50.5t-49.5 133.5
q0 91 45.5 164.5t125 115t179.5 41.5q120 0 184.5 -58t64.5 -153q0 -118 -75.5 -224t-207.5 -169zM331 117q15 15 15 37q0 15 -10 24t-27 9q-21 0 -36.5 -15t-15.5 -36q0 -16 10 -25t27 -9q22 0 37 15z" />
    <glyph glyph-name="uni0E52" unicode="&#xe52;" horiz-adv-x="801" 
d="M90 22q0 24 10 37t26 13q26 150 26 243q0 70 -12 135t-38 147l90 46q28 -95 40.5 -165.5t12.5 -144.5q0 -105 -26 -255l369 1q14 1 22 8.5t10 19.5l45 253q5 23 12 30q-12 26 -46 26q-19 0 -34.5 -10.5t-23.5 -27.5q1 -6 1 -21q0 -12 -2 -34h-68q1 7 1 20q0 37 -14.5 55
t-44.5 18q-31 0 -52.5 -26.5t-29.5 -69.5q9 7 22.5 12.5t25.5 5.5q35 0 54 -20t19 -53q0 -49 -32.5 -79t-83.5 -30q-45 0 -70 27t-25 76q0 66 23.5 120t64.5 85t89 31q65 0 90 -52q20 22 48.5 37t58.5 15q70 0 97 -54q7 4 14 4q14 0 21 -14q8 -13 8 -26q0 -14 -14 -26
q-7 -5 -9 -11t-5 -21l-43 -241q-9 -48 -43.5 -77t-85.5 -29h-472q-26 0 -26 22zM412.5 220q15.5 15 15.5 35q0 15 -10.5 24.5t-26.5 9.5q-21 0 -36 -15t-15 -36q0 -15 10 -24t27 -9q20 0 35.5 15z" />
    <glyph glyph-name="uni0E53" unicode="&#xe53;" horiz-adv-x="685" 
d="M71 38.5q-32 47.5 -32 128.5q0 100 28 174t80.5 114t124.5 40q41 0 67.5 -17.5t42.5 -57.5q26 37 62.5 56t78.5 19q73 0 108 -54q6 3 13 3q12 0 20 -17q9 -16 9 -27q0 -10 -10 -20q-12 -10 -15 -32l-61 -348h-100l63 360q3 19 10 31q-17 23 -52 23t-61 -23t-35 -71
l-14 -83q-3 -17 -18.5 -28t-35.5 -11q-21 0 -32.5 11t-8.5 28l14 83q3 18 3 32q0 62 -60 62q-37 0 -65 -30t-43.5 -85t-15.5 -127q0 -16 1 -24q13 20 32.5 30.5t42.5 10.5q34 0 57 -22.5t23 -58.5q0 -53 -35.5 -85t-93.5 -32q-60 0 -92 47.5zM209.5 64.5
q14.5 15.5 14.5 36.5q0 15 -9.5 24.5t-26.5 9.5q-21 0 -37 -15t-16 -36q0 -15 11 -25t27 -10q22 0 36.5 15.5z" />
    <glyph glyph-name="uni0E54" unicode="&#xe54;" horiz-adv-x="807" 
d="M97.5 51q-58.5 51 -58.5 140q0 145 100 224.5t288 79.5q84 0 140 12t104.5 43.5t103.5 92.5l56 -56q-61 -67 -120.5 -104.5t-130 -53t-167.5 -15.5q-132 0 -201.5 -54.5t-69.5 -160.5q0 -59 32.5 -89.5t95.5 -30.5h75q-33 25 -53 61t-20 74q0 56 34.5 90t92.5 34
q44 0 70.5 -22t26.5 -60q0 -48 -30.5 -78t-83.5 -33q18 -30 54.5 -48t85.5 -18h101q37 0 37 -28q0 -24 -13.5 -37.5t-36.5 -13.5h-354q-100 0 -158.5 51zM413 210q15 15 15 36q0 15 -10.5 24.5t-26.5 9.5q-20 0 -35.5 -15t-15.5 -36q0 -15 10.5 -24.5t26.5 -9.5q21 0 36 15z
" />
    <glyph glyph-name="uni0E55" unicode="&#xe55;" horiz-adv-x="807" 
d="M97.5 51q-58.5 51 -58.5 140q0 112 67 188.5t184 99.5q-10 14 -10 36q0 47 37.5 79.5t94.5 32.5q46 0 74.5 -21t28.5 -57q0 -16 -5.5 -30.5t-13.5 -22.5q85 4 147.5 37t131.5 110l56 -56q-61 -67 -120.5 -104.5t-130 -53t-167.5 -15.5q-131 0 -201 -55.5t-70 -159.5
q0 -59 32.5 -89.5t95.5 -30.5h74q-33 25 -53 61.5t-20 73.5q0 56 35 90t92 34q44 0 70.5 -22t26.5 -60q0 -48 -30 -78t-84 -33q18 -30 55 -48t85 -18h101q38 0 38 -28q0 -24 -13.5 -37.5t-37.5 -13.5h-353q-100 0 -158.5 51zM424.5 498.5q14.5 14.5 14.5 34.5q0 15 -9.5 24
t-26.5 9q-20 0 -35 -14.5t-15 -34.5q0 -14 10 -23.5t26 -9.5q21 0 35.5 14.5zM412 210q15 15 15 36q0 15 -10 24.5t-26 9.5q-21 0 -36 -15t-15 -36q0 -15 10 -24.5t26 -9.5q21 0 36 15z" />
    <glyph glyph-name="uni0E56" unicode="&#xe56;" horiz-adv-x="799" 
d="M264.5 20.5q-49.5 29.5 -49.5 79.5q0 52 36 84.5t92 32.5q44 0 70 -21.5t26 -58.5q0 -24 -9 -42.5t-20 -27.5q118 0 184.5 59.5t66.5 164.5q0 123 -141 123q-114 0 -211 -85q-22 -17 -39 -17t-32 16q-12 14 -12 23q0 10 10 23q-50 53 -79.5 107t-52.5 130l92 42
q33 -136 118 -228q51 35 104 52.5t116 17.5q109 0 169 -53.5t60 -141.5q0 -97 -43.5 -167t-122.5 -106t-184 -36q-99 0 -148.5 29.5zM356 88q15 15 15 37q0 16 -10 25t-27 9q-22 0 -36.5 -15t-14.5 -37q0 -15 10 -24.5t26 -9.5q22 0 37 15z" />
    <glyph glyph-name="uni0E57" unicode="&#xe57;" horiz-adv-x="907" 
d="M70.5 38q-31.5 47 -31.5 129q0 97 28.5 171.5t80.5 115.5t121 41q42 0 69 -17.5t43 -57.5q27 37 65 56t81 19q64 0 96.5 -33.5t32.5 -95.5q0 -67 -40 -169h4q80 115 128.5 210.5t97.5 236.5l90 -25q-60 -168 -141.5 -301t-235.5 -305q-23 -23 -48 -23q-12 0 -21 6
q-16 10 -16 27q0 12 11 34q42 80 65.5 151.5t23.5 121.5q0 84 -67 84q-35 0 -60.5 -23t-33.5 -71l-15 -83q-2 -17 -17.5 -28t-35.5 -11q-22 0 -33.5 11t-8.5 28l14 83q3 18 3 32q0 62 -59 62q-37 0 -65.5 -31t-44.5 -86t-16 -125q0 -16 1 -24q13 19 33 30t43 11
q35 0 57.5 -21t22.5 -58q0 -52 -36 -85.5t-94 -33.5q-60 0 -91.5 47zM209 64.5q15 15.5 15 36.5q0 15 -10 24.5t-26 9.5q-21 0 -37 -15t-16 -36q0 -15 10.5 -25t26.5 -10q22 0 37 15.5z" />
    <glyph glyph-name="uni0E58" unicode="&#xe58;" horiz-adv-x="825" 
d="M378.5 19q-48.5 28 -70.5 73l-45 -60q-26 -32 -54 -32h-121q-31 0 -31 25q0 17 8 29.5t19 12.5q-43 66 -43 135q0 138 105.5 215.5t299.5 77.5q89 0 147 13.5t100.5 46.5t80.5 93l78 -37q-46 -74 -103.5 -117t-133.5 -61.5t-183 -18.5q-290 0 -290 -215q0 -65 34 -120h23
l139 197q16 22 37 22q12 0 22 -6q21 -10 21 -28q0 -12 -9 -26l-43 -65q4 -41 32 -69.5t63 -35.5q-11 17 -11 37q0 46 38 78t91 32q44 0 68.5 -22.5t24.5 -59.5q0 -41 -22.5 -73t-62.5 -50.5t-90 -18.5q-70 0 -118.5 28zM590 86q15 15 15 37q0 15 -10 24.5t-26 9.5
q-22 0 -37 -15t-15 -36q0 -16 10 -25.5t26 -9.5q22 0 37 15z" />
    <glyph glyph-name="uni0E59" unicode="&#xe59;" horiz-adv-x="865" 
d="M121 16.5q-39 25.5 -61 70t-22 97.5q0 84 41 146.5t117 97.5l121 56q24 11 42 11q22 0 30 -9t17 -37l17 -56q23 47 64 74.5t89 27.5q99 0 111 -89q38 51 68 116t57 150l88 -20q-34 -107 -80.5 -186t-123.5 -161q-18 -19 -41 -19q-17 0 -29 10t-12 24q0 3 2 11q2 14 2 21
q0 29 -15.5 45.5t-44.5 16.5q-38 0 -67 -32t-34 -77l87 -264l-85 -41l-134 401l-92 -42q-46 -21 -71 -62.5t-25 -97.5q0 -43 20 -74q12 33 40.5 53t63.5 20q42 0 66.5 -22t24.5 -59q0 -35 -19 -64t-52 -45.5t-73 -16.5q-48 0 -87 25.5zM268.5 68q15.5 15 15.5 36
q0 15 -10.5 25t-26.5 10q-21 0 -36.5 -15.5t-15.5 -35.5q0 -15 10 -25t27 -10q21 0 36.5 15z" />
    <glyph glyph-name="uni0E5A" unicode="&#xe5a;" horiz-adv-x="760" 
d="M766 595q11 -8 11 -21q0 -8 -5 -20l-10 -23l-77 -432q-13 -68 -82 -102q-14 -7 -31 -7q-27 0 -37 19q-6 11 -6 20q0 18 25 34q16 10 23 19.5t10 24.5l48 275q-53 -57 -131 -62l-39 -221q-11 -67 -82 -102q-13 -7 -31 -7q-27 0 -37 19q-6 11 -6 20q0 17 25 34
q16 11 23.5 20t9.5 24l48 275q-33 -32 -71 -48t-86 -16t-87.5 19.5t-62.5 53.5t-23 75q0 59 39.5 97.5t98.5 38.5q48 0 75.5 -24.5t27.5 -64.5q0 -45 -28.5 -75.5t-78.5 -38.5q21 -15 53 -15q123 0 201 189q13 30 40 30q4 0 16 -2q29 -6 29 -28q0 -7 -5 -19l-11 -23
l-26 -143q57 5 99.5 48t77.5 138q5 14 15.5 21.5t25.5 7.5q21 0 32 -8zM168.5 454q10.5 -11 27.5 -11q22 0 39.5 16t17.5 41q0 17 -10.5 26t-29.5 9q-24 0 -39.5 -15.5t-15.5 -38.5q0 -16 10.5 -27z" />
    <glyph glyph-name="uni0E5B" unicode="&#xe5b;" horiz-adv-x="1183" 
d="M111.5 94q-61.5 57 -61.5 153q0 89 37.5 163t102.5 117t146 43q77 0 119 -41t42 -107t-21.5 -116.5t-59 -78.5t-83.5 -28q-45 0 -71 24.5t-26 63.5q0 54 35.5 89t89.5 35q30 0 50 -18q4 14 4 23q0 30 -22.5 51.5t-64.5 21.5q-47 0 -87.5 -30t-64.5 -83.5t-24 -120.5
q0 -65 37.5 -101t102.5 -36q76 0 132.5 37t86.5 105.5t30 160.5v21h91q13 -36 19.5 -68.5t12.5 -78.5q32 58 54 133h67q7 -22 13.5 -58.5t10.5 -69.5q12 25 23 58t15 57h66q26 -55 32 -119q9 17 16.5 40t9.5 42h62q9 -42 25.5 -58.5t47.5 -16.5h48l-13 -72h-60
q-25 0 -47 11.5t-34 31.5q-12 -31 -22.5 -52.5t-26.5 -44.5h-61q1 9 1 28q0 60 -13 88q-27 -80 -61 -132h-60l1 31q0 58 -8 98q-37 -91 -73 -146h-62q-1 50 -3 81.5t-8 58.5q-32 -114 -120 -180.5t-206 -66.5q-105 0 -166.5 57zM378 274.5q15 12.5 19 32.5q1 3 1 9
q0 16 -11 26t-28 10q-22 0 -38 -16.5t-16 -38.5q0 -15 10.5 -24.5t27.5 -10.5q20 0 35 12.5z" />
    <glyph glyph-name="uni1E0C" unicode="&#x1e0c;" horiz-adv-x="642" 
d="M133 598q1 6 1 15q0 17 -9 28t-9 16q0 4 3 10q9 18 27 34.5t35 16.5q15 0 30 -18h137q84 0 147 -31.5t97 -91t34 -140.5q0 -130 -47.5 -229t-135.5 -153.5t-206 -54.5h-209zM245 88q84 0 146.5 42t96.5 118.5t34 178.5q0 94 -43.5 139.5t-144.5 45.5h-96l-93 -524h100z
M201 -158q-15 14 -15 36q0 30 22.5 52t53.5 22q23 0 37 -14t14 -36q0 -30 -22 -52t-51 -22q-24 0 -39 14z" />
    <glyph glyph-name="uni1E0D" unicode="&#x1e0d;" horiz-adv-x="577" 
d="M392 53q0 12 1 19q-74 -82 -176 -82q-84 0 -131.5 51t-47.5 137q0 92 36 164t98.5 112.5t139.5 40.5q88 0 133 -72l54 311h100l-106 -605q-5 -35 -5 -54q0 -30 10 -53l-89 -33q-17 23 -17 64zM355.5 115.5q44.5 43.5 55.5 109.5l5 34q3 17 3 33q0 52 -28 86.5t-82 34.5
q-48 0 -86.5 -29.5t-60.5 -81t-22 -115.5q0 -54 25.5 -84.5t79.5 -30.5q66 0 110.5 43.5zM174 -158q-15 14 -15 36q0 30 22.5 52t53.5 22q23 0 37 -14t14 -36q0 -30 -22 -52t-51 -22q-24 0 -39 14z" />
    <glyph glyph-name="uni1E0E" unicode="&#x1e0e;" horiz-adv-x="642" 
d="M133 598q1 6 1 15q0 17 -9 28t-9 16q0 4 3 10q9 18 27 34.5t35 16.5q15 0 30 -18h137q84 0 147 -31.5t97 -91t34 -140.5q0 -130 -47.5 -229t-135.5 -153.5t-206 -54.5h-209zM245 88q84 0 146.5 42t96.5 118.5t34 178.5q0 94 -43.5 139.5t-144.5 45.5h-96l-93 -524h100z
M99 -58h320l-14 -78h-320z" />
    <glyph glyph-name="uni1E0F" unicode="&#x1e0f;" horiz-adv-x="577" 
d="M392 53q0 12 1 19q-74 -82 -176 -82q-84 0 -131.5 51t-47.5 137q0 92 36 164t98.5 112.5t139.5 40.5q88 0 133 -72l54 311h100l-106 -605q-5 -35 -5 -54q0 -30 10 -53l-89 -33q-17 23 -17 64zM355.5 115.5q44.5 43.5 55.5 109.5l5 34q3 17 3 33q0 52 -28 86.5t-82 34.5
q-48 0 -86.5 -29.5t-60.5 -81t-22 -115.5q0 -54 25.5 -84.5t79.5 -30.5q66 0 110.5 43.5zM72 -58h320l-14 -78h-320z" />
    <glyph glyph-name="uni1E20" unicode="&#x1e20;" horiz-adv-x="657" 
d="M178.5 23.5q-59.5 33.5 -91 95t-31.5 143.5q0 130 47.5 232t135 159t204.5 57q64 0 115 -22t80 -61l-54 -72q-27 35 -63.5 52.5t-92.5 17.5q-76 0 -136.5 -44.5t-95 -125t-34.5 -183.5q0 -95 43.5 -146t129.5 -51q42 0 71 7t58 24l33 189h-161l15 85h204q17 16 35 16
q17 0 29.5 -16.5t14.5 -34.5q0 -8 -3 -13t-10 -10q-9 -7 -15.5 -16t-9.5 -28l-38 -219q-68 -38 -121.5 -53.5t-118.5 -15.5q-80 0 -139.5 33.5zM307 864h320l-14 -78h-320z" />
    <glyph glyph-name="uni1E21" unicode="&#x1e21;" horiz-adv-x="575" 
d="M24 -181l43 75q53 -29 125 -29q86 0 126.5 43t54.5 122l7 42q-31 -34 -72.5 -53t-88.5 -19q-84 0 -132 50.5t-48 136.5q0 89 33.5 159t93.5 110t136 40q100 0 149 -82q6 26 18.5 47.5t27.5 35.5l77 -32q-17 -23 -26.5 -47.5t-16.5 -61.5l-58 -324q-22 -124 -96.5 -187
t-199.5 -63q-84 0 -153 37zM354.5 128q43.5 46 55.5 108l5 25q3 18 3 36q0 52 -29.5 85t-84.5 33q-47 0 -84.5 -28t-58.5 -78t-21 -113q0 -114 108 -114q63 0 106.5 46zM207 649h320l-14 -78h-320z" />
    <glyph glyph-name="uni1E24" unicode="&#x1e24;" horiz-adv-x="619" 
d="M137 700h102l-51 -288h305l51 288h102l-123 -700h-102l57 324h-305l-57 -324h-102zM201 -158q-15 14 -15 36q0 30 22.5 52t53.5 22q23 0 37 -14t14 -36q0 -30 -22 -52t-51 -22q-24 0 -39 14z" />
    <glyph glyph-name="uni1E25" unicode="&#x1e25;" horiz-adv-x="544" 
d="M354 67q0 18 5 48l32 180q4 28 4 38q0 79 -83 79q-56 0 -99 -44.5t-55 -108.5l-46 -259h-100l129 734h100l-55 -313q33 35 76 54.5t89 19.5q73 0 109 -37t36 -106q0 -32 -5 -58l-32 -178q-3 -18 -3 -36q0 -32 9 -55l-96 -35q-15 40 -15 77zM155 -158q-15 14 -15 36
q0 30 22.5 52t53.5 22q23 0 37 -14t14 -36q0 -30 -22 -52t-51 -22q-24 0 -39 14z" />
    <glyph glyph-name="uni1E2A" unicode="&#x1e2a;" horiz-adv-x="619" 
d="M137 700h102l-51 -288h305l51 288h102l-123 -700h-102l57 324h-305l-57 -324h-102zM144.5 -168q-34.5 28 -34.5 81q0 10 4 34l2 10h86l-2 -11q-3 -14 -3 -23q0 -49 50 -49q60 0 74 72l2 11h86l-2 -10q-14 -69 -61 -106t-111 -37q-56 0 -90.5 28z" />
    <glyph glyph-name="uni1E2B" unicode="&#x1e2b;" horiz-adv-x="544" 
d="M354 67q0 18 5 48l32 180q4 28 4 38q0 79 -83 79q-56 0 -99 -44.5t-55 -108.5l-46 -259h-100l129 734h100l-55 -313q33 35 76 54.5t89 19.5q73 0 109 -37t36 -106q0 -32 -5 -58l-32 -178q-3 -18 -3 -36q0 -32 9 -55l-96 -35q-15 40 -15 77zM98.5 -168q-34.5 28 -34.5 81
q0 10 4 34l2 10h86l-2 -11q-3 -14 -3 -23q0 -49 50 -49q60 0 74 72l2 11h86l-2 -10q-14 -69 -61 -106t-111 -37q-56 0 -90.5 28z" />
    <glyph glyph-name="uni1E36" unicode="&#x1e36;" horiz-adv-x="507" 
d="M20.5 1.5q-13.5 16.5 -13.5 34.5q0 8 3 12.5t10 10.5q9 8 15.5 17.5t9.5 26.5l105 597h102l-107 -612h302l-16 -88h-346q-18 -15 -34 -15q-17 0 -30.5 16.5zM147 -158q-15 14 -15 36q0 30 22.5 52t53.5 22q23 0 37 -14t14 -36q0 -30 -22 -52t-51 -22q-24 0 -39 14z" />
    <glyph glyph-name="uni1E37" unicode="&#x1e37;" horiz-adv-x="210" 
d="M143 734h100l-129 -734h-100zM-4 -158q-15 14 -15 36q0 30 22.5 52t53.5 22q23 0 37 -14t14 -36q0 -30 -22 -52t-51 -22q-24 0 -39 14z" />
    <glyph glyph-name="uni1E38" unicode="&#x1e38;" horiz-adv-x="507" 
d="M20.5 1.5q-13.5 16.5 -13.5 34.5q0 8 3 12.5t10 10.5q9 8 15.5 17.5t9.5 26.5l105 597h102l-107 -612h302l-16 -88h-346q-18 -15 -34 -15q-17 0 -30.5 16.5zM147 -158q-15 14 -15 36q0 30 22.5 52t53.5 22q23 0 37 -14t14 -36q0 -30 -22 -52t-51 -22q-24 0 -39 14z
M73 864h320l-14 -78h-320z" />
    <glyph glyph-name="uni1E39" unicode="&#x1e39;" horiz-adv-x="210" 
d="M143 734h100l-129 -734h-100zM-4 -158q-15 14 -15 36q0 30 22.5 52t53.5 22q23 0 37 -14t14 -36q0 -30 -22 -52t-51 -22q-24 0 -39 14zM62 898h320l-14 -78h-320z" />
    <glyph glyph-name="uni1E3A" unicode="&#x1e3a;" horiz-adv-x="507" 
d="M20.5 1.5q-13.5 16.5 -13.5 34.5q0 8 3 12.5t10 10.5q9 8 15.5 17.5t9.5 26.5l105 597h102l-107 -612h302l-16 -88h-346q-18 -15 -34 -15q-17 0 -30.5 16.5zM45 -58h320l-14 -78h-320z" />
    <glyph glyph-name="uni1E3B" unicode="&#x1e3b;" horiz-adv-x="210" 
d="M143 734h100l-129 -734h-100zM-106 -58h320l-14 -78h-320z" />
    <glyph glyph-name="uni1E42" unicode="&#x1e42;" horiz-adv-x="782" 
d="M322.5 -3q-11.5 8 -12.5 21l-72 477l-134 -496h-104l182 646l-4 9q-2 8 -2 11q0 20 16.5 36.5t45.5 16.5q31 0 44 -13t17 -41l76 -508l257 508q14 28 31.5 41t49.5 13q24 0 35 -11t11 -27q0 -15 -8 -26l-7 -9l-46 -646h-102l42 497l-222 -443l1 -10q1 -25 -18.5 -39.5
t-47.5 -14.5q-17 0 -28.5 8zM280 -158q-15 14 -15 36q0 30 22.5 52t53.5 22q23 0 37 -14t14 -36q0 -30 -22 -52t-51 -22q-24 0 -39 14z" />
    <glyph glyph-name="uni1E43" unicode="&#x1e43;" horiz-adv-x="796" 
d="M606 68q0 24 4 47l33 182q5 28 5 46q0 34 -16 51.5t-52 17.5q-48 0 -79.5 -33t-40.5 -87l-52 -292h-98l52 297q4 21 4 42q0 73 -66 73q-52 0 -85 -39t-45 -104l-47 -269h-100l63 358q5 32 5 50q0 28 -9 53l92 35q15 -43 12 -82q26 39 66 60t81 21q46 0 73 -22.5t36 -62.5
q70 85 170 85q68 0 103.5 -35.5t35.5 -97.5q0 -24 -4 -44l-36 -202q-3 -18 -3 -36q0 -32 9 -55l-97 -35q-14 39 -14 78zM290 -158q-15 14 -15 36q0 30 22.5 52t53.5 22q23 0 37 -14t14 -36q0 -30 -22 -52t-51 -22q-24 0 -39 14z" />
    <glyph glyph-name="uni1E44" unicode="&#x1e44;" horiz-adv-x="618" 
d="M131 612q1 3 1 9q0 11 -7.5 22t-7.5 17t4 14q9 19 27.5 31.5t38.5 12.5q29 0 40 -25l226 -508l90 515h102l-123 -700h-87l-222 498l-88 -498h-102zM379.5 805.5q-14.5 14.5 -14.5 36.5q0 29 22.5 51t52.5 22q24 0 38 -14t14 -36q0 -30 -22.5 -52t-51.5 -22
q-24 0 -38.5 14.5z" />
    <glyph glyph-name="uni1E45" unicode="&#x1e45;" horiz-adv-x="554" 
d="M364 67q0 20 5 48l32 180q4 20 4 41q0 39 -20.5 57.5t-61.5 18.5q-57 0 -100 -44.5t-54 -108.5l-46 -259h-100l63 358q5 28 5 48q0 28 -9 55l95 34q11 -29 11 -66q0 -11 -1 -17q34 38 81.5 60.5t95.5 22.5q71 0 107 -36.5t36 -104.5q0 -28 -6 -60l-32 -178q-3 -18 -3 -35
q0 -35 10 -56l-97 -35q-15 38 -15 77zM303.5 590.5q-14.5 14.5 -14.5 36.5q0 29 22.5 51t52.5 22q24 0 38 -14t14 -36q0 -30 -22.5 -52t-51.5 -22q-24 0 -38.5 14.5z" />
    <glyph glyph-name="uni1E46" unicode="&#x1e46;" horiz-adv-x="618" 
d="M131 612q1 3 1 9q0 11 -7.5 22t-7.5 17t4 14q9 19 27.5 31.5t38.5 12.5q29 0 40 -25l226 -508l90 515h102l-123 -700h-87l-222 498l-88 -498h-102zM210 -158q-15 14 -15 36q0 30 22.5 52t53.5 22q23 0 37 -14t14 -36q0 -30 -22 -52t-51 -22q-24 0 -39 14z" />
    <glyph glyph-name="uni1E47" unicode="&#x1e47;" horiz-adv-x="554" 
d="M364 67q0 20 5 48l32 180q4 20 4 41q0 39 -20.5 57.5t-61.5 18.5q-57 0 -100 -44.5t-54 -108.5l-46 -259h-100l63 358q5 28 5 48q0 28 -9 55l95 34q11 -29 11 -66q0 -11 -1 -17q34 38 81.5 60.5t95.5 22.5q71 0 107 -36.5t36 -104.5q0 -28 -6 -60l-32 -178q-3 -18 -3 -35
q0 -35 10 -56l-97 -35q-15 38 -15 77zM171 -158q-15 14 -15 36q0 30 22.5 52t53.5 22q23 0 37 -14t14 -36q0 -30 -22 -52t-51 -22q-24 0 -39 14z" />
    <glyph glyph-name="uni1E48" unicode="&#x1e48;" horiz-adv-x="618" 
d="M131 612q1 3 1 9q0 11 -7.5 22t-7.5 17t4 14q9 19 27.5 31.5t38.5 12.5q29 0 40 -25l226 -508l90 515h102l-123 -700h-87l-222 498l-88 -498h-102zM108 -58h320l-14 -78h-320z" />
    <glyph glyph-name="uni1E49" unicode="&#x1e49;" horiz-adv-x="554" 
d="M364 67q0 20 5 48l32 180q4 20 4 41q0 39 -20.5 57.5t-61.5 18.5q-57 0 -100 -44.5t-54 -108.5l-46 -259h-100l63 358q5 28 5 48q0 28 -9 55l95 34q11 -29 11 -66q0 -11 -1 -17q34 38 81.5 60.5t95.5 22.5q71 0 107 -36.5t36 -104.5q0 -28 -6 -60l-32 -178q-3 -18 -3 -35
q0 -35 10 -56l-97 -35q-15 38 -15 77zM69 -58h320l-14 -78h-320z" />
    <glyph glyph-name="uni1E5A" unicode="&#x1e5a;" horiz-adv-x="592" 
d="M133 608q1 4 1 10q0 13 -8.5 23.5t-8.5 17.5q0 5 3 12q7 18 24.5 32.5t37.5 14.5t36 -18h139q114 0 177 -48t63 -131q0 -102 -63.5 -166t-172.5 -75l133 -280h-116l-130 272h-72l-48 -272h-102zM300 359q191 0 191 156q0 51 -36.5 74t-110.5 23h-108l-45 -253h109z
M182 -158q-15 14 -15 36q0 30 22.5 52t53.5 22q23 0 37 -14t14 -36q0 -30 -22 -52t-51 -22q-24 0 -39 14z" />
    </font>
</defs>
</svg>
