<svg width="17" height="17" viewBox="0 0 17 17" fill="none" xmlns="http://www.w3.org/2000/svg">
<path fill-rule="evenodd" clip-rule="evenodd" d="M8.49967 1.83325C4.81786 1.83325 1.83301 4.8181 1.83301 8.49992C1.83301 12.1817 4.81786 15.1666 8.49967 15.1666C12.1815 15.1666 15.1663 12.1817 15.1663 8.49992C15.1663 4.8181 12.1815 1.83325 8.49967 1.83325ZM11.3894 7.37265C11.4426 7.31182 11.4831 7.24097 11.5085 7.16426C11.5339 7.08755 11.5438 7.00653 11.5374 6.92597C11.5311 6.84541 11.5087 6.76693 11.4715 6.69515C11.4344 6.62337 11.3833 6.55974 11.3212 6.508C11.2591 6.45627 11.1873 6.41747 11.11 6.3939C11.0327 6.37032 10.9515 6.36244 10.8711 6.37072C10.7907 6.37901 10.7128 6.40328 10.6419 6.44212C10.5711 6.48096 10.5087 6.53358 10.4585 6.59689L7.8524 9.72356L6.50392 8.37446C6.38961 8.26407 6.23652 8.20298 6.07761 8.20436C5.91871 8.20574 5.7667 8.26948 5.65433 8.38185C5.54196 8.49422 5.47822 8.64622 5.47684 8.80513C5.47546 8.96404 5.53655 9.11713 5.64695 9.23143L7.46513 11.0496C7.52468 11.1091 7.59597 11.1556 7.67447 11.186C7.75297 11.2164 7.83695 11.2302 7.92105 11.2264C8.00515 11.2226 8.08754 11.2013 8.16295 11.1638C8.23837 11.1264 8.30516 11.0737 8.35907 11.009L11.3894 7.37265Z" fill="#2DB517"/>
</svg>
