<svg width="17" height="17" viewBox="0 0 17 17" fill="none" xmlns="http://www.w3.org/2000/svg">
<path fill-rule="evenodd" clip-rule="evenodd" d="M8.49967 1.83337C4.81786 1.83337 1.83301 4.81822 1.83301 8.50004C1.83301 12.1819 4.81786 15.1667 8.49967 15.1667C12.1815 15.1667 15.1663 12.1819 15.1663 8.50004C15.1663 4.81822 12.1815 1.83337 8.49967 1.83337ZM11.3894 7.37277C11.4426 7.31195 11.4831 7.2411 11.5085 7.16439C11.5339 7.08768 11.5438 7.00666 11.5374 6.92609C11.5311 6.84553 11.5087 6.76705 11.4715 6.69527C11.4344 6.62349 11.3833 6.55986 11.3212 6.50813C11.2591 6.45639 11.1873 6.41759 11.11 6.39402C11.0327 6.37044 10.9515 6.36256 10.8711 6.37085C10.7907 6.37913 10.7128 6.4034 10.6419 6.44224C10.5711 6.48108 10.5087 6.5337 10.4585 6.59701L7.8524 9.72368L6.50392 8.37459C6.38961 8.26419 6.23652 8.2031 6.07761 8.20448C5.91871 8.20586 5.7667 8.2696 5.65433 8.38197C5.54196 8.49434 5.47822 8.64635 5.47684 8.80525C5.47546 8.96416 5.53655 9.11725 5.64695 9.23156L7.46513 11.0497C7.52468 11.1093 7.59597 11.1557 7.67447 11.1861C7.75297 11.2166 7.83695 11.2303 7.92105 11.2265C8.00515 11.2227 8.08754 11.2014 8.16295 11.1639C8.23837 11.1265 8.30516 11.0738 8.35907 11.0091L11.3894 7.37277Z" fill="white" fill-opacity="0.6"/>
</svg>
