<svg width="25" height="24" viewBox="0 0 25 24" fill="none" xmlns="http://www.w3.org/2000/svg">
<rect x="0.5" width="24" height="24" rx="4" fill="#6B7AFF"/>
<path d="M18.7377 6.58571C17.5902 6.08393 16.3602 5.71304 15.074 5.50215C15.0626 5.50001 15.0507 5.50139 15.0401 5.50608C15.0295 5.51077 15.0206 5.51854 15.0148 5.52833C14.8573 5.79667 14.6818 6.14647 14.5588 6.42281C13.1947 6.22518 11.8078 6.22518 10.4437 6.42281C10.3067 6.11655 10.1522 5.81792 9.98092 5.52833C9.97512 5.51842 9.96634 5.51047 9.95575 5.50553C9.94516 5.5006 9.93328 5.49891 9.92167 5.50069C8.63621 5.71159 7.40625 6.08247 6.25803 6.58498C6.24815 6.589 6.23978 6.59585 6.23403 6.60462C3.9001 9.93167 3.26037 13.1766 3.57461 16.3807C3.57548 16.3886 3.57799 16.3961 3.58199 16.403C3.58599 16.4099 3.59139 16.4159 3.59786 16.4207C4.96011 17.3824 6.47953 18.115 8.09248 18.5878C8.10372 18.5912 8.11575 18.5912 8.12699 18.5878C8.13823 18.5844 8.14815 18.5779 8.15548 18.5689C8.50256 18.1188 8.81013 17.6413 9.07495 17.1414C9.07862 17.1345 9.08074 17.127 9.08116 17.1193C9.08158 17.1116 9.08029 17.1039 9.07737 17.0968C9.07445 17.0896 9.06998 17.0831 9.06426 17.0778C9.05854 17.0724 9.0517 17.0683 9.0442 17.0657C8.55972 16.8888 8.09029 16.6753 7.64024 16.4272C7.63215 16.4228 7.62534 16.4164 7.62041 16.4088C7.61548 16.4011 7.61259 16.3924 7.61199 16.3834C7.6114 16.3744 7.61312 16.3653 7.617 16.3571C7.62088 16.3489 7.62681 16.3418 7.63424 16.3363C7.72874 16.2687 7.82324 16.1982 7.91323 16.1276C7.92133 16.1213 7.93109 16.1172 7.94142 16.116C7.95175 16.1147 7.96224 16.1162 7.97173 16.1204C10.9169 17.4032 14.1066 17.4032 17.0172 16.1204C17.0267 16.116 17.0373 16.1142 17.0478 16.1154C17.0583 16.1165 17.0682 16.1205 17.0765 16.1269C17.1665 16.1982 17.2602 16.2687 17.3555 16.3363C17.363 16.3417 17.369 16.3487 17.373 16.3569C17.377 16.365 17.3789 16.374 17.3784 16.383C17.378 16.392 17.3752 16.4007 17.3704 16.4085C17.3656 16.4162 17.359 16.4226 17.351 16.4272C16.9025 16.6774 16.436 16.889 15.9462 17.065C15.9387 17.0677 15.9319 17.0718 15.9262 17.0773C15.9204 17.0827 15.916 17.0892 15.913 17.0965C15.9101 17.1037 15.9089 17.1114 15.9093 17.1192C15.9097 17.1269 15.9118 17.1345 15.9155 17.1414C16.1855 17.641 16.4945 18.1166 16.8342 18.5682C16.8413 18.5775 16.8511 18.5844 16.8624 18.588C16.8737 18.5917 16.8858 18.5919 16.8972 18.5886C18.5129 18.1171 20.0348 17.3841 21.3986 16.4207C21.4052 16.4162 21.4108 16.4104 21.415 16.4036C21.4191 16.3968 21.4217 16.3893 21.4226 16.3814C21.7976 12.6769 20.7941 9.45825 18.7609 6.60607C18.7559 6.5968 18.7477 6.58958 18.7377 6.58571ZM9.51519 14.4296C8.62871 14.4296 7.89748 13.6522 7.89748 12.6988C7.89748 11.7446 8.61446 10.968 9.51519 10.968C10.4227 10.968 11.1471 11.7512 11.1329 12.6988C11.1329 13.6529 10.4159 14.4296 9.51519 14.4296ZM15.4963 14.4296C14.609 14.4296 13.8786 13.6522 13.8786 12.6988C13.8786 11.7446 14.5948 10.968 15.4963 10.968C16.4037 10.968 17.1282 11.7512 17.114 12.6988C17.114 13.6529 16.4045 14.4296 15.4963 14.4296Z" fill="#F8F8F8"/>
</svg>
