<svg width="25" height="24" viewBox="0 0 25 24" fill="none" xmlns="http://www.w3.org/2000/svg">
<path d="M13.2028 17.6488C13.2028 14.5487 15.7222 12.0292 18.8223 12.0292C19.8526 12.0292 20.8079 12.3102 21.6321 12.7879V5.47315C21.6321 4.97635 21.4347 4.4999 21.0835 4.14861C20.7322 3.79733 20.2557 3.59998 19.7589 3.59998H4.77356C3.73395 3.59998 2.90039 4.43354 2.90039 5.47315V16.7122C2.90039 17.209 3.09774 17.6854 3.44903 18.0367C3.80032 18.388 4.27677 18.5853 4.77356 18.5853H13.2871C13.2403 18.2763 13.2028 17.9672 13.2028 17.6488ZM4.77356 7.34632V5.47315L12.2662 10.1561L19.7589 5.47315V7.34632L12.2662 12.0292L4.77356 7.34632ZM17.6516 20.6084L15.076 17.7986L16.1624 16.7122L17.6516 18.2013L21.014 14.839L22.1004 16.1596L17.6516 20.6084Z" fill="#9F9BAB"/>
</svg>
