<svg width="25" height="25" viewBox="0 0 25 25" fill="none" xmlns="http://www.w3.org/2000/svg">
<path d="M12.9575 17.8143C12.9575 14.788 15.417 12.3286 18.4432 12.3286C19.449 12.3286 20.3815 12.6029 21.1861 13.0691V5.92858C21.1861 5.44361 20.9935 4.97851 20.6505 4.63558C20.3076 4.29266 19.8425 4.10001 19.3575 4.10001H4.72896C3.7141 4.10001 2.90039 4.91372 2.90039 5.92858V16.9C2.90039 17.385 3.09304 17.8501 3.43597 18.193C3.77889 18.5359 4.24399 18.7286 4.72896 18.7286H13.0398C12.9941 18.4269 12.9575 18.1251 12.9575 17.8143ZM4.72896 7.75715V5.92858L12.0432 10.5L19.3575 5.92858V7.75715L12.0432 12.3286L4.72896 7.75715ZM19.3575 20.5571V18.7286H15.7004V16.9H19.3575V15.0714L22.1004 17.8143L19.3575 20.5571Z" fill="#9F9BAB"/>
</svg>
