<svg width="25" height="24" viewBox="0 0 25 24" fill="none" xmlns="http://www.w3.org/2000/svg">
<path d="M20.1799 8.64005L12.4999 13.44L4.8199 8.64005V6.72005L12.4999 11.52L20.1799 6.72005M20.1799 4.80005H4.8199C3.7543 4.80005 2.8999 5.65445 2.8999 6.72005V18.24C2.8999 18.7493 3.10219 19.2376 3.46226 19.5977C3.82233 19.9578 4.31069 20.16 4.8199 20.16H20.1799C20.6891 20.16 21.1775 19.9578 21.5375 19.5977C21.8976 19.2376 22.0999 18.7493 22.0999 18.24V6.72005C22.0999 6.21083 21.8976 5.72247 21.5375 5.3624C21.1775 5.00233 20.6891 4.80005 20.1799 4.80005Z" fill="#9F9BAB"/>
</svg>
