<svg width="17" height="17" viewBox="0 0 17 17" fill="none" xmlns="http://www.w3.org/2000/svg">
<path d="M8.49967 15.1668C10.2678 15.1668 11.9635 14.4645 13.2137 13.2142C14.464 11.964 15.1663 10.2683 15.1663 8.50016C15.1663 6.73205 14.464 5.03636 13.2137 3.78612C11.9635 2.53588 10.2678 1.8335 8.49967 1.8335C6.73156 1.8335 5.03587 2.53588 3.78563 3.78612C2.53539 5.03636 1.83301 6.73205 1.83301 8.50016C1.83301 10.2683 2.53539 11.964 3.78563 13.2142C5.03587 14.4645 6.73156 15.1668 8.49967 15.1668ZM7.49967 11.5002C7.49967 11.2349 7.60503 10.9806 7.79257 10.7931C7.9801 10.6055 8.23446 10.5002 8.49967 10.5002C8.76489 10.5002 9.01925 10.6055 9.20678 10.7931C9.39432 10.9806 9.49967 11.2349 9.49967 11.5002C9.49967 11.7654 9.39432 12.0197 9.20678 12.2073C9.01925 12.3948 8.76489 12.5002 8.49967 12.5002C8.23446 12.5002 7.9801 12.3948 7.79257 12.2073C7.60503 12.0197 7.49967 11.7654 7.49967 11.5002ZM7.84367 5.04683C7.87151 4.89312 7.95243 4.75406 8.07232 4.65393C8.19222 4.5538 8.34347 4.49894 8.49967 4.49894C8.65588 4.49894 8.80713 4.5538 8.92703 4.65393C9.04692 4.75406 9.12784 4.89312 9.15567 5.04683L9.16634 5.16683V8.50016L9.15567 8.62016C9.12784 8.77387 9.04692 8.91293 8.92703 9.01306C8.80713 9.1132 8.65588 9.16805 8.49967 9.16805C8.34347 9.16805 8.19222 9.1132 8.07232 9.01306C7.95243 8.91293 7.87151 8.77387 7.84367 8.62016L7.83301 8.50016V5.16683L7.84367 5.04683Z" fill="#FE5252"/>
</svg>
