<svg width="25" height="24" viewBox="0 0 25 24" fill="none" xmlns="http://www.w3.org/2000/svg">
<rect x="0.5" width="24" height="24" rx="4" fill="#6B7AFF"/>
<path d="M21.5 12.0521C21.5 7.32877 17.6946 3.5 13.0011 3.5C8.3054 3.50106 4.5 7.32877 4.5 12.0531C4.5 16.3207 7.60849 19.8583 11.671 20.5V14.5242H9.51437V12.0531H11.6731V10.1674C11.6731 8.02462 12.9426 6.84115 14.8836 6.84115C15.8142 6.84115 16.7863 7.00794 16.7863 7.00794V9.11142H15.7143C14.6594 9.11142 14.3301 9.77115 14.3301 10.4479V12.0521H16.6864L16.3103 14.5231H14.329V20.4989C18.3915 19.8573 21.5 16.3196 21.5 12.0521Z" fill="#F8F8F8"/>
</svg>
