<svg width="25" height="24" viewBox="0 0 25 24" fill="none" xmlns="http://www.w3.org/2000/svg">
<rect x="0.5" width="24" height="24" rx="4" fill="#6B7AFF"/>
<path d="M20.3424 10.4998C20.4444 11.0354 20.5 11.5953 20.5 12.1796C20.5 16.7501 17.3785 20 12.6638 20C11.5916 20.0003 10.5299 19.7936 9.53926 19.3917C8.54863 18.9898 7.64853 18.4005 6.89039 17.6576C6.13225 16.9146 5.53092 16.0326 5.12077 15.0618C4.71061 14.0911 4.49967 13.0507 4.5 12C4.49967 10.9493 4.71061 9.9089 5.12077 8.93815C5.53092 7.9674 6.13225 7.08536 6.89039 6.34243C7.64853 5.5995 8.54863 5.01024 9.53926 4.60831C10.5299 4.20639 11.5916 3.99968 12.6638 4C14.8681 4 16.71 4.7948 18.1232 6.08533L15.8218 8.34051V8.33482C14.9651 7.53515 13.8779 7.12475 12.6638 7.12475C9.97017 7.12475 7.78078 9.35473 7.78078 11.9951C7.78078 14.6347 9.97017 16.8696 12.6638 16.8696C15.1078 16.8696 16.7714 15.5002 17.1131 13.6197H12.6638V10.4998H20.3433H20.3424Z" fill="#F8F8F8"/>
</svg>
