<svg width="25" height="24" viewBox="0 0 25 24" fill="none" xmlns="http://www.w3.org/2000/svg">
<path d="M12.5 2C9.743 2 7.5 4.243 7.5 7V10H6.5C5.96957 10 5.46086 10.2107 5.08579 10.5858C4.71071 10.9609 4.5 11.4696 4.5 12V20C4.5 20.5304 4.71071 21.0391 5.08579 21.4142C5.46086 21.7893 5.96957 22 6.5 22H18.5C19.0304 22 19.5391 21.7893 19.9142 21.4142C20.2893 21.0391 20.5 20.5304 20.5 20V12C20.5 11.4696 20.2893 10.9609 19.9142 10.5858C19.5391 10.2107 19.0304 10 18.5 10H17.5V7C17.5 4.243 15.257 2 12.5 2ZM9.5 7C9.5 5.346 10.846 4 12.5 4C14.154 4 15.5 5.346 15.5 7V10H9.5V7ZM13.5 17.723V20H11.5V17.723C11.1504 17.5228 10.8697 17.2213 10.6948 16.8584C10.52 16.4954 10.4593 16.0879 10.5207 15.6898C10.5821 15.2916 10.7627 14.9214 11.0388 14.6279C11.3148 14.3345 11.6733 14.1316 12.067 14.046C12.3594 13.9813 12.6626 13.9832 12.9542 14.0513C13.2459 14.1194 13.5185 14.2521 13.752 14.4397C13.9855 14.6272 14.1739 14.8647 14.3034 15.1348C14.4328 15.4049 14.5 15.7005 14.5 16C14.4994 16.3497 14.4067 16.6932 14.2311 16.9956C14.0556 17.2981 13.8034 17.549 13.5 17.723Z" fill="#9F9BAB"/>
</svg>
