<svg width="25" height="24" viewBox="0 0 25 24" fill="none" xmlns="http://www.w3.org/2000/svg">
<rect x="0.5" width="24" height="24" rx="4" fill="#6B7AFF"/>
<path d="M21.5 12C21.5 16.9718 17.4645 21 12.4855 21C8.35565 21 4.87903 18.231 3.8121 14.4532L7.26694 15.8794C7.49919 17.0444 8.53347 17.9262 9.76734 17.9262C11.1899 17.9262 12.3766 16.7504 12.3149 15.2589L15.3815 13.0742C17.2722 13.1214 18.8581 11.5899 18.8581 9.68105C18.8581 7.80847 17.3339 6.2879 15.4577 6.2879C13.5815 6.2879 12.0573 7.8121 12.0573 9.68105V9.7246L9.90887 12.8347C9.34637 12.802 8.79476 12.9581 8.33024 13.2738L3.5 11.2778C3.87016 6.64355 7.7496 3 12.4855 3C17.4645 3 21.5 7.02823 21.5 12ZM9.1504 16.656L8.04355 16.1988C8.24695 16.6211 8.59814 16.9543 9.03064 17.1351C10.0069 17.5415 11.1282 17.077 11.5347 16.1044C11.7306 15.6327 11.7343 15.1137 11.5383 14.6419C11.3423 14.1702 10.9758 13.8 10.504 13.604C10.0359 13.4081 9.53508 13.4153 9.09234 13.5823L10.2355 14.054C10.954 14.3516 11.2952 15.1754 10.994 15.894C10.6927 16.6161 9.86895 16.9536 9.1504 16.656ZM15.4577 11.9419C14.2093 11.9419 13.1931 10.9258 13.1931 9.68105C13.1931 8.43629 14.2093 7.42016 15.4577 7.42016C16.706 7.42016 17.7222 8.43629 17.7222 9.68105C17.7222 10.9258 16.7097 11.9419 15.4577 11.9419ZM15.4613 11.3758C16.4012 11.3758 17.1633 10.6137 17.1633 9.67742C17.1633 8.7375 16.4012 7.97903 15.4613 7.97903C14.5214 7.97903 13.7593 8.74113 13.7593 9.67742C13.7629 10.6137 14.525 11.3758 15.4613 11.3758Z" fill="#F8F8F8"/>
</svg>
