<svg width="25" height="24" viewBox="0 0 25 24" fill="none" xmlns="http://www.w3.org/2000/svg">
<rect x="0.5" width="24" height="24" rx="4" fill="#6B7AFF"/>
<path d="M19.5 10.3815C18.0255 10.3852 16.5872 9.90241 15.3882 9.00129V15.286C15.3878 16.45 15.0489 17.5861 14.417 18.5425C13.785 19.4988 12.89 20.2298 11.8517 20.6376C10.8133 21.0455 9.68116 21.1108 8.60653 20.8248C7.5319 20.5388 6.56604 19.9152 5.83809 19.0373C5.11015 18.1594 4.65481 17.069 4.53298 15.9121C4.41115 14.7551 4.62862 13.5867 5.15632 12.563C5.68402 11.5394 6.49679 10.7092 7.48596 10.1837C8.47512 9.65809 9.59353 9.46212 10.6916 9.62195V12.7829C10.1891 12.617 9.64956 12.622 9.14993 12.7972C8.6503 12.9725 8.21618 13.309 7.90957 13.7587C7.60296 14.2085 7.43954 14.7484 7.44264 15.3015C7.44574 15.8546 7.61521 16.3925 7.92685 16.8384C8.23848 17.2843 8.67634 17.6155 9.1779 17.7845C9.67946 17.9536 10.2191 17.9519 10.7197 17.7797C11.2203 17.6076 11.6563 17.2737 11.9654 16.8259C12.2745 16.378 12.4409 15.8391 12.4409 15.286V3H15.3882C15.3862 3.26133 15.407 3.5223 15.4505 3.77961C15.5529 4.35403 15.7659 4.90047 16.0763 5.38551C16.3868 5.87055 16.7882 6.284 17.256 6.60056C17.9217 7.06266 18.702 7.30896 19.5 7.30879V10.3815Z" fill="#F8F8F8"/>
</svg>
