<svg width="25" height="24" viewBox="0 0 25 24" fill="none" xmlns="http://www.w3.org/2000/svg">
<path d="M12.5 1C6.5369 1 1.5 6.0369 1.5 12C1.5 17.9631 6.5369 23 12.5 23C18.4631 23 23.5 17.9631 23.5 12C23.5 6.0369 18.4631 1 12.5 1ZM12.5 6.5C14.3997 6.5 15.8 7.8992 15.8 9.8C15.8 11.7008 14.3997 13.1 12.5 13.1C10.6014 13.1 9.2 11.7008 9.2 9.8C9.2 7.8992 10.6014 6.5 12.5 6.5ZM6.8834 17.2492C7.8701 15.7972 9.5157 14.8292 11.4 14.8292H13.6C15.4854 14.8292 17.1299 15.7972 18.1166 17.2492C16.7108 18.754 14.7165 19.7 12.5 19.7C10.2835 19.7 8.2892 18.754 6.8834 17.2492Z" fill="#9F9BAB"/>
</svg>
